<?xml version="1.0" encoding="UTF-8" standalone="no"?>
<!DOCTYPE svg PUBLIC "-//W3C//DTD SVG 1.1//EN"
 "http://www.w3.org/Graphics/SVG/1.1/DTD/svg11.dtd">
<!-- Generated by graphviz version 10.0.1 (0)
 -->
<!-- Pages: 1 -->
<svg width="1352pt" height="530pt"
 viewBox="0.00 0.00 1352.23 530.00" xmlns="http://www.w3.org/2000/svg" xmlns:xlink="http://www.w3.org/1999/xlink">
<g id="graph0" class="graph" transform="scale(1 1) rotate(0) translate(4 526)">
<polygon fill="white" stroke="none" points="-4,4 -4,-526 1348.23,-526 1348.23,4 -4,4"/>
<!-- PT_SELECT_0x56150067b770 -->
<g id="node1" class="node">
<title>PT_SELECT_0x56150067b770</title>
<ellipse fill="none" stroke="black" cx="70.67" cy="-234" rx="70.67" ry="18"/>
<text text-anchor="middle" x="70.67" y="-229.32" font-family="Times,serif" font-size="14.00">PT_SELECT</text>
</g>
<!-- PT_NAME_0x56150067bb20 -->
<g id="node2" class="node">
<title>PT_NAME_0x56150067bb20</title>
<ellipse fill="none" stroke="black" cx="304.32" cy="-436" rx="126.97" ry="18"/>
<text text-anchor="middle" x="304.32" y="-431.32" font-family="Times,serif" font-size="14.00">PT_NAME [ host_year ]</text>
</g>
<!-- PT_SELECT_0x56150067b770&#45;&gt;PT_NAME_0x56150067bb20 -->
<g id="edge1" class="edge">
<title>PT_SELECT_0x56150067b770&#45;&gt;PT_NAME_0x56150067bb20</title>
<path fill="none" stroke="black" d="M87.37,-251.66C107.36,-273.75 143.39,-312.29 177.35,-342 206.31,-367.33 241.57,-393.27 267.42,-411.47"/>
<polygon fill="black" stroke="black" points="265.39,-414.32 275.59,-417.18 269.4,-408.58 265.39,-414.32"/>
</g>
<!-- PT_SPEC_0x56150067c630 -->
<g id="node5" class="node">
<title>PT_SPEC_0x56150067c630</title>
<ellipse fill="none" stroke="black" cx="304.32" cy="-315" rx="57.52" ry="18"/>
<text text-anchor="middle" x="304.32" y="-310.32" font-family="Times,serif" font-size="14.00">PT_SPEC</text>
</g>
<!-- PT_SELECT_0x56150067b770&#45;&gt;PT_SPEC_0x56150067c630 -->
<g id="edge4" class="edge">
<title>PT_SELECT_0x56150067b770&#45;&gt;PT_SPEC_0x56150067c630</title>
<path fill="none" stroke="black" d="M113.62,-248.67C153.12,-262.48 212.28,-283.17 254.01,-297.76"/>
<polygon fill="black" stroke="black" points="252.73,-301.02 263.33,-301.02 255.05,-294.41 252.73,-301.02"/>
</g>
<!-- PT_EXPR_0x56150067e3b0 -->
<g id="node17" class="node">
<title>PT_EXPR_0x56150067e3b0</title>
<ellipse fill="none" stroke="black" cx="304.32" cy="-180" rx="57.52" ry="18"/>
<text text-anchor="middle" x="304.32" y="-175.32" font-family="Times,serif" font-size="14.00">PT_EXPR</text>
</g>
<!-- PT_SELECT_0x56150067b770&#45;&gt;PT_EXPR_0x56150067e3b0 -->
<g id="edge16" class="edge">
<title>PT_SELECT_0x56150067b770&#45;&gt;PT_EXPR_0x56150067e3b0</title>
<path fill="none" stroke="black" d="M123.95,-221.81C160.5,-213.29 209.29,-201.92 246.76,-193.18"/>
<polygon fill="black" stroke="black" points="247.08,-196.7 256.03,-191.02 245.49,-189.89 247.08,-196.7"/>
</g>
<!-- PT_NODE_POINTER_0x56150067e1d8 -->
<g id="node24" class="node">
<title>PT_NODE_POINTER_0x56150067e1d8</title>
<ellipse fill="none" stroke="black" cx="304.32" cy="-126" rx="113.29" ry="18"/>
<text text-anchor="middle" x="304.32" y="-121.33" font-family="Times,serif" font-size="14.00">PT_NODE_POINTER</text>
</g>
<!-- PT_SELECT_0x56150067b770&#45;&gt;PT_NODE_POINTER_0x56150067e1d8 -->
<g id="edge23" class="edge">
<title>PT_SELECT_0x56150067b770&#45;&gt;PT_NODE_POINTER_0x56150067e1d8</title>
<path fill="none" stroke="black" d="M89.47,-216.29C109.24,-197.66 142.93,-168.89 177.35,-153 187.32,-148.39 198.11,-144.56 209.03,-141.38"/>
<polygon fill="black" stroke="black" points="209.77,-144.8 218.5,-138.8 207.93,-138.05 209.77,-144.8"/>
</g>
<!-- PT_NAME_0x56150067c0a8 -->
<g id="node3" class="node">
<title>PT_NAME_0x56150067c0a8</title>
<ellipse fill="none" stroke="black" cx="603.72" cy="-504" rx="136.44" ry="18"/>
<text text-anchor="middle" x="603.72" y="-499.32" font-family="Times,serif" font-size="14.00">PT_NAME [ host_nation ]</text>
</g>
<!-- PT_NAME_0x56150067bb20&#45;&gt;PT_NAME_0x56150067c0a8 -->
<g id="edge2" class="edge">
<title>PT_NAME_0x56150067bb20&#45;&gt;PT_NAME_0x56150067c0a8</title>
<path fill="none" stroke="black" d="M365.9,-452.12C396.25,-459.99 433.62,-469.39 467.28,-477 482.06,-480.34 497.78,-483.68 513.1,-486.81"/>
<polygon fill="black" stroke="black" points="512.18,-490.19 522.67,-488.74 513.57,-483.33 512.18,-490.19"/>
</g>
<!-- PT_DATA_TYPE_0x56150067b948 -->
<g id="node4" class="node">
<title>PT_DATA_TYPE_0x56150067b948</title>
<ellipse fill="none" stroke="black" cx="915.23" cy="-504" rx="87.51" ry="18"/>
<text text-anchor="middle" x="915.23" y="-499.32" font-family="Times,serif" font-size="14.00">PT_DATA_TYPE</text>
</g>
<!-- PT_NAME_0x56150067c0a8&#45;&gt;PT_DATA_TYPE_0x56150067b948 -->
<g id="edge3" class="edge">
<title>PT_NAME_0x56150067c0a8&#45;&gt;PT_DATA_TYPE_0x56150067b948</title>
<path fill="none" stroke="black" d="M740.48,-504C766,-504 792.21,-504 816.3,-504"/>
<polygon fill="black" stroke="black" points="816.06,-507.5 826.06,-504 816.06,-500.5 816.06,-507.5"/>
</g>
<!-- PT_NAME_0x56150067c458 -->
<g id="node6" class="node">
<title>PT_NAME_0x56150067c458</title>
<ellipse fill="none" stroke="black" cx="603.72" cy="-450" rx="135.39" ry="18"/>
<text text-anchor="middle" x="603.72" y="-445.32" font-family="Times,serif" font-size="14.00">PT_NAME [ dba.history ]</text>
</g>
<!-- PT_SPEC_0x56150067c630&#45;&gt;PT_NAME_0x56150067c458 -->
<g id="edge5" class="edge">
<title>PT_SPEC_0x56150067c630&#45;&gt;PT_NAME_0x56150067c458</title>
<path fill="none" stroke="black" d="M325.29,-332.15C354.47,-356.28 411.39,-399.86 467.28,-423 477.42,-427.2 488.26,-430.75 499.22,-433.77"/>
<polygon fill="black" stroke="black" points="498.19,-437.11 508.75,-436.23 499.94,-430.34 498.19,-437.11"/>
</g>
<!-- PT_NAME_0x56150067c808 -->
<g id="node7" class="node">
<title>PT_NAME_0x56150067c808</title>
<ellipse fill="none" stroke="black" cx="603.72" cy="-396" rx="84.88" ry="18"/>
<text text-anchor="middle" x="603.72" y="-391.32" font-family="Times,serif" font-size="14.00">PT_NAME [ h ]</text>
</g>
<!-- PT_SPEC_0x56150067c630&#45;&gt;PT_NAME_0x56150067c808 -->
<g id="edge6" class="edge">
<title>PT_SPEC_0x56150067c630&#45;&gt;PT_NAME_0x56150067c808</title>
<path fill="none" stroke="black" d="M342.55,-328.89C375.12,-340.69 423.88,-357.49 467.28,-369 486.08,-373.98 506.55,-378.52 525.76,-382.39"/>
<polygon fill="black" stroke="black" points="524.92,-385.79 535.41,-384.3 526.28,-378.93 524.92,-385.79"/>
</g>
<!-- PT_NAME_0x56150067dc50 -->
<g id="node8" class="node">
<title>PT_NAME_0x56150067dc50</title>
<ellipse fill="none" stroke="black" cx="603.72" cy="-342" rx="126.97" ry="18"/>
<text text-anchor="middle" x="603.72" y="-337.32" font-family="Times,serif" font-size="14.00">PT_NAME [ host_year ]</text>
</g>
<!-- PT_SPEC_0x56150067c630&#45;&gt;PT_NAME_0x56150067dc50 -->
<g id="edge7" class="edge">
<title>PT_SPEC_0x56150067c630&#45;&gt;PT_NAME_0x56150067dc50</title>
<path fill="none" stroke="black" d="M359.86,-319.95C394.65,-323.11 441.12,-327.33 484.1,-331.23"/>
<polygon fill="black" stroke="black" points="483.74,-334.71 494.01,-332.13 484.37,-327.74 483.74,-334.71"/>
</g>
<!-- PT_NAME_0x56150067e588 -->
<g id="node9" class="node">
<title>PT_NAME_0x56150067e588</title>
<ellipse fill="none" stroke="black" cx="603.72" cy="-288" rx="135.39" ry="18"/>
<text text-anchor="middle" x="603.72" y="-283.32" font-family="Times,serif" font-size="14.00">PT_NAME [ dba.history ]</text>
</g>
<!-- PT_SPEC_0x56150067c630&#45;&gt;PT_NAME_0x56150067e588 -->
<g id="edge8" class="edge">
<title>PT_SPEC_0x56150067c630&#45;&gt;PT_NAME_0x56150067e588</title>
<path fill="none" stroke="black" d="M359.86,-310.05C393.35,-307.01 437.66,-302.99 479.25,-299.21"/>
<polygon fill="black" stroke="black" points="479.47,-302.7 489.11,-298.31 478.83,-295.73 479.47,-302.7"/>
</g>
<!-- PT_SPEC_0x56150067cbb8 -->
<g id="node10" class="node">
<title>PT_SPEC_0x56150067cbb8</title>
<ellipse fill="none" stroke="black" cx="603.72" cy="-234" rx="57.52" ry="18"/>
<text text-anchor="middle" x="603.72" y="-229.32" font-family="Times,serif" font-size="14.00">PT_SPEC</text>
</g>
<!-- PT_SPEC_0x56150067c630&#45;&gt;PT_SPEC_0x56150067cbb8 -->
<g id="edge9" class="edge">
<title>PT_SPEC_0x56150067c630&#45;&gt;PT_SPEC_0x56150067cbb8</title>
<path fill="none" stroke="black" d="M342.55,-301.11C375.12,-289.31 423.88,-272.51 467.28,-261 491.28,-254.63 518.03,-249 541.37,-244.55"/>
<polygon fill="black" stroke="black" points="541.86,-248.02 551.04,-242.74 540.57,-241.14 541.86,-248.02"/>
</g>
<!-- PT_NAME_0x56150067c9e0 -->
<g id="node11" class="node">
<title>PT_NAME_0x56150067c9e0</title>
<ellipse fill="none" stroke="black" cx="915.23" cy="-342" rx="139.07" ry="18"/>
<text text-anchor="middle" x="915.23" y="-337.32" font-family="Times,serif" font-size="14.00">PT_NAME [ dba.olympic ]</text>
</g>
<!-- PT_SPEC_0x56150067cbb8&#45;&gt;PT_NAME_0x56150067c9e0 -->
<g id="edge10" class="edge">
<title>PT_SPEC_0x56150067cbb8&#45;&gt;PT_NAME_0x56150067c9e0</title>
<path fill="none" stroke="black" d="M661.53,-235.55C687.33,-238.6 717.15,-245.6 740.16,-261 764.13,-277.04 752.16,-299 776.16,-315 782.72,-319.37 789.82,-323.07 797.23,-326.2"/>
<polygon fill="black" stroke="black" points="795.86,-329.43 806.45,-329.71 798.35,-322.88 795.86,-329.43"/>
</g>
<!-- PT_NAME_0x56150067cd90 -->
<g id="node12" class="node">
<title>PT_NAME_0x56150067cd90</title>
<ellipse fill="none" stroke="black" cx="915.23" cy="-288" rx="84.35" ry="18"/>
<text text-anchor="middle" x="915.23" y="-283.32" font-family="Times,serif" font-size="14.00">PT_NAME [ o ]</text>
</g>
<!-- PT_SPEC_0x56150067cbb8&#45;&gt;PT_NAME_0x56150067cd90 -->
<g id="edge11" class="edge">
<title>PT_SPEC_0x56150067cbb8&#45;&gt;PT_NAME_0x56150067cd90</title>
<path fill="none" stroke="black" d="M654.79,-242.74C704.28,-251.37 780.64,-264.69 837.72,-274.65"/>
<polygon fill="black" stroke="black" points="836.92,-278.07 847.38,-276.34 838.13,-271.17 836.92,-278.07"/>
</g>
<!-- PT_NAME_0x56150067d318 -->
<g id="node13" class="node">
<title>PT_NAME_0x56150067d318</title>
<ellipse fill="none" stroke="black" cx="915.23" cy="-234" rx="136.44" ry="18"/>
<text text-anchor="middle" x="915.23" y="-229.32" font-family="Times,serif" font-size="14.00">PT_NAME [ host_nation ]</text>
</g>
<!-- PT_SPEC_0x56150067cbb8&#45;&gt;PT_NAME_0x56150067d318 -->
<g id="edge12" class="edge">
<title>PT_SPEC_0x56150067cbb8&#45;&gt;PT_NAME_0x56150067d318</title>
<path fill="none" stroke="black" d="M661.49,-234C691.43,-234 729.68,-234 767.32,-234"/>
<polygon fill="black" stroke="black" points="766.92,-237.5 776.92,-234 766.92,-230.5 766.92,-237.5"/>
</g>
<!-- PT_NAME_0x56150067e760 -->
<g id="node16" class="node">
<title>PT_NAME_0x56150067e760</title>
<ellipse fill="none" stroke="black" cx="915.23" cy="-180" rx="139.07" ry="18"/>
<text text-anchor="middle" x="915.23" y="-175.32" font-family="Times,serif" font-size="14.00">PT_NAME [ dba.olympic ]</text>
</g>
<!-- PT_SPEC_0x56150067cbb8&#45;&gt;PT_NAME_0x56150067e760 -->
<g id="edge15" class="edge">
<title>PT_SPEC_0x56150067cbb8&#45;&gt;PT_NAME_0x56150067e760</title>
<path fill="none" stroke="black" d="M654.79,-225.26C699.13,-217.53 765.05,-206.03 819.34,-196.55"/>
<polygon fill="black" stroke="black" points="819.65,-200.05 828.9,-194.89 818.44,-193.16 819.65,-200.05"/>
</g>
<!-- PT_DATA_TYPE_0x56150067d4f0 -->
<g id="node14" class="node">
<title>PT_DATA_TYPE_0x56150067d4f0</title>
<ellipse fill="none" stroke="black" cx="1217.26" cy="-261" rx="87.51" ry="18"/>
<text text-anchor="middle" x="1217.26" y="-256.32" font-family="Times,serif" font-size="14.00">PT_DATA_TYPE</text>
</g>
<!-- PT_NAME_0x56150067d318&#45;&gt;PT_DATA_TYPE_0x56150067d4f0 -->
<g id="edge13" class="edge">
<title>PT_NAME_0x56150067d318&#45;&gt;PT_DATA_TYPE_0x56150067d4f0</title>
<path fill="none" stroke="black" d="M1029.23,-244.17C1060.9,-247.02 1094.92,-250.08 1125.14,-252.8"/>
<polygon fill="black" stroke="black" points="1124.75,-256.28 1135.02,-253.69 1125.37,-249.31 1124.75,-256.28"/>
</g>
<!-- PT_NAME_0x56150067c280 -->
<g id="node15" class="node">
<title>PT_NAME_0x56150067c280</title>
<ellipse fill="none" stroke="black" cx="1217.26" cy="-207" rx="126.97" ry="18"/>
<text text-anchor="middle" x="1217.26" y="-202.32" font-family="Times,serif" font-size="14.00">PT_NAME [ host_year ]</text>
</g>
<!-- PT_NAME_0x56150067d318&#45;&gt;PT_NAME_0x56150067c280 -->
<g id="edge14" class="edge">
<title>PT_NAME_0x56150067d318&#45;&gt;PT_NAME_0x56150067c280</title>
<path fill="none" stroke="black" d="M1029.23,-223.83C1051.54,-221.82 1075.02,-219.71 1097.51,-217.69"/>
<polygon fill="black" stroke="black" points="1097.67,-221.19 1107.31,-216.8 1097.04,-214.22 1097.67,-221.19"/>
</g>
<!-- PT_NAME_0x56150067de28 -->
<g id="node18" class="node">
<title>PT_NAME_0x56150067de28</title>
<ellipse fill="none" stroke="black" cx="603.72" cy="-180" rx="126.97" ry="18"/>
<text text-anchor="middle" x="603.72" y="-175.32" font-family="Times,serif" font-size="14.00">PT_NAME [ host_year ]</text>
</g>
<!-- PT_EXPR_0x56150067e3b0&#45;&gt;PT_NAME_0x56150067de28 -->
<g id="edge17" class="edge">
<title>PT_EXPR_0x56150067e3b0&#45;&gt;PT_NAME_0x56150067de28</title>
<path fill="none" stroke="black" d="M362.31,-180C391.65,-180 428.82,-180 465.1,-180"/>
<polygon fill="black" stroke="black" points="464.81,-183.5 474.81,-180 464.81,-176.5 464.81,-183.5"/>
</g>
<!-- PT_EXPR_0x56150067bcf8 -->
<g id="node19" class="node">
<title>PT_EXPR_0x56150067bcf8</title>
<ellipse fill="none" stroke="black" cx="603.72" cy="-126" rx="57.52" ry="18"/>
<text text-anchor="middle" x="603.72" y="-121.33" font-family="Times,serif" font-size="14.00">PT_EXPR</text>
</g>
<!-- PT_EXPR_0x56150067e3b0&#45;&gt;PT_EXPR_0x56150067bcf8 -->
<g id="edge18" class="edge">
<title>PT_EXPR_0x56150067e3b0&#45;&gt;PT_EXPR_0x56150067bcf8</title>
<path fill="none" stroke="black" d="M354.76,-171.02C406.22,-161.68 486.86,-147.04 542.12,-137"/>
<polygon fill="black" stroke="black" points="542.46,-140.5 551.67,-135.27 541.21,-133.61 542.46,-140.5"/>
</g>
<!-- PT_EXPR_0x56150067da78 -->
<g id="node21" class="node">
<title>PT_EXPR_0x56150067da78</title>
<ellipse fill="none" stroke="black" cx="603.72" cy="-72" rx="57.52" ry="18"/>
<text text-anchor="middle" x="603.72" y="-67.33" font-family="Times,serif" font-size="14.00">PT_EXPR</text>
</g>
<!-- PT_EXPR_0x56150067e3b0&#45;&gt;PT_EXPR_0x56150067da78 -->
<g id="edge20" class="edge">
<title>PT_EXPR_0x56150067e3b0&#45;&gt;PT_EXPR_0x56150067da78</title>
<path fill="none" stroke="black" d="M361.64,-177.17C384.82,-173.76 410.94,-166.83 431.28,-153 455.14,-136.79 443.31,-115.04 467.28,-99 486.97,-85.82 511.64,-78.8 534.51,-75.13"/>
<polygon fill="black" stroke="black" points="534.99,-78.6 544.41,-73.76 534.03,-71.67 534.99,-78.6"/>
</g>
<!-- PT_HOST_VAR_0x56150067bed0 -->
<g id="node20" class="node">
<title>PT_HOST_VAR_0x56150067bed0</title>
<ellipse fill="none" stroke="black" cx="915.23" cy="-126" rx="83.83" ry="18"/>
<text text-anchor="middle" x="915.23" y="-121.33" font-family="Times,serif" font-size="14.00">PT_HOST_VAR</text>
</g>
<!-- PT_EXPR_0x56150067bcf8&#45;&gt;PT_HOST_VAR_0x56150067bed0 -->
<g id="edge19" class="edge">
<title>PT_EXPR_0x56150067bcf8&#45;&gt;PT_HOST_VAR_0x56150067bed0</title>
<path fill="none" stroke="black" d="M661.49,-126C705.71,-126 768.07,-126 819.78,-126"/>
<polygon fill="black" stroke="black" points="819.47,-129.5 829.47,-126 819.47,-122.5 819.47,-129.5"/>
</g>
<!-- PT_NAME_0x56150067d140 -->
<g id="node22" class="node">
<title>PT_NAME_0x56150067d140</title>
<ellipse fill="none" stroke="black" cx="915.23" cy="-72" rx="126.97" ry="18"/>
<text text-anchor="middle" x="915.23" y="-67.33" font-family="Times,serif" font-size="14.00">PT_NAME [ host_year ]</text>
</g>
<!-- PT_EXPR_0x56150067da78&#45;&gt;PT_NAME_0x56150067d140 -->
<g id="edge21" class="edge">
<title>PT_EXPR_0x56150067da78&#45;&gt;PT_NAME_0x56150067d140</title>
<path fill="none" stroke="black" d="M661.49,-72C693.87,-72 735.98,-72 776.51,-72"/>
<polygon fill="black" stroke="black" points="776.37,-75.5 786.37,-72 776.37,-68.5 776.37,-75.5"/>
</g>
<!-- PT_NAME_0x56150067d6c8 -->
<g id="node23" class="node">
<title>PT_NAME_0x56150067d6c8</title>
<ellipse fill="none" stroke="black" cx="915.23" cy="-18" rx="126.97" ry="18"/>
<text text-anchor="middle" x="915.23" y="-13.32" font-family="Times,serif" font-size="14.00">PT_NAME [ host_year ]</text>
</g>
<!-- PT_EXPR_0x56150067da78&#45;&gt;PT_NAME_0x56150067d6c8 -->
<g id="edge22" class="edge">
<title>PT_EXPR_0x56150067da78&#45;&gt;PT_NAME_0x56150067d6c8</title>
<path fill="none" stroke="black" d="M654.79,-63.26C699.93,-55.39 767.43,-43.61 822.27,-34.04"/>
<polygon fill="black" stroke="black" points="822.67,-37.53 831.92,-32.36 821.47,-30.63 822.67,-37.53"/>
</g>
</g>
</svg>
