<?xml version="1.0" encoding="UTF-8" standalone="no"?>
<!DOCTYPE svg PUBLIC "-//W3C//DTD SVG 1.1//EN"
 "http://www.w3.org/Graphics/SVG/1.1/DTD/svg11.dtd">
<!-- Generated by graphviz version 10.0.1 (0)
 -->
<!-- Pages: 1 -->
<svg width="1352pt" height="460pt"
 viewBox="0.00 0.00 1352.23 460.00" xmlns="http://www.w3.org/2000/svg" xmlns:xlink="http://www.w3.org/1999/xlink">
<g id="graph0" class="graph" transform="scale(1 1) rotate(0) translate(4 456)">
<polygon fill="white" stroke="none" points="-4,4 -4,-456 1348.23,-456 1348.23,4 -4,4"/>
<!-- PT_SELECT_0x56150067b770 -->
<g id="node1" class="node">
<title>PT_SELECT_0x56150067b770</title>
<ellipse fill="none" stroke="black" cx="70.67" cy="-338" rx="70.67" ry="18"/>
<text text-anchor="middle" x="70.67" y="-333.32" font-family="Times,serif" font-size="14.00">PT_SELECT</text>
</g>
<!-- PT_EXPR_0x56150067da78 -->
<g id="node2" class="node">
<title>PT_EXPR_0x56150067da78</title>
<ellipse fill="none" stroke="black" cx="915.23" cy="-361" rx="57.52" ry="18"/>
<text text-anchor="middle" x="915.23" y="-356.32" font-family="Times,serif" font-size="14.00">PT_EXPR</text>
</g>
<!-- PT_SELECT_0x56150067b770&#45;&gt;PT_EXPR_0x56150067da78 -->
<g id="edge1" class="edge">
<title>PT_SELECT_0x56150067b770&#45;&gt;PT_EXPR_0x56150067da78</title>
<path fill="none" stroke="black" d="M136.69,-344.66C215,-352.33 350.6,-364.44 467.28,-369 588.47,-373.74 618.91,-371.78 740.16,-369 775.47,-368.19 814.77,-366.45 847.08,-364.81"/>
<polygon fill="black" stroke="black" points="846.88,-368.32 856.69,-364.31 846.52,-361.33 846.88,-368.32"/>
</g>
<!-- PT_NAME_0x56150067bb20 -->
<g id="node5" class="node">
<title>PT_NAME_0x56150067bb20</title>
<ellipse fill="none" stroke="black" cx="304.32" cy="-434" rx="126.97" ry="18"/>
<text text-anchor="middle" x="304.32" y="-429.32" font-family="Times,serif" font-size="14.00">PT_NAME [ host_year ]</text>
</g>
<!-- PT_SELECT_0x56150067b770&#45;&gt;PT_NAME_0x56150067bb20 -->
<g id="edge4" class="edge">
<title>PT_SELECT_0x56150067b770&#45;&gt;PT_NAME_0x56150067bb20</title>
<path fill="none" stroke="black" d="M95.35,-355.15C116.08,-369.47 147.48,-389.49 177.35,-402 190.45,-407.49 204.73,-412.21 218.81,-416.22"/>
<polygon fill="black" stroke="black" points="217.48,-419.48 228.05,-418.74 219.33,-412.73 217.48,-419.48"/>
</g>
<!-- PT_SPEC_0x56150067c630 -->
<g id="node8" class="node">
<title>PT_SPEC_0x56150067c630</title>
<ellipse fill="none" stroke="black" cx="304.32" cy="-261" rx="57.52" ry="18"/>
<text text-anchor="middle" x="304.32" y="-256.32" font-family="Times,serif" font-size="14.00">PT_SPEC</text>
</g>
<!-- PT_SELECT_0x56150067b770&#45;&gt;PT_SPEC_0x56150067c630 -->
<g id="edge7" class="edge">
<title>PT_SELECT_0x56150067b770&#45;&gt;PT_SPEC_0x56150067c630</title>
<path fill="none" stroke="black" d="M114.97,-323.61C154.08,-310.61 211.64,-291.48 252.82,-277.79"/>
<polygon fill="black" stroke="black" points="253.89,-281.12 262.27,-274.64 251.68,-274.48 253.89,-281.12"/>
</g>
<!-- PT_EXPR_0x56150067e3b0 -->
<g id="node20" class="node">
<title>PT_EXPR_0x56150067e3b0</title>
<ellipse fill="none" stroke="black" cx="304.32" cy="-72" rx="57.52" ry="18"/>
<text text-anchor="middle" x="304.32" y="-67.33" font-family="Times,serif" font-size="14.00">PT_EXPR</text>
</g>
<!-- PT_SELECT_0x56150067b770&#45;&gt;PT_EXPR_0x56150067e3b0 -->
<g id="edge22" class="edge">
<title>PT_SELECT_0x56150067b770&#45;&gt;PT_EXPR_0x56150067e3b0</title>
<path fill="none" stroke="black" d="M87.23,-320.13C127.22,-274.22 233.72,-151.92 280.61,-98.07"/>
<polygon fill="black" stroke="black" points="283.21,-100.42 287.13,-90.58 277.93,-95.83 283.21,-100.42"/>
</g>
<!-- PT_NAME_0x56150067d140 -->
<g id="node3" class="node">
<title>PT_NAME_0x56150067d140</title>
<ellipse fill="none" stroke="black" cx="1217.26" cy="-385" rx="126.97" ry="18"/>
<text text-anchor="middle" x="1217.26" y="-380.32" font-family="Times,serif" font-size="14.00">PT_NAME [ host_year ]</text>
</g>
<!-- PT_EXPR_0x56150067da78&#45;&gt;PT_NAME_0x56150067d140 -->
<g id="edge2" class="edge">
<title>PT_EXPR_0x56150067da78&#45;&gt;PT_NAME_0x56150067d140</title>
<path fill="none" stroke="black" d="M973.02,-360.12C1013.59,-362.02 1069.25,-366.15 1117.09,-370.67"/>
<polygon fill="black" stroke="black" points="1116.63,-374.15 1126.92,-371.62 1117.3,-367.18 1116.63,-374.15"/>
</g>
<!-- PT_EXPR_0x56150067da78&#45;&gt;PT_NAME_0x56150067d140 -->
<g id="edge20" class="edge">
<title>PT_EXPR_0x56150067da78&#45;&gt;PT_NAME_0x56150067d140</title>
<path fill="none" stroke="black" d="M965.44,-370.09C996.96,-373.82 1039.54,-377.74 1080.66,-380.87"/>
<polygon fill="black" stroke="black" points="1080.18,-384.35 1090.41,-381.6 1080.7,-377.37 1080.18,-384.35"/>
</g>
<!-- PT_NAME_0x56150067d6c8 -->
<g id="node4" class="node">
<title>PT_NAME_0x56150067d6c8</title>
<ellipse fill="none" stroke="black" cx="1217.26" cy="-331" rx="126.97" ry="18"/>
<text text-anchor="middle" x="1217.26" y="-326.32" font-family="Times,serif" font-size="14.00">PT_NAME [ host_year ]</text>
</g>
<!-- PT_EXPR_0x56150067da78&#45;&gt;PT_NAME_0x56150067d6c8 -->
<g id="edge3" class="edge">
<title>PT_EXPR_0x56150067da78&#45;&gt;PT_NAME_0x56150067d6c8</title>
<path fill="none" stroke="black" d="M964.1,-351.11C996.68,-346.58 1041.49,-341.56 1084.32,-337.49"/>
<polygon fill="black" stroke="black" points="1084.6,-340.98 1094.23,-336.56 1083.95,-334.01 1084.6,-340.98"/>
</g>
<!-- PT_EXPR_0x56150067da78&#45;&gt;PT_NAME_0x56150067d6c8 -->
<g id="edge21" class="edge">
<title>PT_EXPR_0x56150067da78&#45;&gt;PT_NAME_0x56150067d6c8</title>
<path fill="none" stroke="black" d="M973.02,-360.75C1015.57,-357.9 1074.71,-352.27 1124.02,-346.51"/>
<polygon fill="black" stroke="black" points="1124.33,-350 1133.85,-345.34 1123.5,-343.04 1124.33,-350"/>
</g>
<!-- PT_NAME_0x56150067c0a8 -->
<g id="node6" class="node">
<title>PT_NAME_0x56150067c0a8</title>
<ellipse fill="none" stroke="black" cx="603.72" cy="-434" rx="136.44" ry="18"/>
<text text-anchor="middle" x="603.72" y="-429.32" font-family="Times,serif" font-size="14.00">PT_NAME [ host_nation ]</text>
</g>
<!-- PT_NAME_0x56150067bb20&#45;&gt;PT_NAME_0x56150067c0a8 -->
<g id="edge5" class="edge">
<title>PT_NAME_0x56150067bb20&#45;&gt;PT_NAME_0x56150067c0a8</title>
<path fill="none" stroke="black" d="M431.44,-434C439.41,-434 447.46,-434 455.5,-434"/>
<polygon fill="black" stroke="black" points="455.35,-437.5 465.35,-434 455.35,-430.5 455.35,-437.5"/>
</g>
<!-- PT_DATA_TYPE_0x56150067b948 -->
<g id="node7" class="node">
<title>PT_DATA_TYPE_0x56150067b948</title>
<ellipse fill="none" stroke="black" cx="915.23" cy="-434" rx="87.51" ry="18"/>
<text text-anchor="middle" x="915.23" y="-429.32" font-family="Times,serif" font-size="14.00">PT_DATA_TYPE</text>
</g>
<!-- PT_NAME_0x56150067c0a8&#45;&gt;PT_DATA_TYPE_0x56150067b948 -->
<g id="edge6" class="edge">
<title>PT_NAME_0x56150067c0a8&#45;&gt;PT_DATA_TYPE_0x56150067b948</title>
<path fill="none" stroke="black" d="M740.48,-434C766,-434 792.21,-434 816.3,-434"/>
<polygon fill="black" stroke="black" points="816.06,-437.5 826.06,-434 816.06,-430.5 816.06,-437.5"/>
</g>
<!-- PT_NAME_0x56150067c458 -->
<g id="node9" class="node">
<title>PT_NAME_0x56150067c458</title>
<ellipse fill="none" stroke="black" cx="603.72" cy="-126" rx="135.39" ry="18"/>
<text text-anchor="middle" x="603.72" y="-121.33" font-family="Times,serif" font-size="14.00">PT_NAME [ dba.history ]</text>
</g>
<!-- PT_SPEC_0x56150067c630&#45;&gt;PT_NAME_0x56150067c458 -->
<g id="edge8" class="edge">
<title>PT_SPEC_0x56150067c630&#45;&gt;PT_NAME_0x56150067c458</title>
<path fill="none" stroke="black" d="M325.29,-243.85C354.47,-219.72 411.39,-176.14 467.28,-153 477.42,-148.8 488.26,-145.25 499.22,-142.23"/>
<polygon fill="black" stroke="black" points="499.94,-145.66 508.75,-139.77 498.19,-138.89 499.94,-145.66"/>
</g>
<!-- PT_NAME_0x56150067c808 -->
<g id="node10" class="node">
<title>PT_NAME_0x56150067c808</title>
<ellipse fill="none" stroke="black" cx="603.72" cy="-342" rx="84.88" ry="18"/>
<text text-anchor="middle" x="603.72" y="-337.32" font-family="Times,serif" font-size="14.00">PT_NAME [ h ]</text>
</g>
<!-- PT_SPEC_0x56150067c630&#45;&gt;PT_NAME_0x56150067c808 -->
<g id="edge9" class="edge">
<title>PT_SPEC_0x56150067c630&#45;&gt;PT_NAME_0x56150067c808</title>
<path fill="none" stroke="black" d="M342.55,-274.89C375.12,-286.69 423.88,-303.49 467.28,-315 486.08,-319.98 506.55,-324.52 525.76,-328.39"/>
<polygon fill="black" stroke="black" points="524.92,-331.79 535.41,-330.3 526.28,-324.93 524.92,-331.79"/>
</g>
<!-- PT_NAME_0x56150067dc50 -->
<g id="node11" class="node">
<title>PT_NAME_0x56150067dc50</title>
<ellipse fill="none" stroke="black" cx="603.72" cy="-288" rx="126.97" ry="18"/>
<text text-anchor="middle" x="603.72" y="-283.32" font-family="Times,serif" font-size="14.00">PT_NAME [ host_year ]</text>
</g>
<!-- PT_SPEC_0x56150067c630&#45;&gt;PT_NAME_0x56150067dc50 -->
<g id="edge10" class="edge">
<title>PT_SPEC_0x56150067c630&#45;&gt;PT_NAME_0x56150067dc50</title>
<path fill="none" stroke="black" d="M359.86,-265.95C394.65,-269.11 441.12,-273.33 484.1,-277.23"/>
<polygon fill="black" stroke="black" points="483.74,-280.71 494.01,-278.13 484.37,-273.74 483.74,-280.71"/>
</g>
<!-- PT_NAME_0x56150067e588 -->
<g id="node12" class="node">
<title>PT_NAME_0x56150067e588</title>
<ellipse fill="none" stroke="black" cx="603.72" cy="-234" rx="135.39" ry="18"/>
<text text-anchor="middle" x="603.72" y="-229.32" font-family="Times,serif" font-size="14.00">PT_NAME [ dba.history ]</text>
</g>
<!-- PT_SPEC_0x56150067c630&#45;&gt;PT_NAME_0x56150067e588 -->
<g id="edge11" class="edge">
<title>PT_SPEC_0x56150067c630&#45;&gt;PT_NAME_0x56150067e588</title>
<path fill="none" stroke="black" d="M359.86,-256.05C393.35,-253.01 437.66,-248.99 479.25,-245.21"/>
<polygon fill="black" stroke="black" points="479.47,-248.7 489.11,-244.31 478.83,-241.73 479.47,-248.7"/>
</g>
<!-- PT_SPEC_0x56150067cbb8 -->
<g id="node13" class="node">
<title>PT_SPEC_0x56150067cbb8</title>
<ellipse fill="none" stroke="black" cx="603.72" cy="-180" rx="57.52" ry="18"/>
<text text-anchor="middle" x="603.72" y="-175.32" font-family="Times,serif" font-size="14.00">PT_SPEC</text>
</g>
<!-- PT_SPEC_0x56150067c630&#45;&gt;PT_SPEC_0x56150067cbb8 -->
<g id="edge12" class="edge">
<title>PT_SPEC_0x56150067c630&#45;&gt;PT_SPEC_0x56150067cbb8</title>
<path fill="none" stroke="black" d="M342.55,-247.11C375.12,-235.31 423.88,-218.51 467.28,-207 491.28,-200.63 518.03,-195 541.37,-190.55"/>
<polygon fill="black" stroke="black" points="541.86,-194.02 551.04,-188.74 540.57,-187.14 541.86,-194.02"/>
</g>
<!-- PT_SPEC_0x56150067cbb8&#45;&gt;PT_EXPR_0x56150067da78 -->
<g id="edge19" class="edge">
<title>PT_SPEC_0x56150067cbb8&#45;&gt;PT_EXPR_0x56150067da78</title>
<path fill="none" stroke="black" d="M661.51,-179.62C687.91,-182.16 718.24,-189.3 740.16,-207 771.45,-232.26 748.68,-260.65 776.16,-290 799.68,-315.12 834.09,-332.85 862.67,-344.3"/>
<polygon fill="black" stroke="black" points="861.3,-347.53 871.89,-347.85 863.81,-340.99 861.3,-347.53"/>
</g>
<!-- PT_NAME_0x56150067c9e0 -->
<g id="node14" class="node">
<title>PT_NAME_0x56150067c9e0</title>
<ellipse fill="none" stroke="black" cx="915.23" cy="-155" rx="139.07" ry="18"/>
<text text-anchor="middle" x="915.23" y="-150.32" font-family="Times,serif" font-size="14.00">PT_NAME [ dba.olympic ]</text>
</g>
<!-- PT_SPEC_0x56150067cbb8&#45;&gt;PT_NAME_0x56150067c9e0 -->
<g id="edge13" class="edge">
<title>PT_SPEC_0x56150067cbb8&#45;&gt;PT_NAME_0x56150067c9e0</title>
<path fill="none" stroke="black" d="M659.7,-175.56C694.46,-172.75 740.92,-169 784.63,-165.47"/>
<polygon fill="black" stroke="black" points="784.78,-168.97 794.46,-164.67 784.21,-161.99 784.78,-168.97"/>
</g>
<!-- PT_NAME_0x56150067cd90 -->
<g id="node15" class="node">
<title>PT_NAME_0x56150067cd90</title>
<ellipse fill="none" stroke="black" cx="915.23" cy="-101" rx="84.35" ry="18"/>
<text text-anchor="middle" x="915.23" y="-96.33" font-family="Times,serif" font-size="14.00">PT_NAME [ o ]</text>
</g>
<!-- PT_SPEC_0x56150067cbb8&#45;&gt;PT_NAME_0x56150067cd90 -->
<g id="edge14" class="edge">
<title>PT_SPEC_0x56150067cbb8&#45;&gt;PT_NAME_0x56150067cd90</title>
<path fill="none" stroke="black" d="M658.97,-174.37C684.36,-170.44 714.56,-163.88 740.16,-153 758.09,-145.38 758.22,-135.59 776.16,-128 792.83,-120.95 811.42,-115.72 829.43,-111.84"/>
<polygon fill="black" stroke="black" points="829.94,-115.31 839.05,-109.9 828.56,-108.45 829.94,-115.31"/>
</g>
<!-- PT_NAME_0x56150067d318 -->
<g id="node16" class="node">
<title>PT_NAME_0x56150067d318</title>
<ellipse fill="none" stroke="black" cx="915.23" cy="-263" rx="136.44" ry="18"/>
<text text-anchor="middle" x="915.23" y="-258.32" font-family="Times,serif" font-size="14.00">PT_NAME [ host_nation ]</text>
</g>
<!-- PT_SPEC_0x56150067cbb8&#45;&gt;PT_NAME_0x56150067d318 -->
<g id="edge15" class="edge">
<title>PT_SPEC_0x56150067cbb8&#45;&gt;PT_NAME_0x56150067d318</title>
<path fill="none" stroke="black" d="M659.66,-184.87C685.06,-188.63 715.07,-195.27 740.16,-207 758.77,-215.7 757.53,-227.33 776.16,-236 785.61,-240.4 795.75,-244.08 806.08,-247.16"/>
<polygon fill="black" stroke="black" points="804.86,-250.46 815.43,-249.76 806.73,-243.71 804.86,-250.46"/>
</g>
<!-- PT_NAME_0x56150067e760 -->
<g id="node19" class="node">
<title>PT_NAME_0x56150067e760</title>
<ellipse fill="none" stroke="black" cx="915.23" cy="-209" rx="139.07" ry="18"/>
<text text-anchor="middle" x="915.23" y="-204.32" font-family="Times,serif" font-size="14.00">PT_NAME [ dba.olympic ]</text>
</g>
<!-- PT_SPEC_0x56150067cbb8&#45;&gt;PT_NAME_0x56150067e760 -->
<g id="edge18" class="edge">
<title>PT_SPEC_0x56150067cbb8&#45;&gt;PT_NAME_0x56150067e760</title>
<path fill="none" stroke="black" d="M659.34,-185.12C695.5,-188.51 744.43,-193.09 789.76,-197.34"/>
<polygon fill="black" stroke="black" points="789.41,-200.82 799.69,-198.27 790.06,-193.85 789.41,-200.82"/>
</g>
<!-- PT_DATA_TYPE_0x56150067d4f0 -->
<g id="node17" class="node">
<title>PT_DATA_TYPE_0x56150067d4f0</title>
<ellipse fill="none" stroke="black" cx="1217.26" cy="-272" rx="87.51" ry="18"/>
<text text-anchor="middle" x="1217.26" y="-267.32" font-family="Times,serif" font-size="14.00">PT_DATA_TYPE</text>
</g>
<!-- PT_NAME_0x56150067d318&#45;&gt;PT_DATA_TYPE_0x56150067d4f0 -->
<g id="edge16" class="edge">
<title>PT_NAME_0x56150067d318&#45;&gt;PT_DATA_TYPE_0x56150067d4f0</title>
<path fill="none" stroke="black" d="M1048.7,-266.97C1072.23,-267.68 1096.34,-268.4 1118.68,-269.07"/>
<polygon fill="black" stroke="black" points="1118.57,-272.57 1128.67,-269.37 1118.78,-265.57 1118.57,-272.57"/>
</g>
<!-- PT_NAME_0x56150067c280 -->
<g id="node18" class="node">
<title>PT_NAME_0x56150067c280</title>
<ellipse fill="none" stroke="black" cx="1217.26" cy="-218" rx="126.97" ry="18"/>
<text text-anchor="middle" x="1217.26" y="-213.32" font-family="Times,serif" font-size="14.00">PT_NAME [ host_year ]</text>
</g>
<!-- PT_NAME_0x56150067d318&#45;&gt;PT_NAME_0x56150067c280 -->
<g id="edge17" class="edge">
<title>PT_NAME_0x56150067d318&#45;&gt;PT_NAME_0x56150067c280</title>
<path fill="none" stroke="black" d="M1007.06,-249.38C1041.77,-244.17 1081.51,-238.21 1116.96,-232.89"/>
<polygon fill="black" stroke="black" points="1117.45,-236.36 1126.82,-231.42 1116.41,-229.44 1117.45,-236.36"/>
</g>
<!-- PT_NAME_0x56150067de28 -->
<g id="node21" class="node">
<title>PT_NAME_0x56150067de28</title>
<ellipse fill="none" stroke="black" cx="603.72" cy="-18" rx="126.97" ry="18"/>
<text text-anchor="middle" x="603.72" y="-13.32" font-family="Times,serif" font-size="14.00">PT_NAME [ host_year ]</text>
</g>
<!-- PT_EXPR_0x56150067e3b0&#45;&gt;PT_NAME_0x56150067de28 -->
<g id="edge23" class="edge">
<title>PT_EXPR_0x56150067e3b0&#45;&gt;PT_NAME_0x56150067de28</title>
<path fill="none" stroke="black" d="M354.76,-63.02C397.62,-55.24 460.72,-43.78 512.53,-34.38"/>
<polygon fill="black" stroke="black" points="513.04,-37.84 522.26,-32.61 511.79,-30.95 513.04,-37.84"/>
</g>
<!-- PT_VALUE_0x56150067e1d8 -->
<g id="node22" class="node">
<title>PT_VALUE_0x56150067e1d8</title>
<ellipse fill="none" stroke="black" cx="603.72" cy="-72" rx="63.83" ry="18"/>
<text text-anchor="middle" x="603.72" y="-67.33" font-family="Times,serif" font-size="14.00">PT_VALUE</text>
</g>
<!-- PT_EXPR_0x56150067e3b0&#45;&gt;PT_VALUE_0x56150067e1d8 -->
<g id="edge24" class="edge">
<title>PT_EXPR_0x56150067e3b0&#45;&gt;PT_VALUE_0x56150067e1d8</title>
<path fill="none" stroke="black" d="M362.31,-72C409.43,-72 476.7,-72 528.11,-72"/>
<polygon fill="black" stroke="black" points="527.97,-75.5 537.97,-72 527.97,-68.5 527.97,-75.5"/>
</g>
</g>
</svg>
