<?xml version="1.0" encoding="UTF-8" standalone="no"?>
<!DOCTYPE svg PUBLIC "-//W3C//DTD SVG 1.1//EN"
 "http://www.w3.org/Graphics/SVG/1.1/DTD/svg11.dtd">
<!-- Generated by graphviz version 10.0.1 (0)
 -->
<!-- Pages: 1 -->
<svg width="1337pt" height="462pt"
 viewBox="0.00 0.00 1337.02 462.00" xmlns="http://www.w3.org/2000/svg" xmlns:xlink="http://www.w3.org/1999/xlink">
<g id="graph0" class="graph" transform="scale(1 1) rotate(0) translate(4 458)">
<polygon fill="white" stroke="none" points="-4,4 -4,-458 1333.02,-458 1333.02,4 -4,4"/>
<!-- PT_SELECT_0x56150067b770 -->
<g id="node1" class="node">
<title>PT_SELECT_0x56150067b770</title>
<ellipse fill="none" stroke="black" cx="70.67" cy="-220" rx="70.67" ry="18"/>
<text text-anchor="middle" x="70.67" y="-215.32" font-family="Times,serif" font-size="14.00">PT_SELECT</text>
</g>
<!-- PT_DOT__0x56150067bcf8 -->
<g id="node2" class="node">
<title>PT_DOT__0x56150067bcf8</title>
<ellipse fill="none" stroke="black" cx="234.87" cy="-355" rx="55.94" ry="18"/>
<text text-anchor="middle" x="234.87" y="-350.32" font-family="Times,serif" font-size="14.00">PT_DOT_</text>
</g>
<!-- PT_SELECT_0x56150067b770&#45;&gt;PT_DOT__0x56150067bcf8 -->
<g id="edge1" class="edge">
<title>PT_SELECT_0x56150067b770&#45;&gt;PT_DOT__0x56150067bcf8</title>
<path fill="none" stroke="black" d="M92.55,-237.37C121.09,-261.13 172.44,-303.87 204.76,-330.77"/>
<polygon fill="black" stroke="black" points="202.24,-333.23 212.17,-336.94 206.72,-327.85 202.24,-333.23"/>
</g>
<!-- PT_SPEC_0x56150067c630 -->
<g id="node8" class="node">
<title>PT_SPEC_0x56150067c630</title>
<ellipse fill="none" stroke="black" cx="234.87" cy="-220" rx="57.52" ry="18"/>
<text text-anchor="middle" x="234.87" y="-215.32" font-family="Times,serif" font-size="14.00">PT_SPEC</text>
</g>
<!-- PT_SELECT_0x56150067b770&#45;&gt;PT_SPEC_0x56150067c630 -->
<g id="edge7" class="edge">
<title>PT_SELECT_0x56150067b770&#45;&gt;PT_SPEC_0x56150067c630</title>
<path fill="none" stroke="black" d="M141.4,-220C149.36,-220 157.47,-220 165.42,-220"/>
<polygon fill="black" stroke="black" points="165.39,-223.5 175.39,-220 165.39,-216.5 165.39,-223.5"/>
</g>
<!-- PT_EXPR_0x56150067e3b0 -->
<g id="node21" class="node">
<title>PT_EXPR_0x56150067e3b0</title>
<ellipse fill="none" stroke="black" cx="234.87" cy="-72" rx="57.52" ry="18"/>
<text text-anchor="middle" x="234.87" y="-67.33" font-family="Times,serif" font-size="14.00">PT_EXPR</text>
</g>
<!-- PT_SELECT_0x56150067b770&#45;&gt;PT_EXPR_0x56150067e3b0 -->
<g id="edge20" class="edge">
<title>PT_SELECT_0x56150067b770&#45;&gt;PT_EXPR_0x56150067e3b0</title>
<path fill="none" stroke="black" d="M90.92,-202.44C119.65,-176.22 173.88,-126.73 206.66,-96.83"/>
<polygon fill="black" stroke="black" points="208.76,-99.65 213.78,-90.33 204.04,-94.48 208.76,-99.65"/>
</g>
<!-- PT_NAME_0x56150067b948 -->
<g id="node3" class="node">
<title>PT_NAME_0x56150067b948</title>
<ellipse fill="none" stroke="black" cx="455.36" cy="-436" rx="84.88" ry="18"/>
<text text-anchor="middle" x="455.36" y="-431.32" font-family="Times,serif" font-size="14.00">PT_NAME [ h ]</text>
</g>
<!-- PT_DOT__0x56150067bcf8&#45;&gt;PT_NAME_0x56150067b948 -->
<g id="edge2" class="edge">
<title>PT_DOT__0x56150067bcf8&#45;&gt;PT_NAME_0x56150067b948</title>
<path fill="none" stroke="black" d="M259.16,-371.41C277.27,-383.45 303.42,-399.32 328.39,-409 342.91,-414.63 358.84,-419.19 374.35,-422.85"/>
<polygon fill="black" stroke="black" points="373.54,-426.26 384.07,-425.03 375.07,-419.42 373.54,-426.26"/>
</g>
<!-- PT_NAME_0x56150067bb20 -->
<g id="node4" class="node">
<title>PT_NAME_0x56150067bb20</title>
<ellipse fill="none" stroke="black" cx="455.36" cy="-382" rx="126.97" ry="18"/>
<text text-anchor="middle" x="455.36" y="-377.32" font-family="Times,serif" font-size="14.00">PT_NAME [ host_year ]</text>
</g>
<!-- PT_DOT__0x56150067bcf8&#45;&gt;PT_NAME_0x56150067bb20 -->
<g id="edge3" class="edge">
<title>PT_DOT__0x56150067bcf8&#45;&gt;PT_NAME_0x56150067bb20</title>
<path fill="none" stroke="black" d="M287.65,-361.4C305.43,-363.6 326.05,-366.14 346.6,-368.68"/>
<polygon fill="black" stroke="black" points="346.14,-372.15 356.49,-369.91 346.99,-365.21 346.14,-372.15"/>
</g>
<!-- PT_DOT__0x56150067c280 -->
<g id="node5" class="node">
<title>PT_DOT__0x56150067c280</title>
<ellipse fill="none" stroke="black" cx="455.36" cy="-328" rx="55.94" ry="18"/>
<text text-anchor="middle" x="455.36" y="-323.32" font-family="Times,serif" font-size="14.00">PT_DOT_</text>
</g>
<!-- PT_DOT__0x56150067bcf8&#45;&gt;PT_DOT__0x56150067c280 -->
<g id="edge4" class="edge">
<title>PT_DOT__0x56150067bcf8&#45;&gt;PT_DOT__0x56150067c280</title>
<path fill="none" stroke="black" d="M287.65,-348.6C318.69,-344.77 358.39,-339.86 391.26,-335.8"/>
<polygon fill="black" stroke="black" points="391.58,-339.29 401.07,-334.59 390.72,-332.34 391.58,-339.29"/>
</g>
<!-- PT_NAME_0x56150067bed0 -->
<g id="node6" class="node">
<title>PT_NAME_0x56150067bed0</title>
<ellipse fill="none" stroke="black" cx="754.76" cy="-369" rx="84.35" ry="18"/>
<text text-anchor="middle" x="754.76" y="-364.32" font-family="Times,serif" font-size="14.00">PT_NAME [ o ]</text>
</g>
<!-- PT_DOT__0x56150067c280&#45;&gt;PT_NAME_0x56150067bed0 -->
<g id="edge5" class="edge">
<title>PT_DOT__0x56150067c280&#45;&gt;PT_NAME_0x56150067bed0</title>
<path fill="none" stroke="black" d="M507.48,-335.05C552.59,-341.27 619.13,-350.44 671.68,-357.68"/>
<polygon fill="black" stroke="black" points="671.13,-361.14 681.51,-359.04 672.08,-354.21 671.13,-361.14"/>
</g>
<!-- PT_NAME_0x56150067c0a8 -->
<g id="node7" class="node">
<title>PT_NAME_0x56150067c0a8</title>
<ellipse fill="none" stroke="black" cx="754.76" cy="-315" rx="136.44" ry="18"/>
<text text-anchor="middle" x="754.76" y="-310.32" font-family="Times,serif" font-size="14.00">PT_NAME [ host_nation ]</text>
</g>
<!-- PT_DOT__0x56150067c280&#45;&gt;PT_NAME_0x56150067c0a8 -->
<g id="edge6" class="edge">
<title>PT_DOT__0x56150067c280&#45;&gt;PT_NAME_0x56150067c0a8</title>
<path fill="none" stroke="black" d="M511.25,-325.6C540.15,-324.34 577.04,-322.72 613.28,-321.14"/>
<polygon fill="black" stroke="black" points="613.15,-324.65 622.98,-320.72 612.84,-317.66 613.15,-324.65"/>
</g>
<!-- PT_NAME_0x56150067c458 -->
<g id="node9" class="node">
<title>PT_NAME_0x56150067c458</title>
<ellipse fill="none" stroke="black" cx="455.36" cy="-274" rx="113.82" ry="18"/>
<text text-anchor="middle" x="455.36" y="-269.32" font-family="Times,serif" font-size="14.00">PT_NAME [ history ]</text>
</g>
<!-- PT_SPEC_0x56150067c630&#45;&gt;PT_NAME_0x56150067c458 -->
<g id="edge8" class="edge">
<title>PT_SPEC_0x56150067c630&#45;&gt;PT_NAME_0x56150067c458</title>
<path fill="none" stroke="black" d="M276.69,-232.61C292.73,-237.38 311.36,-242.7 328.39,-247 342.47,-250.56 357.52,-254.05 372.13,-257.28"/>
<polygon fill="black" stroke="black" points="371.2,-260.66 381.72,-259.37 372.69,-253.82 371.2,-260.66"/>
</g>
<!-- PT_NAME_0x56150067c808 -->
<g id="node10" class="node">
<title>PT_NAME_0x56150067c808</title>
<ellipse fill="none" stroke="black" cx="455.36" cy="-220" rx="84.88" ry="18"/>
<text text-anchor="middle" x="455.36" y="-215.32" font-family="Times,serif" font-size="14.00">PT_NAME [ h ]</text>
</g>
<!-- PT_SPEC_0x56150067c630&#45;&gt;PT_NAME_0x56150067c808 -->
<g id="edge9" class="edge">
<title>PT_SPEC_0x56150067c630&#45;&gt;PT_NAME_0x56150067c808</title>
<path fill="none" stroke="black" d="M292.7,-220C312.93,-220 336.3,-220 358.87,-220"/>
<polygon fill="black" stroke="black" points="358.71,-223.5 368.71,-220 358.71,-216.5 358.71,-223.5"/>
</g>
<!-- PT_SPEC_0x56150067cbb8 -->
<g id="node11" class="node">
<title>PT_SPEC_0x56150067cbb8</title>
<ellipse fill="none" stroke="black" cx="455.36" cy="-166" rx="57.52" ry="18"/>
<text text-anchor="middle" x="455.36" y="-161.32" font-family="Times,serif" font-size="14.00">PT_SPEC</text>
</g>
<!-- PT_SPEC_0x56150067c630&#45;&gt;PT_SPEC_0x56150067cbb8 -->
<g id="edge10" class="edge">
<title>PT_SPEC_0x56150067c630&#45;&gt;PT_SPEC_0x56150067cbb8</title>
<path fill="none" stroke="black" d="M276.69,-207.39C292.73,-202.62 311.36,-197.3 328.39,-193 349.9,-187.56 373.65,-182.29 394.67,-177.86"/>
<polygon fill="black" stroke="black" points="395.16,-181.34 404.23,-175.87 393.73,-174.49 395.16,-181.34"/>
</g>
<!-- PT_NAME_0x56150067c9e0 -->
<g id="node12" class="node">
<title>PT_NAME_0x56150067c9e0</title>
<ellipse fill="none" stroke="black" cx="754.76" cy="-234" rx="117.5" ry="18"/>
<text text-anchor="middle" x="754.76" y="-229.32" font-family="Times,serif" font-size="14.00">PT_NAME [ olympic ]</text>
</g>
<!-- PT_SPEC_0x56150067cbb8&#45;&gt;PT_NAME_0x56150067c9e0 -->
<g id="edge11" class="edge">
<title>PT_SPEC_0x56150067cbb8&#45;&gt;PT_NAME_0x56150067c9e0</title>
<path fill="none" stroke="black" d="M506.18,-174.77C529.52,-179.37 557.58,-185.59 582.33,-193 598.77,-197.93 601.85,-202.19 618.33,-207 632.68,-211.19 648.08,-214.94 663.16,-218.21"/>
<polygon fill="black" stroke="black" points="662.08,-221.56 672.59,-220.2 663.52,-214.71 662.08,-221.56"/>
</g>
<!-- PT_NAME_0x56150067cd90 -->
<g id="node13" class="node">
<title>PT_NAME_0x56150067cd90</title>
<ellipse fill="none" stroke="black" cx="754.76" cy="-180" rx="84.35" ry="18"/>
<text text-anchor="middle" x="754.76" y="-175.32" font-family="Times,serif" font-size="14.00">PT_NAME [ o ]</text>
</g>
<!-- PT_SPEC_0x56150067cbb8&#45;&gt;PT_NAME_0x56150067cd90 -->
<g id="edge12" class="edge">
<title>PT_SPEC_0x56150067cbb8&#45;&gt;PT_NAME_0x56150067cd90</title>
<path fill="none" stroke="black" d="M512.65,-168.65C554.27,-170.61 611.91,-173.32 660.39,-175.6"/>
<polygon fill="black" stroke="black" points="660.19,-179.1 670.35,-176.07 660.52,-172.11 660.19,-179.1"/>
</g>
<!-- PT_EXPR_0x56150067da78 -->
<g id="node14" class="node">
<title>PT_EXPR_0x56150067da78</title>
<ellipse fill="none" stroke="black" cx="754.76" cy="-126" rx="57.52" ry="18"/>
<text text-anchor="middle" x="754.76" y="-121.33" font-family="Times,serif" font-size="14.00">PT_EXPR</text>
</g>
<!-- PT_SPEC_0x56150067cbb8&#45;&gt;PT_EXPR_0x56150067da78 -->
<g id="edge13" class="edge">
<title>PT_SPEC_0x56150067cbb8&#45;&gt;PT_EXPR_0x56150067da78</title>
<path fill="none" stroke="black" d="M508.84,-158.94C559.44,-152.14 636.08,-141.83 690.13,-134.56"/>
<polygon fill="black" stroke="black" points="690.36,-138.06 699.8,-133.26 689.43,-131.12 690.36,-138.06"/>
</g>
<!-- PT_DOT__0x56150067d318 -->
<g id="node15" class="node">
<title>PT_DOT__0x56150067d318</title>
<ellipse fill="none" stroke="black" cx="983.15" cy="-153" rx="55.94" ry="18"/>
<text text-anchor="middle" x="983.15" y="-148.32" font-family="Times,serif" font-size="14.00">PT_DOT_</text>
</g>
<!-- PT_EXPR_0x56150067da78&#45;&gt;PT_DOT__0x56150067d318 -->
<g id="edge14" class="edge">
<title>PT_EXPR_0x56150067da78&#45;&gt;PT_DOT__0x56150067d318</title>
<path fill="none" stroke="black" d="M809.13,-132.36C842.01,-136.29 884.35,-141.34 918.91,-145.46"/>
<polygon fill="black" stroke="black" points="918.46,-148.93 928.81,-146.64 919.29,-141.98 918.46,-148.93"/>
</g>
<!-- PT_DOT__0x56150067d8a0 -->
<g id="node18" class="node">
<title>PT_DOT__0x56150067d8a0</title>
<ellipse fill="none" stroke="black" cx="983.15" cy="-99" rx="55.94" ry="18"/>
<text text-anchor="middle" x="983.15" y="-94.33" font-family="Times,serif" font-size="14.00">PT_DOT_</text>
</g>
<!-- PT_EXPR_0x56150067da78&#45;&gt;PT_DOT__0x56150067d8a0 -->
<g id="edge17" class="edge">
<title>PT_EXPR_0x56150067da78&#45;&gt;PT_DOT__0x56150067d8a0</title>
<path fill="none" stroke="black" d="M809.13,-119.64C842.01,-115.71 884.35,-110.66 918.91,-106.54"/>
<polygon fill="black" stroke="black" points="919.29,-110.02 928.81,-105.36 918.46,-103.07 919.29,-110.02"/>
</g>
<!-- PT_NAME_0x56150067cf68 -->
<g id="node16" class="node">
<title>PT_NAME_0x56150067cf68</title>
<ellipse fill="none" stroke="black" cx="1202.06" cy="-207" rx="84.88" ry="18"/>
<text text-anchor="middle" x="1202.06" y="-202.32" font-family="Times,serif" font-size="14.00">PT_NAME [ h ]</text>
</g>
<!-- PT_DOT__0x56150067d318&#45;&gt;PT_NAME_0x56150067cf68 -->
<g id="edge15" class="edge">
<title>PT_DOT__0x56150067d318&#45;&gt;PT_NAME_0x56150067cf68</title>
<path fill="none" stroke="black" d="M1024.25,-165.64C1040.02,-170.41 1058.33,-175.72 1075.09,-180 1091.98,-184.31 1110.26,-188.5 1127.51,-192.24"/>
<polygon fill="black" stroke="black" points="1126.69,-195.64 1137.2,-194.31 1128.16,-188.8 1126.69,-195.64"/>
</g>
<!-- PT_NAME_0x56150067d140 -->
<g id="node17" class="node">
<title>PT_NAME_0x56150067d140</title>
<ellipse fill="none" stroke="black" cx="1202.06" cy="-153" rx="126.97" ry="18"/>
<text text-anchor="middle" x="1202.06" y="-148.32" font-family="Times,serif" font-size="14.00">PT_NAME [ host_year ]</text>
</g>
<!-- PT_DOT__0x56150067d318&#45;&gt;PT_NAME_0x56150067d140 -->
<g id="edge16" class="edge">
<title>PT_DOT__0x56150067d318&#45;&gt;PT_NAME_0x56150067d140</title>
<path fill="none" stroke="black" d="M1039.44,-153C1047.04,-153 1055.09,-153 1063.39,-153"/>
<polygon fill="black" stroke="black" points="1063.34,-156.5 1073.34,-153 1063.34,-149.5 1063.34,-156.5"/>
</g>
<!-- PT_NAME_0x56150067d4f0 -->
<g id="node19" class="node">
<title>PT_NAME_0x56150067d4f0</title>
<ellipse fill="none" stroke="black" cx="1202.06" cy="-99" rx="84.35" ry="18"/>
<text text-anchor="middle" x="1202.06" y="-94.33" font-family="Times,serif" font-size="14.00">PT_NAME [ o ]</text>
</g>
<!-- PT_DOT__0x56150067d8a0&#45;&gt;PT_NAME_0x56150067d4f0 -->
<g id="edge18" class="edge">
<title>PT_DOT__0x56150067d8a0&#45;&gt;PT_NAME_0x56150067d4f0</title>
<path fill="none" stroke="black" d="M1039.44,-99C1059.74,-99 1083.33,-99 1106.11,-99"/>
<polygon fill="black" stroke="black" points="1106.06,-102.5 1116.06,-99 1106.06,-95.5 1106.06,-102.5"/>
</g>
<!-- PT_NAME_0x56150067d6c8 -->
<g id="node20" class="node">
<title>PT_NAME_0x56150067d6c8</title>
<ellipse fill="none" stroke="black" cx="1202.06" cy="-45" rx="126.97" ry="18"/>
<text text-anchor="middle" x="1202.06" y="-40.33" font-family="Times,serif" font-size="14.00">PT_NAME [ host_year ]</text>
</g>
<!-- PT_DOT__0x56150067d8a0&#45;&gt;PT_NAME_0x56150067d6c8 -->
<g id="edge19" class="edge">
<title>PT_DOT__0x56150067d8a0&#45;&gt;PT_NAME_0x56150067d6c8</title>
<path fill="none" stroke="black" d="M1024.25,-86.36C1040.02,-81.59 1058.33,-76.28 1075.09,-72 1088.26,-68.64 1102.27,-65.35 1115.98,-62.3"/>
<polygon fill="black" stroke="black" points="1116.4,-65.79 1125.42,-60.22 1114.9,-58.95 1116.4,-65.79"/>
</g>
<!-- PT_DOT__0x56150067e000 -->
<g id="node22" class="node">
<title>PT_DOT__0x56150067e000</title>
<ellipse fill="none" stroke="black" cx="455.36" cy="-72" rx="55.94" ry="18"/>
<text text-anchor="middle" x="455.36" y="-67.33" font-family="Times,serif" font-size="14.00">PT_DOT_</text>
</g>
<!-- PT_EXPR_0x56150067e3b0&#45;&gt;PT_DOT__0x56150067e000 -->
<g id="edge21" class="edge">
<title>PT_EXPR_0x56150067e3b0&#45;&gt;PT_DOT__0x56150067e000</title>
<path fill="none" stroke="black" d="M292.7,-72C321.74,-72 357.26,-72 387.59,-72"/>
<polygon fill="black" stroke="black" points="387.43,-75.5 397.43,-72 387.43,-68.5 387.43,-75.5"/>
</g>
<!-- PT_VALUE_0x56150067e1d8 -->
<g id="node25" class="node">
<title>PT_VALUE_0x56150067e1d8</title>
<ellipse fill="none" stroke="black" cx="455.36" cy="-18" rx="63.83" ry="18"/>
<text text-anchor="middle" x="455.36" y="-13.32" font-family="Times,serif" font-size="14.00">PT_VALUE</text>
</g>
<!-- PT_EXPR_0x56150067e3b0&#45;&gt;PT_VALUE_0x56150067e1d8 -->
<g id="edge24" class="edge">
<title>PT_EXPR_0x56150067e3b0&#45;&gt;PT_VALUE_0x56150067e1d8</title>
<path fill="none" stroke="black" d="M276.69,-59.39C292.73,-54.62 311.36,-49.3 328.39,-45 348.61,-39.89 370.8,-34.92 390.86,-30.67"/>
<polygon fill="black" stroke="black" points="391.52,-34.11 400.59,-28.63 390.08,-27.26 391.52,-34.11"/>
</g>
<!-- PT_NAME_0x56150067dc50 -->
<g id="node23" class="node">
<title>PT_NAME_0x56150067dc50</title>
<ellipse fill="none" stroke="black" cx="754.76" cy="-72" rx="84.35" ry="18"/>
<text text-anchor="middle" x="754.76" y="-67.33" font-family="Times,serif" font-size="14.00">PT_NAME [ o ]</text>
</g>
<!-- PT_DOT__0x56150067e000&#45;&gt;PT_NAME_0x56150067dc50 -->
<g id="edge22" class="edge">
<title>PT_DOT__0x56150067e000&#45;&gt;PT_NAME_0x56150067dc50</title>
<path fill="none" stroke="black" d="M511.6,-72C552.81,-72 610.13,-72 658.66,-72"/>
<polygon fill="black" stroke="black" points="658.63,-75.5 668.63,-72 658.63,-68.5 658.63,-75.5"/>
</g>
<!-- PT_NAME_0x56150067de28 -->
<g id="node24" class="node">
<title>PT_NAME_0x56150067de28</title>
<ellipse fill="none" stroke="black" cx="754.76" cy="-18" rx="126.97" ry="18"/>
<text text-anchor="middle" x="754.76" y="-13.32" font-family="Times,serif" font-size="14.00">PT_NAME [ host_year ]</text>
</g>
<!-- PT_DOT__0x56150067e000&#45;&gt;PT_NAME_0x56150067de28 -->
<g id="edge23" class="edge">
<title>PT_DOT__0x56150067e000&#45;&gt;PT_NAME_0x56150067de28</title>
<path fill="none" stroke="black" d="M504.8,-63.2C547.66,-55.42 611.32,-43.86 663.54,-34.38"/>
<polygon fill="black" stroke="black" points="664.13,-37.83 673.35,-32.6 662.88,-30.94 664.13,-37.83"/>
</g>
</g>
</svg>
