<?xml version="1.0" encoding="UTF-8" standalone="no"?>
<!DOCTYPE svg PUBLIC "-//W3C//DTD SVG 1.1//EN"
 "http://www.w3.org/Graphics/SVG/1.1/DTD/svg11.dtd">
<!-- Generated by graphviz version 10.0.1 (0)
 -->
<!-- Pages: 1 -->
<svg width="1352pt" height="368pt"
 viewBox="0.00 0.00 1352.23 368.00" xmlns="http://www.w3.org/2000/svg" xmlns:xlink="http://www.w3.org/1999/xlink">
<g id="graph0" class="graph" transform="scale(1 1) rotate(0) translate(4 364)">
<polygon fill="white" stroke="none" points="-4,4 -4,-364 1348.23,-364 1348.23,4 -4,4"/>
<!-- PT_SELECT_0x56150067b770 -->
<g id="node1" class="node">
<title>PT_SELECT_0x56150067b770</title>
<ellipse fill="none" stroke="black" cx="70.67" cy="-72" rx="70.67" ry="18"/>
<text text-anchor="middle" x="70.67" y="-67.33" font-family="Times,serif" font-size="14.00">PT_SELECT</text>
</g>
<!-- PT_NAME_0x56150067bb20 -->
<g id="node2" class="node">
<title>PT_NAME_0x56150067bb20</title>
<ellipse fill="none" stroke="black" cx="304.32" cy="-288" rx="126.97" ry="18"/>
<text text-anchor="middle" x="304.32" y="-283.32" font-family="Times,serif" font-size="14.00">PT_NAME [ host_year ]</text>
</g>
<!-- PT_SELECT_0x56150067b770&#45;&gt;PT_NAME_0x56150067bb20 -->
<g id="edge1" class="edge">
<title>PT_SELECT_0x56150067b770&#45;&gt;PT_NAME_0x56150067bb20</title>
<path fill="none" stroke="black" d="M83.02,-90.17C100.79,-117.67 137.31,-170.51 177.35,-207 202.2,-229.65 234.09,-250.09 259.57,-264.77"/>
<polygon fill="black" stroke="black" points="257.6,-267.68 268.03,-269.56 261.05,-261.58 257.6,-267.68"/>
</g>
<!-- PT_SPEC_0x56150067c630 -->
<g id="node5" class="node">
<title>PT_SPEC_0x56150067c630</title>
<ellipse fill="none" stroke="black" cx="304.32" cy="-180" rx="57.52" ry="18"/>
<text text-anchor="middle" x="304.32" y="-175.32" font-family="Times,serif" font-size="14.00">PT_SPEC</text>
</g>
<!-- PT_SELECT_0x56150067b770&#45;&gt;PT_SPEC_0x56150067c630 -->
<g id="edge4" class="edge">
<title>PT_SELECT_0x56150067b770&#45;&gt;PT_SPEC_0x56150067c630</title>
<path fill="none" stroke="black" d="M105.85,-87.94C147.1,-107.17 216.45,-139.5 261.02,-160.28"/>
<polygon fill="black" stroke="black" points="259.32,-163.35 269.86,-164.4 262.28,-157.01 259.32,-163.35"/>
</g>
<!-- PT_EXPR_0x56150067e3b0 -->
<g id="node16" class="node">
<title>PT_EXPR_0x56150067e3b0</title>
<ellipse fill="none" stroke="black" cx="304.32" cy="-72" rx="57.52" ry="18"/>
<text text-anchor="middle" x="304.32" y="-67.33" font-family="Times,serif" font-size="14.00">PT_EXPR</text>
</g>
<!-- PT_SELECT_0x56150067b770&#45;&gt;PT_EXPR_0x56150067e3b0 -->
<g id="edge15" class="edge">
<title>PT_SELECT_0x56150067b770&#45;&gt;PT_EXPR_0x56150067e3b0</title>
<path fill="none" stroke="black" d="M125.98,-60.36C162.34,-57.93 210.09,-57.88 246.88,-60.22"/>
<polygon fill="black" stroke="black" points="246.18,-63.68 256.41,-60.91 246.69,-56.7 246.18,-63.68"/>
</g>
<!-- PT_SELECT_0x56150067b770&#45;&gt;PT_EXPR_0x56150067e3b0 -->
<g id="edge18" class="edge">
<title>PT_SELECT_0x56150067b770&#45;&gt;PT_EXPR_0x56150067e3b0</title>
<path fill="none" stroke="black" d="M141.8,-72C171.43,-72 205.8,-72 235.2,-72"/>
<polygon fill="black" stroke="black" points="235.11,-75.5 245.11,-72 235.11,-68.5 235.11,-75.5"/>
</g>
<!-- PT_SELECT_0x56150067b770&#45;&gt;PT_EXPR_0x56150067e3b0 -->
<g id="edge21" class="edge">
<title>PT_SELECT_0x56150067b770&#45;&gt;PT_EXPR_0x56150067e3b0</title>
<path fill="none" stroke="black" d="M125.98,-83.64C162.34,-86.07 210.09,-86.12 246.88,-83.78"/>
<polygon fill="black" stroke="black" points="246.69,-87.3 256.41,-83.09 246.18,-80.32 246.69,-87.3"/>
</g>
<!-- PT_NAME_0x56150067c0a8 -->
<g id="node3" class="node">
<title>PT_NAME_0x56150067c0a8</title>
<ellipse fill="none" stroke="black" cx="603.72" cy="-342" rx="136.44" ry="18"/>
<text text-anchor="middle" x="603.72" y="-337.32" font-family="Times,serif" font-size="14.00">PT_NAME [ host_nation ]</text>
</g>
<!-- PT_NAME_0x56150067bb20&#45;&gt;PT_NAME_0x56150067c0a8 -->
<g id="edge2" class="edge">
<title>PT_NAME_0x56150067bb20&#45;&gt;PT_NAME_0x56150067c0a8</title>
<path fill="none" stroke="black" d="M384.23,-302.33C422.93,-309.36 469.78,-317.86 510.15,-325.19"/>
<polygon fill="black" stroke="black" points="509.41,-328.61 519.87,-326.96 510.66,-321.73 509.41,-328.61"/>
</g>
<!-- PT_DATA_TYPE_0x56150067b948 -->
<g id="node4" class="node">
<title>PT_DATA_TYPE_0x56150067b948</title>
<ellipse fill="none" stroke="black" cx="915.23" cy="-342" rx="87.51" ry="18"/>
<text text-anchor="middle" x="915.23" y="-337.32" font-family="Times,serif" font-size="14.00">PT_DATA_TYPE</text>
</g>
<!-- PT_NAME_0x56150067c0a8&#45;&gt;PT_DATA_TYPE_0x56150067b948 -->
<g id="edge3" class="edge">
<title>PT_NAME_0x56150067c0a8&#45;&gt;PT_DATA_TYPE_0x56150067b948</title>
<path fill="none" stroke="black" d="M740.48,-342C766,-342 792.21,-342 816.3,-342"/>
<polygon fill="black" stroke="black" points="816.06,-345.5 826.06,-342 816.06,-338.5 816.06,-345.5"/>
</g>
<!-- PT_NAME_0x56150067c458 -->
<g id="node6" class="node">
<title>PT_NAME_0x56150067c458</title>
<ellipse fill="none" stroke="black" cx="603.72" cy="-288" rx="135.39" ry="18"/>
<text text-anchor="middle" x="603.72" y="-283.32" font-family="Times,serif" font-size="14.00">PT_NAME [ dba.history ]</text>
</g>
<!-- PT_SPEC_0x56150067c630&#45;&gt;PT_NAME_0x56150067c458 -->
<g id="edge5" class="edge">
<title>PT_SPEC_0x56150067c630&#45;&gt;PT_NAME_0x56150067c458</title>
<path fill="none" stroke="black" d="M332.14,-196.23C363.5,-214.52 417.47,-243.92 467.28,-261 478.95,-265 491.39,-268.48 503.83,-271.49"/>
<polygon fill="black" stroke="black" points="502.74,-274.83 513.27,-273.68 504.32,-268.01 502.74,-274.83"/>
</g>
<!-- PT_NAME_0x56150067c808 -->
<g id="node7" class="node">
<title>PT_NAME_0x56150067c808</title>
<ellipse fill="none" stroke="black" cx="603.72" cy="-234" rx="84.88" ry="18"/>
<text text-anchor="middle" x="603.72" y="-229.32" font-family="Times,serif" font-size="14.00">PT_NAME [ h ]</text>
</g>
<!-- PT_SPEC_0x56150067c630&#45;&gt;PT_NAME_0x56150067c808 -->
<g id="edge6" class="edge">
<title>PT_SPEC_0x56150067c630&#45;&gt;PT_NAME_0x56150067c808</title>
<path fill="none" stroke="black" d="M354.76,-188.98C401.64,-197.49 472.74,-210.4 526.8,-220.21"/>
<polygon fill="black" stroke="black" points="526.11,-223.65 536.57,-221.99 527.36,-216.76 526.11,-223.65"/>
</g>
<!-- PT_NAME_0x56150067e588 -->
<g id="node8" class="node">
<title>PT_NAME_0x56150067e588</title>
<ellipse fill="none" stroke="black" cx="603.72" cy="-180" rx="135.39" ry="18"/>
<text text-anchor="middle" x="603.72" y="-175.32" font-family="Times,serif" font-size="14.00">PT_NAME [ dba.history ]</text>
</g>
<!-- PT_SPEC_0x56150067c630&#45;&gt;PT_NAME_0x56150067e588 -->
<g id="edge7" class="edge">
<title>PT_SPEC_0x56150067c630&#45;&gt;PT_NAME_0x56150067e588</title>
<path fill="none" stroke="black" d="M362.31,-180C389.36,-180 423.05,-180 456.57,-180"/>
<polygon fill="black" stroke="black" points="456.4,-183.5 466.4,-180 456.4,-176.5 456.4,-183.5"/>
</g>
<!-- PT_SPEC_0x56150067cbb8 -->
<g id="node9" class="node">
<title>PT_SPEC_0x56150067cbb8</title>
<ellipse fill="none" stroke="black" cx="603.72" cy="-126" rx="57.52" ry="18"/>
<text text-anchor="middle" x="603.72" y="-121.33" font-family="Times,serif" font-size="14.00">PT_SPEC</text>
</g>
<!-- PT_SPEC_0x56150067c630&#45;&gt;PT_SPEC_0x56150067cbb8 -->
<g id="edge8" class="edge">
<title>PT_SPEC_0x56150067c630&#45;&gt;PT_SPEC_0x56150067cbb8</title>
<path fill="none" stroke="black" d="M354.76,-171.02C406.22,-161.68 486.86,-147.04 542.12,-137"/>
<polygon fill="black" stroke="black" points="542.46,-140.5 551.67,-135.27 541.21,-133.61 542.46,-140.5"/>
</g>
<!-- PT_NAME_0x56150067c9e0 -->
<g id="node10" class="node">
<title>PT_NAME_0x56150067c9e0</title>
<ellipse fill="none" stroke="black" cx="915.23" cy="-207" rx="139.07" ry="18"/>
<text text-anchor="middle" x="915.23" y="-202.32" font-family="Times,serif" font-size="14.00">PT_NAME [ dba.olympic ]</text>
</g>
<!-- PT_SPEC_0x56150067cbb8&#45;&gt;PT_NAME_0x56150067c9e0 -->
<g id="edge9" class="edge">
<title>PT_SPEC_0x56150067cbb8&#45;&gt;PT_NAME_0x56150067c9e0</title>
<path fill="none" stroke="black" d="M659.15,-131.21C684.58,-135.05 714.77,-141.66 740.16,-153 758.42,-161.16 757.88,-171.88 776.16,-180 785.77,-184.27 796.05,-187.87 806.5,-190.9"/>
<polygon fill="black" stroke="black" points="805.41,-194.23 815.98,-193.46 807.24,-187.47 805.41,-194.23"/>
</g>
<!-- PT_NAME_0x56150067cd90 -->
<g id="node11" class="node">
<title>PT_NAME_0x56150067cd90</title>
<ellipse fill="none" stroke="black" cx="915.23" cy="-153" rx="84.35" ry="18"/>
<text text-anchor="middle" x="915.23" y="-148.32" font-family="Times,serif" font-size="14.00">PT_NAME [ o ]</text>
</g>
<!-- PT_SPEC_0x56150067cbb8&#45;&gt;PT_NAME_0x56150067cd90 -->
<g id="edge10" class="edge">
<title>PT_SPEC_0x56150067cbb8&#45;&gt;PT_NAME_0x56150067cd90</title>
<path fill="none" stroke="black" d="M659.7,-130.8C705.59,-134.8 771.9,-140.58 825.33,-145.25"/>
<polygon fill="black" stroke="black" points="824.75,-148.71 835.02,-146.09 825.36,-141.73 824.75,-148.71"/>
</g>
<!-- PT_NAME_0x56150067e760 -->
<g id="node12" class="node">
<title>PT_NAME_0x56150067e760</title>
<ellipse fill="none" stroke="black" cx="915.23" cy="-99" rx="139.07" ry="18"/>
<text text-anchor="middle" x="915.23" y="-94.33" font-family="Times,serif" font-size="14.00">PT_NAME [ dba.olympic ]</text>
</g>
<!-- PT_SPEC_0x56150067cbb8&#45;&gt;PT_NAME_0x56150067e760 -->
<g id="edge11" class="edge">
<title>PT_SPEC_0x56150067cbb8&#45;&gt;PT_NAME_0x56150067e760</title>
<path fill="none" stroke="black" d="M659.7,-121.2C695.17,-118.11 742.83,-113.95 787.32,-110.07"/>
<polygon fill="black" stroke="black" points="787.39,-113.58 797.04,-109.22 786.78,-106.6 787.39,-113.58"/>
</g>
<!-- PT_EXPR_0x56150067da78 -->
<g id="node13" class="node">
<title>PT_EXPR_0x56150067da78</title>
<ellipse fill="none" stroke="black" cx="915.23" cy="-45" rx="57.52" ry="18"/>
<text text-anchor="middle" x="915.23" y="-40.33" font-family="Times,serif" font-size="14.00">PT_EXPR</text>
</g>
<!-- PT_SPEC_0x56150067cbb8&#45;&gt;PT_EXPR_0x56150067da78 -->
<g id="edge12" class="edge">
<title>PT_SPEC_0x56150067cbb8&#45;&gt;PT_EXPR_0x56150067da78</title>
<path fill="none" stroke="black" d="M659.15,-120.79C684.58,-116.95 714.77,-110.34 740.16,-99 758.42,-90.84 757.88,-80.12 776.16,-72 798.6,-62.02 824.71,-55.72 848.15,-51.74"/>
<polygon fill="black" stroke="black" points="848.58,-55.22 857.92,-50.2 847.49,-48.3 848.58,-55.22"/>
</g>
<!-- PT_NAME_0x56150067d140 -->
<g id="node14" class="node">
<title>PT_NAME_0x56150067d140</title>
<ellipse fill="none" stroke="black" cx="1217.26" cy="-72" rx="126.97" ry="18"/>
<text text-anchor="middle" x="1217.26" y="-67.33" font-family="Times,serif" font-size="14.00">PT_NAME [ host_year ]</text>
</g>
<!-- PT_EXPR_0x56150067da78&#45;&gt;PT_NAME_0x56150067d140 -->
<g id="edge13" class="edge">
<title>PT_EXPR_0x56150067da78&#45;&gt;PT_NAME_0x56150067d140</title>
<path fill="none" stroke="black" d="M970.91,-49.92C1006.28,-53.1 1053.73,-57.37 1097.48,-61.31"/>
<polygon fill="black" stroke="black" points="1097.02,-64.78 1107.3,-62.19 1097.65,-57.81 1097.02,-64.78"/>
</g>
<!-- PT_NAME_0x56150067d6c8 -->
<g id="node15" class="node">
<title>PT_NAME_0x56150067d6c8</title>
<ellipse fill="none" stroke="black" cx="1217.26" cy="-18" rx="126.97" ry="18"/>
<text text-anchor="middle" x="1217.26" y="-13.32" font-family="Times,serif" font-size="14.00">PT_NAME [ host_year ]</text>
</g>
<!-- PT_EXPR_0x56150067da78&#45;&gt;PT_NAME_0x56150067d6c8 -->
<g id="edge14" class="edge">
<title>PT_EXPR_0x56150067da78&#45;&gt;PT_NAME_0x56150067d6c8</title>
<path fill="none" stroke="black" d="M970.91,-40.08C1006.28,-36.9 1053.73,-32.63 1097.48,-28.69"/>
<polygon fill="black" stroke="black" points="1097.65,-32.19 1107.3,-27.81 1097.02,-25.22 1097.65,-32.19"/>
</g>
<!-- PT_NAME_0x56150067de28 -->
<g id="node17" class="node">
<title>PT_NAME_0x56150067de28</title>
<ellipse fill="none" stroke="black" cx="603.72" cy="-72" rx="126.97" ry="18"/>
<text text-anchor="middle" x="603.72" y="-67.33" font-family="Times,serif" font-size="14.00">PT_NAME [ host_year ]</text>
</g>
<!-- PT_EXPR_0x56150067e3b0&#45;&gt;PT_NAME_0x56150067de28 -->
<g id="edge16" class="edge">
<title>PT_EXPR_0x56150067e3b0&#45;&gt;PT_NAME_0x56150067de28</title>
<path fill="none" stroke="black" d="M352.44,-61.82C391.8,-58.69 449.36,-57.77 499.35,-59.07"/>
<polygon fill="black" stroke="black" points="498.94,-62.56 509.04,-59.36 499.15,-55.57 498.94,-62.56"/>
</g>
<!-- PT_EXPR_0x56150067e3b0&#45;&gt;PT_NAME_0x56150067de28 -->
<g id="edge19" class="edge">
<title>PT_EXPR_0x56150067e3b0&#45;&gt;PT_NAME_0x56150067de28</title>
<path fill="none" stroke="black" d="M362.31,-72C391.65,-72 428.82,-72 465.1,-72"/>
<polygon fill="black" stroke="black" points="464.81,-75.5 474.81,-72 464.81,-68.5 464.81,-75.5"/>
</g>
<!-- PT_EXPR_0x56150067e3b0&#45;&gt;PT_NAME_0x56150067de28 -->
<g id="edge22" class="edge">
<title>PT_EXPR_0x56150067e3b0&#45;&gt;PT_NAME_0x56150067de28</title>
<path fill="none" stroke="black" d="M352.44,-82.18C391.8,-85.31 449.36,-86.23 499.35,-84.93"/>
<polygon fill="black" stroke="black" points="499.15,-88.43 509.04,-84.64 498.94,-81.44 499.15,-88.43"/>
</g>
<!-- PT_VALUE_0x56150067e1d8 -->
<g id="node18" class="node">
<title>PT_VALUE_0x56150067e1d8</title>
<ellipse fill="none" stroke="black" cx="603.72" cy="-18" rx="63.83" ry="18"/>
<text text-anchor="middle" x="603.72" y="-13.32" font-family="Times,serif" font-size="14.00">PT_VALUE</text>
</g>
<!-- PT_EXPR_0x56150067e3b0&#45;&gt;PT_VALUE_0x56150067e1d8 -->
<g id="edge17" class="edge">
<title>PT_EXPR_0x56150067e3b0&#45;&gt;PT_VALUE_0x56150067e1d8</title>
<path fill="none" stroke="black" d="M338.28,-57.15C383.84,-43.96 467.33,-27.79 528.35,-19.63"/>
<polygon fill="black" stroke="black" points="528.49,-23.14 537.97,-18.4 527.6,-16.2 528.49,-23.14"/>
</g>
<!-- PT_EXPR_0x56150067e3b0&#45;&gt;PT_VALUE_0x56150067e1d8 -->
<g id="edge20" class="edge">
<title>PT_EXPR_0x56150067e3b0&#45;&gt;PT_VALUE_0x56150067e1d8</title>
<path fill="none" stroke="black" d="M354.76,-63.02C404.98,-53.9 483,-39.74 538.09,-29.73"/>
<polygon fill="black" stroke="black" points="538.43,-33.23 547.65,-28 537.18,-26.34 538.43,-33.23"/>
</g>
<!-- PT_EXPR_0x56150067e3b0&#45;&gt;PT_VALUE_0x56150067e1d8 -->
<g id="edge23" class="edge">
<title>PT_EXPR_0x56150067e3b0&#45;&gt;PT_VALUE_0x56150067e1d8</title>
<path fill="none" stroke="black" d="M362.31,-72.55C419.03,-65.99 504.97,-50.1 557.27,-36.3"/>
<polygon fill="black" stroke="black" points="558.03,-39.71 566.75,-33.7 556.18,-32.96 558.03,-39.71"/>
</g>
</g>
</svg>
