<?xml version="1.0" encoding="UTF-8" standalone="no"?>
<!DOCTYPE svg PUBLIC "-//W3C//DTD SVG 1.1//EN"
 "http://www.w3.org/Graphics/SVG/1.1/DTD/svg11.dtd">
<!-- Generated by graphviz version 10.0.1 (0)
 -->
<!-- Pages: 1 -->
<svg width="1352pt" height="368pt"
 viewBox="0.00 0.00 1352.23 368.00" xmlns="http://www.w3.org/2000/svg" xmlns:xlink="http://www.w3.org/1999/xlink">
<g id="graph0" class="graph" transform="scale(1 1) rotate(0) translate(4 364)">
<polygon fill="white" stroke="none" points="-4,4 -4,-364 1348.23,-364 1348.23,4 -4,4"/>
<!-- PT_SELECT_0x56150067b770 -->
<g id="node1" class="node">
<title>PT_SELECT_0x56150067b770</title>
<ellipse fill="none" stroke="black" cx="70.67" cy="-207" rx="70.67" ry="18"/>
<text text-anchor="middle" x="70.67" y="-202.32" font-family="Times,serif" font-size="14.00">PT_SELECT</text>
</g>
<!-- PT_NAME_0x56150067bb20 -->
<g id="node2" class="node">
<title>PT_NAME_0x56150067bb20</title>
<ellipse fill="none" stroke="black" cx="304.32" cy="-301" rx="126.97" ry="18"/>
<text text-anchor="middle" x="304.32" y="-296.32" font-family="Times,serif" font-size="14.00">PT_NAME [ host_year ]</text>
</g>
<!-- PT_SELECT_0x56150067b770&#45;&gt;PT_NAME_0x56150067bb20 -->
<g id="edge1" class="edge">
<title>PT_SELECT_0x56150067b770&#45;&gt;PT_NAME_0x56150067bb20</title>
<path fill="none" stroke="black" d="M109.67,-222.42C147.88,-237.93 207.15,-261.97 250.05,-279.38"/>
<polygon fill="black" stroke="black" points="248.6,-282.57 259.18,-283.09 251.23,-276.09 248.6,-282.57"/>
</g>
<!-- PT_SPEC_0x56150067c630 -->
<g id="node5" class="node">
<title>PT_SPEC_0x56150067c630</title>
<ellipse fill="none" stroke="black" cx="304.32" cy="-207" rx="57.52" ry="18"/>
<text text-anchor="middle" x="304.32" y="-202.32" font-family="Times,serif" font-size="14.00">PT_SPEC</text>
</g>
<!-- PT_SELECT_0x56150067b770&#45;&gt;PT_SPEC_0x56150067c630 -->
<g id="edge4" class="edge">
<title>PT_SELECT_0x56150067b770&#45;&gt;PT_SPEC_0x56150067c630</title>
<path fill="none" stroke="black" d="M141.8,-207C171.43,-207 205.8,-207 235.2,-207"/>
<polygon fill="black" stroke="black" points="235.11,-210.5 245.11,-207 235.11,-203.5 235.11,-210.5"/>
</g>
<!-- PT_EXPR_0x56150067e3b0 -->
<g id="node16" class="node">
<title>PT_EXPR_0x56150067e3b0</title>
<ellipse fill="none" stroke="black" cx="304.32" cy="-72" rx="57.52" ry="18"/>
<text text-anchor="middle" x="304.32" y="-67.33" font-family="Times,serif" font-size="14.00">PT_EXPR</text>
</g>
<!-- PT_SELECT_0x56150067b770&#45;&gt;PT_EXPR_0x56150067e3b0 -->
<g id="edge15" class="edge">
<title>PT_SELECT_0x56150067b770&#45;&gt;PT_EXPR_0x56150067e3b0</title>
<path fill="none" stroke="black" d="M100.08,-190.45C141.75,-166.16 219.51,-120.84 265.82,-93.85"/>
<polygon fill="black" stroke="black" points="267.58,-96.88 274.45,-88.82 264.05,-90.83 267.58,-96.88"/>
</g>
<!-- PT_NAME_0x56150067c0a8 -->
<g id="node3" class="node">
<title>PT_NAME_0x56150067c0a8</title>
<ellipse fill="none" stroke="black" cx="603.72" cy="-342" rx="136.44" ry="18"/>
<text text-anchor="middle" x="603.72" y="-337.32" font-family="Times,serif" font-size="14.00">PT_NAME [ host_nation ]</text>
</g>
<!-- PT_NAME_0x56150067bb20&#45;&gt;PT_NAME_0x56150067c0a8 -->
<g id="edge2" class="edge">
<title>PT_NAME_0x56150067bb20&#45;&gt;PT_NAME_0x56150067c0a8</title>
<path fill="none" stroke="black" d="M396.97,-313.64C428.35,-317.96 463.72,-322.84 496.17,-327.31"/>
<polygon fill="black" stroke="black" points="495.63,-330.77 506.01,-328.67 496.58,-323.83 495.63,-330.77"/>
</g>
<!-- PT_DATA_TYPE_0x56150067b948 -->
<g id="node4" class="node">
<title>PT_DATA_TYPE_0x56150067b948</title>
<ellipse fill="none" stroke="black" cx="915.23" cy="-342" rx="87.51" ry="18"/>
<text text-anchor="middle" x="915.23" y="-337.32" font-family="Times,serif" font-size="14.00">PT_DATA_TYPE</text>
</g>
<!-- PT_NAME_0x56150067c0a8&#45;&gt;PT_DATA_TYPE_0x56150067b948 -->
<g id="edge3" class="edge">
<title>PT_NAME_0x56150067c0a8&#45;&gt;PT_DATA_TYPE_0x56150067b948</title>
<path fill="none" stroke="black" d="M740.48,-342C766,-342 792.21,-342 816.3,-342"/>
<polygon fill="black" stroke="black" points="816.06,-345.5 826.06,-342 816.06,-338.5 816.06,-345.5"/>
</g>
<!-- PT_NAME_0x56150067c458 -->
<g id="node6" class="node">
<title>PT_NAME_0x56150067c458</title>
<ellipse fill="none" stroke="black" cx="603.72" cy="-288" rx="135.39" ry="18"/>
<text text-anchor="middle" x="603.72" y="-283.32" font-family="Times,serif" font-size="14.00">PT_NAME [ dba.history ]</text>
</g>
<!-- PT_SPEC_0x56150067c630&#45;&gt;PT_NAME_0x56150067c458 -->
<g id="edge5" class="edge">
<title>PT_SPEC_0x56150067c630&#45;&gt;PT_NAME_0x56150067c458</title>
<path fill="none" stroke="black" d="M342.55,-220.89C375.12,-232.69 423.88,-249.49 467.28,-261 480.95,-264.63 495.51,-268.01 509.82,-271.08"/>
<polygon fill="black" stroke="black" points="508.71,-274.42 519.21,-273.05 510.15,-267.57 508.71,-274.42"/>
</g>
<!-- PT_NAME_0x56150067c808 -->
<g id="node7" class="node">
<title>PT_NAME_0x56150067c808</title>
<ellipse fill="none" stroke="black" cx="603.72" cy="-234" rx="84.88" ry="18"/>
<text text-anchor="middle" x="603.72" y="-229.32" font-family="Times,serif" font-size="14.00">PT_NAME [ h ]</text>
</g>
<!-- PT_SPEC_0x56150067c630&#45;&gt;PT_NAME_0x56150067c808 -->
<g id="edge6" class="edge">
<title>PT_SPEC_0x56150067c630&#45;&gt;PT_NAME_0x56150067c808</title>
<path fill="none" stroke="black" d="M359.86,-211.95C402.89,-215.86 463.79,-221.39 513.84,-225.93"/>
<polygon fill="black" stroke="black" points="513.21,-229.39 523.49,-226.81 513.84,-222.42 513.21,-229.39"/>
</g>
<!-- PT_NAME_0x56150067e588 -->
<g id="node8" class="node">
<title>PT_NAME_0x56150067e588</title>
<ellipse fill="none" stroke="black" cx="603.72" cy="-180" rx="135.39" ry="18"/>
<text text-anchor="middle" x="603.72" y="-175.32" font-family="Times,serif" font-size="14.00">PT_NAME [ dba.history ]</text>
</g>
<!-- PT_SPEC_0x56150067c630&#45;&gt;PT_NAME_0x56150067e588 -->
<g id="edge7" class="edge">
<title>PT_SPEC_0x56150067c630&#45;&gt;PT_NAME_0x56150067e588</title>
<path fill="none" stroke="black" d="M359.86,-202.05C393.35,-199.01 437.66,-194.99 479.25,-191.21"/>
<polygon fill="black" stroke="black" points="479.47,-194.7 489.11,-190.31 478.83,-187.73 479.47,-194.7"/>
</g>
<!-- PT_SPEC_0x56150067cbb8 -->
<g id="node9" class="node">
<title>PT_SPEC_0x56150067cbb8</title>
<ellipse fill="none" stroke="black" cx="603.72" cy="-126" rx="57.52" ry="18"/>
<text text-anchor="middle" x="603.72" y="-121.33" font-family="Times,serif" font-size="14.00">PT_SPEC</text>
</g>
<!-- PT_SPEC_0x56150067c630&#45;&gt;PT_SPEC_0x56150067cbb8 -->
<g id="edge8" class="edge">
<title>PT_SPEC_0x56150067c630&#45;&gt;PT_SPEC_0x56150067cbb8</title>
<path fill="none" stroke="black" d="M342.55,-193.11C375.12,-181.31 423.88,-164.51 467.28,-153 491.28,-146.63 518.03,-141 541.37,-136.55"/>
<polygon fill="black" stroke="black" points="541.86,-140.02 551.04,-134.74 540.57,-133.14 541.86,-140.02"/>
</g>
<!-- PT_NAME_0x56150067c9e0 -->
<g id="node10" class="node">
<title>PT_NAME_0x56150067c9e0</title>
<ellipse fill="none" stroke="black" cx="915.23" cy="-207" rx="139.07" ry="18"/>
<text text-anchor="middle" x="915.23" y="-202.32" font-family="Times,serif" font-size="14.00">PT_NAME [ dba.olympic ]</text>
</g>
<!-- PT_SPEC_0x56150067cbb8&#45;&gt;PT_NAME_0x56150067c9e0 -->
<g id="edge9" class="edge">
<title>PT_SPEC_0x56150067cbb8&#45;&gt;PT_NAME_0x56150067c9e0</title>
<path fill="none" stroke="black" d="M659.15,-131.21C684.58,-135.05 714.77,-141.66 740.16,-153 758.42,-161.16 757.88,-171.88 776.16,-180 785.77,-184.27 796.05,-187.87 806.5,-190.9"/>
<polygon fill="black" stroke="black" points="805.41,-194.23 815.98,-193.46 807.24,-187.47 805.41,-194.23"/>
</g>
<!-- PT_NAME_0x56150067cd90 -->
<g id="node11" class="node">
<title>PT_NAME_0x56150067cd90</title>
<ellipse fill="none" stroke="black" cx="915.23" cy="-153" rx="84.35" ry="18"/>
<text text-anchor="middle" x="915.23" y="-148.32" font-family="Times,serif" font-size="14.00">PT_NAME [ o ]</text>
</g>
<!-- PT_SPEC_0x56150067cbb8&#45;&gt;PT_NAME_0x56150067cd90 -->
<g id="edge10" class="edge">
<title>PT_SPEC_0x56150067cbb8&#45;&gt;PT_NAME_0x56150067cd90</title>
<path fill="none" stroke="black" d="M659.7,-130.8C705.59,-134.8 771.9,-140.58 825.33,-145.25"/>
<polygon fill="black" stroke="black" points="824.75,-148.71 835.02,-146.09 825.36,-141.73 824.75,-148.71"/>
</g>
<!-- PT_NAME_0x56150067e760 -->
<g id="node12" class="node">
<title>PT_NAME_0x56150067e760</title>
<ellipse fill="none" stroke="black" cx="915.23" cy="-99" rx="139.07" ry="18"/>
<text text-anchor="middle" x="915.23" y="-94.33" font-family="Times,serif" font-size="14.00">PT_NAME [ dba.olympic ]</text>
</g>
<!-- PT_SPEC_0x56150067cbb8&#45;&gt;PT_NAME_0x56150067e760 -->
<g id="edge11" class="edge">
<title>PT_SPEC_0x56150067cbb8&#45;&gt;PT_NAME_0x56150067e760</title>
<path fill="none" stroke="black" d="M659.7,-121.2C695.17,-118.11 742.83,-113.95 787.32,-110.07"/>
<polygon fill="black" stroke="black" points="787.39,-113.58 797.04,-109.22 786.78,-106.6 787.39,-113.58"/>
</g>
<!-- PT_EXPR_0x56150067da78 -->
<g id="node13" class="node">
<title>PT_EXPR_0x56150067da78</title>
<ellipse fill="none" stroke="black" cx="915.23" cy="-45" rx="57.52" ry="18"/>
<text text-anchor="middle" x="915.23" y="-40.33" font-family="Times,serif" font-size="14.00">PT_EXPR</text>
</g>
<!-- PT_SPEC_0x56150067cbb8&#45;&gt;PT_EXPR_0x56150067da78 -->
<g id="edge12" class="edge">
<title>PT_SPEC_0x56150067cbb8&#45;&gt;PT_EXPR_0x56150067da78</title>
<path fill="none" stroke="black" d="M659.15,-120.79C684.58,-116.95 714.77,-110.34 740.16,-99 758.42,-90.84 757.88,-80.12 776.16,-72 798.6,-62.02 824.71,-55.72 848.15,-51.74"/>
<polygon fill="black" stroke="black" points="848.58,-55.22 857.92,-50.2 847.49,-48.3 848.58,-55.22"/>
</g>
<!-- PT_NAME_0x56150067d140 -->
<g id="node14" class="node">
<title>PT_NAME_0x56150067d140</title>
<ellipse fill="none" stroke="black" cx="1217.26" cy="-72" rx="126.97" ry="18"/>
<text text-anchor="middle" x="1217.26" y="-67.33" font-family="Times,serif" font-size="14.00">PT_NAME [ host_year ]</text>
</g>
<!-- PT_EXPR_0x56150067da78&#45;&gt;PT_NAME_0x56150067d140 -->
<g id="edge13" class="edge">
<title>PT_EXPR_0x56150067da78&#45;&gt;PT_NAME_0x56150067d140</title>
<path fill="none" stroke="black" d="M970.91,-49.92C1006.28,-53.1 1053.73,-57.37 1097.48,-61.31"/>
<polygon fill="black" stroke="black" points="1097.02,-64.78 1107.3,-62.19 1097.65,-57.81 1097.02,-64.78"/>
</g>
<!-- PT_NAME_0x56150067d6c8 -->
<g id="node15" class="node">
<title>PT_NAME_0x56150067d6c8</title>
<ellipse fill="none" stroke="black" cx="1217.26" cy="-18" rx="126.97" ry="18"/>
<text text-anchor="middle" x="1217.26" y="-13.32" font-family="Times,serif" font-size="14.00">PT_NAME [ host_year ]</text>
</g>
<!-- PT_EXPR_0x56150067da78&#45;&gt;PT_NAME_0x56150067d6c8 -->
<g id="edge14" class="edge">
<title>PT_EXPR_0x56150067da78&#45;&gt;PT_NAME_0x56150067d6c8</title>
<path fill="none" stroke="black" d="M970.91,-40.08C1006.28,-36.9 1053.73,-32.63 1097.48,-28.69"/>
<polygon fill="black" stroke="black" points="1097.65,-32.19 1107.3,-27.81 1097.02,-25.22 1097.65,-32.19"/>
</g>
<!-- PT_NAME_0x56150067de28 -->
<g id="node17" class="node">
<title>PT_NAME_0x56150067de28</title>
<ellipse fill="none" stroke="black" cx="603.72" cy="-72" rx="126.97" ry="18"/>
<text text-anchor="middle" x="603.72" y="-67.33" font-family="Times,serif" font-size="14.00">PT_NAME [ host_year ]</text>
</g>
<!-- PT_EXPR_0x56150067e3b0&#45;&gt;PT_NAME_0x56150067de28 -->
<g id="edge16" class="edge">
<title>PT_EXPR_0x56150067e3b0&#45;&gt;PT_NAME_0x56150067de28</title>
<path fill="none" stroke="black" d="M362.31,-72C391.65,-72 428.82,-72 465.1,-72"/>
<polygon fill="black" stroke="black" points="464.81,-75.5 474.81,-72 464.81,-68.5 464.81,-75.5"/>
</g>
<!-- PT_VALUE_0x56150067e1d8 -->
<g id="node18" class="node">
<title>PT_VALUE_0x56150067e1d8</title>
<ellipse fill="none" stroke="black" cx="603.72" cy="-18" rx="63.83" ry="18"/>
<text text-anchor="middle" x="603.72" y="-13.32" font-family="Times,serif" font-size="14.00">PT_VALUE</text>
</g>
<!-- PT_EXPR_0x56150067e3b0&#45;&gt;PT_VALUE_0x56150067e1d8 -->
<g id="edge17" class="edge">
<title>PT_EXPR_0x56150067e3b0&#45;&gt;PT_VALUE_0x56150067e1d8</title>
<path fill="none" stroke="black" d="M354.76,-63.02C404.98,-53.9 483,-39.74 538.09,-29.73"/>
<polygon fill="black" stroke="black" points="538.43,-33.23 547.65,-28 537.18,-26.34 538.43,-33.23"/>
</g>
</g>
</svg>
