<?xml version="1.0" encoding="UTF-8" standalone="no"?>
<!DOCTYPE svg PUBLIC "-//W3C//DTD SVG 1.1//EN"
 "http://www.w3.org/Graphics/SVG/1.1/DTD/svg11.dtd">
<!-- Generated by graphviz version 10.0.1 (0)
 -->
<!-- Pages: 1 -->
<svg width="1337pt" height="476pt"
 viewBox="0.00 0.00 1337.02 476.00" xmlns="http://www.w3.org/2000/svg" xmlns:xlink="http://www.w3.org/1999/xlink">
<g id="graph0" class="graph" transform="scale(1 1) rotate(0) translate(4 472)">
<polygon fill="white" stroke="none" points="-4,4 -4,-472 1333.02,-472 1333.02,4 -4,4"/>
<!-- PT_SELECT_0x56150067b770 -->
<g id="node1" class="node">
<title>PT_SELECT_0x56150067b770</title>
<ellipse fill="none" stroke="black" cx="70.67" cy="-234" rx="70.67" ry="18"/>
<text text-anchor="middle" x="70.67" y="-229.32" font-family="Times,serif" font-size="14.00">PT_SELECT</text>
</g>
<!-- PT_SELECT_0x56150067b770&#45;&gt;PT_SELECT_0x56150067b770 -->
<g id="edge25" class="edge">
<title>PT_SELECT_0x56150067b770&#45;&gt;PT_SELECT_0x56150067b770</title>
<path fill="none" stroke="black" d="M41.81,-250.66C35.4,-260.62 45.02,-270 70.67,-270 85.91,-270 95.49,-266.69 99.41,-261.92"/>
<polygon fill="black" stroke="black" points="102.91,-262.21 99.52,-252.18 95.91,-262.14 102.91,-262.21"/>
</g>
<!-- PT_DOT__0x56150067bcf8 -->
<g id="node2" class="node">
<title>PT_DOT__0x56150067bcf8</title>
<ellipse fill="none" stroke="black" cx="234.87" cy="-369" rx="55.94" ry="18"/>
<text text-anchor="middle" x="234.87" y="-364.32" font-family="Times,serif" font-size="14.00">PT_DOT_</text>
</g>
<!-- PT_SELECT_0x56150067b770&#45;&gt;PT_DOT__0x56150067bcf8 -->
<g id="edge1" class="edge">
<title>PT_SELECT_0x56150067b770&#45;&gt;PT_DOT__0x56150067bcf8</title>
<path fill="none" stroke="black" d="M98.09,-250.85C128.98,-274.36 179.66,-316.6 209.59,-343.81"/>
<polygon fill="black" stroke="black" points="206.98,-346.16 216.7,-350.37 211.72,-341.02 206.98,-346.16"/>
</g>
<!-- PT_SELECT_0x56150067b770&#45;&gt;PT_DOT__0x56150067bcf8 -->
<g id="edge26" class="edge">
<title>PT_SELECT_0x56150067b770&#45;&gt;PT_DOT__0x56150067bcf8</title>
<path fill="none" stroke="black" d="M87.82,-251.68C113.71,-276.02 165.09,-319.25 199.48,-346.01"/>
<polygon fill="black" stroke="black" points="197,-348.52 207.06,-351.84 201.27,-342.97 197,-348.52"/>
</g>
<!-- PT_SPEC_0x56150067c630 -->
<g id="node8" class="node">
<title>PT_SPEC_0x56150067c630</title>
<ellipse fill="none" stroke="black" cx="234.87" cy="-234" rx="57.52" ry="18"/>
<text text-anchor="middle" x="234.87" y="-229.32" font-family="Times,serif" font-size="14.00">PT_SPEC</text>
</g>
<!-- PT_SELECT_0x56150067b770&#45;&gt;PT_SPEC_0x56150067c630 -->
<g id="edge7" class="edge">
<title>PT_SELECT_0x56150067b770&#45;&gt;PT_SPEC_0x56150067c630</title>
<path fill="none" stroke="black" d="M122.55,-221.37C140.7,-220.28 161.2,-220.21 179.62,-221.18"/>
<polygon fill="black" stroke="black" points="179.36,-224.67 189.57,-221.84 179.82,-217.69 179.36,-224.67"/>
</g>
<!-- PT_SELECT_0x56150067b770&#45;&gt;PT_SPEC_0x56150067c630 -->
<g id="edge32" class="edge">
<title>PT_SELECT_0x56150067b770&#45;&gt;PT_SPEC_0x56150067c630</title>
<path fill="none" stroke="black" d="M141.4,-234C149.36,-234 157.47,-234 165.42,-234"/>
<polygon fill="black" stroke="black" points="165.39,-237.5 175.39,-234 165.39,-230.5 165.39,-237.5"/>
</g>
<!-- PT_SELECT_0x56150067b770&#45;&gt;PT_SPEC_0x56150067c630 -->
<g id="edge50" class="edge">
<title>PT_SELECT_0x56150067b770&#45;&gt;PT_SPEC_0x56150067c630</title>
<path fill="none" stroke="black" d="M122.55,-246.63C140.7,-247.72 161.2,-247.79 179.62,-246.82"/>
<polygon fill="black" stroke="black" points="179.82,-250.31 189.57,-246.16 179.36,-243.33 179.82,-250.31"/>
</g>
<!-- PT_EXPR_0x56150067e3b0 -->
<g id="node21" class="node">
<title>PT_EXPR_0x56150067e3b0</title>
<ellipse fill="none" stroke="black" cx="234.87" cy="-72" rx="57.52" ry="18"/>
<text text-anchor="middle" x="234.87" y="-67.33" font-family="Times,serif" font-size="14.00">PT_EXPR</text>
</g>
<!-- PT_SELECT_0x56150067b770&#45;&gt;PT_EXPR_0x56150067e3b0 -->
<g id="edge20" class="edge">
<title>PT_SELECT_0x56150067b770&#45;&gt;PT_EXPR_0x56150067e3b0</title>
<path fill="none" stroke="black" d="M85.5,-216.21C111.67,-186.91 168.97,-129.23 204.21,-96.27"/>
<polygon fill="black" stroke="black" points="206.16,-99.23 211.12,-89.87 201.4,-94.1 206.16,-99.23"/>
</g>
<!-- PT_SELECT_0x56150067b770&#45;&gt;PT_EXPR_0x56150067e3b0 -->
<g id="edge45" class="edge">
<title>PT_SELECT_0x56150067b770&#45;&gt;PT_EXPR_0x56150067e3b0</title>
<path fill="none" stroke="black" d="M93.89,-216.63C125.11,-188.05 181.59,-131.61 212.4,-98.2"/>
<polygon fill="black" stroke="black" points="214.86,-100.7 218.99,-90.95 209.68,-95.99 214.86,-100.7"/>
</g>
<!-- PT_NAME_0x56150067b948 -->
<g id="node3" class="node">
<title>PT_NAME_0x56150067b948</title>
<ellipse fill="none" stroke="black" cx="455.36" cy="-450" rx="84.88" ry="18"/>
<text text-anchor="middle" x="455.36" y="-445.32" font-family="Times,serif" font-size="14.00">PT_NAME [ h ]</text>
</g>
<!-- PT_DOT__0x56150067bcf8&#45;&gt;PT_NAME_0x56150067b948 -->
<g id="edge2" class="edge">
<title>PT_DOT__0x56150067bcf8&#45;&gt;PT_NAME_0x56150067b948</title>
<path fill="none" stroke="black" d="M268.84,-383.63C285.95,-393.57 307.58,-405.94 328.39,-414 349.16,-422.05 372.84,-427.92 394.02,-432.62"/>
<polygon fill="black" stroke="black" points="393.16,-436.02 403.68,-434.73 394.65,-429.18 393.16,-436.02"/>
</g>
<!-- PT_DOT__0x56150067bcf8&#45;&gt;PT_NAME_0x56150067b948 -->
<g id="edge27" class="edge">
<title>PT_DOT__0x56150067bcf8&#45;&gt;PT_NAME_0x56150067b948</title>
<path fill="none" stroke="black" d="M251.14,-386.47C268.88,-401.22 299.43,-420.78 328.39,-432 339.06,-436.13 350.49,-439.69 361.96,-442.67"/>
<polygon fill="black" stroke="black" points="360.93,-446.02 371.47,-444.99 362.59,-439.22 360.93,-446.02"/>
</g>
<!-- PT_NAME_0x56150067bb20 -->
<g id="node4" class="node">
<title>PT_NAME_0x56150067bb20</title>
<ellipse fill="none" stroke="black" cx="455.36" cy="-396" rx="126.97" ry="18"/>
<text text-anchor="middle" x="455.36" y="-391.32" font-family="Times,serif" font-size="14.00">PT_NAME [ host_year ]</text>
</g>
<!-- PT_DOT__0x56150067bcf8&#45;&gt;PT_NAME_0x56150067bb20 -->
<g id="edge3" class="edge">
<title>PT_DOT__0x56150067bcf8&#45;&gt;PT_NAME_0x56150067bb20</title>
<path fill="none" stroke="black" d="M291,-369.86C315.45,-372.1 344.73,-375.51 371.71,-379.22"/>
<polygon fill="black" stroke="black" points="371.22,-382.68 381.61,-380.61 372.2,-375.75 371.22,-382.68"/>
</g>
<!-- PT_DOT__0x56150067bcf8&#45;&gt;PT_NAME_0x56150067bb20 -->
<g id="edge28" class="edge">
<title>PT_DOT__0x56150067bcf8&#45;&gt;PT_NAME_0x56150067bb20</title>
<path fill="none" stroke="black" d="M280.08,-380.01C294.3,-382.37 310.83,-384.79 327.94,-387.05"/>
<polygon fill="black" stroke="black" points="327.37,-390.51 337.74,-388.32 328.27,-383.57 327.37,-390.51"/>
</g>
<!-- PT_DOT__0x56150067c280 -->
<g id="node5" class="node">
<title>PT_DOT__0x56150067c280</title>
<ellipse fill="none" stroke="black" cx="455.36" cy="-342" rx="55.94" ry="18"/>
<text text-anchor="middle" x="455.36" y="-337.32" font-family="Times,serif" font-size="14.00">PT_DOT_</text>
</g>
<!-- PT_DOT__0x56150067bcf8&#45;&gt;PT_DOT__0x56150067c280 -->
<g id="edge4" class="edge">
<title>PT_DOT__0x56150067bcf8&#45;&gt;PT_DOT__0x56150067c280</title>
<path fill="none" stroke="black" d="M280.08,-357.99C311.14,-352.84 353.22,-347.4 388.25,-343.91"/>
<polygon fill="black" stroke="black" points="388.22,-347.43 397.84,-342.99 387.55,-340.46 388.22,-347.43"/>
</g>
<!-- PT_DOT__0x56150067bcf8&#45;&gt;PT_DOT__0x56150067c280 -->
<g id="edge29" class="edge">
<title>PT_DOT__0x56150067bcf8&#45;&gt;PT_DOT__0x56150067c280</title>
<path fill="none" stroke="black" d="M291,-368.14C324.02,-365.12 365.87,-359.95 398.94,-354.81"/>
<polygon fill="black" stroke="black" points="399.43,-358.28 408.75,-353.24 398.32,-351.36 399.43,-358.28"/>
</g>
<!-- PT_NAME_0x56150067bed0 -->
<g id="node6" class="node">
<title>PT_NAME_0x56150067bed0</title>
<ellipse fill="none" stroke="black" cx="754.76" cy="-369" rx="84.35" ry="18"/>
<text text-anchor="middle" x="754.76" y="-364.32" font-family="Times,serif" font-size="14.00">PT_NAME [ o ]</text>
</g>
<!-- PT_DOT__0x56150067c280&#45;&gt;PT_NAME_0x56150067bed0 -->
<g id="edge5" class="edge">
<title>PT_DOT__0x56150067c280&#45;&gt;PT_NAME_0x56150067bed0</title>
<path fill="none" stroke="black" d="M511.6,-341.63C558.32,-344.28 625.73,-350.2 677.57,-356.1"/>
<polygon fill="black" stroke="black" points="676.87,-359.55 687.21,-357.23 677.68,-352.59 676.87,-359.55"/>
</g>
<!-- PT_DOT__0x56150067c280&#45;&gt;PT_NAME_0x56150067bed0 -->
<g id="edge30" class="edge">
<title>PT_DOT__0x56150067c280&#45;&gt;PT_NAME_0x56150067bed0</title>
<path fill="none" stroke="black" d="M503.81,-351.41C545.45,-356.84 607.25,-362.86 658.98,-366.73"/>
<polygon fill="black" stroke="black" points="658.45,-370.2 668.68,-367.44 658.96,-363.22 658.45,-370.2"/>
</g>
<!-- PT_NAME_0x56150067c0a8 -->
<g id="node7" class="node">
<title>PT_NAME_0x56150067c0a8</title>
<ellipse fill="none" stroke="black" cx="754.76" cy="-315" rx="136.44" ry="18"/>
<text text-anchor="middle" x="754.76" y="-310.32" font-family="Times,serif" font-size="14.00">PT_NAME [ host_nation ]</text>
</g>
<!-- PT_DOT__0x56150067c280&#45;&gt;PT_NAME_0x56150067c0a8 -->
<g id="edge6" class="edge">
<title>PT_DOT__0x56150067c280&#45;&gt;PT_NAME_0x56150067c0a8</title>
<path fill="none" stroke="black" d="M503.81,-332.59C533.35,-328.74 573.05,-324.59 612.1,-321.12"/>
<polygon fill="black" stroke="black" points="612.19,-324.62 621.85,-320.27 611.58,-317.65 612.19,-324.62"/>
</g>
<!-- PT_DOT__0x56150067c280&#45;&gt;PT_NAME_0x56150067c0a8 -->
<g id="edge31" class="edge">
<title>PT_DOT__0x56150067c280&#45;&gt;PT_NAME_0x56150067c0a8</title>
<path fill="none" stroke="black" d="M511.6,-342.37C551.88,-340.09 607.54,-335.37 655.35,-330.33"/>
<polygon fill="black" stroke="black" points="655.61,-333.82 665.18,-329.27 654.86,-326.86 655.61,-333.82"/>
</g>
<!-- PT_NAME_0x56150067c458 -->
<g id="node9" class="node">
<title>PT_NAME_0x56150067c458</title>
<ellipse fill="none" stroke="black" cx="455.36" cy="-288" rx="113.82" ry="18"/>
<text text-anchor="middle" x="455.36" y="-283.32" font-family="Times,serif" font-size="14.00">PT_NAME [ history ]</text>
</g>
<!-- PT_SPEC_0x56150067c630&#45;&gt;PT_NAME_0x56150067c458 -->
<g id="edge8" class="edge">
<title>PT_SPEC_0x56150067c630&#45;&gt;PT_NAME_0x56150067c458</title>
<path fill="none" stroke="black" d="M292.45,-233.62C304.28,-236.62 316.71,-240.05 328.39,-243 359.18,-250.78 394.57,-258.24 419.98,-266.41"/>
<polygon fill="black" stroke="black" points="418.53,-269.61 429.13,-269.59 420.83,-263 418.53,-269.61"/>
</g>
<!-- PT_SPEC_0x56150067c630&#45;&gt;PT_NAME_0x56150067c458 -->
<g id="edge33" class="edge">
<title>PT_SPEC_0x56150067c630&#45;&gt;PT_NAME_0x56150067c458</title>
<path fill="none" stroke="black" d="M276.69,-246.61C292.73,-251.38 311.36,-256.7 328.39,-261 342.47,-264.56 357.52,-268.05 372.13,-271.28"/>
<polygon fill="black" stroke="black" points="371.2,-274.66 381.72,-273.37 372.69,-267.82 371.2,-274.66"/>
</g>
<!-- PT_SPEC_0x56150067c630&#45;&gt;PT_NAME_0x56150067c458 -->
<g id="edge51" class="edge">
<title>PT_SPEC_0x56150067c630&#45;&gt;PT_NAME_0x56150067c458</title>
<path fill="none" stroke="black" d="M251.16,-251.66C269.43,-262.52 300.97,-272.07 328.39,-279 330.38,-279.5 332.38,-280 334.41,-280.5"/>
<polygon fill="black" stroke="black" points="333.33,-283.84 343.87,-282.78 334.96,-277.04 333.33,-283.84"/>
</g>
<!-- PT_NAME_0x56150067c808 -->
<g id="node10" class="node">
<title>PT_NAME_0x56150067c808</title>
<ellipse fill="none" stroke="black" cx="455.36" cy="-234" rx="84.88" ry="18"/>
<text text-anchor="middle" x="455.36" y="-229.32" font-family="Times,serif" font-size="14.00">PT_NAME [ h ]</text>
</g>
<!-- PT_SPEC_0x56150067c630&#45;&gt;PT_NAME_0x56150067c808 -->
<g id="edge9" class="edge">
<title>PT_SPEC_0x56150067c630&#45;&gt;PT_NAME_0x56150067c808</title>
<path fill="none" stroke="black" d="M280.88,-222.84C309.59,-220.46 347.5,-219.89 380.55,-221.15"/>
<polygon fill="black" stroke="black" points="380.36,-224.65 390.5,-221.6 380.67,-217.65 380.36,-224.65"/>
</g>
<!-- PT_SPEC_0x56150067c630&#45;&gt;PT_NAME_0x56150067c808 -->
<g id="edge34" class="edge">
<title>PT_SPEC_0x56150067c630&#45;&gt;PT_NAME_0x56150067c808</title>
<path fill="none" stroke="black" d="M292.7,-234C312.93,-234 336.3,-234 358.87,-234"/>
<polygon fill="black" stroke="black" points="358.71,-237.5 368.71,-234 358.71,-230.5 358.71,-237.5"/>
</g>
<!-- PT_SPEC_0x56150067c630&#45;&gt;PT_NAME_0x56150067c808 -->
<g id="edge52" class="edge">
<title>PT_SPEC_0x56150067c630&#45;&gt;PT_NAME_0x56150067c808</title>
<path fill="none" stroke="black" d="M280.88,-245.16C309.59,-247.54 347.5,-248.11 380.55,-246.85"/>
<polygon fill="black" stroke="black" points="380.67,-250.35 390.5,-246.4 380.36,-243.35 380.67,-250.35"/>
</g>
<!-- PT_SPEC_0x56150067cbb8 -->
<g id="node11" class="node">
<title>PT_SPEC_0x56150067cbb8</title>
<ellipse fill="none" stroke="black" cx="455.36" cy="-180" rx="57.52" ry="18"/>
<text text-anchor="middle" x="455.36" y="-175.32" font-family="Times,serif" font-size="14.00">PT_SPEC</text>
</g>
<!-- PT_SPEC_0x56150067c630&#45;&gt;PT_SPEC_0x56150067cbb8 -->
<g id="edge10" class="edge">
<title>PT_SPEC_0x56150067c630&#45;&gt;PT_SPEC_0x56150067cbb8</title>
<path fill="none" stroke="black" d="M251.16,-216.34C269.43,-205.48 300.97,-195.93 328.39,-189 348.06,-184.03 369.6,-179.19 389.22,-175.82"/>
<polygon fill="black" stroke="black" points="389.71,-179.28 399.03,-174.25 388.6,-172.37 389.71,-179.28"/>
</g>
<!-- PT_SPEC_0x56150067c630&#45;&gt;PT_SPEC_0x56150067cbb8 -->
<g id="edge35" class="edge">
<title>PT_SPEC_0x56150067c630&#45;&gt;PT_SPEC_0x56150067cbb8</title>
<path fill="none" stroke="black" d="M276.69,-221.39C292.73,-216.62 311.36,-211.3 328.39,-207 349.9,-201.56 373.65,-196.29 394.67,-191.86"/>
<polygon fill="black" stroke="black" points="395.16,-195.34 404.23,-189.87 393.73,-188.49 395.16,-195.34"/>
</g>
<!-- PT_SPEC_0x56150067c630&#45;&gt;PT_SPEC_0x56150067cbb8 -->
<g id="edge53" class="edge">
<title>PT_SPEC_0x56150067c630&#45;&gt;PT_SPEC_0x56150067cbb8</title>
<path fill="none" stroke="black" d="M292.45,-234.38C304.28,-231.38 316.71,-227.95 328.39,-225 360.12,-216.98 396.74,-209.31 422.29,-200.84"/>
<polygon fill="black" stroke="black" points="423.21,-204.23 431.43,-197.54 420.83,-197.65 423.21,-204.23"/>
</g>
<!-- PT_NAME_0x56150067c9e0 -->
<g id="node12" class="node">
<title>PT_NAME_0x56150067c9e0</title>
<ellipse fill="none" stroke="black" cx="754.76" cy="-234" rx="117.5" ry="18"/>
<text text-anchor="middle" x="754.76" y="-229.32" font-family="Times,serif" font-size="14.00">PT_NAME [ olympic ]</text>
</g>
<!-- PT_SPEC_0x56150067cbb8&#45;&gt;PT_NAME_0x56150067c9e0 -->
<g id="edge11" class="edge">
<title>PT_SPEC_0x56150067cbb8&#45;&gt;PT_NAME_0x56150067c9e0</title>
<path fill="none" stroke="black" d="M513.35,-179.45C567.56,-185.72 648.45,-200.51 701.16,-213.86"/>
<polygon fill="black" stroke="black" points="700.27,-217.24 710.83,-216.39 702.04,-210.47 700.27,-217.24"/>
</g>
<!-- PT_SPEC_0x56150067cbb8&#45;&gt;PT_NAME_0x56150067c9e0 -->
<g id="edge36" class="edge">
<title>PT_SPEC_0x56150067cbb8&#45;&gt;PT_NAME_0x56150067c9e0</title>
<path fill="none" stroke="black" d="M505.8,-188.98C549.27,-196.87 613.57,-208.55 665.8,-218.03"/>
<polygon fill="black" stroke="black" points="665.14,-221.47 675.6,-219.81 666.39,-214.58 665.14,-221.47"/>
</g>
<!-- PT_SPEC_0x56150067cbb8&#45;&gt;PT_NAME_0x56150067c9e0 -->
<g id="edge54" class="edge">
<title>PT_SPEC_0x56150067cbb8&#45;&gt;PT_NAME_0x56150067c9e0</title>
<path fill="none" stroke="black" d="M489.32,-194.85C524.27,-204.97 581.53,-216.84 633.85,-225.5"/>
<polygon fill="black" stroke="black" points="633,-228.91 643.44,-227.06 634.13,-222 633,-228.91"/>
</g>
<!-- PT_NAME_0x56150067cd90 -->
<g id="node13" class="node">
<title>PT_NAME_0x56150067cd90</title>
<ellipse fill="none" stroke="black" cx="754.76" cy="-180" rx="84.35" ry="18"/>
<text text-anchor="middle" x="754.76" y="-175.32" font-family="Times,serif" font-size="14.00">PT_NAME [ o ]</text>
</g>
<!-- PT_SPEC_0x56150067cbb8&#45;&gt;PT_NAME_0x56150067cd90 -->
<g id="edge12" class="edge">
<title>PT_SPEC_0x56150067cbb8&#45;&gt;PT_NAME_0x56150067cd90</title>
<path fill="none" stroke="black" d="M503.48,-169.82C549.97,-166.12 621.82,-165.51 676.64,-168"/>
<polygon fill="black" stroke="black" points="676.38,-171.49 686.55,-168.5 676.74,-164.5 676.38,-171.49"/>
</g>
<!-- PT_SPEC_0x56150067cbb8&#45;&gt;PT_NAME_0x56150067cd90 -->
<g id="edge37" class="edge">
<title>PT_SPEC_0x56150067cbb8&#45;&gt;PT_NAME_0x56150067cd90</title>
<path fill="none" stroke="black" d="M513.35,-180C554.42,-180 610.79,-180 658.63,-180"/>
<polygon fill="black" stroke="black" points="658.45,-183.5 668.45,-180 658.45,-176.5 658.45,-183.5"/>
</g>
<!-- PT_SPEC_0x56150067cbb8&#45;&gt;PT_NAME_0x56150067cd90 -->
<g id="edge55" class="edge">
<title>PT_SPEC_0x56150067cbb8&#45;&gt;PT_NAME_0x56150067cd90</title>
<path fill="none" stroke="black" d="M503.48,-190.18C549.97,-193.88 621.82,-194.49 676.64,-192"/>
<polygon fill="black" stroke="black" points="676.74,-195.5 686.55,-191.5 676.38,-188.51 676.74,-195.5"/>
</g>
<!-- PT_EXPR_0x56150067da78 -->
<g id="node14" class="node">
<title>PT_EXPR_0x56150067da78</title>
<ellipse fill="none" stroke="black" cx="754.76" cy="-126" rx="57.52" ry="18"/>
<text text-anchor="middle" x="754.76" y="-121.33" font-family="Times,serif" font-size="14.00">PT_EXPR</text>
</g>
<!-- PT_SPEC_0x56150067cbb8&#45;&gt;PT_EXPR_0x56150067da78 -->
<g id="edge13" class="edge">
<title>PT_SPEC_0x56150067cbb8&#45;&gt;PT_EXPR_0x56150067da78</title>
<path fill="none" stroke="black" d="M489.32,-165.15C536.52,-151.48 624.43,-134.63 685.88,-126.78"/>
<polygon fill="black" stroke="black" points="686.03,-130.29 695.53,-125.61 685.18,-123.34 686.03,-130.29"/>
</g>
<!-- PT_SPEC_0x56150067cbb8&#45;&gt;PT_EXPR_0x56150067da78 -->
<g id="edge38" class="edge">
<title>PT_SPEC_0x56150067cbb8&#45;&gt;PT_EXPR_0x56150067da78</title>
<path fill="none" stroke="black" d="M505.8,-171.02C557.26,-161.68 637.9,-147.04 693.16,-137"/>
<polygon fill="black" stroke="black" points="693.5,-140.5 702.71,-135.27 692.25,-133.61 693.5,-140.5"/>
</g>
<!-- PT_SPEC_0x56150067cbb8&#45;&gt;PT_EXPR_0x56150067da78 -->
<g id="edge56" class="edge">
<title>PT_SPEC_0x56150067cbb8&#45;&gt;PT_EXPR_0x56150067da78</title>
<path fill="none" stroke="black" d="M513.35,-180.55C570.7,-173.91 657.92,-157.74 710.04,-143.84"/>
<polygon fill="black" stroke="black" points="710.76,-147.27 719.46,-141.22 708.88,-140.52 710.76,-147.27"/>
</g>
<!-- PT_DOT__0x56150067d318 -->
<g id="node15" class="node">
<title>PT_DOT__0x56150067d318</title>
<ellipse fill="none" stroke="black" cx="983.15" cy="-153" rx="55.94" ry="18"/>
<text text-anchor="middle" x="983.15" y="-148.32" font-family="Times,serif" font-size="14.00">PT_DOT_</text>
</g>
<!-- PT_EXPR_0x56150067da78&#45;&gt;PT_DOT__0x56150067d318 -->
<g id="edge14" class="edge">
<title>PT_EXPR_0x56150067da78&#45;&gt;PT_DOT__0x56150067d318</title>
<path fill="none" stroke="black" d="M810.28,-120.76C848.93,-122.82 900.2,-129.16 936.66,-136.5"/>
<polygon fill="black" stroke="black" points="935.47,-139.83 945.99,-138.5 936.94,-132.98 935.47,-139.83"/>
</g>
<!-- PT_EXPR_0x56150067da78&#45;&gt;PT_DOT__0x56150067d318 -->
<g id="edge39" class="edge">
<title>PT_EXPR_0x56150067da78&#45;&gt;PT_DOT__0x56150067d318</title>
<path fill="none" stroke="black" d="M809.13,-132.36C842.01,-136.29 884.35,-141.34 918.91,-145.46"/>
<polygon fill="black" stroke="black" points="918.46,-148.93 928.81,-146.64 919.29,-141.98 918.46,-148.93"/>
</g>
<!-- PT_EXPR_0x56150067da78&#45;&gt;PT_DOT__0x56150067d318 -->
<g id="edge57" class="edge">
<title>PT_EXPR_0x56150067da78&#45;&gt;PT_DOT__0x56150067d318</title>
<path fill="none" stroke="black" d="M791.14,-140.34C825.01,-147.97 876.9,-154.89 918.06,-157.66"/>
<polygon fill="black" stroke="black" points="917.65,-161.14 927.84,-158.24 918.07,-154.15 917.65,-161.14"/>
</g>
<!-- PT_DOT__0x56150067d8a0 -->
<g id="node18" class="node">
<title>PT_DOT__0x56150067d8a0</title>
<ellipse fill="none" stroke="black" cx="983.15" cy="-99" rx="55.94" ry="18"/>
<text text-anchor="middle" x="983.15" y="-94.33" font-family="Times,serif" font-size="14.00">PT_DOT_</text>
</g>
<!-- PT_EXPR_0x56150067da78&#45;&gt;PT_DOT__0x56150067d8a0 -->
<g id="edge17" class="edge">
<title>PT_EXPR_0x56150067da78&#45;&gt;PT_DOT__0x56150067d8a0</title>
<path fill="none" stroke="black" d="M791.14,-111.66C825.01,-104.03 876.9,-97.11 918.06,-94.34"/>
<polygon fill="black" stroke="black" points="918.07,-97.85 927.84,-93.76 917.65,-90.86 918.07,-97.85"/>
</g>
<!-- PT_EXPR_0x56150067da78&#45;&gt;PT_DOT__0x56150067d8a0 -->
<g id="edge42" class="edge">
<title>PT_EXPR_0x56150067da78&#45;&gt;PT_DOT__0x56150067d8a0</title>
<path fill="none" stroke="black" d="M809.13,-119.64C842.01,-115.71 884.35,-110.66 918.91,-106.54"/>
<polygon fill="black" stroke="black" points="919.29,-110.02 928.81,-105.36 918.46,-103.07 919.29,-110.02"/>
</g>
<!-- PT_EXPR_0x56150067da78&#45;&gt;PT_DOT__0x56150067d8a0 -->
<g id="edge60" class="edge">
<title>PT_EXPR_0x56150067da78&#45;&gt;PT_DOT__0x56150067d8a0</title>
<path fill="none" stroke="black" d="M810.28,-131.24C848.93,-129.18 900.2,-122.84 936.66,-115.5"/>
<polygon fill="black" stroke="black" points="936.94,-119.02 945.99,-113.5 935.47,-112.17 936.94,-119.02"/>
</g>
<!-- PT_NAME_0x56150067cf68 -->
<g id="node16" class="node">
<title>PT_NAME_0x56150067cf68</title>
<ellipse fill="none" stroke="black" cx="1202.06" cy="-207" rx="84.88" ry="18"/>
<text text-anchor="middle" x="1202.06" y="-202.32" font-family="Times,serif" font-size="14.00">PT_NAME [ h ]</text>
</g>
<!-- PT_DOT__0x56150067d318&#45;&gt;PT_NAME_0x56150067cf68 -->
<g id="edge15" class="edge">
<title>PT_DOT__0x56150067d318&#45;&gt;PT_NAME_0x56150067cf68</title>
<path fill="none" stroke="black" d="M1039.26,-152.53C1051.04,-155.55 1063.44,-159.03 1075.09,-162 1106.05,-169.9 1141.68,-177.39 1167.13,-185.6"/>
<polygon fill="black" stroke="black" points="1165.69,-188.8 1176.28,-188.79 1168,-182.19 1165.69,-188.8"/>
</g>
<!-- PT_DOT__0x56150067d318&#45;&gt;PT_NAME_0x56150067cf68 -->
<g id="edge40" class="edge">
<title>PT_DOT__0x56150067d318&#45;&gt;PT_NAME_0x56150067cf68</title>
<path fill="none" stroke="black" d="M1024.25,-165.64C1040.02,-170.41 1058.33,-175.72 1075.09,-180 1091.98,-184.31 1110.26,-188.5 1127.51,-192.24"/>
<polygon fill="black" stroke="black" points="1126.69,-195.64 1137.2,-194.31 1128.16,-188.8 1126.69,-195.64"/>
</g>
<!-- PT_DOT__0x56150067d318&#45;&gt;PT_NAME_0x56150067cf68 -->
<g id="edge58" class="edge">
<title>PT_DOT__0x56150067d318&#45;&gt;PT_NAME_0x56150067cf68</title>
<path fill="none" stroke="black" d="M999.17,-170.67C1017.12,-181.56 1048.12,-191.12 1075.09,-198 1084.96,-200.52 1095.3,-202.99 1105.63,-205.26"/>
<polygon fill="black" stroke="black" points="1104.83,-208.67 1115.34,-207.32 1106.29,-201.82 1104.83,-208.67"/>
</g>
<!-- PT_NAME_0x56150067d140 -->
<g id="node17" class="node">
<title>PT_NAME_0x56150067d140</title>
<ellipse fill="none" stroke="black" cx="1202.06" cy="-153" rx="126.97" ry="18"/>
<text text-anchor="middle" x="1202.06" y="-148.32" font-family="Times,serif" font-size="14.00">PT_NAME [ host_year ]</text>
</g>
<!-- PT_DOT__0x56150067d318&#45;&gt;PT_NAME_0x56150067d140 -->
<g id="edge16" class="edge">
<title>PT_DOT__0x56150067d318&#45;&gt;PT_NAME_0x56150067d140</title>
<path fill="none" stroke="black" d="M1028.04,-141.9C1049.39,-140.08 1075.99,-139.3 1101.88,-139.54"/>
<polygon fill="black" stroke="black" points="1101.74,-143.04 1111.8,-139.7 1101.85,-136.04 1101.74,-143.04"/>
</g>
<!-- PT_DOT__0x56150067d318&#45;&gt;PT_NAME_0x56150067d140 -->
<g id="edge41" class="edge">
<title>PT_DOT__0x56150067d318&#45;&gt;PT_NAME_0x56150067d140</title>
<path fill="none" stroke="black" d="M1039.44,-153C1047.04,-153 1055.09,-153 1063.39,-153"/>
<polygon fill="black" stroke="black" points="1063.34,-156.5 1073.34,-153 1063.34,-149.5 1063.34,-156.5"/>
</g>
<!-- PT_DOT__0x56150067d318&#45;&gt;PT_NAME_0x56150067d140 -->
<g id="edge59" class="edge">
<title>PT_DOT__0x56150067d318&#45;&gt;PT_NAME_0x56150067d140</title>
<path fill="none" stroke="black" d="M1028.04,-164.1C1049.39,-165.92 1075.99,-166.7 1101.88,-166.46"/>
<polygon fill="black" stroke="black" points="1101.85,-169.96 1111.8,-166.3 1101.74,-162.96 1101.85,-169.96"/>
</g>
<!-- PT_NAME_0x56150067d4f0 -->
<g id="node19" class="node">
<title>PT_NAME_0x56150067d4f0</title>
<ellipse fill="none" stroke="black" cx="1202.06" cy="-99" rx="84.35" ry="18"/>
<text text-anchor="middle" x="1202.06" y="-94.33" font-family="Times,serif" font-size="14.00">PT_NAME [ o ]</text>
</g>
<!-- PT_DOT__0x56150067d8a0&#45;&gt;PT_NAME_0x56150067d4f0 -->
<g id="edge18" class="edge">
<title>PT_DOT__0x56150067d8a0&#45;&gt;PT_NAME_0x56150067d4f0</title>
<path fill="none" stroke="black" d="M1028.04,-87.9C1056.61,-85.47 1094.58,-84.88 1127.67,-86.15"/>
<polygon fill="black" stroke="black" points="1127.48,-89.64 1137.63,-86.6 1127.8,-82.65 1127.48,-89.64"/>
</g>
<!-- PT_DOT__0x56150067d8a0&#45;&gt;PT_NAME_0x56150067d4f0 -->
<g id="edge43" class="edge">
<title>PT_DOT__0x56150067d8a0&#45;&gt;PT_NAME_0x56150067d4f0</title>
<path fill="none" stroke="black" d="M1039.44,-99C1059.74,-99 1083.33,-99 1106.11,-99"/>
<polygon fill="black" stroke="black" points="1106.06,-102.5 1116.06,-99 1106.06,-95.5 1106.06,-102.5"/>
</g>
<!-- PT_DOT__0x56150067d8a0&#45;&gt;PT_NAME_0x56150067d4f0 -->
<g id="edge61" class="edge">
<title>PT_DOT__0x56150067d8a0&#45;&gt;PT_NAME_0x56150067d4f0</title>
<path fill="none" stroke="black" d="M1028.04,-110.1C1056.61,-112.53 1094.58,-113.12 1127.67,-111.85"/>
<polygon fill="black" stroke="black" points="1127.8,-115.35 1137.63,-111.4 1127.48,-108.36 1127.8,-115.35"/>
</g>
<!-- PT_NAME_0x56150067d6c8 -->
<g id="node20" class="node">
<title>PT_NAME_0x56150067d6c8</title>
<ellipse fill="none" stroke="black" cx="1202.06" cy="-45" rx="126.97" ry="18"/>
<text text-anchor="middle" x="1202.06" y="-40.33" font-family="Times,serif" font-size="14.00">PT_NAME [ host_year ]</text>
</g>
<!-- PT_DOT__0x56150067d8a0&#45;&gt;PT_NAME_0x56150067d6c8 -->
<g id="edge19" class="edge">
<title>PT_DOT__0x56150067d8a0&#45;&gt;PT_NAME_0x56150067d6c8</title>
<path fill="none" stroke="black" d="M999.17,-81.33C1015.3,-71.55 1041.96,-62.84 1073.21,-54.57"/>
<polygon fill="black" stroke="black" points="1073.71,-58.05 1082.51,-52.16 1071.95,-51.28 1073.71,-58.05"/>
</g>
<!-- PT_DOT__0x56150067d8a0&#45;&gt;PT_NAME_0x56150067d6c8 -->
<g id="edge44" class="edge">
<title>PT_DOT__0x56150067d8a0&#45;&gt;PT_NAME_0x56150067d6c8</title>
<path fill="none" stroke="black" d="M1024.25,-86.36C1040.02,-81.59 1058.33,-76.28 1075.09,-72 1088.26,-68.64 1102.27,-65.35 1115.98,-62.3"/>
<polygon fill="black" stroke="black" points="1116.4,-65.79 1125.42,-60.22 1114.9,-58.95 1116.4,-65.79"/>
</g>
<!-- PT_DOT__0x56150067d8a0&#45;&gt;PT_NAME_0x56150067d6c8 -->
<g id="edge62" class="edge">
<title>PT_DOT__0x56150067d8a0&#45;&gt;PT_NAME_0x56150067d6c8</title>
<path fill="none" stroke="black" d="M1039.26,-99.47C1051.04,-96.45 1063.44,-92.97 1075.09,-90 1105.67,-82.2 1140.81,-74.79 1166.2,-66.7"/>
<polygon fill="black" stroke="black" points="1167.03,-70.12 1175.35,-63.55 1164.75,-63.5 1167.03,-70.12"/>
</g>
<!-- PT_DOT__0x56150067e000 -->
<g id="node22" class="node">
<title>PT_DOT__0x56150067e000</title>
<ellipse fill="none" stroke="black" cx="455.36" cy="-72" rx="55.94" ry="18"/>
<text text-anchor="middle" x="455.36" y="-67.33" font-family="Times,serif" font-size="14.00">PT_DOT_</text>
</g>
<!-- PT_EXPR_0x56150067e3b0&#45;&gt;PT_DOT__0x56150067e000 -->
<g id="edge21" class="edge">
<title>PT_EXPR_0x56150067e3b0&#45;&gt;PT_DOT__0x56150067e000</title>
<path fill="none" stroke="black" d="M289.6,-66.09C320.09,-65.08 358.45,-64.98 390.48,-65.8"/>
<polygon fill="black" stroke="black" points="390.36,-69.29 400.46,-66.09 390.57,-62.3 390.36,-69.29"/>
</g>
<!-- PT_EXPR_0x56150067e3b0&#45;&gt;PT_DOT__0x56150067e000 -->
<g id="edge46" class="edge">
<title>PT_EXPR_0x56150067e3b0&#45;&gt;PT_DOT__0x56150067e000</title>
<path fill="none" stroke="black" d="M289.6,-77.91C320.09,-78.92 358.45,-79.02 390.48,-78.2"/>
<polygon fill="black" stroke="black" points="390.57,-81.7 400.46,-77.91 390.36,-74.71 390.57,-81.7"/>
</g>
<!-- PT_VALUE_0x56150067e1d8 -->
<g id="node25" class="node">
<title>PT_VALUE_0x56150067e1d8</title>
<ellipse fill="none" stroke="black" cx="455.36" cy="-18" rx="63.83" ry="18"/>
<text text-anchor="middle" x="455.36" y="-13.32" font-family="Times,serif" font-size="14.00">PT_VALUE</text>
</g>
<!-- PT_EXPR_0x56150067e3b0&#45;&gt;PT_VALUE_0x56150067e1d8 -->
<g id="edge24" class="edge">
<title>PT_EXPR_0x56150067e3b0&#45;&gt;PT_VALUE_0x56150067e1d8</title>
<path fill="none" stroke="black" d="M262.85,-55.94C281.23,-48.95 306.17,-41.62 328.39,-36 345.47,-31.68 363.96,-27.47 381.38,-23.96"/>
<polygon fill="black" stroke="black" points="382.01,-27.4 391.16,-22.06 380.67,-20.53 382.01,-27.4"/>
</g>
<!-- PT_EXPR_0x56150067e3b0&#45;&gt;PT_VALUE_0x56150067e1d8 -->
<g id="edge49" class="edge">
<title>PT_EXPR_0x56150067e3b0&#45;&gt;PT_VALUE_0x56150067e1d8</title>
<path fill="none" stroke="black" d="M288.04,-64.77C301.16,-61.24 315.25,-57.32 328.39,-54 353.92,-47.55 382.61,-41.32 406.16,-35.6"/>
<polygon fill="black" stroke="black" points="406.94,-39.01 415.8,-33.2 405.25,-32.22 406.94,-39.01"/>
</g>
<!-- PT_NAME_0x56150067dc50 -->
<g id="node23" class="node">
<title>PT_NAME_0x56150067dc50</title>
<ellipse fill="none" stroke="black" cx="754.76" cy="-72" rx="84.35" ry="18"/>
<text text-anchor="middle" x="754.76" y="-67.33" font-family="Times,serif" font-size="14.00">PT_NAME [ o ]</text>
</g>
<!-- PT_DOT__0x56150067e000&#45;&gt;PT_NAME_0x56150067dc50 -->
<g id="edge22" class="edge">
<title>PT_DOT__0x56150067e000&#45;&gt;PT_NAME_0x56150067dc50</title>
<path fill="none" stroke="black" d="M509.19,-66.7C551.94,-65.17 613.12,-64.85 663.6,-65.74"/>
<polygon fill="black" stroke="black" points="663.28,-69.23 673.34,-65.93 663.41,-62.23 663.28,-69.23"/>
</g>
<!-- PT_DOT__0x56150067e000&#45;&gt;PT_NAME_0x56150067dc50 -->
<g id="edge47" class="edge">
<title>PT_DOT__0x56150067e000&#45;&gt;PT_NAME_0x56150067dc50</title>
<path fill="none" stroke="black" d="M509.19,-77.3C551.94,-78.83 613.12,-79.15 663.6,-78.26"/>
<polygon fill="black" stroke="black" points="663.41,-81.77 673.34,-78.07 663.28,-74.77 663.41,-81.77"/>
</g>
<!-- PT_NAME_0x56150067de28 -->
<g id="node24" class="node">
<title>PT_NAME_0x56150067de28</title>
<ellipse fill="none" stroke="black" cx="754.76" cy="-18" rx="126.97" ry="18"/>
<text text-anchor="middle" x="754.76" y="-13.32" font-family="Times,serif" font-size="14.00">PT_NAME [ host_year ]</text>
</g>
<!-- PT_DOT__0x56150067e000&#45;&gt;PT_NAME_0x56150067de28 -->
<g id="edge23" class="edge">
<title>PT_DOT__0x56150067e000&#45;&gt;PT_NAME_0x56150067de28</title>
<path fill="none" stroke="black" d="M497.4,-59.72C535.18,-51.15 592.95,-40.1 644.09,-31.37"/>
<polygon fill="black" stroke="black" points="644.46,-34.86 653.74,-29.75 643.29,-27.96 644.46,-34.86"/>
</g>
<!-- PT_DOT__0x56150067e000&#45;&gt;PT_NAME_0x56150067de28 -->
<g id="edge48" class="edge">
<title>PT_DOT__0x56150067e000&#45;&gt;PT_NAME_0x56150067de28</title>
<path fill="none" stroke="black" d="M509.87,-67.61C558.43,-60.5 630.35,-47.61 683.51,-36.59"/>
<polygon fill="black" stroke="black" points="684.01,-40.06 693.08,-34.58 682.57,-33.21 684.01,-40.06"/>
</g>
</g>
</svg>
