<?xml version="1.0" encoding="UTF-8" standalone="no"?>
<!DOCTYPE svg PUBLIC "-//W3C//DTD SVG 1.1//EN"
 "http://www.w3.org/Graphics/SVG/1.1/DTD/svg11.dtd">
<!-- Generated by graphviz version 10.0.1 (0)
 -->
<!-- Pages: 1 -->
<svg width="1359pt" height="530pt"
 viewBox="0.00 0.00 1359.12 530.00" xmlns="http://www.w3.org/2000/svg" xmlns:xlink="http://www.w3.org/1999/xlink">
<g id="graph0" class="graph" transform="scale(1 1) rotate(0) translate(4 526)">
<polygon fill="white" stroke="none" points="-4,4 -4,-526 1355.12,-526 1355.12,4 -4,4"/>
<!-- PT_SELECT_0x56150067b770 -->
<g id="node1" class="node">
<title>PT_SELECT_0x56150067b770</title>
<ellipse fill="none" stroke="black" cx="70.67" cy="-261" rx="70.67" ry="18"/>
<text text-anchor="middle" x="70.67" y="-256.32" font-family="Times,serif" font-size="14.00">PT_SELECT</text>
</g>
<!-- PT_DOT__0x56150067bcf8 -->
<g id="node2" class="node">
<title>PT_DOT__0x56150067bcf8</title>
<ellipse fill="none" stroke="black" cx="234.87" cy="-423" rx="55.94" ry="18"/>
<text text-anchor="middle" x="234.87" y="-418.32" font-family="Times,serif" font-size="14.00">PT_DOT_</text>
</g>
<!-- PT_SELECT_0x56150067b770&#45;&gt;PT_DOT__0x56150067bcf8 -->
<g id="edge1" class="edge">
<title>PT_SELECT_0x56150067b770&#45;&gt;PT_DOT__0x56150067bcf8</title>
<path fill="none" stroke="black" d="M89.34,-278.65C118.25,-307.52 175.77,-364.97 208.86,-398.02"/>
<polygon fill="black" stroke="black" points="206.09,-400.21 215.64,-404.8 211.04,-395.25 206.09,-400.21"/>
</g>
<!-- PT_SPEC_0x56150067c630 -->
<g id="node8" class="node">
<title>PT_SPEC_0x56150067c630</title>
<ellipse fill="none" stroke="black" cx="234.87" cy="-261" rx="57.52" ry="18"/>
<text text-anchor="middle" x="234.87" y="-256.32" font-family="Times,serif" font-size="14.00">PT_SPEC</text>
</g>
<!-- PT_SELECT_0x56150067b770&#45;&gt;PT_SPEC_0x56150067c630 -->
<g id="edge7" class="edge">
<title>PT_SELECT_0x56150067b770&#45;&gt;PT_SPEC_0x56150067c630</title>
<path fill="none" stroke="black" d="M141.4,-261C149.36,-261 157.47,-261 165.42,-261"/>
<polygon fill="black" stroke="black" points="165.39,-264.5 175.39,-261 165.39,-257.5 165.39,-264.5"/>
</g>
<!-- PT_EXPR_0x56150067e3b0 -->
<g id="node23" class="node">
<title>PT_EXPR_0x56150067e3b0</title>
<ellipse fill="none" stroke="black" cx="234.87" cy="-72" rx="57.52" ry="18"/>
<text text-anchor="middle" x="234.87" y="-67.33" font-family="Times,serif" font-size="14.00">PT_EXPR</text>
</g>
<!-- PT_SELECT_0x56150067b770&#45;&gt;PT_EXPR_0x56150067e3b0 -->
<g id="edge22" class="edge">
<title>PT_SELECT_0x56150067b770&#45;&gt;PT_EXPR_0x56150067e3b0</title>
<path fill="none" stroke="black" d="M86.93,-243.22C115.62,-209.79 177.74,-137.41 211.28,-98.32"/>
<polygon fill="black" stroke="black" points="213.93,-100.61 217.78,-90.74 208.62,-96.05 213.93,-100.61"/>
</g>
<!-- PT_NAME_0x56150067b948 -->
<g id="node3" class="node">
<title>PT_NAME_0x56150067b948</title>
<ellipse fill="none" stroke="black" cx="463.78" cy="-504" rx="84.88" ry="18"/>
<text text-anchor="middle" x="463.78" y="-499.32" font-family="Times,serif" font-size="14.00">PT_NAME [ h ]</text>
</g>
<!-- PT_DOT__0x56150067bcf8&#45;&gt;PT_NAME_0x56150067b948 -->
<g id="edge2" class="edge">
<title>PT_DOT__0x56150067bcf8&#45;&gt;PT_NAME_0x56150067b948</title>
<path fill="none" stroke="black" d="M259.13,-439.5C277.21,-451.59 303.36,-467.48 328.39,-477 344.88,-483.27 363.08,-488.17 380.63,-491.97"/>
<polygon fill="black" stroke="black" points="379.46,-495.3 389.96,-493.89 380.88,-488.45 379.46,-495.3"/>
</g>
<!-- PT_NAME_0x56150067bb20 -->
<g id="node4" class="node">
<title>PT_NAME_0x56150067bb20</title>
<ellipse fill="none" stroke="black" cx="463.78" cy="-450" rx="126.97" ry="18"/>
<text text-anchor="middle" x="463.78" y="-445.32" font-family="Times,serif" font-size="14.00">PT_NAME [ host_year ]</text>
</g>
<!-- PT_DOT__0x56150067bcf8&#45;&gt;PT_NAME_0x56150067bb20 -->
<g id="edge3" class="edge">
<title>PT_DOT__0x56150067bcf8&#45;&gt;PT_NAME_0x56150067bb20</title>
<path fill="none" stroke="black" d="M287.93,-429.19C307.6,-431.54 330.81,-434.3 353.77,-437.03"/>
<polygon fill="black" stroke="black" points="353.16,-440.48 363.5,-438.19 353.98,-433.53 353.16,-440.48"/>
</g>
<!-- PT_DOT__0x56150067c280 -->
<g id="node5" class="node">
<title>PT_DOT__0x56150067c280</title>
<ellipse fill="none" stroke="black" cx="463.78" cy="-396" rx="55.94" ry="18"/>
<text text-anchor="middle" x="463.78" y="-391.32" font-family="Times,serif" font-size="14.00">PT_DOT_</text>
</g>
<!-- PT_DOT__0x56150067bcf8&#45;&gt;PT_DOT__0x56150067c280 -->
<g id="edge4" class="edge">
<title>PT_DOT__0x56150067bcf8&#45;&gt;PT_DOT__0x56150067c280</title>
<path fill="none" stroke="black" d="M287.93,-416.81C321.22,-412.84 364.61,-407.68 399.83,-403.49"/>
<polygon fill="black" stroke="black" points="399.94,-407 409.46,-402.34 399.12,-400.05 399.94,-407"/>
</g>
<!-- PT_NAME_0x56150067bed0 -->
<g id="node6" class="node">
<title>PT_NAME_0x56150067bed0</title>
<ellipse fill="none" stroke="black" cx="774.23" cy="-423" rx="84.35" ry="18"/>
<text text-anchor="middle" x="774.23" y="-418.32" font-family="Times,serif" font-size="14.00">PT_NAME [ o ]</text>
</g>
<!-- PT_DOT__0x56150067c280&#45;&gt;PT_NAME_0x56150067bed0 -->
<g id="edge5" class="edge">
<title>PT_DOT__0x56150067c280&#45;&gt;PT_NAME_0x56150067bed0</title>
<path fill="none" stroke="black" d="M518.15,-400.67C563.79,-404.67 630.41,-410.5 684.12,-415.2"/>
<polygon fill="black" stroke="black" points="683.6,-418.67 693.86,-416.05 684.21,-411.69 683.6,-418.67"/>
</g>
<!-- PT_NAME_0x56150067c0a8 -->
<g id="node7" class="node">
<title>PT_NAME_0x56150067c0a8</title>
<ellipse fill="none" stroke="black" cx="774.23" cy="-369" rx="136.44" ry="18"/>
<text text-anchor="middle" x="774.23" y="-364.32" font-family="Times,serif" font-size="14.00">PT_NAME [ host_nation ]</text>
</g>
<!-- PT_DOT__0x56150067c280&#45;&gt;PT_NAME_0x56150067c0a8 -->
<g id="edge6" class="edge">
<title>PT_DOT__0x56150067c280&#45;&gt;PT_NAME_0x56150067c0a8</title>
<path fill="none" stroke="black" d="M518.15,-391.33C553.92,-388.2 602.57,-383.94 647.8,-379.98"/>
<polygon fill="black" stroke="black" points="648.05,-383.47 657.7,-379.11 647.43,-376.5 648.05,-383.47"/>
</g>
<!-- PT_NAME_0x56150067c458 -->
<g id="node9" class="node">
<title>PT_NAME_0x56150067c458</title>
<ellipse fill="none" stroke="black" cx="463.78" cy="-342" rx="135.39" ry="18"/>
<text text-anchor="middle" x="463.78" y="-337.32" font-family="Times,serif" font-size="14.00">PT_NAME [ dba.history ]</text>
</g>
<!-- PT_SPEC_0x56150067c630&#45;&gt;PT_NAME_0x56150067c458 -->
<g id="edge8" class="edge">
<title>PT_SPEC_0x56150067c630&#45;&gt;PT_NAME_0x56150067c458</title>
<path fill="none" stroke="black" d="M259.13,-277.5C277.21,-289.59 303.36,-305.48 328.39,-315 339.09,-319.07 350.52,-322.56 362.03,-325.55"/>
<polygon fill="black" stroke="black" points="361.04,-328.91 371.58,-327.91 362.71,-322.12 361.04,-328.91"/>
</g>
<!-- PT_NAME_0x56150067c808 -->
<g id="node10" class="node">
<title>PT_NAME_0x56150067c808</title>
<ellipse fill="none" stroke="black" cx="463.78" cy="-288" rx="84.88" ry="18"/>
<text text-anchor="middle" x="463.78" y="-283.32" font-family="Times,serif" font-size="14.00">PT_NAME [ h ]</text>
</g>
<!-- PT_SPEC_0x56150067c630&#45;&gt;PT_NAME_0x56150067c808 -->
<g id="edge9" class="edge">
<title>PT_SPEC_0x56150067c630&#45;&gt;PT_NAME_0x56150067c808</title>
<path fill="none" stroke="black" d="M289.07,-267.33C315.44,-270.47 347.92,-274.33 377.63,-277.87"/>
<polygon fill="black" stroke="black" points="377.02,-281.32 387.36,-279.03 377.85,-274.37 377.02,-281.32"/>
</g>
<!-- PT_NAME_0x56150067e588 -->
<g id="node11" class="node">
<title>PT_NAME_0x56150067e588</title>
<ellipse fill="none" stroke="black" cx="463.78" cy="-234" rx="135.39" ry="18"/>
<text text-anchor="middle" x="463.78" y="-229.32" font-family="Times,serif" font-size="14.00">PT_NAME [ dba.history ]</text>
</g>
<!-- PT_SPEC_0x56150067c630&#45;&gt;PT_NAME_0x56150067e588 -->
<g id="edge10" class="edge">
<title>PT_SPEC_0x56150067c630&#45;&gt;PT_NAME_0x56150067e588</title>
<path fill="none" stroke="black" d="M289.07,-254.67C307.47,-252.48 328.86,-249.93 350.2,-247.4"/>
<polygon fill="black" stroke="black" points="350.33,-250.91 359.84,-246.25 349.5,-243.95 350.33,-250.91"/>
</g>
<!-- PT_SPEC_0x56150067cbb8 -->
<g id="node12" class="node">
<title>PT_SPEC_0x56150067cbb8</title>
<ellipse fill="none" stroke="black" cx="463.78" cy="-180" rx="57.52" ry="18"/>
<text text-anchor="middle" x="463.78" y="-175.32" font-family="Times,serif" font-size="14.00">PT_SPEC</text>
</g>
<!-- PT_SPEC_0x56150067c630&#45;&gt;PT_SPEC_0x56150067cbb8 -->
<g id="edge11" class="edge">
<title>PT_SPEC_0x56150067c630&#45;&gt;PT_SPEC_0x56150067cbb8</title>
<path fill="none" stroke="black" d="M259.13,-244.5C277.21,-232.41 303.36,-216.52 328.39,-207 350.56,-198.57 375.83,-192.61 398.44,-188.48"/>
<polygon fill="black" stroke="black" points="398.89,-191.95 408.15,-186.8 397.7,-185.06 398.89,-191.95"/>
</g>
<!-- PT_NAME_0x56150067c9e0 -->
<g id="node13" class="node">
<title>PT_NAME_0x56150067c9e0</title>
<ellipse fill="none" stroke="black" cx="774.23" cy="-288" rx="139.07" ry="18"/>
<text text-anchor="middle" x="774.23" y="-283.32" font-family="Times,serif" font-size="14.00">PT_NAME [ dba.olympic ]</text>
</g>
<!-- PT_SPEC_0x56150067cbb8&#45;&gt;PT_NAME_0x56150067c9e0 -->
<g id="edge12" class="edge">
<title>PT_SPEC_0x56150067cbb8&#45;&gt;PT_NAME_0x56150067c9e0</title>
<path fill="none" stroke="black" d="M521.48,-181.68C547,-184.77 576.43,-191.76 599.16,-207 623.12,-223.06 611.16,-245 635.16,-261 641.72,-265.37 648.83,-269.07 656.23,-272.2"/>
<polygon fill="black" stroke="black" points="654.86,-275.43 665.45,-275.71 657.35,-268.88 654.86,-275.43"/>
</g>
<!-- PT_NAME_0x56150067cd90 -->
<g id="node14" class="node">
<title>PT_NAME_0x56150067cd90</title>
<ellipse fill="none" stroke="black" cx="774.23" cy="-234" rx="84.35" ry="18"/>
<text text-anchor="middle" x="774.23" y="-229.32" font-family="Times,serif" font-size="14.00">PT_NAME [ o ]</text>
</g>
<!-- PT_SPEC_0x56150067cbb8&#45;&gt;PT_NAME_0x56150067cd90 -->
<g id="edge13" class="edge">
<title>PT_SPEC_0x56150067cbb8&#45;&gt;PT_NAME_0x56150067cd90</title>
<path fill="none" stroke="black" d="M514.68,-188.74C563.91,-197.36 639.85,-210.65 696.71,-220.6"/>
<polygon fill="black" stroke="black" points="695.87,-224.01 706.32,-222.29 697.07,-217.11 695.87,-224.01"/>
</g>
<!-- PT_NAME_0x56150067e760 -->
<g id="node15" class="node">
<title>PT_NAME_0x56150067e760</title>
<ellipse fill="none" stroke="black" cx="774.23" cy="-180" rx="139.07" ry="18"/>
<text text-anchor="middle" x="774.23" y="-175.32" font-family="Times,serif" font-size="14.00">PT_NAME [ dba.olympic ]</text>
</g>
<!-- PT_SPEC_0x56150067cbb8&#45;&gt;PT_NAME_0x56150067e760 -->
<g id="edge14" class="edge">
<title>PT_SPEC_0x56150067cbb8&#45;&gt;PT_NAME_0x56150067e760</title>
<path fill="none" stroke="black" d="M521.71,-180C550.66,-180 587.34,-180 623.67,-180"/>
<polygon fill="black" stroke="black" points="623.41,-183.5 633.41,-180 623.41,-176.5 623.41,-183.5"/>
</g>
<!-- PT_EXPR_0x56150067da78 -->
<g id="node16" class="node">
<title>PT_EXPR_0x56150067da78</title>
<ellipse fill="none" stroke="black" cx="774.23" cy="-126" rx="57.52" ry="18"/>
<text text-anchor="middle" x="774.23" y="-121.33" font-family="Times,serif" font-size="14.00">PT_EXPR</text>
</g>
<!-- PT_SPEC_0x56150067cbb8&#45;&gt;PT_EXPR_0x56150067da78 -->
<g id="edge15" class="edge">
<title>PT_SPEC_0x56150067cbb8&#45;&gt;PT_EXPR_0x56150067da78</title>
<path fill="none" stroke="black" d="M514.68,-171.26C568.47,-161.85 654.13,-146.85 711.97,-136.73"/>
<polygon fill="black" stroke="black" points="712.41,-140.2 721.65,-135.03 711.2,-133.31 712.41,-140.2"/>
</g>
<!-- PT_DOT__0x56150067d318 -->
<g id="node17" class="node">
<title>PT_DOT__0x56150067d318</title>
<ellipse fill="none" stroke="black" cx="1005.24" cy="-153" rx="55.94" ry="18"/>
<text text-anchor="middle" x="1005.24" y="-148.32" font-family="Times,serif" font-size="14.00">PT_DOT_</text>
</g>
<!-- PT_EXPR_0x56150067da78&#45;&gt;PT_DOT__0x56150067d318 -->
<g id="edge16" class="edge">
<title>PT_EXPR_0x56150067da78&#45;&gt;PT_DOT__0x56150067d318</title>
<path fill="none" stroke="black" d="M828.63,-132.3C862.27,-136.26 905.84,-141.4 941.17,-145.56"/>
<polygon fill="black" stroke="black" points="940.49,-149.01 950.83,-146.7 941.31,-142.06 940.49,-149.01"/>
</g>
<!-- PT_DOT__0x56150067d8a0 -->
<g id="node20" class="node">
<title>PT_DOT__0x56150067d8a0</title>
<ellipse fill="none" stroke="black" cx="1005.24" cy="-99" rx="55.94" ry="18"/>
<text text-anchor="middle" x="1005.24" y="-94.33" font-family="Times,serif" font-size="14.00">PT_DOT_</text>
</g>
<!-- PT_EXPR_0x56150067da78&#45;&gt;PT_DOT__0x56150067d8a0 -->
<g id="edge19" class="edge">
<title>PT_EXPR_0x56150067da78&#45;&gt;PT_DOT__0x56150067d8a0</title>
<path fill="none" stroke="black" d="M828.63,-119.7C862.27,-115.74 905.84,-110.6 941.17,-106.44"/>
<polygon fill="black" stroke="black" points="941.31,-109.94 950.83,-105.3 940.49,-102.99 941.31,-109.94"/>
</g>
<!-- PT_NAME_0x56150067cf68 -->
<g id="node18" class="node">
<title>PT_NAME_0x56150067cf68</title>
<ellipse fill="none" stroke="black" cx="1224.15" cy="-207" rx="84.88" ry="18"/>
<text text-anchor="middle" x="1224.15" y="-202.32" font-family="Times,serif" font-size="14.00">PT_NAME [ h ]</text>
</g>
<!-- PT_DOT__0x56150067d318&#45;&gt;PT_NAME_0x56150067cf68 -->
<g id="edge17" class="edge">
<title>PT_DOT__0x56150067d318&#45;&gt;PT_NAME_0x56150067cf68</title>
<path fill="none" stroke="black" d="M1046.35,-165.64C1062.12,-170.41 1080.43,-175.72 1097.18,-180 1114.07,-184.31 1132.35,-188.5 1149.61,-192.24"/>
<polygon fill="black" stroke="black" points="1148.79,-195.64 1159.3,-194.31 1150.25,-188.8 1148.79,-195.64"/>
</g>
<!-- PT_NAME_0x56150067d140 -->
<g id="node19" class="node">
<title>PT_NAME_0x56150067d140</title>
<ellipse fill="none" stroke="black" cx="1224.15" cy="-153" rx="126.97" ry="18"/>
<text text-anchor="middle" x="1224.15" y="-148.32" font-family="Times,serif" font-size="14.00">PT_NAME [ host_year ]</text>
</g>
<!-- PT_DOT__0x56150067d318&#45;&gt;PT_NAME_0x56150067d140 -->
<g id="edge18" class="edge">
<title>PT_DOT__0x56150067d318&#45;&gt;PT_NAME_0x56150067d140</title>
<path fill="none" stroke="black" d="M1061.54,-153C1069.13,-153 1077.19,-153 1085.49,-153"/>
<polygon fill="black" stroke="black" points="1085.43,-156.5 1095.43,-153 1085.43,-149.5 1085.43,-156.5"/>
</g>
<!-- PT_NAME_0x56150067d4f0 -->
<g id="node21" class="node">
<title>PT_NAME_0x56150067d4f0</title>
<ellipse fill="none" stroke="black" cx="1224.15" cy="-99" rx="84.35" ry="18"/>
<text text-anchor="middle" x="1224.15" y="-94.33" font-family="Times,serif" font-size="14.00">PT_NAME [ o ]</text>
</g>
<!-- PT_DOT__0x56150067d8a0&#45;&gt;PT_NAME_0x56150067d4f0 -->
<g id="edge20" class="edge">
<title>PT_DOT__0x56150067d8a0&#45;&gt;PT_NAME_0x56150067d4f0</title>
<path fill="none" stroke="black" d="M1061.54,-99C1081.83,-99 1105.43,-99 1128.21,-99"/>
<polygon fill="black" stroke="black" points="1128.16,-102.5 1138.16,-99 1128.16,-95.5 1128.16,-102.5"/>
</g>
<!-- PT_NAME_0x56150067d6c8 -->
<g id="node22" class="node">
<title>PT_NAME_0x56150067d6c8</title>
<ellipse fill="none" stroke="black" cx="1224.15" cy="-45" rx="126.97" ry="18"/>
<text text-anchor="middle" x="1224.15" y="-40.33" font-family="Times,serif" font-size="14.00">PT_NAME [ host_year ]</text>
</g>
<!-- PT_DOT__0x56150067d8a0&#45;&gt;PT_NAME_0x56150067d6c8 -->
<g id="edge21" class="edge">
<title>PT_DOT__0x56150067d8a0&#45;&gt;PT_NAME_0x56150067d6c8</title>
<path fill="none" stroke="black" d="M1046.35,-86.36C1062.12,-81.59 1080.43,-76.28 1097.18,-72 1110.35,-68.64 1124.36,-65.35 1138.08,-62.3"/>
<polygon fill="black" stroke="black" points="1138.5,-65.79 1147.52,-60.22 1137,-58.95 1138.5,-65.79"/>
</g>
<!-- PT_DOT__0x56150067e000 -->
<g id="node24" class="node">
<title>PT_DOT__0x56150067e000</title>
<ellipse fill="none" stroke="black" cx="463.78" cy="-72" rx="55.94" ry="18"/>
<text text-anchor="middle" x="463.78" y="-67.33" font-family="Times,serif" font-size="14.00">PT_DOT_</text>
</g>
<!-- PT_EXPR_0x56150067e3b0&#45;&gt;PT_DOT__0x56150067e000 -->
<g id="edge23" class="edge">
<title>PT_EXPR_0x56150067e3b0&#45;&gt;PT_DOT__0x56150067e000</title>
<path fill="none" stroke="black" d="M292.83,-72C324.19,-72 363.27,-72 396.05,-72"/>
<polygon fill="black" stroke="black" points="395.84,-75.5 405.84,-72 395.84,-68.5 395.84,-75.5"/>
</g>
<!-- PT_VALUE_0x56150067e1d8 -->
<g id="node27" class="node">
<title>PT_VALUE_0x56150067e1d8</title>
<ellipse fill="none" stroke="black" cx="463.78" cy="-18" rx="63.83" ry="18"/>
<text text-anchor="middle" x="463.78" y="-13.32" font-family="Times,serif" font-size="14.00">PT_VALUE</text>
</g>
<!-- PT_EXPR_0x56150067e3b0&#45;&gt;PT_VALUE_0x56150067e1d8 -->
<g id="edge26" class="edge">
<title>PT_EXPR_0x56150067e3b0&#45;&gt;PT_VALUE_0x56150067e1d8</title>
<path fill="none" stroke="black" d="M276.66,-59.28C292.7,-54.49 311.33,-49.2 328.39,-45 351.03,-39.43 376.01,-34.17 398.24,-29.8"/>
<polygon fill="black" stroke="black" points="398.61,-33.3 407.76,-27.95 397.27,-26.42 398.61,-33.3"/>
</g>
<!-- PT_NAME_0x56150067dc50 -->
<g id="node25" class="node">
<title>PT_NAME_0x56150067dc50</title>
<ellipse fill="none" stroke="black" cx="774.23" cy="-72" rx="84.35" ry="18"/>
<text text-anchor="middle" x="774.23" y="-67.33" font-family="Times,serif" font-size="14.00">PT_NAME [ o ]</text>
</g>
<!-- PT_DOT__0x56150067e000&#45;&gt;PT_NAME_0x56150067dc50 -->
<g id="edge24" class="edge">
<title>PT_DOT__0x56150067e000&#45;&gt;PT_NAME_0x56150067dc50</title>
<path fill="none" stroke="black" d="M519.92,-72C563.83,-72 626.33,-72 678.26,-72"/>
<polygon fill="black" stroke="black" points="677.99,-75.5 687.99,-72 677.99,-68.5 677.99,-75.5"/>
</g>
<!-- PT_NAME_0x56150067de28 -->
<g id="node26" class="node">
<title>PT_NAME_0x56150067de28</title>
<ellipse fill="none" stroke="black" cx="774.23" cy="-18" rx="126.97" ry="18"/>
<text text-anchor="middle" x="774.23" y="-13.32" font-family="Times,serif" font-size="14.00">PT_NAME [ host_year ]</text>
</g>
<!-- PT_DOT__0x56150067e000&#45;&gt;PT_NAME_0x56150067de28 -->
<g id="edge25" class="edge">
<title>PT_DOT__0x56150067e000&#45;&gt;PT_NAME_0x56150067de28</title>
<path fill="none" stroke="black" d="M513.65,-63.44C558.55,-55.58 626.26,-43.73 681.27,-34.1"/>
<polygon fill="black" stroke="black" points="681.71,-37.58 690.96,-32.4 680.5,-30.68 681.71,-37.58"/>
</g>
</g>
</svg>
