<?xml version="1.0" encoding="UTF-8" standalone="no"?>
<!DOCTYPE svg PUBLIC "-//W3C//DTD SVG 1.1//EN"
 "http://www.w3.org/Graphics/SVG/1.1/DTD/svg11.dtd">
<!-- Generated by graphviz version 10.0.1 (0)
 -->
<!-- Pages: 1 -->
<svg width="916pt" height="422pt"
 viewBox="0.00 0.00 916.04 422.00" xmlns="http://www.w3.org/2000/svg" xmlns:xlink="http://www.w3.org/1999/xlink">
<g id="graph0" class="graph" transform="scale(1 1) rotate(0) translate(4 418)">
<polygon fill="white" stroke="none" points="-4,4 -4,-418 912.04,-418 912.04,4 -4,4"/>
<!-- PT_SELECT_0x56150067b770 -->
<g id="node1" class="node">
<title>PT_SELECT_0x56150067b770</title>
<ellipse fill="none" stroke="black" cx="70.67" cy="-180" rx="70.67" ry="18"/>
<text text-anchor="middle" x="70.67" y="-175.32" font-family="Times,serif" font-size="14.00">PT_SELECT</text>
</g>
<!-- PT_DOT__0x56150067bcf8 -->
<g id="node2" class="node">
<title>PT_DOT__0x56150067bcf8</title>
<ellipse fill="none" stroke="black" cx="234.87" cy="-315" rx="55.94" ry="18"/>
<text text-anchor="middle" x="234.87" y="-310.32" font-family="Times,serif" font-size="14.00">PT_DOT_</text>
</g>
<!-- PT_SELECT_0x56150067b770&#45;&gt;PT_DOT__0x56150067bcf8 -->
<g id="edge1" class="edge">
<title>PT_SELECT_0x56150067b770&#45;&gt;PT_DOT__0x56150067bcf8</title>
<path fill="none" stroke="black" d="M92.55,-197.37C121.09,-221.13 172.44,-263.87 204.76,-290.77"/>
<polygon fill="black" stroke="black" points="202.24,-293.23 212.17,-296.94 206.72,-287.85 202.24,-293.23"/>
</g>
<!-- PT_SPEC_0x56150067c630 -->
<g id="node8" class="node">
<title>PT_SPEC_0x56150067c630</title>
<ellipse fill="none" stroke="black" cx="234.87" cy="-180" rx="57.52" ry="18"/>
<text text-anchor="middle" x="234.87" y="-175.32" font-family="Times,serif" font-size="14.00">PT_SPEC</text>
</g>
<!-- PT_SELECT_0x56150067b770&#45;&gt;PT_SPEC_0x56150067c630 -->
<g id="edge7" class="edge">
<title>PT_SELECT_0x56150067b770&#45;&gt;PT_SPEC_0x56150067c630</title>
<path fill="none" stroke="black" d="M141.4,-180C149.36,-180 157.47,-180 165.42,-180"/>
<polygon fill="black" stroke="black" points="165.39,-183.5 175.39,-180 165.39,-176.5 165.39,-183.5"/>
</g>
<!-- PT_EXPR_0x56150067e3b0 -->
<g id="node12" class="node">
<title>PT_EXPR_0x56150067e3b0</title>
<ellipse fill="none" stroke="black" cx="234.87" cy="-72" rx="57.52" ry="18"/>
<text text-anchor="middle" x="234.87" y="-67.33" font-family="Times,serif" font-size="14.00">PT_EXPR</text>
</g>
<!-- PT_SELECT_0x56150067b770&#45;&gt;PT_EXPR_0x56150067e3b0 -->
<g id="edge11" class="edge">
<title>PT_SELECT_0x56150067b770&#45;&gt;PT_EXPR_0x56150067e3b0</title>
<path fill="none" stroke="black" d="M97.37,-162.89C125.02,-144.48 169.12,-115.11 199.68,-94.77"/>
<polygon fill="black" stroke="black" points="201.44,-97.8 207.83,-89.34 197.56,-91.97 201.44,-97.8"/>
</g>
<!-- PT_NAME_0x56150067b948 -->
<g id="node3" class="node">
<title>PT_NAME_0x56150067b948</title>
<ellipse fill="none" stroke="black" cx="463.78" cy="-396" rx="84.88" ry="18"/>
<text text-anchor="middle" x="463.78" y="-391.32" font-family="Times,serif" font-size="14.00">PT_NAME [ h ]</text>
</g>
<!-- PT_DOT__0x56150067bcf8&#45;&gt;PT_NAME_0x56150067b948 -->
<g id="edge2" class="edge">
<title>PT_DOT__0x56150067bcf8&#45;&gt;PT_NAME_0x56150067b948</title>
<path fill="none" stroke="black" d="M259.13,-331.5C277.21,-343.59 303.36,-359.48 328.39,-369 344.88,-375.27 363.08,-380.17 380.63,-383.97"/>
<polygon fill="black" stroke="black" points="379.46,-387.3 389.96,-385.89 380.88,-380.45 379.46,-387.3"/>
</g>
<!-- PT_NAME_0x56150067bb20 -->
<g id="node4" class="node">
<title>PT_NAME_0x56150067bb20</title>
<ellipse fill="none" stroke="black" cx="463.78" cy="-342" rx="126.97" ry="18"/>
<text text-anchor="middle" x="463.78" y="-337.32" font-family="Times,serif" font-size="14.00">PT_NAME [ host_year ]</text>
</g>
<!-- PT_DOT__0x56150067bcf8&#45;&gt;PT_NAME_0x56150067bb20 -->
<g id="edge3" class="edge">
<title>PT_DOT__0x56150067bcf8&#45;&gt;PT_NAME_0x56150067bb20</title>
<path fill="none" stroke="black" d="M287.93,-321.19C307.6,-323.54 330.81,-326.3 353.77,-329.03"/>
<polygon fill="black" stroke="black" points="353.16,-332.48 363.5,-330.19 353.98,-325.53 353.16,-332.48"/>
</g>
<!-- PT_DOT__0x56150067c280 -->
<g id="node5" class="node">
<title>PT_DOT__0x56150067c280</title>
<ellipse fill="none" stroke="black" cx="463.78" cy="-288" rx="55.94" ry="18"/>
<text text-anchor="middle" x="463.78" y="-283.32" font-family="Times,serif" font-size="14.00">PT_DOT_</text>
</g>
<!-- PT_DOT__0x56150067bcf8&#45;&gt;PT_DOT__0x56150067c280 -->
<g id="edge4" class="edge">
<title>PT_DOT__0x56150067bcf8&#45;&gt;PT_DOT__0x56150067c280</title>
<path fill="none" stroke="black" d="M287.93,-308.81C321.22,-304.84 364.61,-299.68 399.83,-295.49"/>
<polygon fill="black" stroke="black" points="399.94,-299 409.46,-294.34 399.12,-292.05 399.94,-299"/>
</g>
<!-- PT_NAME_0x56150067bed0 -->
<g id="node6" class="node">
<title>PT_NAME_0x56150067bed0</title>
<ellipse fill="none" stroke="black" cx="771.6" cy="-315" rx="84.35" ry="18"/>
<text text-anchor="middle" x="771.6" y="-310.32" font-family="Times,serif" font-size="14.00">PT_NAME [ o ]</text>
</g>
<!-- PT_DOT__0x56150067c280&#45;&gt;PT_NAME_0x56150067bed0 -->
<g id="edge5" class="edge">
<title>PT_DOT__0x56150067c280&#45;&gt;PT_NAME_0x56150067bed0</title>
<path fill="none" stroke="black" d="M518.05,-292.7C563.09,-296.68 628.56,-302.46 681.55,-307.14"/>
<polygon fill="black" stroke="black" points="681.22,-310.62 691.49,-308.02 681.84,-303.65 681.22,-310.62"/>
</g>
<!-- PT_NAME_0x56150067c0a8 -->
<g id="node7" class="node">
<title>PT_NAME_0x56150067c0a8</title>
<ellipse fill="none" stroke="black" cx="771.6" cy="-261" rx="136.44" ry="18"/>
<text text-anchor="middle" x="771.6" y="-256.32" font-family="Times,serif" font-size="14.00">PT_NAME [ host_nation ]</text>
</g>
<!-- PT_DOT__0x56150067c280&#45;&gt;PT_NAME_0x56150067c0a8 -->
<g id="edge6" class="edge">
<title>PT_DOT__0x56150067c280&#45;&gt;PT_NAME_0x56150067c0a8</title>
<path fill="none" stroke="black" d="M518.05,-283.3C553.31,-280.18 601.09,-275.97 645.6,-272.04"/>
<polygon fill="black" stroke="black" points="645.68,-275.54 655.33,-271.18 645.06,-268.57 645.68,-275.54"/>
</g>
<!-- PT_NAME_0x56150067c458 -->
<g id="node9" class="node">
<title>PT_NAME_0x56150067c458</title>
<ellipse fill="none" stroke="black" cx="463.78" cy="-234" rx="135.39" ry="18"/>
<text text-anchor="middle" x="463.78" y="-229.32" font-family="Times,serif" font-size="14.00">PT_NAME [ dba.history ]</text>
</g>
<!-- PT_SPEC_0x56150067c630&#45;&gt;PT_NAME_0x56150067c458 -->
<g id="edge8" class="edge">
<title>PT_SPEC_0x56150067c630&#45;&gt;PT_NAME_0x56150067c458</title>
<path fill="none" stroke="black" d="M276.66,-192.72C292.7,-197.51 311.33,-202.8 328.39,-207 342.39,-210.44 357.28,-213.77 371.87,-216.84"/>
<polygon fill="black" stroke="black" points="370.95,-220.22 381.46,-218.82 372.38,-213.37 370.95,-220.22"/>
</g>
<!-- PT_NAME_0x56150067c808 -->
<g id="node10" class="node">
<title>PT_NAME_0x56150067c808</title>
<ellipse fill="none" stroke="black" cx="463.78" cy="-180" rx="84.88" ry="18"/>
<text text-anchor="middle" x="463.78" y="-175.32" font-family="Times,serif" font-size="14.00">PT_NAME [ h ]</text>
</g>
<!-- PT_SPEC_0x56150067c630&#45;&gt;PT_NAME_0x56150067c808 -->
<g id="edge9" class="edge">
<title>PT_SPEC_0x56150067c630&#45;&gt;PT_NAME_0x56150067c808</title>
<path fill="none" stroke="black" d="M292.83,-180C315.48,-180 342.15,-180 367.57,-180"/>
<polygon fill="black" stroke="black" points="367.24,-183.5 377.24,-180 367.24,-176.5 367.24,-183.5"/>
</g>
<!-- PT_NAME_0x56150067e588 -->
<g id="node11" class="node">
<title>PT_NAME_0x56150067e588</title>
<ellipse fill="none" stroke="black" cx="463.78" cy="-126" rx="135.39" ry="18"/>
<text text-anchor="middle" x="463.78" y="-121.33" font-family="Times,serif" font-size="14.00">PT_NAME [ dba.history ]</text>
</g>
<!-- PT_SPEC_0x56150067c630&#45;&gt;PT_NAME_0x56150067e588 -->
<g id="edge10" class="edge">
<title>PT_SPEC_0x56150067c630&#45;&gt;PT_NAME_0x56150067e588</title>
<path fill="none" stroke="black" d="M276.66,-167.28C292.7,-162.49 311.33,-157.2 328.39,-153 342.39,-149.56 357.28,-146.23 371.87,-143.16"/>
<polygon fill="black" stroke="black" points="372.38,-146.63 381.46,-141.18 370.95,-139.78 372.38,-146.63"/>
</g>
<!-- PT_DOT__0x56150067e000 -->
<g id="node13" class="node">
<title>PT_DOT__0x56150067e000</title>
<ellipse fill="none" stroke="black" cx="463.78" cy="-72" rx="55.94" ry="18"/>
<text text-anchor="middle" x="463.78" y="-67.33" font-family="Times,serif" font-size="14.00">PT_DOT_</text>
</g>
<!-- PT_EXPR_0x56150067e3b0&#45;&gt;PT_DOT__0x56150067e000 -->
<g id="edge12" class="edge">
<title>PT_EXPR_0x56150067e3b0&#45;&gt;PT_DOT__0x56150067e000</title>
<path fill="none" stroke="black" d="M292.83,-72C324.19,-72 363.27,-72 396.05,-72"/>
<polygon fill="black" stroke="black" points="395.84,-75.5 405.84,-72 395.84,-68.5 395.84,-75.5"/>
</g>
<!-- PT_VALUE_0x56150067e1d8 -->
<g id="node16" class="node">
<title>PT_VALUE_0x56150067e1d8</title>
<ellipse fill="none" stroke="black" cx="463.78" cy="-18" rx="63.83" ry="18"/>
<text text-anchor="middle" x="463.78" y="-13.32" font-family="Times,serif" font-size="14.00">PT_VALUE</text>
</g>
<!-- PT_EXPR_0x56150067e3b0&#45;&gt;PT_VALUE_0x56150067e1d8 -->
<g id="edge15" class="edge">
<title>PT_EXPR_0x56150067e3b0&#45;&gt;PT_VALUE_0x56150067e1d8</title>
<path fill="none" stroke="black" d="M276.66,-59.28C292.7,-54.49 311.33,-49.2 328.39,-45 351.03,-39.43 376.01,-34.17 398.24,-29.8"/>
<polygon fill="black" stroke="black" points="398.61,-33.3 407.76,-27.95 397.27,-26.42 398.61,-33.3"/>
</g>
<!-- PT_NAME_0x56150067dc50 -->
<g id="node14" class="node">
<title>PT_NAME_0x56150067dc50</title>
<ellipse fill="none" stroke="black" cx="771.6" cy="-99" rx="84.35" ry="18"/>
<text text-anchor="middle" x="771.6" y="-94.33" font-family="Times,serif" font-size="14.00">PT_NAME [ o ]</text>
</g>
<!-- PT_DOT__0x56150067e000&#45;&gt;PT_NAME_0x56150067dc50 -->
<g id="edge13" class="edge">
<title>PT_DOT__0x56150067e000&#45;&gt;PT_NAME_0x56150067dc50</title>
<path fill="none" stroke="black" d="M518.05,-76.7C563.09,-80.68 628.56,-86.46 681.55,-91.14"/>
<polygon fill="black" stroke="black" points="681.22,-94.62 691.49,-92.02 681.84,-87.65 681.22,-94.62"/>
</g>
<!-- PT_NAME_0x56150067de28 -->
<g id="node15" class="node">
<title>PT_NAME_0x56150067de28</title>
<ellipse fill="none" stroke="black" cx="771.6" cy="-45" rx="126.97" ry="18"/>
<text text-anchor="middle" x="771.6" y="-40.33" font-family="Times,serif" font-size="14.00">PT_NAME [ host_year ]</text>
</g>
<!-- PT_DOT__0x56150067e000&#45;&gt;PT_NAME_0x56150067de28 -->
<g id="edge14" class="edge">
<title>PT_DOT__0x56150067e000&#45;&gt;PT_NAME_0x56150067de28</title>
<path fill="none" stroke="black" d="M518.05,-67.3C554.8,-64.05 605.17,-59.61 651.25,-55.54"/>
<polygon fill="black" stroke="black" points="651.4,-59.04 661.05,-54.67 650.78,-52.06 651.4,-59.04"/>
</g>
</g>
</svg>
