<?xml version="1.0" encoding="UTF-8" standalone="no"?>
<!DOCTYPE svg PUBLIC "-//W3C//DTD SVG 1.1//EN"
 "http://www.w3.org/Graphics/SVG/1.1/DTD/svg11.dtd">
<!-- Generated by graphviz version 10.0.1 (0)
 -->
<!-- Pages: 1 -->
<svg width="782pt" height="44pt"
 viewBox="0.00 0.00 781.83 44.00" xmlns="http://www.w3.org/2000/svg" xmlns:xlink="http://www.w3.org/1999/xlink">
<g id="graph0" class="graph" transform="scale(1 1) rotate(0) translate(4 40)">
<polygon fill="white" stroke="none" points="-4,4 -4,-40 777.83,-40 777.83,4 -4,4"/>
<!-- PT_NAME_0x56150067bb20 -->
<g id="node1" class="node">
<title>PT_NAME_0x56150067bb20</title>
<ellipse fill="none" stroke="black" cx="126.97" cy="-18" rx="126.97" ry="18"/>
<text text-anchor="middle" x="126.97" y="-13.32" font-family="Times,serif" font-size="14.00">PT_NAME [ host_year ]</text>
</g>
<!-- PT_NAME_0x56150067c0a8 -->
<g id="node2" class="node">
<title>PT_NAME_0x56150067c0a8</title>
<ellipse fill="none" stroke="black" cx="426.37" cy="-18" rx="136.44" ry="18"/>
<text text-anchor="middle" x="426.37" y="-13.32" font-family="Times,serif" font-size="14.00">PT_NAME [ host_nation ]</text>
</g>
<!-- PT_NAME_0x56150067bb20&#45;&gt;PT_NAME_0x56150067c0a8 -->
<g id="edge1" class="edge">
<title>PT_NAME_0x56150067bb20&#45;&gt;PT_NAME_0x56150067c0a8</title>
<path fill="none" stroke="black" d="M254.09,-18C262.06,-18 270.11,-18 278.15,-18"/>
<polygon fill="black" stroke="black" points="278,-21.5 288,-18 278,-14.5 278,-21.5"/>
</g>
<!-- PT_DATA_TYPE_0x56150067b948 -->
<g id="node3" class="node">
<title>PT_DATA_TYPE_0x56150067b948</title>
<ellipse fill="none" stroke="black" cx="686.32" cy="-18" rx="87.51" ry="18"/>
<text text-anchor="middle" x="686.32" y="-13.32" font-family="Times,serif" font-size="14.00">PT_DATA_TYPE</text>
</g>
<!-- PT_NAME_0x56150067c0a8&#45;&gt;PT_DATA_TYPE_0x56150067b948 -->
<g id="edge2" class="edge">
<title>PT_NAME_0x56150067c0a8&#45;&gt;PT_DATA_TYPE_0x56150067b948</title>
<path fill="none" stroke="black" d="M563.15,-18C571.22,-18 579.26,-18 587.13,-18"/>
<polygon fill="black" stroke="black" points="587.02,-21.5 597.02,-18 587.02,-14.5 587.02,-21.5"/>
</g>
</g>
</svg>
