<?xml version="1.0" encoding="UTF-8" standalone="no"?>
<!DOCTYPE svg PUBLIC "-//W3C//DTD SVG 1.1//EN"
 "http://www.w3.org/Graphics/SVG/1.1/DTD/svg11.dtd">
<!-- Generated by graphviz version 10.0.1 (0)
 -->
<!-- Pages: 1 -->
<svg width="1352pt" height="530pt"
 viewBox="0.00 0.00 1352.23 530.00" xmlns="http://www.w3.org/2000/svg" xmlns:xlink="http://www.w3.org/1999/xlink">
<g id="graph0" class="graph" transform="scale(1 1) rotate(0) translate(4 526)">
<polygon fill="white" stroke="none" points="-4,4 -4,-526 1348.23,-526 1348.23,4 -4,4"/>
<!-- PT_SELECT_0x56150067b770 -->
<g id="node1" class="node">
<title>PT_SELECT_0x56150067b770</title>
<ellipse fill="none" stroke="black" cx="70.67" cy="-342" rx="70.67" ry="18"/>
<text text-anchor="middle" x="70.67" y="-337.32" font-family="Times,serif" font-size="14.00">PT_SELECT</text>
</g>
<!-- PT_NAME_0x56150067bb20 -->
<g id="node2" class="node">
<title>PT_NAME_0x56150067bb20</title>
<ellipse fill="none" stroke="black" cx="304.32" cy="-450" rx="126.97" ry="18"/>
<text text-anchor="middle" x="304.32" y="-445.32" font-family="Times,serif" font-size="14.00">PT_NAME [ host_year ]</text>
</g>
<!-- PT_SELECT_0x56150067b770&#45;&gt;PT_NAME_0x56150067bb20 -->
<g id="edge1" class="edge">
<title>PT_SELECT_0x56150067b770&#45;&gt;PT_NAME_0x56150067bb20</title>
<path fill="none" stroke="black" d="M105.85,-357.94C145.35,-376.35 210.62,-406.78 255.23,-427.58"/>
<polygon fill="black" stroke="black" points="253.62,-430.69 264.16,-431.74 256.57,-424.35 253.62,-430.69"/>
</g>
<!-- PT_SPEC_0x56150067c630 -->
<g id="node5" class="node">
<title>PT_SPEC_0x56150067c630</title>
<ellipse fill="none" stroke="black" cx="304.32" cy="-342" rx="57.52" ry="18"/>
<text text-anchor="middle" x="304.32" y="-337.32" font-family="Times,serif" font-size="14.00">PT_SPEC</text>
</g>
<!-- PT_SELECT_0x56150067b770&#45;&gt;PT_SPEC_0x56150067c630 -->
<g id="edge4" class="edge">
<title>PT_SELECT_0x56150067b770&#45;&gt;PT_SPEC_0x56150067c630</title>
<path fill="none" stroke="black" d="M141.8,-342C171.43,-342 205.8,-342 235.2,-342"/>
<polygon fill="black" stroke="black" points="235.11,-345.5 245.11,-342 235.11,-338.5 235.11,-345.5"/>
</g>
<!-- PT_EXPR_0x56150067e3b0 -->
<g id="node17" class="node">
<title>PT_EXPR_0x56150067e3b0</title>
<ellipse fill="none" stroke="black" cx="304.32" cy="-153" rx="57.52" ry="18"/>
<text text-anchor="middle" x="304.32" y="-148.32" font-family="Times,serif" font-size="14.00">PT_EXPR</text>
</g>
<!-- PT_SELECT_0x56150067b770&#45;&gt;PT_EXPR_0x56150067e3b0 -->
<g id="edge16" class="edge">
<title>PT_SELECT_0x56150067b770&#45;&gt;PT_EXPR_0x56150067e3b0</title>
<path fill="none" stroke="black" d="M93.05,-324.56C134.63,-290.63 226.46,-215.71 273.81,-177.07"/>
<polygon fill="black" stroke="black" points="275.95,-179.85 281.48,-170.81 271.52,-174.42 275.95,-179.85"/>
</g>
<!-- PT_NAME_0x56150067c0a8 -->
<g id="node3" class="node">
<title>PT_NAME_0x56150067c0a8</title>
<ellipse fill="none" stroke="black" cx="603.72" cy="-504" rx="136.44" ry="18"/>
<text text-anchor="middle" x="603.72" y="-499.32" font-family="Times,serif" font-size="14.00">PT_NAME [ host_nation ]</text>
</g>
<!-- PT_NAME_0x56150067bb20&#45;&gt;PT_NAME_0x56150067c0a8 -->
<g id="edge2" class="edge">
<title>PT_NAME_0x56150067bb20&#45;&gt;PT_NAME_0x56150067c0a8</title>
<path fill="none" stroke="black" d="M384.23,-464.33C422.93,-471.36 469.78,-479.86 510.15,-487.19"/>
<polygon fill="black" stroke="black" points="509.41,-490.61 519.87,-488.96 510.66,-483.73 509.41,-490.61"/>
</g>
<!-- PT_DATA_TYPE_0x56150067b948 -->
<g id="node4" class="node">
<title>PT_DATA_TYPE_0x56150067b948</title>
<ellipse fill="none" stroke="black" cx="915.23" cy="-504" rx="87.51" ry="18"/>
<text text-anchor="middle" x="915.23" y="-499.32" font-family="Times,serif" font-size="14.00">PT_DATA_TYPE</text>
</g>
<!-- PT_NAME_0x56150067c0a8&#45;&gt;PT_DATA_TYPE_0x56150067b948 -->
<g id="edge3" class="edge">
<title>PT_NAME_0x56150067c0a8&#45;&gt;PT_DATA_TYPE_0x56150067b948</title>
<path fill="none" stroke="black" d="M740.48,-504C766,-504 792.21,-504 816.3,-504"/>
<polygon fill="black" stroke="black" points="816.06,-507.5 826.06,-504 816.06,-500.5 816.06,-507.5"/>
</g>
<!-- PT_NAME_0x56150067c458 -->
<g id="node6" class="node">
<title>PT_NAME_0x56150067c458</title>
<ellipse fill="none" stroke="black" cx="603.72" cy="-450" rx="135.39" ry="18"/>
<text text-anchor="middle" x="603.72" y="-445.32" font-family="Times,serif" font-size="14.00">PT_NAME [ dba.history ]</text>
</g>
<!-- PT_SPEC_0x56150067c630&#45;&gt;PT_NAME_0x56150067c458 -->
<g id="edge5" class="edge">
<title>PT_SPEC_0x56150067c630&#45;&gt;PT_NAME_0x56150067c458</title>
<path fill="none" stroke="black" d="M332.14,-358.23C363.5,-376.52 417.47,-405.92 467.28,-423 478.95,-427 491.39,-430.48 503.83,-433.49"/>
<polygon fill="black" stroke="black" points="502.74,-436.83 513.27,-435.68 504.32,-430.01 502.74,-436.83"/>
</g>
<!-- PT_NAME_0x56150067c808 -->
<g id="node7" class="node">
<title>PT_NAME_0x56150067c808</title>
<ellipse fill="none" stroke="black" cx="603.72" cy="-396" rx="84.88" ry="18"/>
<text text-anchor="middle" x="603.72" y="-391.32" font-family="Times,serif" font-size="14.00">PT_NAME [ h ]</text>
</g>
<!-- PT_SPEC_0x56150067c630&#45;&gt;PT_NAME_0x56150067c808 -->
<g id="edge6" class="edge">
<title>PT_SPEC_0x56150067c630&#45;&gt;PT_NAME_0x56150067c808</title>
<path fill="none" stroke="black" d="M354.76,-350.98C401.64,-359.49 472.74,-372.4 526.8,-382.21"/>
<polygon fill="black" stroke="black" points="526.11,-385.65 536.57,-383.99 527.36,-378.76 526.11,-385.65"/>
</g>
<!-- PT_NAME_0x56150067dc50 -->
<g id="node8" class="node">
<title>PT_NAME_0x56150067dc50</title>
<ellipse fill="none" stroke="black" cx="603.72" cy="-342" rx="126.97" ry="18"/>
<text text-anchor="middle" x="603.72" y="-337.32" font-family="Times,serif" font-size="14.00">PT_NAME [ host_year ]</text>
</g>
<!-- PT_SPEC_0x56150067c630&#45;&gt;PT_NAME_0x56150067dc50 -->
<g id="edge7" class="edge">
<title>PT_SPEC_0x56150067c630&#45;&gt;PT_NAME_0x56150067dc50</title>
<path fill="none" stroke="black" d="M362.31,-342C391.65,-342 428.82,-342 465.1,-342"/>
<polygon fill="black" stroke="black" points="464.81,-345.5 474.81,-342 464.81,-338.5 464.81,-345.5"/>
</g>
<!-- PT_NAME_0x56150067e588 -->
<g id="node9" class="node">
<title>PT_NAME_0x56150067e588</title>
<ellipse fill="none" stroke="black" cx="603.72" cy="-288" rx="135.39" ry="18"/>
<text text-anchor="middle" x="603.72" y="-283.32" font-family="Times,serif" font-size="14.00">PT_NAME [ dba.history ]</text>
</g>
<!-- PT_SPEC_0x56150067c630&#45;&gt;PT_NAME_0x56150067e588 -->
<g id="edge8" class="edge">
<title>PT_SPEC_0x56150067c630&#45;&gt;PT_NAME_0x56150067e588</title>
<path fill="none" stroke="black" d="M354.76,-333.02C397.08,-325.34 459.13,-314.07 510.58,-304.73"/>
<polygon fill="black" stroke="black" points="511.01,-308.21 520.23,-302.98 509.76,-301.32 511.01,-308.21"/>
</g>
<!-- PT_SPEC_0x56150067cbb8 -->
<g id="node10" class="node">
<title>PT_SPEC_0x56150067cbb8</title>
<ellipse fill="none" stroke="black" cx="603.72" cy="-234" rx="57.52" ry="18"/>
<text text-anchor="middle" x="603.72" y="-229.32" font-family="Times,serif" font-size="14.00">PT_SPEC</text>
</g>
<!-- PT_SPEC_0x56150067c630&#45;&gt;PT_SPEC_0x56150067cbb8 -->
<g id="edge9" class="edge">
<title>PT_SPEC_0x56150067c630&#45;&gt;PT_SPEC_0x56150067cbb8</title>
<path fill="none" stroke="black" d="M332.14,-325.77C363.5,-307.48 417.47,-278.08 467.28,-261 490.28,-253.12 516.31,-247.24 539.36,-243.02"/>
<polygon fill="black" stroke="black" points="539.68,-246.52 548.92,-241.34 538.47,-239.62 539.68,-246.52"/>
</g>
<!-- PT_NAME_0x56150067c9e0 -->
<g id="node11" class="node">
<title>PT_NAME_0x56150067c9e0</title>
<ellipse fill="none" stroke="black" cx="915.23" cy="-342" rx="139.07" ry="18"/>
<text text-anchor="middle" x="915.23" y="-337.32" font-family="Times,serif" font-size="14.00">PT_NAME [ dba.olympic ]</text>
</g>
<!-- PT_SPEC_0x56150067cbb8&#45;&gt;PT_NAME_0x56150067c9e0 -->
<g id="edge10" class="edge">
<title>PT_SPEC_0x56150067cbb8&#45;&gt;PT_NAME_0x56150067c9e0</title>
<path fill="none" stroke="black" d="M661.53,-235.55C687.33,-238.6 717.15,-245.6 740.16,-261 764.13,-277.04 752.16,-299 776.16,-315 782.72,-319.37 789.82,-323.07 797.23,-326.2"/>
<polygon fill="black" stroke="black" points="795.86,-329.43 806.45,-329.71 798.35,-322.88 795.86,-329.43"/>
</g>
<!-- PT_NAME_0x56150067cd90 -->
<g id="node12" class="node">
<title>PT_NAME_0x56150067cd90</title>
<ellipse fill="none" stroke="black" cx="915.23" cy="-288" rx="84.35" ry="18"/>
<text text-anchor="middle" x="915.23" y="-283.32" font-family="Times,serif" font-size="14.00">PT_NAME [ o ]</text>
</g>
<!-- PT_SPEC_0x56150067cbb8&#45;&gt;PT_NAME_0x56150067cd90 -->
<g id="edge11" class="edge">
<title>PT_SPEC_0x56150067cbb8&#45;&gt;PT_NAME_0x56150067cd90</title>
<path fill="none" stroke="black" d="M654.79,-242.74C704.28,-251.37 780.64,-264.69 837.72,-274.65"/>
<polygon fill="black" stroke="black" points="836.92,-278.07 847.38,-276.34 838.13,-271.17 836.92,-278.07"/>
</g>
<!-- PT_NAME_0x56150067d318 -->
<g id="node13" class="node">
<title>PT_NAME_0x56150067d318</title>
<ellipse fill="none" stroke="black" cx="915.23" cy="-234" rx="136.44" ry="18"/>
<text text-anchor="middle" x="915.23" y="-229.32" font-family="Times,serif" font-size="14.00">PT_NAME [ host_nation ]</text>
</g>
<!-- PT_SPEC_0x56150067cbb8&#45;&gt;PT_NAME_0x56150067d318 -->
<g id="edge12" class="edge">
<title>PT_SPEC_0x56150067cbb8&#45;&gt;PT_NAME_0x56150067d318</title>
<path fill="none" stroke="black" d="M661.49,-234C691.43,-234 729.68,-234 767.32,-234"/>
<polygon fill="black" stroke="black" points="766.92,-237.5 776.92,-234 766.92,-230.5 766.92,-237.5"/>
</g>
<!-- PT_NAME_0x56150067e760 -->
<g id="node16" class="node">
<title>PT_NAME_0x56150067e760</title>
<ellipse fill="none" stroke="black" cx="915.23" cy="-180" rx="139.07" ry="18"/>
<text text-anchor="middle" x="915.23" y="-175.32" font-family="Times,serif" font-size="14.00">PT_NAME [ dba.olympic ]</text>
</g>
<!-- PT_SPEC_0x56150067cbb8&#45;&gt;PT_NAME_0x56150067e760 -->
<g id="edge15" class="edge">
<title>PT_SPEC_0x56150067cbb8&#45;&gt;PT_NAME_0x56150067e760</title>
<path fill="none" stroke="black" d="M654.79,-225.26C699.13,-217.53 765.05,-206.03 819.34,-196.55"/>
<polygon fill="black" stroke="black" points="819.65,-200.05 828.9,-194.89 818.44,-193.16 819.65,-200.05"/>
</g>
<!-- PT_DATA_TYPE_0x56150067c280 -->
<g id="node14" class="node">
<title>PT_DATA_TYPE_0x56150067c280</title>
<ellipse fill="none" stroke="black" cx="1217.26" cy="-261" rx="87.51" ry="18"/>
<text text-anchor="middle" x="1217.26" y="-256.32" font-family="Times,serif" font-size="14.00">PT_DATA_TYPE</text>
</g>
<!-- PT_NAME_0x56150067d318&#45;&gt;PT_DATA_TYPE_0x56150067c280 -->
<g id="edge13" class="edge">
<title>PT_NAME_0x56150067d318&#45;&gt;PT_DATA_TYPE_0x56150067c280</title>
<path fill="none" stroke="black" d="M1029.23,-244.17C1060.9,-247.02 1094.92,-250.08 1125.14,-252.8"/>
<polygon fill="black" stroke="black" points="1124.75,-256.28 1135.02,-253.69 1125.37,-249.31 1124.75,-256.28"/>
</g>
<!-- PT_NAME_0x56150067d4f0 -->
<g id="node15" class="node">
<title>PT_NAME_0x56150067d4f0</title>
<ellipse fill="none" stroke="black" cx="1217.26" cy="-207" rx="126.97" ry="18"/>
<text text-anchor="middle" x="1217.26" y="-202.32" font-family="Times,serif" font-size="14.00">PT_NAME [ host_year ]</text>
</g>
<!-- PT_NAME_0x56150067d318&#45;&gt;PT_NAME_0x56150067d4f0 -->
<g id="edge14" class="edge">
<title>PT_NAME_0x56150067d318&#45;&gt;PT_NAME_0x56150067d4f0</title>
<path fill="none" stroke="black" d="M1029.23,-223.83C1051.54,-221.82 1075.02,-219.71 1097.51,-217.69"/>
<polygon fill="black" stroke="black" points="1097.67,-221.19 1107.31,-216.8 1097.04,-214.22 1097.67,-221.19"/>
</g>
<!-- PT_NAME_0x56150067de28 -->
<g id="node18" class="node">
<title>PT_NAME_0x56150067de28</title>
<ellipse fill="none" stroke="black" cx="603.72" cy="-180" rx="126.97" ry="18"/>
<text text-anchor="middle" x="603.72" y="-175.32" font-family="Times,serif" font-size="14.00">PT_NAME [ host_year ]</text>
</g>
<!-- PT_EXPR_0x56150067e3b0&#45;&gt;PT_NAME_0x56150067de28 -->
<g id="edge17" class="edge">
<title>PT_EXPR_0x56150067e3b0&#45;&gt;PT_NAME_0x56150067de28</title>
<path fill="none" stroke="black" d="M359.86,-157.95C394.65,-161.11 441.12,-165.33 484.1,-169.23"/>
<polygon fill="black" stroke="black" points="483.74,-172.71 494.01,-170.13 484.37,-165.74 483.74,-172.71"/>
</g>
<!-- PT_EXPR_0x56150067bcf8 -->
<g id="node19" class="node">
<title>PT_EXPR_0x56150067bcf8</title>
<ellipse fill="none" stroke="black" cx="603.72" cy="-126" rx="57.52" ry="18"/>
<text text-anchor="middle" x="603.72" y="-121.33" font-family="Times,serif" font-size="14.00">PT_EXPR</text>
</g>
<!-- PT_EXPR_0x56150067e3b0&#45;&gt;PT_EXPR_0x56150067bcf8 -->
<g id="edge18" class="edge">
<title>PT_EXPR_0x56150067e3b0&#45;&gt;PT_EXPR_0x56150067bcf8</title>
<path fill="none" stroke="black" d="M359.86,-148.05C409.7,-143.52 483.51,-136.82 536.67,-132"/>
<polygon fill="black" stroke="black" points="536.87,-135.49 546.51,-131.1 536.23,-128.52 536.87,-135.49"/>
</g>
<!-- PT_EXPR_0x56150067da78 -->
<g id="node21" class="node">
<title>PT_EXPR_0x56150067da78</title>
<ellipse fill="none" stroke="black" cx="603.72" cy="-72" rx="57.52" ry="18"/>
<text text-anchor="middle" x="603.72" y="-67.33" font-family="Times,serif" font-size="14.00">PT_EXPR</text>
</g>
<!-- PT_EXPR_0x56150067e3b0&#45;&gt;PT_EXPR_0x56150067da78 -->
<g id="edge20" class="edge">
<title>PT_EXPR_0x56150067e3b0&#45;&gt;PT_EXPR_0x56150067da78</title>
<path fill="none" stroke="black" d="M342.55,-139.11C375.12,-127.31 423.88,-110.51 467.28,-99 491.28,-92.63 518.03,-87 541.37,-82.55"/>
<polygon fill="black" stroke="black" points="541.86,-86.02 551.04,-80.74 540.57,-79.14 541.86,-86.02"/>
</g>
<!-- PT_HOST_VAR_0x56150067bed0 -->
<g id="node20" class="node">
<title>PT_HOST_VAR_0x56150067bed0</title>
<ellipse fill="none" stroke="black" cx="915.23" cy="-126" rx="83.83" ry="18"/>
<text text-anchor="middle" x="915.23" y="-121.33" font-family="Times,serif" font-size="14.00">PT_HOST_VAR</text>
</g>
<!-- PT_EXPR_0x56150067bcf8&#45;&gt;PT_HOST_VAR_0x56150067bed0 -->
<g id="edge19" class="edge">
<title>PT_EXPR_0x56150067bcf8&#45;&gt;PT_HOST_VAR_0x56150067bed0</title>
<path fill="none" stroke="black" d="M661.49,-126C705.71,-126 768.07,-126 819.78,-126"/>
<polygon fill="black" stroke="black" points="819.47,-129.5 829.47,-126 819.47,-122.5 819.47,-129.5"/>
</g>
<!-- PT_NAME_0x56150067d140 -->
<g id="node22" class="node">
<title>PT_NAME_0x56150067d140</title>
<ellipse fill="none" stroke="black" cx="915.23" cy="-72" rx="126.97" ry="18"/>
<text text-anchor="middle" x="915.23" y="-67.33" font-family="Times,serif" font-size="14.00">PT_NAME [ host_year ]</text>
</g>
<!-- PT_EXPR_0x56150067da78&#45;&gt;PT_NAME_0x56150067d140 -->
<g id="edge21" class="edge">
<title>PT_EXPR_0x56150067da78&#45;&gt;PT_NAME_0x56150067d140</title>
<path fill="none" stroke="black" d="M661.49,-72C693.87,-72 735.98,-72 776.51,-72"/>
<polygon fill="black" stroke="black" points="776.37,-75.5 786.37,-72 776.37,-68.5 776.37,-75.5"/>
</g>
<!-- PT_NAME_0x56150067d6c8 -->
<g id="node23" class="node">
<title>PT_NAME_0x56150067d6c8</title>
<ellipse fill="none" stroke="black" cx="915.23" cy="-18" rx="126.97" ry="18"/>
<text text-anchor="middle" x="915.23" y="-13.32" font-family="Times,serif" font-size="14.00">PT_NAME [ host_year ]</text>
</g>
<!-- PT_EXPR_0x56150067da78&#45;&gt;PT_NAME_0x56150067d6c8 -->
<g id="edge22" class="edge">
<title>PT_EXPR_0x56150067da78&#45;&gt;PT_NAME_0x56150067d6c8</title>
<path fill="none" stroke="black" d="M654.79,-63.26C699.93,-55.39 767.43,-43.61 822.27,-34.04"/>
<polygon fill="black" stroke="black" points="822.67,-37.53 831.92,-32.36 821.47,-30.63 822.67,-37.53"/>
</g>
</g>
</svg>
