<?xml version="1.0" encoding="UTF-8" standalone="no"?>
<!DOCTYPE svg PUBLIC "-//W3C//DTD SVG 1.1//EN"
 "http://www.w3.org/Graphics/SVG/1.1/DTD/svg11.dtd">
<!-- Generated by graphviz version 10.0.1 (0)
 -->
<!-- Pages: 1 -->
<svg width="3280pt" height="590pt"
 viewBox="0.00 0.00 3279.82 590.00" xmlns="http://www.w3.org/2000/svg" xmlns:xlink="http://www.w3.org/1999/xlink">
<g id="graph0" class="graph" transform="scale(1 1) rotate(0) translate(4 586)">
<polygon fill="white" stroke="none" points="-4,4 -4,-586 3275.82,-586 3275.82,4 -4,4"/>
<!-- PT_SELECT_0x56150067b770 -->
<g id="node1" class="node">
<title>PT_SELECT_0x56150067b770</title>
<ellipse fill="none" stroke="black" cx="70.67" cy="-236" rx="70.67" ry="18"/>
<text text-anchor="middle" x="70.67" y="-231.32" font-family="Times,serif" font-size="14.00">PT_SELECT</text>
</g>
<!-- PT_DOT__0x56150067bcf8 -->
<g id="node2" class="node">
<title>PT_DOT__0x56150067bcf8</title>
<ellipse fill="none" stroke="black" cx="576.41" cy="-426" rx="55.94" ry="18"/>
<text text-anchor="middle" x="576.41" y="-421.32" font-family="Times,serif" font-size="14.00">PT_DOT_</text>
</g>
<!-- PT_SELECT_0x56150067b770&#45;&gt;PT_DOT__0x56150067bcf8 -->
<g id="edge1" class="edge">
<title>PT_SELECT_0x56150067b770&#45;&gt;PT_DOT__0x56150067bcf8</title>
<path fill="none" stroke="black" d="M111.62,-251.07C203.58,-285.75 429.89,-371.11 528.36,-408.25"/>
<polygon fill="black" stroke="black" points="526.88,-411.43 537.47,-411.69 529.35,-404.88 526.88,-411.43"/>
</g>
<!-- PT_SPEC_0x56150067c630 -->
<g id="node13" class="node">
<title>PT_SPEC_0x56150067c630</title>
<ellipse fill="none" stroke="black" cx="234.87" cy="-236" rx="57.52" ry="18"/>
<text text-anchor="middle" x="234.87" y="-231.32" font-family="Times,serif" font-size="14.00">PT_SPEC</text>
</g>
<!-- PT_SELECT_0x56150067b770&#45;&gt;PT_SPEC_0x56150067c630 -->
<g id="edge15" class="edge">
<title>PT_SELECT_0x56150067b770&#45;&gt;PT_SPEC_0x56150067c630</title>
<path fill="none" stroke="black" d="M141.4,-236C149.36,-236 157.47,-236 165.42,-236"/>
<polygon fill="black" stroke="black" points="165.39,-239.5 175.39,-236 165.39,-232.5 165.39,-239.5"/>
</g>
<!-- PT_EXPR_0x56150067e3b0 -->
<g id="node26" class="node">
<title>PT_EXPR_0x56150067e3b0</title>
<ellipse fill="none" stroke="black" cx="234.87" cy="-154" rx="57.52" ry="18"/>
<text text-anchor="middle" x="234.87" y="-149.32" font-family="Times,serif" font-size="14.00">PT_EXPR</text>
</g>
<!-- PT_SELECT_0x56150067b770&#45;&gt;PT_EXPR_0x56150067e3b0 -->
<g id="edge39" class="edge">
<title>PT_SELECT_0x56150067b770&#45;&gt;PT_EXPR_0x56150067e3b0</title>
<path fill="none" stroke="black" d="M103.72,-219.8C129.34,-206.85 165.43,-188.6 193.11,-174.61"/>
<polygon fill="black" stroke="black" points="194.57,-177.79 201.91,-170.16 191.41,-171.54 194.57,-177.79"/>
</g>
<!-- PT_DOT__0x56150067bcf8&#45;&gt;PT_DOT__0x56150067bcf8 -->
<g id="edge4" class="edge">
<title>PT_DOT__0x56150067bcf8&#45;&gt;PT_DOT__0x56150067bcf8</title>
<path fill="none" stroke="black" d="M545.25,-441.17C535.81,-451.66 546.19,-462 576.41,-462 595.3,-462 606.44,-457.96 609.83,-452.37"/>
<polygon fill="black" stroke="black" points="613.28,-451.76 607.87,-442.65 606.42,-453.14 613.28,-451.76"/>
</g>
<!-- PT_NAME_0x56150067b948 -->
<g id="node3" class="node">
<title>PT_NAME_0x56150067b948</title>
<ellipse fill="none" stroke="black" cx="784.28" cy="-564" rx="84.88" ry="18"/>
<text text-anchor="middle" x="784.28" y="-559.33" font-family="Times,serif" font-size="14.00">PT_NAME [ h ]</text>
</g>
<!-- PT_DOT__0x56150067bcf8&#45;&gt;PT_NAME_0x56150067b948 -->
<g id="edge2" class="edge">
<title>PT_DOT__0x56150067bcf8&#45;&gt;PT_NAME_0x56150067b948</title>
<path fill="none" stroke="black" d="M593.21,-443.63C614.67,-466.68 655.18,-507.05 696.77,-532 704.96,-536.91 714.03,-541.27 723.13,-545.07"/>
<polygon fill="black" stroke="black" points="721.77,-548.3 732.36,-548.72 724.34,-541.79 721.77,-548.3"/>
</g>
<!-- PT_NAME_0x56150067e588 -->
<g id="node4" class="node">
<title>PT_NAME_0x56150067e588</title>
<ellipse fill="none" stroke="black" cx="1046.85" cy="-380" rx="135.39" ry="18"/>
<text text-anchor="middle" x="1046.85" y="-375.32" font-family="Times,serif" font-size="14.00">PT_NAME [ dba.history ]</text>
</g>
<!-- PT_DOT__0x56150067bcf8&#45;&gt;PT_NAME_0x56150067e588 -->
<g id="edge3" class="edge">
<title>PT_DOT__0x56150067bcf8&#45;&gt;PT_NAME_0x56150067e588</title>
<path fill="none" stroke="black" d="M620.18,-414.49C642.79,-408.88 671.1,-402.58 696.77,-399 763.4,-389.72 837.78,-384.91 900.7,-382.44"/>
<polygon fill="black" stroke="black" points="900.53,-385.95 910.39,-382.08 900.27,-378.96 900.53,-385.95"/>
</g>
<!-- PT_NAME_0x56150067e938 -->
<g id="node5" class="node">
<title>PT_NAME_0x56150067e938</title>
<ellipse fill="none" stroke="black" cx="2614.96" cy="-472" rx="139.07" ry="18"/>
<text text-anchor="middle" x="2614.96" y="-467.32" font-family="Times,serif" font-size="14.00">PT_NAME [ dba.olympic ]</text>
</g>
<!-- PT_DOT__0x56150067bcf8&#45;&gt;PT_NAME_0x56150067e938 -->
<g id="edge5" class="edge">
<title>PT_DOT__0x56150067bcf8&#45;&gt;PT_NAME_0x56150067e938</title>
<path fill="none" stroke="black" d="M610.21,-440.67C633.83,-450.67 666.71,-463.41 696.77,-471 848.56,-509.3 889.3,-518 1045.85,-518 1045.85,-518 1045.85,-518 2094.48,-518 2238.18,-518 2403.38,-500.32 2508.18,-486.88"/>
<polygon fill="black" stroke="black" points="2508.42,-490.38 2517.89,-485.62 2507.52,-483.44 2508.42,-490.38"/>
</g>
<!-- PT_DOT__0x56150067c280 -->
<g id="node8" class="node">
<title>PT_DOT__0x56150067c280</title>
<ellipse fill="none" stroke="black" cx="784.28" cy="-426" rx="55.94" ry="18"/>
<text text-anchor="middle" x="784.28" y="-421.32" font-family="Times,serif" font-size="14.00">PT_DOT_</text>
</g>
<!-- PT_DOT__0x56150067bcf8&#45;&gt;PT_DOT__0x56150067c280 -->
<g id="edge8" class="edge">
<title>PT_DOT__0x56150067bcf8&#45;&gt;PT_DOT__0x56150067c280</title>
<path fill="none" stroke="black" d="M632.85,-426C658.69,-426 689.65,-426 716.75,-426"/>
<polygon fill="black" stroke="black" points="716.58,-429.5 726.58,-426 716.58,-422.5 716.58,-429.5"/>
</g>
<!-- PT_DATA_TYPE_0x56150067b948 -->
<g id="node6" class="node">
<title>PT_DATA_TYPE_0x56150067b948</title>
<ellipse fill="none" stroke="black" cx="2877.53" cy="-472" rx="87.51" ry="18"/>
<text text-anchor="middle" x="2877.53" y="-467.32" font-family="Times,serif" font-size="14.00">PT_DATA_TYPE</text>
</g>
<!-- PT_NAME_0x56150067e938&#45;&gt;PT_DATA_TYPE_0x56150067b948 -->
<g id="edge6" class="edge">
<title>PT_NAME_0x56150067e938&#45;&gt;PT_DATA_TYPE_0x56150067b948</title>
<path fill="none" stroke="black" d="M2754.26,-472C2762.36,-472 2770.42,-472 2778.31,-472"/>
<polygon fill="black" stroke="black" points="2778.23,-475.5 2788.23,-472 2778.23,-468.5 2778.23,-475.5"/>
</g>
<!-- PT_NAME_0x56150067eb10 -->
<g id="node7" class="node">
<title>PT_NAME_0x56150067eb10</title>
<ellipse fill="none" stroke="black" cx="3136.43" cy="-472" rx="135.39" ry="18"/>
<text text-anchor="middle" x="3136.43" y="-467.32" font-family="Times,serif" font-size="14.00">PT_NAME [ dba.history ]</text>
</g>
<!-- PT_DATA_TYPE_0x56150067b948&#45;&gt;PT_NAME_0x56150067eb10 -->
<g id="edge7" class="edge">
<title>PT_DATA_TYPE_0x56150067b948&#45;&gt;PT_NAME_0x56150067eb10</title>
<path fill="none" stroke="black" d="M2965.51,-472C2973.22,-472 2981.17,-472 2989.2,-472"/>
<polygon fill="black" stroke="black" points="2989.1,-475.5 2999.1,-472 2989.1,-468.5 2989.1,-475.5"/>
</g>
<!-- PT_DOT__0x56150067c280&#45;&gt;PT_DOT__0x56150067c280 -->
<g id="edge11" class="edge">
<title>PT_DOT__0x56150067c280&#45;&gt;PT_DOT__0x56150067c280</title>
<path fill="none" stroke="black" d="M749.91,-440.42C737.91,-451.17 749.36,-462 784.28,-462 807.19,-462 820,-457.33 822.71,-451.09"/>
<polygon fill="black" stroke="black" points="826.01,-449.93 819.18,-441.83 819.47,-452.42 826.01,-449.93"/>
</g>
<!-- PT_NAME_0x56150067bed0 -->
<g id="node9" class="node">
<title>PT_NAME_0x56150067bed0</title>
<ellipse fill="none" stroke="black" cx="1046.85" cy="-472" rx="84.35" ry="18"/>
<text text-anchor="middle" x="1046.85" y="-467.32" font-family="Times,serif" font-size="14.00">PT_NAME [ o ]</text>
</g>
<!-- PT_DOT__0x56150067c280&#45;&gt;PT_NAME_0x56150067bed0 -->
<g id="edge9" class="edge">
<title>PT_DOT__0x56150067c280&#45;&gt;PT_NAME_0x56150067bed0</title>
<path fill="none" stroke="black" d="M833.98,-434.6C872.06,-441.32 925.7,-450.79 969.47,-458.52"/>
<polygon fill="black" stroke="black" points="968.72,-461.94 979.17,-460.23 969.93,-455.04 968.72,-461.94"/>
</g>
<!-- PT_NAME_0x56150067e760 -->
<g id="node10" class="node">
<title>PT_NAME_0x56150067e760</title>
<ellipse fill="none" stroke="black" cx="1046.85" cy="-180" rx="139.07" ry="18"/>
<text text-anchor="middle" x="1046.85" y="-175.32" font-family="Times,serif" font-size="14.00">PT_NAME [ dba.olympic ]</text>
</g>
<!-- PT_DOT__0x56150067c280&#45;&gt;PT_NAME_0x56150067e760 -->
<g id="edge10" class="edge">
<title>PT_DOT__0x56150067c280&#45;&gt;PT_NAME_0x56150067e760</title>
<path fill="none" stroke="black" d="M796.71,-407.98C813.76,-380.84 846.56,-327.68 871.79,-281 889.17,-248.82 878.79,-229.3 907.79,-207 913.44,-202.65 919.6,-198.94 926.08,-195.79"/>
<polygon fill="black" stroke="black" points="927.32,-199.06 935.1,-191.87 924.54,-192.64 927.32,-199.06"/>
</g>
<!-- PT_NAME_0x56150067bcf8 -->
<g id="node11" class="node">
<title>PT_NAME_0x56150067bcf8</title>
<ellipse fill="none" stroke="black" cx="2093.48" cy="-426" rx="135.39" ry="18"/>
<text text-anchor="middle" x="2093.48" y="-421.32" font-family="Times,serif" font-size="14.00">PT_NAME [ dba.history ]</text>
</g>
<!-- PT_DOT__0x56150067c280&#45;&gt;PT_NAME_0x56150067bcf8 -->
<g id="edge12" class="edge">
<title>PT_DOT__0x56150067c280&#45;&gt;PT_NAME_0x56150067bcf8</title>
<path fill="none" stroke="black" d="M840.64,-426C936.12,-426 1137.91,-426 1308.43,-426 1308.43,-426 1308.43,-426 1573.01,-426 1699.07,-426 1842.35,-426 1946.45,-426"/>
<polygon fill="black" stroke="black" points="1946.16,-429.5 1956.16,-426 1946.16,-422.5 1946.16,-429.5"/>
</g>
<!-- PT_DATA_TYPE_0x56150067bed0 -->
<g id="node12" class="node">
<title>PT_DATA_TYPE_0x56150067bed0</title>
<ellipse fill="none" stroke="black" cx="2352.38" cy="-449" rx="87.51" ry="18"/>
<text text-anchor="middle" x="2352.38" y="-444.32" font-family="Times,serif" font-size="14.00">PT_DATA_TYPE</text>
</g>
<!-- PT_NAME_0x56150067bcf8&#45;&gt;PT_DATA_TYPE_0x56150067bed0 -->
<g id="edge13" class="edge">
<title>PT_NAME_0x56150067bcf8&#45;&gt;PT_DATA_TYPE_0x56150067bed0</title>
<path fill="none" stroke="black" d="M2207.16,-436.09C2224.97,-437.68 2243.18,-439.31 2260.41,-440.86"/>
<polygon fill="black" stroke="black" points="2259.8,-444.31 2270.07,-441.72 2260.42,-437.34 2259.8,-444.31"/>
</g>
<!-- PT_DATA_TYPE_0x56150067bed0&#45;&gt;PT_NAME_0x56150067e938 -->
<g id="edge14" class="edge">
<title>PT_DATA_TYPE_0x56150067bed0&#45;&gt;PT_NAME_0x56150067e938</title>
<path fill="none" stroke="black" d="M2433.33,-456.06C2450.43,-457.57 2468.89,-459.2 2487.26,-460.82"/>
<polygon fill="black" stroke="black" points="2486.9,-464.3 2497.16,-461.69 2487.51,-457.33 2486.9,-464.3"/>
</g>
<!-- PT_SPEC_0x56150067cbb8 -->
<g id="node14" class="node">
<title>PT_SPEC_0x56150067cbb8</title>
<ellipse fill="none" stroke="black" cx="392.23" cy="-236" rx="57.52" ry="18"/>
<text text-anchor="middle" x="392.23" y="-231.32" font-family="Times,serif" font-size="14.00">PT_SPEC</text>
</g>
<!-- PT_SPEC_0x56150067c630&#45;&gt;PT_SPEC_0x56150067cbb8 -->
<g id="edge16" class="edge">
<title>PT_SPEC_0x56150067c630&#45;&gt;PT_SPEC_0x56150067cbb8</title>
<path fill="none" stroke="black" d="M292.84,-236C302.65,-236 312.94,-236 323.02,-236"/>
<polygon fill="black" stroke="black" points="322.75,-239.5 332.75,-236 322.75,-232.5 322.75,-239.5"/>
</g>
<!-- PT_EXPR_0x56150067da78 -->
<g id="node15" class="node">
<title>PT_EXPR_0x56150067da78</title>
<ellipse fill="none" stroke="black" cx="576.41" cy="-236" rx="57.52" ry="18"/>
<text text-anchor="middle" x="576.41" y="-231.32" font-family="Times,serif" font-size="14.00">PT_EXPR</text>
</g>
<!-- PT_SPEC_0x56150067cbb8&#45;&gt;PT_EXPR_0x56150067da78 -->
<g id="edge17" class="edge">
<title>PT_SPEC_0x56150067cbb8&#45;&gt;PT_EXPR_0x56150067da78</title>
<path fill="none" stroke="black" d="M446.41,-229.8C466.44,-229.18 489.44,-229.09 510.43,-229.5"/>
<polygon fill="black" stroke="black" points="510.25,-233 520.33,-229.75 510.42,-226 510.25,-233"/>
</g>
<!-- PT_SPEC_0x56150067cbb8&#45;&gt;PT_EXPR_0x56150067da78 -->
<g id="edge24" class="edge">
<title>PT_SPEC_0x56150067cbb8&#45;&gt;PT_EXPR_0x56150067da78</title>
<path fill="none" stroke="black" d="M446.41,-242.2C466.44,-242.82 489.44,-242.91 510.43,-242.5"/>
<polygon fill="black" stroke="black" points="510.42,-246 520.33,-242.25 510.25,-239 510.42,-246"/>
</g>
<!-- PT_DOT__0x56150067d318 -->
<g id="node16" class="node">
<title>PT_DOT__0x56150067d318</title>
<ellipse fill="none" stroke="black" cx="784.28" cy="-236" rx="55.94" ry="18"/>
<text text-anchor="middle" x="784.28" y="-231.32" font-family="Times,serif" font-size="14.00">PT_DOT_</text>
</g>
<!-- PT_EXPR_0x56150067da78&#45;&gt;PT_DOT__0x56150067d318 -->
<g id="edge18" class="edge">
<title>PT_EXPR_0x56150067da78&#45;&gt;PT_DOT__0x56150067d318</title>
<path fill="none" stroke="black" d="M631.23,-229.99C658.35,-229.11 691.41,-229.02 719.77,-229.71"/>
<polygon fill="black" stroke="black" points="719.58,-233.21 729.68,-230 719.79,-226.21 719.58,-233.21"/>
</g>
<!-- PT_EXPR_0x56150067da78&#45;&gt;PT_DOT__0x56150067d318 -->
<g id="edge25" class="edge">
<title>PT_EXPR_0x56150067da78&#45;&gt;PT_DOT__0x56150067d318</title>
<path fill="none" stroke="black" d="M631.23,-242.01C658.35,-242.89 691.41,-242.98 719.77,-242.29"/>
<polygon fill="black" stroke="black" points="719.79,-245.79 729.68,-242 719.58,-238.79 719.79,-245.79"/>
</g>
<!-- PT_DOT__0x56150067d8a0 -->
<g id="node19" class="node">
<title>PT_DOT__0x56150067d8a0</title>
<ellipse fill="none" stroke="black" cx="784.28" cy="-126" rx="55.94" ry="18"/>
<text text-anchor="middle" x="784.28" y="-121.33" font-family="Times,serif" font-size="14.00">PT_DOT_</text>
</g>
<!-- PT_EXPR_0x56150067da78&#45;&gt;PT_DOT__0x56150067d8a0 -->
<g id="edge21" class="edge">
<title>PT_EXPR_0x56150067da78&#45;&gt;PT_DOT__0x56150067d8a0</title>
<path fill="none" stroke="black" d="M600.23,-219.38C633.21,-199.18 694.9,-165.79 737.49,-144.74"/>
<polygon fill="black" stroke="black" points="738.8,-148 746.25,-140.47 735.72,-141.71 738.8,-148"/>
</g>
<!-- PT_EXPR_0x56150067da78&#45;&gt;PT_DOT__0x56150067d8a0 -->
<g id="edge32" class="edge">
<title>PT_EXPR_0x56150067da78&#45;&gt;PT_DOT__0x56150067d8a0</title>
<path fill="none" stroke="black" d="M613.74,-221.88C652.46,-203.2 713.22,-170.67 750.52,-148.6"/>
<polygon fill="black" stroke="black" points="752.31,-151.6 759.08,-143.45 748.71,-145.61 752.31,-151.6"/>
</g>
<!-- PT_DOT__0x56150067d318&#45;&gt;PT_NAME_0x56150067e588 -->
<g id="edge27" class="edge">
<title>PT_DOT__0x56150067d318&#45;&gt;PT_NAME_0x56150067e588</title>
<path fill="none" stroke="black" d="M799.47,-253.79C820.43,-278.8 862.13,-323.99 907.79,-348 919.44,-354.13 932.25,-359.09 945.24,-363.11"/>
<polygon fill="black" stroke="black" points="944.13,-366.44 954.7,-365.85 946.07,-359.71 944.13,-366.44"/>
</g>
<!-- PT_DOT__0x56150067d318&#45;&gt;PT_DOT__0x56150067d318 -->
<g id="edge28" class="edge">
<title>PT_DOT__0x56150067d318&#45;&gt;PT_DOT__0x56150067d318</title>
<path fill="none" stroke="black" d="M749.91,-250.42C737.91,-261.17 749.36,-272 784.28,-272 807.19,-272 820,-267.33 822.71,-261.09"/>
<polygon fill="black" stroke="black" points="826.01,-259.93 819.18,-251.83 819.47,-262.42 826.01,-259.93"/>
</g>
<!-- PT_NAME_0x56150067cf68 -->
<g id="node17" class="node">
<title>PT_NAME_0x56150067cf68</title>
<ellipse fill="none" stroke="black" cx="1046.85" cy="-234" rx="84.88" ry="18"/>
<text text-anchor="middle" x="1046.85" y="-229.32" font-family="Times,serif" font-size="14.00">PT_NAME [ h ]</text>
</g>
<!-- PT_DOT__0x56150067d318&#45;&gt;PT_NAME_0x56150067cf68 -->
<g id="edge19" class="edge">
<title>PT_DOT__0x56150067d318&#45;&gt;PT_NAME_0x56150067cf68</title>
<path fill="none" stroke="black" d="M837.69,-230.06C871.11,-228.61 915.31,-227.96 954.38,-228.23"/>
<polygon fill="black" stroke="black" points="954.24,-231.72 964.28,-228.32 954.31,-224.72 954.24,-231.72"/>
</g>
<!-- PT_DOT__0x56150067d318&#45;&gt;PT_NAME_0x56150067cf68 -->
<g id="edge26" class="edge">
<title>PT_DOT__0x56150067d318&#45;&gt;PT_NAME_0x56150067cf68</title>
<path fill="none" stroke="black" d="M838.32,-241.15C872.18,-242.09 916.93,-242.04 956.21,-241.14"/>
<polygon fill="black" stroke="black" points="956.24,-244.64 966.15,-240.88 956.07,-237.64 956.24,-244.64"/>
</g>
<!-- PT_NAME_0x56150067d140 -->
<g id="node18" class="node">
<title>PT_NAME_0x56150067d140</title>
<ellipse fill="none" stroke="black" cx="1046.85" cy="-288" rx="126.97" ry="18"/>
<text text-anchor="middle" x="1046.85" y="-283.32" font-family="Times,serif" font-size="14.00">PT_NAME [ host_year ]</text>
</g>
<!-- PT_DOT__0x56150067d318&#45;&gt;PT_NAME_0x56150067d140 -->
<g id="edge20" class="edge">
<title>PT_DOT__0x56150067d318&#45;&gt;PT_NAME_0x56150067d140</title>
<path fill="none" stroke="black" d="M832.09,-245.65C854.91,-250.33 882.77,-256 907.79,-261 924.29,-264.3 941.91,-267.78 958.85,-271.1"/>
<polygon fill="black" stroke="black" points="957.9,-274.48 968.39,-272.97 959.25,-267.61 957.9,-274.48"/>
</g>
<!-- PT_NAME_0x56150067c280 -->
<g id="node22" class="node">
<title>PT_NAME_0x56150067c280</title>
<ellipse fill="none" stroke="black" cx="1572.01" cy="-334" rx="139.07" ry="18"/>
<text text-anchor="middle" x="1572.01" y="-329.32" font-family="Times,serif" font-size="14.00">PT_NAME [ dba.olympic ]</text>
</g>
<!-- PT_DOT__0x56150067d318&#45;&gt;PT_NAME_0x56150067c280 -->
<g id="edge29" class="edge">
<title>PT_DOT__0x56150067d318&#45;&gt;PT_NAME_0x56150067c280</title>
<path fill="none" stroke="black" d="M804.36,-253.12C827.11,-272.32 867.18,-302.41 907.79,-315 1000.82,-343.85 1260.36,-342.87 1425.83,-338.89"/>
<polygon fill="black" stroke="black" points="1425.66,-342.39 1435.57,-338.65 1425.48,-335.4 1425.66,-342.39"/>
</g>
<!-- PT_DOT__0x56150067d8a0&#45;&gt;PT_NAME_0x56150067e760 -->
<g id="edge34" class="edge">
<title>PT_DOT__0x56150067d8a0&#45;&gt;PT_NAME_0x56150067e760</title>
<path fill="none" stroke="black" d="M830.89,-136.32C853.92,-141.47 882.3,-147.7 907.79,-153 923.33,-156.23 939.88,-159.56 955.93,-162.74"/>
<polygon fill="black" stroke="black" points="954.96,-166.11 965.45,-164.61 956.31,-159.24 954.96,-166.11"/>
</g>
<!-- PT_DOT__0x56150067d8a0&#45;&gt;PT_DOT__0x56150067d8a0 -->
<g id="edge35" class="edge">
<title>PT_DOT__0x56150067d8a0&#45;&gt;PT_DOT__0x56150067d8a0</title>
<path fill="none" stroke="black" d="M749.91,-140.42C737.91,-151.17 749.36,-162 784.28,-162 807.19,-162 820,-157.33 822.71,-151.09"/>
<polygon fill="black" stroke="black" points="826.01,-149.93 819.18,-141.83 819.47,-152.42 826.01,-149.93"/>
</g>
<!-- PT_NAME_0x56150067d4f0 -->
<g id="node20" class="node">
<title>PT_NAME_0x56150067d4f0</title>
<ellipse fill="none" stroke="black" cx="1046.85" cy="-126" rx="84.35" ry="18"/>
<text text-anchor="middle" x="1046.85" y="-121.33" font-family="Times,serif" font-size="14.00">PT_NAME [ o ]</text>
</g>
<!-- PT_DOT__0x56150067d8a0&#45;&gt;PT_NAME_0x56150067d4f0 -->
<g id="edge22" class="edge">
<title>PT_DOT__0x56150067d8a0&#45;&gt;PT_NAME_0x56150067d4f0</title>
<path fill="none" stroke="black" d="M838.01,-120.45C871.78,-119.25 916.48,-118.95 955.77,-119.54"/>
<polygon fill="black" stroke="black" points="955.66,-123.04 965.72,-119.72 955.78,-116.04 955.66,-123.04"/>
</g>
<!-- PT_DOT__0x56150067d8a0&#45;&gt;PT_NAME_0x56150067d4f0 -->
<g id="edge33" class="edge">
<title>PT_DOT__0x56150067d8a0&#45;&gt;PT_NAME_0x56150067d4f0</title>
<path fill="none" stroke="black" d="M838.01,-131.55C871.78,-132.75 916.48,-133.05 955.77,-132.46"/>
<polygon fill="black" stroke="black" points="955.78,-135.96 965.72,-132.28 955.66,-128.96 955.78,-135.96"/>
</g>
<!-- PT_NAME_0x56150067d6c8 -->
<g id="node21" class="node">
<title>PT_NAME_0x56150067d6c8</title>
<ellipse fill="none" stroke="black" cx="1046.85" cy="-72" rx="126.97" ry="18"/>
<text text-anchor="middle" x="1046.85" y="-67.33" font-family="Times,serif" font-size="14.00">PT_NAME [ host_year ]</text>
</g>
<!-- PT_DOT__0x56150067d8a0&#45;&gt;PT_NAME_0x56150067d6c8 -->
<g id="edge23" class="edge">
<title>PT_DOT__0x56150067d8a0&#45;&gt;PT_NAME_0x56150067d6c8</title>
<path fill="none" stroke="black" d="M830.89,-115.68C853.92,-110.53 882.3,-104.3 907.79,-99 924.16,-95.59 941.66,-92.08 958.51,-88.75"/>
<polygon fill="black" stroke="black" points="958.84,-92.26 967.98,-86.89 957.5,-85.39 958.84,-92.26"/>
</g>
<!-- PT_NAME_0x56150067d318 -->
<g id="node24" class="node">
<title>PT_NAME_0x56150067d318</title>
<ellipse fill="none" stroke="black" cx="1046.85" cy="-18" rx="139.07" ry="18"/>
<text text-anchor="middle" x="1046.85" y="-13.32" font-family="Times,serif" font-size="14.00">PT_NAME [ dba.olympic ]</text>
</g>
<!-- PT_DOT__0x56150067d8a0&#45;&gt;PT_NAME_0x56150067d318 -->
<g id="edge36" class="edge">
<title>PT_DOT__0x56150067d8a0&#45;&gt;PT_NAME_0x56150067d318</title>
<path fill="none" stroke="black" d="M808.11,-109.34C837.47,-88.2 887.14,-53.45 907.79,-45 918.04,-40.8 929,-37.24 940.09,-34.23"/>
<polygon fill="black" stroke="black" points="940.91,-37.63 949.73,-31.77 939.18,-30.85 940.91,-37.63"/>
</g>
<!-- PT_DATA_TYPE_0x56150067cf68 -->
<g id="node23" class="node">
<title>PT_DATA_TYPE_0x56150067cf68</title>
<ellipse fill="none" stroke="black" cx="1834.59" cy="-357" rx="87.51" ry="18"/>
<text text-anchor="middle" x="1834.59" y="-352.32" font-family="Times,serif" font-size="14.00">PT_DATA_TYPE</text>
</g>
<!-- PT_NAME_0x56150067c280&#45;&gt;PT_DATA_TYPE_0x56150067cf68 -->
<g id="edge30" class="edge">
<title>PT_NAME_0x56150067c280&#45;&gt;PT_DATA_TYPE_0x56150067cf68</title>
<path fill="none" stroke="black" d="M1688.44,-344.19C1706.42,-345.78 1724.78,-347.4 1742.13,-348.93"/>
<polygon fill="black" stroke="black" points="1741.6,-352.39 1751.87,-349.79 1742.21,-345.42 1741.6,-352.39"/>
</g>
<!-- PT_DATA_TYPE_0x56150067cf68&#45;&gt;PT_NAME_0x56150067bcf8 -->
<g id="edge31" class="edge">
<title>PT_DATA_TYPE_0x56150067cf68&#45;&gt;PT_NAME_0x56150067bcf8</title>
<path fill="none" stroke="black" d="M1889.44,-371.46C1927.53,-381.69 1979.01,-395.52 2020.6,-406.69"/>
<polygon fill="black" stroke="black" points="2019.47,-410.01 2030.03,-409.23 2021.28,-403.25 2019.47,-410.01"/>
</g>
<!-- PT_DATA_TYPE_0x56150067d4f0 -->
<g id="node25" class="node">
<title>PT_DATA_TYPE_0x56150067d4f0</title>
<ellipse fill="none" stroke="black" cx="1309.43" cy="-153" rx="87.51" ry="18"/>
<text text-anchor="middle" x="1309.43" y="-148.32" font-family="Times,serif" font-size="14.00">PT_DATA_TYPE</text>
</g>
<!-- PT_NAME_0x56150067d318&#45;&gt;PT_DATA_TYPE_0x56150067d4f0 -->
<g id="edge37" class="edge">
<title>PT_NAME_0x56150067d318&#45;&gt;PT_DATA_TYPE_0x56150067d4f0</title>
<path fill="none" stroke="black" d="M1147.26,-30.82C1160.63,-34.43 1173.87,-39.06 1185.92,-45 1226.19,-64.84 1263.51,-101.45 1286.13,-126.5"/>
<polygon fill="black" stroke="black" points="1283.24,-128.52 1292.49,-133.7 1288.49,-123.89 1283.24,-128.52"/>
</g>
<!-- PT_DATA_TYPE_0x56150067d4f0&#45;&gt;PT_NAME_0x56150067c280 -->
<g id="edge38" class="edge">
<title>PT_DATA_TYPE_0x56150067d4f0&#45;&gt;PT_NAME_0x56150067c280</title>
<path fill="none" stroke="black" d="M1335.42,-170.36C1381.95,-202.67 1481.99,-272.17 1535.52,-309.35"/>
<polygon fill="black" stroke="black" points="1533.49,-312.2 1543.7,-315.03 1537.48,-306.45 1533.49,-312.2"/>
</g>
<!-- PT_DOT__0x56150067e000 -->
<g id="node27" class="node">
<title>PT_DOT__0x56150067e000</title>
<ellipse fill="none" stroke="black" cx="392.23" cy="-154" rx="55.94" ry="18"/>
<text text-anchor="middle" x="392.23" y="-149.32" font-family="Times,serif" font-size="14.00">PT_DOT_</text>
</g>
<!-- PT_EXPR_0x56150067e3b0&#45;&gt;PT_DOT__0x56150067e000 -->
<g id="edge40" class="edge">
<title>PT_EXPR_0x56150067e3b0&#45;&gt;PT_DOT__0x56150067e000</title>
<path fill="none" stroke="black" d="M292.84,-154C303.14,-154 313.97,-154 324.52,-154"/>
<polygon fill="black" stroke="black" points="324.31,-157.5 334.31,-154 324.31,-150.5 324.31,-157.5"/>
</g>
<!-- PT_VALUE_0x56150067e1d8 -->
<g id="node31" class="node">
<title>PT_VALUE_0x56150067e1d8</title>
<ellipse fill="none" stroke="black" cx="392.23" cy="-100" rx="63.83" ry="18"/>
<text text-anchor="middle" x="392.23" y="-95.33" font-family="Times,serif" font-size="14.00">PT_VALUE</text>
</g>
<!-- PT_EXPR_0x56150067e3b0&#45;&gt;PT_VALUE_0x56150067e1d8 -->
<g id="edge47" class="edge">
<title>PT_EXPR_0x56150067e3b0&#45;&gt;PT_VALUE_0x56150067e1d8</title>
<path fill="none" stroke="black" d="M274.27,-140.65C294.18,-133.73 318.76,-125.19 340.24,-117.72"/>
<polygon fill="black" stroke="black" points="341.1,-121.13 349.39,-114.54 338.8,-114.52 341.1,-121.13"/>
</g>
<!-- PT_DOT__0x56150067e000&#45;&gt;PT_NAME_0x56150067e760 -->
<g id="edge42" class="edge">
<title>PT_DOT__0x56150067e000&#45;&gt;PT_NAME_0x56150067e760</title>
<path fill="none" stroke="black" d="M440.28,-163.62C456.61,-166.55 475.07,-169.41 492.06,-171 629.51,-183.86 786.97,-185.13 898.76,-183.76"/>
<polygon fill="black" stroke="black" points="898.65,-187.26 908.6,-183.63 898.56,-180.26 898.65,-187.26"/>
</g>
<!-- PT_DOT__0x56150067e000&#45;&gt;PT_DOT__0x56150067e000 -->
<g id="edge43" class="edge">
<title>PT_DOT__0x56150067e000&#45;&gt;PT_DOT__0x56150067e000</title>
<path fill="none" stroke="black" d="M365.06,-169.92C357.97,-180.15 367.02,-190 392.23,-190 407.58,-190 416.94,-186.34 420.31,-181.17"/>
<polygon fill="black" stroke="black" points="423.82,-181.11 419.52,-171.42 416.84,-181.68 423.82,-181.11"/>
</g>
<!-- PT_NAME_0x56150067dc50 -->
<g id="node28" class="node">
<title>PT_NAME_0x56150067dc50</title>
<ellipse fill="none" stroke="black" cx="576.41" cy="-144" rx="84.35" ry="18"/>
<text text-anchor="middle" x="576.41" y="-139.32" font-family="Times,serif" font-size="14.00">PT_NAME [ o ]</text>
</g>
<!-- PT_DOT__0x56150067e000&#45;&gt;PT_NAME_0x56150067dc50 -->
<g id="edge41" class="edge">
<title>PT_DOT__0x56150067e000&#45;&gt;PT_NAME_0x56150067dc50</title>
<path fill="none" stroke="black" d="M447.89,-151C458.93,-150.39 470.82,-149.74 482.76,-149.09"/>
<polygon fill="black" stroke="black" points="482.87,-152.58 492.67,-148.54 482.49,-145.6 482.87,-152.58"/>
</g>
<!-- PT_NAME_0x56150067d8a0 -->
<g id="node29" class="node">
<title>PT_NAME_0x56150067d8a0</title>
<ellipse fill="none" stroke="black" cx="576.41" cy="-72" rx="78.57" ry="18"/>
<text text-anchor="middle" x="576.41" y="-67.33" font-family="Times,serif" font-size="14.00">PT_NAME [ &#160;]</text>
</g>
<!-- PT_DOT__0x56150067e000&#45;&gt;PT_NAME_0x56150067d8a0 -->
<g id="edge44" class="edge">
<title>PT_DOT__0x56150067e000&#45;&gt;PT_NAME_0x56150067d8a0</title>
<path fill="none" stroke="black" d="M427.21,-139.59C436.58,-135.56 446.73,-131.15 456.06,-127 480.71,-116.03 508.06,-103.45 530.35,-93.1"/>
<polygon fill="black" stroke="black" points="531.57,-96.39 539.16,-89 528.62,-90.05 531.57,-96.39"/>
</g>
<!-- PT_DATA_TYPE_0x56150067dc50 -->
<g id="node30" class="node">
<title>PT_DATA_TYPE_0x56150067dc50</title>
<ellipse fill="none" stroke="black" cx="784.28" cy="-36" rx="87.51" ry="18"/>
<text text-anchor="middle" x="784.28" y="-31.32" font-family="Times,serif" font-size="14.00">PT_DATA_TYPE</text>
</g>
<!-- PT_NAME_0x56150067d8a0&#45;&gt;PT_DATA_TYPE_0x56150067dc50 -->
<g id="edge45" class="edge">
<title>PT_NAME_0x56150067d8a0&#45;&gt;PT_DATA_TYPE_0x56150067dc50</title>
<path fill="none" stroke="black" d="M640.02,-61.05C660.57,-57.46 683.66,-53.42 705.21,-49.65"/>
<polygon fill="black" stroke="black" points="705.58,-53.14 714.83,-47.97 704.38,-46.24 705.58,-53.14"/>
</g>
<!-- PT_DATA_TYPE_0x56150067dc50&#45;&gt;PT_NAME_0x56150067d318 -->
<g id="edge46" class="edge">
<title>PT_DATA_TYPE_0x56150067dc50&#45;&gt;PT_NAME_0x56150067d318</title>
<path fill="none" stroke="black" d="M867.72,-30.3C881.74,-29.34 896.62,-28.31 911.57,-27.28"/>
<polygon fill="black" stroke="black" points="911.76,-30.77 921.49,-26.59 911.28,-23.79 911.76,-30.77"/>
</g>
</g>
</svg>
