<?xml version="1.0" encoding="UTF-8" standalone="no"?>
<!DOCTYPE svg PUBLIC "-//W3C//DTD SVG 1.1//EN"
 "http://www.w3.org/Graphics/SVG/1.1/DTD/svg11.dtd">
<!-- Generated by graphviz version 10.0.1 (0)
 -->
<!-- Pages: 1 -->
<svg width="1352pt" height="431pt"
 viewBox="0.00 0.00 1352.23 431.21" xmlns="http://www.w3.org/2000/svg" xmlns:xlink="http://www.w3.org/1999/xlink">
<g id="graph0" class="graph" transform="scale(1 1) rotate(0) translate(4 427.21)">
<polygon fill="white" stroke="none" points="-4,4 -4,-427.21 1348.23,-427.21 1348.23,4 -4,4"/>
<!-- PT_SELECT_0x56150067b770 -->
<g id="node1" class="node">
<title>PT_SELECT_0x56150067b770</title>
<ellipse fill="none" stroke="black" cx="70.67" cy="-234" rx="70.67" ry="18"/>
<text text-anchor="middle" x="70.67" y="-229.32" font-family="Times,serif" font-size="14.00">PT_SELECT</text>
</g>
<!-- PT_SELECT_0x56150067b770&#45;&gt;PT_SELECT_0x56150067b770 -->
<g id="edge18" class="edge">
<title>PT_SELECT_0x56150067b770&#45;&gt;PT_SELECT_0x56150067b770</title>
<path fill="none" stroke="black" d="M60.11,-252.15C58.48,-261.54 62,-270 70.67,-270 75.55,-270 78.8,-267.32 80.42,-263.31"/>
<polygon fill="black" stroke="black" points="83.89,-263.89 81.13,-253.66 76.9,-263.38 83.89,-263.89"/>
</g>
<!-- PT_SELECT_0x56150067b770&#45;&gt;PT_SELECT_0x56150067b770 -->
<g id="edge40" class="edge">
<title>PT_SELECT_0x56150067b770&#45;&gt;PT_SELECT_0x56150067b770</title>
<path fill="none" stroke="black" d="M53.27,-251.7C43.65,-269 49.45,-288 70.67,-288 87.58,-288 94.7,-275.93 92.03,-262.28"/>
<polygon fill="black" stroke="black" points="95.39,-261.26 88.61,-253.12 88.83,-263.71 95.39,-261.26"/>
</g>
<!-- PT_SELECT_0x56150067b770&#45;&gt;PT_SELECT_0x56150067b770 -->
<g id="edge63" class="edge">
<title>PT_SELECT_0x56150067b770&#45;&gt;PT_SELECT_0x56150067b770</title>
<path fill="none" stroke="black" d="M49.1,-251.35C28.74,-275.82 35.94,-306 70.67,-306 101.07,-306 110.38,-282.89 98.59,-260.73"/>
<polygon fill="black" stroke="black" points="101.6,-258.93 93.1,-252.61 95.8,-262.85 101.6,-258.93"/>
</g>
<!-- PT_SELECT_0x56150067b770&#45;&gt;PT_SELECT_0x56150067b770 -->
<g id="edge81" class="edge">
<title>PT_SELECT_0x56150067b770&#45;&gt;PT_SELECT_0x56150067b770</title>
<path fill="none" stroke="black" d="M46.18,-251.23C13.91,-282.46 22.07,-324 70.67,-324 115.1,-324 125.73,-289.3 102.59,-259.48"/>
<polygon fill="black" stroke="black" points="105.47,-257.45 96.18,-252.35 100.27,-262.13 105.47,-257.45"/>
</g>
<!-- PT_NAME_0x56150067bb20 -->
<g id="node2" class="node">
<title>PT_NAME_0x56150067bb20</title>
<ellipse fill="none" stroke="black" cx="304.32" cy="-380" rx="126.97" ry="18"/>
<text text-anchor="middle" x="304.32" y="-375.32" font-family="Times,serif" font-size="14.00">PT_NAME [ host_year ]</text>
</g>
<!-- PT_SELECT_0x56150067b770&#45;&gt;PT_NAME_0x56150067bb20 -->
<g id="edge1" class="edge">
<title>PT_SELECT_0x56150067b770&#45;&gt;PT_NAME_0x56150067bb20</title>
<path fill="none" stroke="black" d="M119.93,-247.31C136.35,-263.03 156,-281.32 177.35,-294 216.38,-317.19 271.88,-323.69 293.84,-351.64"/>
<polygon fill="black" stroke="black" points="290.83,-353.42 298.96,-360.22 296.84,-349.84 290.83,-353.42"/>
</g>
<!-- PT_SELECT_0x56150067b770&#45;&gt;PT_NAME_0x56150067bb20 -->
<g id="edge19" class="edge">
<title>PT_SELECT_0x56150067b770&#45;&gt;PT_NAME_0x56150067bb20</title>
<path fill="none" stroke="black" d="M105.88,-250.04C124.55,-269.38 149.51,-295.46 177.35,-312 212.13,-332.66 259.98,-340.08 285.53,-355.04"/>
<polygon fill="black" stroke="black" points="283.36,-357.78 293.51,-360.81 287.46,-352.11 283.36,-357.78"/>
</g>
<!-- PT_SELECT_0x56150067b770&#45;&gt;PT_NAME_0x56150067bb20 -->
<g id="edge37" class="edge">
<title>PT_SELECT_0x56150067b770&#45;&gt;PT_NAME_0x56150067bb20</title>
<path fill="none" stroke="black" d="M93.12,-251.44C112.25,-273.74 142.55,-309.33 177.35,-330 202.16,-344.74 233.63,-352.74 258.9,-359.3"/>
<polygon fill="black" stroke="black" points="258.01,-362.68 268.57,-361.85 259.79,-355.91 258.01,-362.68"/>
</g>
<!-- PT_SELECT_0x56150067b770&#45;&gt;PT_NAME_0x56150067bb20 -->
<g id="edge41" class="edge">
<title>PT_SELECT_0x56150067b770&#45;&gt;PT_NAME_0x56150067bb20</title>
<path fill="none" stroke="black" d="M83.33,-252.04C100.7,-277.42 135.82,-323.33 177.35,-348 187.27,-353.89 198.26,-358.71 209.49,-362.65"/>
<polygon fill="black" stroke="black" points="208.27,-365.93 218.86,-365.69 210.43,-359.27 208.27,-365.93"/>
</g>
<!-- PT_SELECT_0x56150067b770&#45;&gt;PT_NAME_0x56150067bb20 -->
<g id="edge60" class="edge">
<title>PT_SELECT_0x56150067b770&#45;&gt;PT_NAME_0x56150067bb20</title>
<path fill="none" stroke="black" d="M77.33,-252.06C91.4,-282.73 130.25,-338.02 177.35,-366 177.94,-366.35 178.53,-366.7 179.13,-367.04"/>
<polygon fill="black" stroke="black" points="177.29,-370.03 187.77,-371.57 180.54,-363.83 177.29,-370.03"/>
</g>
<!-- PT_SELECT_0x56150067b770&#45;&gt;PT_NAME_0x56150067bb20 -->
<g id="edge64" class="edge">
<title>PT_SELECT_0x56150067b770&#45;&gt;PT_NAME_0x56150067bb20</title>
<path fill="none" stroke="black" d="M74.55,-252.3C85.51,-292.13 126.65,-353.88 177.35,-384 211.15,-404.08 257.28,-411.65 283.31,-403.09"/>
<polygon fill="black" stroke="black" points="284.58,-406.36 292.08,-398.87 281.55,-400.05 284.58,-406.36"/>
</g>
<!-- PT_SELECT_0x56150067b770&#45;&gt;PT_NAME_0x56150067bb20 -->
<g id="edge82" class="edge">
<title>PT_SELECT_0x56150067b770&#45;&gt;PT_NAME_0x56150067bb20</title>
<path fill="none" stroke="black" d="M73.24,-252.17C81.77,-304.41 124.33,-370.51 177.35,-402 216.22,-425.09 271.4,-431.64 293.56,-407.51"/>
<polygon fill="black" stroke="black" points="296.32,-409.67 298.9,-399.39 290.48,-405.82 296.32,-409.67"/>
</g>
<!-- PT_DATA_TYPE_0x56150067b948 -->
<g id="node4" class="node">
<title>PT_DATA_TYPE_0x56150067b948</title>
<ellipse fill="none" stroke="black" cx="915.23" cy="-380" rx="87.51" ry="18"/>
<text text-anchor="middle" x="915.23" y="-375.32" font-family="Times,serif" font-size="14.00">PT_DATA_TYPE</text>
</g>
<!-- PT_SELECT_0x56150067b770&#45;&gt;PT_DATA_TYPE_0x56150067b948 -->
<g id="edge59" class="edge">
<title>PT_SELECT_0x56150067b770&#45;&gt;PT_DATA_TYPE_0x56150067b948</title>
<path fill="none" stroke="black" d="M120.44,-247.18C138.28,-251.81 158.67,-256.88 177.35,-261 424.85,-315.61 489.4,-316.09 740.16,-353 770.74,-357.5 804.32,-362.66 833.75,-367.25"/>
<polygon fill="black" stroke="black" points="832.89,-370.66 843.31,-368.75 833.97,-363.74 832.89,-370.66"/>
</g>
<!-- PT_SPEC_0x56150067c630 -->
<g id="node5" class="node">
<title>PT_SPEC_0x56150067c630</title>
<ellipse fill="none" stroke="black" cx="304.32" cy="-234" rx="57.52" ry="18"/>
<text text-anchor="middle" x="304.32" y="-229.32" font-family="Times,serif" font-size="14.00">PT_SPEC</text>
</g>
<!-- PT_SELECT_0x56150067b770&#45;&gt;PT_SPEC_0x56150067c630 -->
<g id="edge4" class="edge">
<title>PT_SELECT_0x56150067b770&#45;&gt;PT_SPEC_0x56150067c630</title>
<path fill="none" stroke="black" d="M95.59,-216.77C137.13,-204.6 222.69,-203.8 270.02,-214.37"/>
<polygon fill="black" stroke="black" points="268.87,-217.69 279.43,-216.84 270.64,-210.92 268.87,-217.69"/>
</g>
<!-- PT_SELECT_0x56150067b770&#45;&gt;PT_SPEC_0x56150067c630 -->
<g id="edge22" class="edge">
<title>PT_SELECT_0x56150067b770&#45;&gt;PT_SPEC_0x56150067c630</title>
<path fill="none" stroke="black" d="M125.98,-222.36C162.34,-219.93 210.09,-219.88 246.88,-222.22"/>
<polygon fill="black" stroke="black" points="246.18,-225.68 256.41,-222.91 246.69,-218.7 246.18,-225.68"/>
</g>
<!-- PT_SELECT_0x56150067b770&#45;&gt;PT_SPEC_0x56150067c630 -->
<g id="edge44" class="edge">
<title>PT_SELECT_0x56150067b770&#45;&gt;PT_SPEC_0x56150067c630</title>
<path fill="none" stroke="black" d="M141.8,-234C171.43,-234 205.8,-234 235.2,-234"/>
<polygon fill="black" stroke="black" points="235.11,-237.5 245.11,-234 235.11,-230.5 235.11,-237.5"/>
</g>
<!-- PT_SELECT_0x56150067b770&#45;&gt;PT_SPEC_0x56150067c630 -->
<g id="edge67" class="edge">
<title>PT_SELECT_0x56150067b770&#45;&gt;PT_SPEC_0x56150067c630</title>
<path fill="none" stroke="black" d="M125.98,-245.64C162.34,-248.07 210.09,-248.12 246.88,-245.78"/>
<polygon fill="black" stroke="black" points="246.69,-249.3 256.41,-245.09 246.18,-242.32 246.69,-249.3"/>
</g>
<!-- PT_SELECT_0x56150067b770&#45;&gt;PT_SPEC_0x56150067c630 -->
<g id="edge85" class="edge">
<title>PT_SELECT_0x56150067b770&#45;&gt;PT_SPEC_0x56150067c630</title>
<path fill="none" stroke="black" d="M95.59,-251.23C137.13,-263.4 222.69,-264.2 270.02,-253.63"/>
<polygon fill="black" stroke="black" points="270.64,-257.08 279.43,-251.16 268.87,-250.31 270.64,-257.08"/>
</g>
<!-- PT_EXPR_0x56150067e3b0 -->
<g id="node16" class="node">
<title>PT_EXPR_0x56150067e3b0</title>
<ellipse fill="none" stroke="black" cx="304.32" cy="-72" rx="57.52" ry="18"/>
<text text-anchor="middle" x="304.32" y="-67.33" font-family="Times,serif" font-size="14.00">PT_EXPR</text>
</g>
<!-- PT_SELECT_0x56150067b770&#45;&gt;PT_EXPR_0x56150067e3b0 -->
<g id="edge15" class="edge">
<title>PT_SELECT_0x56150067b770&#45;&gt;PT_EXPR_0x56150067e3b0</title>
<path fill="none" stroke="black" d="M81.04,-215.95C108.51,-181.55 190.45,-120.21 246.78,-87.97"/>
<polygon fill="black" stroke="black" points="248.27,-91.14 255.31,-83.22 244.87,-85.03 248.27,-91.14"/>
</g>
<!-- PT_SELECT_0x56150067b770&#45;&gt;PT_EXPR_0x56150067e3b0 -->
<g id="edge33" class="edge">
<title>PT_SELECT_0x56150067b770&#45;&gt;PT_EXPR_0x56150067e3b0</title>
<path fill="none" stroke="black" d="M86.87,-216.25C121.29,-185.21 206.29,-124.51 258.94,-92.14"/>
<polygon fill="black" stroke="black" points="260.65,-95.2 267.4,-87.03 257.03,-89.21 260.65,-95.2"/>
</g>
<!-- PT_SELECT_0x56150067b770&#45;&gt;PT_EXPR_0x56150067e3b0 -->
<g id="edge55" class="edge">
<title>PT_SELECT_0x56150067b770&#45;&gt;PT_EXPR_0x56150067e3b0</title>
<path fill="none" stroke="black" d="M96.03,-216.97C137.86,-187.71 223.42,-127.87 270.48,-94.96"/>
<polygon fill="black" stroke="black" points="272.21,-98.03 278.4,-89.43 268.19,-92.29 272.21,-98.03"/>
</g>
<!-- PT_SELECT_0x56150067b770&#45;&gt;PT_EXPR_0x56150067e3b0 -->
<g id="edge78" class="edge">
<title>PT_SELECT_0x56150067b770&#45;&gt;PT_EXPR_0x56150067e3b0</title>
<path fill="none" stroke="black" d="M108.63,-218.36C156.63,-189.67 239.02,-131.51 279.48,-97.27"/>
<polygon fill="black" stroke="black" points="281.76,-99.93 287,-90.72 277.16,-94.65 281.76,-99.93"/>
</g>
<!-- PT_SELECT_0x56150067b770&#45;&gt;PT_EXPR_0x56150067e3b0 -->
<g id="edge96" class="edge">
<title>PT_SELECT_0x56150067b770&#45;&gt;PT_EXPR_0x56150067e3b0</title>
<path fill="none" stroke="black" d="M122.22,-221.4C174.35,-192.57 252.68,-135.15 286.63,-98.49"/>
<polygon fill="black" stroke="black" points="289.01,-101.09 292.92,-91.24 283.72,-96.5 289.01,-101.09"/>
</g>
<!-- PT_NODE_POINTER_0x56150067e000 -->
<g id="node19" class="node">
<title>PT_NODE_POINTER_0x56150067e000</title>
<ellipse fill="none" stroke="black" cx="304.32" cy="-18" rx="113.29" ry="18"/>
<text text-anchor="middle" x="304.32" y="-13.32" font-family="Times,serif" font-size="14.00">PT_NODE_POINTER</text>
</g>
<!-- PT_SELECT_0x56150067b770&#45;&gt;PT_NODE_POINTER_0x56150067e000 -->
<g id="edge36" class="edge">
<title>PT_SELECT_0x56150067b770&#45;&gt;PT_NODE_POINTER_0x56150067e000</title>
<path fill="none" stroke="black" d="M75.2,-215.56C84.88,-175.44 115.35,-81.78 177.35,-36 180.55,-33.64 183.91,-31.47 187.4,-29.49"/>
<polygon fill="black" stroke="black" points="188.83,-32.69 196.18,-25.07 185.68,-26.44 188.83,-32.69"/>
</g>
<!-- PT_SELECT_0x56150067b770&#45;&gt;PT_NODE_POINTER_0x56150067e000 -->
<g id="edge58" class="edge">
<title>PT_SELECT_0x56150067b770&#45;&gt;PT_NODE_POINTER_0x56150067e000</title>
<path fill="none" stroke="black" d="M77.95,-215.7C89.99,-178.67 120.34,-96.09 177.35,-54 189.44,-45.07 203.86,-38.97 218.55,-34.67"/>
<polygon fill="black" stroke="black" points="219.04,-38.16 227.81,-32.22 217.25,-31.39 219.04,-38.16"/>
</g>
<!-- PT_NAME_0x56150067c0a8 -->
<g id="node3" class="node">
<title>PT_NAME_0x56150067c0a8</title>
<ellipse fill="none" stroke="black" cx="603.72" cy="-380" rx="136.44" ry="18"/>
<text text-anchor="middle" x="603.72" y="-375.32" font-family="Times,serif" font-size="14.00">PT_NAME [ host_nation ]</text>
</g>
<!-- PT_NAME_0x56150067bb20&#45;&gt;PT_NAME_0x56150067c0a8 -->
<g id="edge2" class="edge">
<title>PT_NAME_0x56150067bb20&#45;&gt;PT_NAME_0x56150067c0a8</title>
<path fill="none" stroke="black" d="M318.87,-361.81C365.41,-333.88 519.15,-332.17 578.79,-356.69"/>
<polygon fill="black" stroke="black" points="577.21,-359.82 587.73,-361.09 580.3,-353.54 577.21,-359.82"/>
</g>
<!-- PT_NAME_0x56150067bb20&#45;&gt;PT_NAME_0x56150067c0a8 -->
<g id="edge20" class="edge">
<title>PT_NAME_0x56150067bb20&#45;&gt;PT_NAME_0x56150067c0a8</title>
<path fill="none" stroke="black" d="M338.57,-362.21C392.25,-350.69 498.06,-349.98 558.2,-360.07"/>
<polygon fill="black" stroke="black" points="557.27,-363.46 567.74,-361.88 558.57,-356.58 557.27,-363.46"/>
</g>
<!-- PT_NAME_0x56150067bb20&#45;&gt;PT_NAME_0x56150067c0a8 -->
<g id="edge38" class="edge">
<title>PT_NAME_0x56150067bb20&#45;&gt;PT_NAME_0x56150067c0a8</title>
<path fill="none" stroke="black" d="M397.38,-367.41C427.77,-366.39 461.86,-366.23 493.41,-366.93"/>
<polygon fill="black" stroke="black" points="493.31,-370.43 503.4,-367.19 493.49,-363.43 493.31,-370.43"/>
</g>
<!-- PT_NAME_0x56150067bb20&#45;&gt;PT_NAME_0x56150067c0a8 -->
<g id="edge42" class="edge">
<title>PT_NAME_0x56150067bb20&#45;&gt;PT_NAME_0x56150067c0a8</title>
<path fill="none" stroke="black" d="M431.44,-380C439.41,-380 447.46,-380 455.5,-380"/>
<polygon fill="black" stroke="black" points="455.35,-383.5 465.35,-380 455.35,-376.5 455.35,-383.5"/>
</g>
<!-- PT_NAME_0x56150067bb20&#45;&gt;PT_NAME_0x56150067c0a8 -->
<g id="edge61" class="edge">
<title>PT_NAME_0x56150067bb20&#45;&gt;PT_NAME_0x56150067c0a8</title>
<path fill="none" stroke="black" d="M397.38,-392.59C427.77,-393.61 461.86,-393.77 493.41,-393.07"/>
<polygon fill="black" stroke="black" points="493.49,-396.57 503.4,-392.81 493.31,-389.57 493.49,-396.57"/>
</g>
<!-- PT_NAME_0x56150067bb20&#45;&gt;PT_NAME_0x56150067c0a8 -->
<g id="edge65" class="edge">
<title>PT_NAME_0x56150067bb20&#45;&gt;PT_NAME_0x56150067c0a8</title>
<path fill="none" stroke="black" d="M338.57,-397.79C392.25,-409.31 498.06,-410.02 558.2,-399.93"/>
<polygon fill="black" stroke="black" points="558.57,-403.42 567.74,-398.12 557.27,-396.54 558.57,-403.42"/>
</g>
<!-- PT_NAME_0x56150067bb20&#45;&gt;PT_NAME_0x56150067c0a8 -->
<g id="edge83" class="edge">
<title>PT_NAME_0x56150067bb20&#45;&gt;PT_NAME_0x56150067c0a8</title>
<path fill="none" stroke="black" d="M318.87,-398.19C365.41,-426.12 519.15,-427.83 578.79,-403.31"/>
<polygon fill="black" stroke="black" points="580.3,-406.46 587.73,-398.91 577.21,-400.18 580.3,-406.46"/>
</g>
<!-- PT_NAME_0x56150067c0a8&#45;&gt;PT_DATA_TYPE_0x56150067b948 -->
<g id="edge3" class="edge">
<title>PT_NAME_0x56150067c0a8&#45;&gt;PT_DATA_TYPE_0x56150067b948</title>
<path fill="none" stroke="black" d="M618.82,-361.81C667.48,-333.76 828.66,-332.16 890.13,-357.02"/>
<polygon fill="black" stroke="black" points="888.5,-360.12 899.03,-361.31 891.54,-353.81 888.5,-360.12"/>
</g>
<!-- PT_NAME_0x56150067c0a8&#45;&gt;PT_DATA_TYPE_0x56150067b948 -->
<g id="edge21" class="edge">
<title>PT_NAME_0x56150067c0a8&#45;&gt;PT_DATA_TYPE_0x56150067b948</title>
<path fill="none" stroke="black" d="M639.33,-362.21C696.35,-350.45 809.89,-349.95 871.72,-360.71"/>
<polygon fill="black" stroke="black" points="870.66,-364.07 881.15,-362.56 872.01,-357.2 870.66,-364.07"/>
</g>
<!-- PT_NAME_0x56150067c0a8&#45;&gt;PT_DATA_TYPE_0x56150067b948 -->
<g id="edge39" class="edge">
<title>PT_NAME_0x56150067c0a8&#45;&gt;PT_DATA_TYPE_0x56150067b948</title>
<path fill="none" stroke="black" d="M703.08,-367.33C745.54,-366.03 794.56,-366.26 834.68,-368.03"/>
<polygon fill="black" stroke="black" points="834.34,-371.52 844.5,-368.51 834.68,-364.53 834.34,-371.52"/>
</g>
<!-- PT_NAME_0x56150067c0a8&#45;&gt;PT_DATA_TYPE_0x56150067b948 -->
<g id="edge43" class="edge">
<title>PT_NAME_0x56150067c0a8&#45;&gt;PT_DATA_TYPE_0x56150067b948</title>
<path fill="none" stroke="black" d="M740.48,-380C766,-380 792.21,-380 816.3,-380"/>
<polygon fill="black" stroke="black" points="816.06,-383.5 826.06,-380 816.06,-376.5 816.06,-383.5"/>
</g>
<!-- PT_NAME_0x56150067c0a8&#45;&gt;PT_DATA_TYPE_0x56150067b948 -->
<g id="edge62" class="edge">
<title>PT_NAME_0x56150067c0a8&#45;&gt;PT_DATA_TYPE_0x56150067b948</title>
<path fill="none" stroke="black" d="M703.08,-392.67C745.54,-393.97 794.56,-393.74 834.68,-391.97"/>
<polygon fill="black" stroke="black" points="834.68,-395.47 844.5,-391.49 834.34,-388.48 834.68,-395.47"/>
</g>
<!-- PT_NAME_0x56150067c0a8&#45;&gt;PT_DATA_TYPE_0x56150067b948 -->
<g id="edge66" class="edge">
<title>PT_NAME_0x56150067c0a8&#45;&gt;PT_DATA_TYPE_0x56150067b948</title>
<path fill="none" stroke="black" d="M639.33,-397.79C696.35,-409.55 809.89,-410.05 871.72,-399.29"/>
<polygon fill="black" stroke="black" points="872.01,-402.8 881.15,-397.44 870.66,-395.93 872.01,-402.8"/>
</g>
<!-- PT_NAME_0x56150067c0a8&#45;&gt;PT_DATA_TYPE_0x56150067b948 -->
<g id="edge84" class="edge">
<title>PT_NAME_0x56150067c0a8&#45;&gt;PT_DATA_TYPE_0x56150067b948</title>
<path fill="none" stroke="black" d="M618.82,-398.19C667.48,-426.24 828.66,-427.84 890.13,-402.98"/>
<polygon fill="black" stroke="black" points="891.54,-406.19 899.03,-398.69 888.5,-399.88 891.54,-406.19"/>
</g>
<!-- PT_NAME_0x56150067c458 -->
<g id="node6" class="node">
<title>PT_NAME_0x56150067c458</title>
<ellipse fill="none" stroke="black" cx="603.72" cy="-288" rx="135.39" ry="18"/>
<text text-anchor="middle" x="603.72" y="-283.32" font-family="Times,serif" font-size="14.00">PT_NAME [ dba.history ]</text>
</g>
<!-- PT_SPEC_0x56150067c630&#45;&gt;PT_NAME_0x56150067c458 -->
<g id="edge5" class="edge">
<title>PT_SPEC_0x56150067c630&#45;&gt;PT_NAME_0x56150067c458</title>
<path fill="none" stroke="black" d="M348.56,-222.14C409.32,-222.7 518.49,-243.33 571.77,-265.1"/>
<polygon fill="black" stroke="black" points="570.31,-268.28 580.87,-269.14 573.15,-261.88 570.31,-268.28"/>
</g>
<!-- PT_SPEC_0x56150067c630&#45;&gt;PT_NAME_0x56150067c458 -->
<g id="edge23" class="edge">
<title>PT_SPEC_0x56150067c630&#45;&gt;PT_NAME_0x56150067c458</title>
<path fill="none" stroke="black" d="M362.31,-233.45C416.2,-239.69 496.47,-254.34 549.2,-267.63"/>
<polygon fill="black" stroke="black" points="548.32,-271.01 558.88,-270.14 550.08,-264.24 548.32,-271.01"/>
</g>
<!-- PT_SPEC_0x56150067c630&#45;&gt;PT_NAME_0x56150067c458 -->
<g id="edge45" class="edge">
<title>PT_SPEC_0x56150067c630&#45;&gt;PT_NAME_0x56150067c458</title>
<path fill="none" stroke="black" d="M354.76,-242.98C397.08,-250.66 459.13,-261.93 510.58,-271.27"/>
<polygon fill="black" stroke="black" points="509.76,-274.68 520.23,-273.02 511.01,-267.79 509.76,-274.68"/>
</g>
<!-- PT_SPEC_0x56150067c630&#45;&gt;PT_NAME_0x56150067c458 -->
<g id="edge68" class="edge">
<title>PT_SPEC_0x56150067c630&#45;&gt;PT_NAME_0x56150067c458</title>
<path fill="none" stroke="black" d="M338.28,-248.85C370.83,-258.28 422.74,-269.22 471.99,-277.67"/>
<polygon fill="black" stroke="black" points="471.17,-281.09 481.61,-279.3 472.33,-274.18 471.17,-281.09"/>
</g>
<!-- PT_SPEC_0x56150067c630&#45;&gt;PT_NAME_0x56150067c458 -->
<g id="edge86" class="edge">
<title>PT_SPEC_0x56150067c630&#45;&gt;PT_NAME_0x56150067c458</title>
<path fill="none" stroke="black" d="M323.92,-251.32C351.34,-265.24 405.13,-279.36 458.21,-288.75"/>
<polygon fill="black" stroke="black" points="457.57,-292.19 468.02,-290.43 458.75,-285.29 457.57,-292.19"/>
</g>
<!-- PT_NAME_0x56150067c808 -->
<g id="node7" class="node">
<title>PT_NAME_0x56150067c808</title>
<ellipse fill="none" stroke="black" cx="603.72" cy="-234" rx="84.88" ry="18"/>
<text text-anchor="middle" x="603.72" y="-229.32" font-family="Times,serif" font-size="14.00">PT_NAME [ h ]</text>
</g>
<!-- PT_SPEC_0x56150067c630&#45;&gt;PT_NAME_0x56150067c808 -->
<g id="edge6" class="edge">
<title>PT_SPEC_0x56150067c630&#45;&gt;PT_NAME_0x56150067c808</title>
<path fill="none" stroke="black" d="M331.97,-217.75C384.05,-204.53 499.62,-203.51 561.59,-214.66"/>
<polygon fill="black" stroke="black" points="560.53,-218.01 571.02,-216.58 561.92,-211.16 560.53,-218.01"/>
</g>
<!-- PT_SPEC_0x56150067c630&#45;&gt;PT_NAME_0x56150067c808 -->
<g id="edge24" class="edge">
<title>PT_SPEC_0x56150067c630&#45;&gt;PT_NAME_0x56150067c808</title>
<path fill="none" stroke="black" d="M352.44,-223.82C398.85,-220.13 470.54,-219.51 525.32,-221.99"/>
<polygon fill="black" stroke="black" points="525.07,-225.48 535.23,-222.49 525.42,-218.49 525.07,-225.48"/>
</g>
<!-- PT_SPEC_0x56150067c630&#45;&gt;PT_NAME_0x56150067c808 -->
<g id="edge46" class="edge">
<title>PT_SPEC_0x56150067c630&#45;&gt;PT_NAME_0x56150067c808</title>
<path fill="none" stroke="black" d="M362.31,-234C403.22,-234 459.32,-234 507.04,-234"/>
<polygon fill="black" stroke="black" points="506.83,-237.5 516.83,-234 506.83,-230.5 506.83,-237.5"/>
</g>
<!-- PT_SPEC_0x56150067c630&#45;&gt;PT_NAME_0x56150067c808 -->
<g id="edge69" class="edge">
<title>PT_SPEC_0x56150067c630&#45;&gt;PT_NAME_0x56150067c808</title>
<path fill="none" stroke="black" d="M352.44,-244.18C398.85,-247.87 470.54,-248.49 525.32,-246.01"/>
<polygon fill="black" stroke="black" points="525.42,-249.51 535.23,-245.51 525.07,-242.52 525.42,-249.51"/>
</g>
<!-- PT_SPEC_0x56150067c630&#45;&gt;PT_NAME_0x56150067c808 -->
<g id="edge87" class="edge">
<title>PT_SPEC_0x56150067c630&#45;&gt;PT_NAME_0x56150067c808</title>
<path fill="none" stroke="black" d="M331.97,-250.25C384.05,-263.47 499.62,-264.49 561.59,-253.34"/>
<polygon fill="black" stroke="black" points="561.92,-256.84 571.02,-251.42 560.53,-249.99 561.92,-256.84"/>
</g>
<!-- PT_NAME_0x56150067e588 -->
<g id="node8" class="node">
<title>PT_NAME_0x56150067e588</title>
<ellipse fill="none" stroke="black" cx="603.72" cy="-180" rx="135.39" ry="18"/>
<text text-anchor="middle" x="603.72" y="-175.32" font-family="Times,serif" font-size="14.00">PT_NAME [ dba.history ]</text>
</g>
<!-- PT_SPEC_0x56150067c630&#45;&gt;PT_NAME_0x56150067e588 -->
<g id="edge7" class="edge">
<title>PT_SPEC_0x56150067c630&#45;&gt;PT_NAME_0x56150067e588</title>
<path fill="none" stroke="black" d="M323.92,-216.68C351.34,-202.76 405.13,-188.64 458.21,-179.25"/>
<polygon fill="black" stroke="black" points="458.75,-182.71 468.02,-177.57 457.57,-175.81 458.75,-182.71"/>
</g>
<!-- PT_SPEC_0x56150067c630&#45;&gt;PT_NAME_0x56150067e588 -->
<g id="edge25" class="edge">
<title>PT_SPEC_0x56150067c630&#45;&gt;PT_NAME_0x56150067e588</title>
<path fill="none" stroke="black" d="M338.28,-219.15C370.83,-209.72 422.74,-198.78 471.99,-190.33"/>
<polygon fill="black" stroke="black" points="472.33,-193.82 481.61,-188.7 471.17,-186.91 472.33,-193.82"/>
</g>
<!-- PT_SPEC_0x56150067c630&#45;&gt;PT_NAME_0x56150067e588 -->
<g id="edge47" class="edge">
<title>PT_SPEC_0x56150067c630&#45;&gt;PT_NAME_0x56150067e588</title>
<path fill="none" stroke="black" d="M354.76,-225.02C397.08,-217.34 459.13,-206.07 510.58,-196.73"/>
<polygon fill="black" stroke="black" points="511.01,-200.21 520.23,-194.98 509.76,-193.32 511.01,-200.21"/>
</g>
<!-- PT_SPEC_0x56150067c630&#45;&gt;PT_NAME_0x56150067e588 -->
<g id="edge70" class="edge">
<title>PT_SPEC_0x56150067c630&#45;&gt;PT_NAME_0x56150067e588</title>
<path fill="none" stroke="black" d="M362.31,-234.55C416.2,-228.31 496.47,-213.66 549.2,-200.37"/>
<polygon fill="black" stroke="black" points="550.08,-203.76 558.88,-197.86 548.32,-196.99 550.08,-203.76"/>
</g>
<!-- PT_SPEC_0x56150067c630&#45;&gt;PT_NAME_0x56150067e588 -->
<g id="edge88" class="edge">
<title>PT_SPEC_0x56150067c630&#45;&gt;PT_NAME_0x56150067e588</title>
<path fill="none" stroke="black" d="M348.56,-245.86C409.32,-245.3 518.49,-224.67 571.77,-202.9"/>
<polygon fill="black" stroke="black" points="573.15,-206.12 580.87,-198.86 570.31,-199.72 573.15,-206.12"/>
</g>
<!-- PT_SPEC_0x56150067cbb8 -->
<g id="node9" class="node">
<title>PT_SPEC_0x56150067cbb8</title>
<ellipse fill="none" stroke="black" cx="603.72" cy="-126" rx="57.52" ry="18"/>
<text text-anchor="middle" x="603.72" y="-121.33" font-family="Times,serif" font-size="14.00">PT_SPEC</text>
</g>
<!-- PT_SPEC_0x56150067c630&#45;&gt;PT_SPEC_0x56150067cbb8 -->
<g id="edge8" class="edge">
<title>PT_SPEC_0x56150067c630&#45;&gt;PT_SPEC_0x56150067cbb8</title>
<path fill="none" stroke="black" d="M311.24,-215.92C331.9,-181.55 403.04,-139.02 467.28,-117 506.6,-103.52 554.77,-95.92 581.78,-103.59"/>
<polygon fill="black" stroke="black" points="580.31,-106.77 590.89,-107.44 583.04,-100.32 580.31,-106.77"/>
</g>
<!-- PT_SPEC_0x56150067c630&#45;&gt;PT_SPEC_0x56150067cbb8 -->
<g id="edge26" class="edge">
<title>PT_SPEC_0x56150067c630&#45;&gt;PT_SPEC_0x56150067cbb8</title>
<path fill="none" stroke="black" d="M318.23,-216.11C345.02,-191.85 408.99,-154.98 467.28,-135 491.36,-126.75 518.75,-120.7 542.57,-117.72"/>
<polygon fill="black" stroke="black" points="542.86,-121.21 552.44,-116.68 542.13,-114.25 542.86,-121.21"/>
</g>
<!-- PT_SPEC_0x56150067c630&#45;&gt;PT_SPEC_0x56150067cbb8 -->
<g id="edge48" class="edge">
<title>PT_SPEC_0x56150067c630&#45;&gt;PT_SPEC_0x56150067cbb8</title>
<path fill="none" stroke="black" d="M332.14,-217.77C363.5,-199.48 417.47,-170.08 467.28,-153 490.28,-145.12 516.31,-139.24 539.36,-135.02"/>
<polygon fill="black" stroke="black" points="539.68,-138.52 548.92,-133.34 538.47,-131.62 539.68,-138.52"/>
</g>
<!-- PT_SPEC_0x56150067c630&#45;&gt;PT_SPEC_0x56150067cbb8 -->
<g id="edge71" class="edge">
<title>PT_SPEC_0x56150067c630&#45;&gt;PT_SPEC_0x56150067cbb8</title>
<path fill="none" stroke="black" d="M349.98,-222.71C381.75,-207.83 425.94,-185.17 467.28,-171 499.88,-159.83 538.55,-152.69 566.22,-145.39"/>
<polygon fill="black" stroke="black" points="566.85,-148.85 575.52,-142.77 564.95,-142.12 566.85,-148.85"/>
</g>
<!-- PT_SPEC_0x56150067c630&#45;&gt;PT_SPEC_0x56150067cbb8 -->
<g id="edge89" class="edge">
<title>PT_SPEC_0x56150067c630&#45;&gt;PT_SPEC_0x56150067cbb8</title>
<path fill="none" stroke="black" d="M362.17,-232.98C392.51,-220.42 431,-201.44 467.28,-189 508.53,-174.86 559.52,-167.18 585.6,-151.02"/>
<polygon fill="black" stroke="black" points="587.6,-153.9 593.39,-145.02 583.33,-148.35 587.6,-153.9"/>
</g>
<!-- PT_NAME_0x56150067c9e0 -->
<g id="node10" class="node">
<title>PT_NAME_0x56150067c9e0</title>
<ellipse fill="none" stroke="black" cx="915.23" cy="-207" rx="139.07" ry="18"/>
<text text-anchor="middle" x="915.23" y="-202.32" font-family="Times,serif" font-size="14.00">PT_NAME [ dba.olympic ]</text>
</g>
<!-- PT_SPEC_0x56150067cbb8&#45;&gt;PT_NAME_0x56150067c9e0 -->
<g id="edge9" class="edge">
<title>PT_SPEC_0x56150067cbb8&#45;&gt;PT_NAME_0x56150067c9e0</title>
<path fill="none" stroke="black" d="M614.7,-107.91C637.76,-91.91 696.16,-97.34 740.16,-117 758.42,-125.16 757.88,-135.88 776.16,-144 816.35,-161.87 868.33,-167.96 895.61,-182.53"/>
<polygon fill="black" stroke="black" points="893.56,-185.37 903.83,-187.99 897.44,-179.54 893.56,-185.37"/>
</g>
<!-- PT_SPEC_0x56150067cbb8&#45;&gt;PT_NAME_0x56150067c9e0 -->
<g id="edge27" class="edge">
<title>PT_SPEC_0x56150067cbb8&#45;&gt;PT_NAME_0x56150067c9e0</title>
<path fill="none" stroke="black" d="M648.31,-114.23C675.63,-115.21 711.04,-121.99 740.16,-135 758.42,-143.16 757.88,-153.88 776.16,-162 804.09,-174.41 837.7,-181.14 864.76,-186.88"/>
<polygon fill="black" stroke="black" points="863.94,-190.28 874.45,-188.97 865.41,-183.44 863.94,-190.28"/>
</g>
<!-- PT_SPEC_0x56150067cbb8&#45;&gt;PT_NAME_0x56150067c9e0 -->
<g id="edge49" class="edge">
<title>PT_SPEC_0x56150067cbb8&#45;&gt;PT_NAME_0x56150067c9e0</title>
<path fill="none" stroke="black" d="M659.15,-131.21C684.58,-135.05 714.77,-141.66 740.16,-153 758.42,-161.16 757.88,-171.88 776.16,-180 785.77,-184.27 796.05,-187.87 806.5,-190.9"/>
<polygon fill="black" stroke="black" points="805.41,-194.23 815.98,-193.46 807.24,-187.47 805.41,-194.23"/>
</g>
<!-- PT_SPEC_0x56150067cbb8&#45;&gt;PT_NAME_0x56150067c9e0 -->
<g id="edge72" class="edge">
<title>PT_SPEC_0x56150067cbb8&#45;&gt;PT_NAME_0x56150067c9e0</title>
<path fill="none" stroke="black" d="M633.6,-141.75C661.81,-148.84 705.46,-155.5 740.16,-171 755.57,-177.88 757.59,-186.59 773.12,-195.83"/>
<polygon fill="black" stroke="black" points="771.45,-198.91 781.95,-200.32 774.63,-192.67 771.45,-198.91"/>
</g>
<!-- PT_SPEC_0x56150067cbb8&#45;&gt;PT_NAME_0x56150067c9e0 -->
<g id="edge90" class="edge">
<title>PT_SPEC_0x56150067cbb8&#45;&gt;PT_NAME_0x56150067c9e0</title>
<path fill="none" stroke="black" d="M613.69,-144.2C636.01,-163.75 695.5,-169.05 740.16,-189 758.42,-197.16 757.88,-207.88 776.16,-216 815.39,-233.44 865.84,-239.66 893.61,-230.19"/>
<polygon fill="black" stroke="black" points="894.82,-233.49 902.34,-226.02 891.81,-227.17 894.82,-233.49"/>
</g>
<!-- PT_NAME_0x56150067cd90 -->
<g id="node11" class="node">
<title>PT_NAME_0x56150067cd90</title>
<ellipse fill="none" stroke="black" cx="915.23" cy="-153" rx="84.35" ry="18"/>
<text text-anchor="middle" x="915.23" y="-148.32" font-family="Times,serif" font-size="14.00">PT_NAME [ o ]</text>
</g>
<!-- PT_SPEC_0x56150067cbb8&#45;&gt;PT_NAME_0x56150067cd90 -->
<g id="edge10" class="edge">
<title>PT_SPEC_0x56150067cbb8&#45;&gt;PT_NAME_0x56150067cd90</title>
<path fill="none" stroke="black" d="M638.73,-111.3C697.89,-104.1 819.14,-114.59 879.08,-132.03"/>
<polygon fill="black" stroke="black" points="877.84,-135.31 888.43,-135.02 879.98,-128.64 877.84,-135.31"/>
</g>
<!-- PT_SPEC_0x56150067cbb8&#45;&gt;PT_NAME_0x56150067cd90 -->
<g id="edge28" class="edge">
<title>PT_SPEC_0x56150067cbb8&#45;&gt;PT_NAME_0x56150067cd90</title>
<path fill="none" stroke="black" d="M658.63,-120.17C712.67,-121.11 795.76,-128.19 852.43,-136.56"/>
<polygon fill="black" stroke="black" points="851.84,-140.01 862.26,-138.08 852.91,-133.09 851.84,-140.01"/>
</g>
<!-- PT_SPEC_0x56150067cbb8&#45;&gt;PT_NAME_0x56150067cd90 -->
<g id="edge50" class="edge">
<title>PT_SPEC_0x56150067cbb8&#45;&gt;PT_NAME_0x56150067cd90</title>
<path fill="none" stroke="black" d="M659.7,-130.8C705.59,-134.8 771.9,-140.58 825.33,-145.25"/>
<polygon fill="black" stroke="black" points="824.75,-148.71 835.02,-146.09 825.36,-141.73 824.75,-148.71"/>
</g>
<!-- PT_SPEC_0x56150067cbb8&#45;&gt;PT_NAME_0x56150067cd90 -->
<g id="edge73" class="edge">
<title>PT_SPEC_0x56150067cbb8&#45;&gt;PT_NAME_0x56150067cd90</title>
<path fill="none" stroke="black" d="M644.87,-138.94C689.58,-146.92 763.34,-154.36 822.38,-157.44"/>
<polygon fill="black" stroke="black" points="821.93,-160.93 832.09,-157.91 822.27,-153.93 821.93,-160.93"/>
</g>
<!-- PT_SPEC_0x56150067cbb8&#45;&gt;PT_NAME_0x56150067cd90 -->
<g id="edge91" class="edge">
<title>PT_SPEC_0x56150067cbb8&#45;&gt;PT_NAME_0x56150067cd90</title>
<path fill="none" stroke="black" d="M627.23,-142.85C675.49,-160.7 790.12,-172.82 859.02,-169.43"/>
<polygon fill="black" stroke="black" points="859.23,-172.92 868.98,-168.78 858.78,-165.94 859.23,-172.92"/>
</g>
<!-- PT_NAME_0x56150067e760 -->
<g id="node12" class="node">
<title>PT_NAME_0x56150067e760</title>
<ellipse fill="none" stroke="black" cx="915.23" cy="-99" rx="139.07" ry="18"/>
<text text-anchor="middle" x="915.23" y="-94.33" font-family="Times,serif" font-size="14.00">PT_NAME [ dba.olympic ]</text>
</g>
<!-- PT_SPEC_0x56150067cbb8&#45;&gt;PT_NAME_0x56150067e760 -->
<g id="edge11" class="edge">
<title>PT_SPEC_0x56150067cbb8&#45;&gt;PT_NAME_0x56150067e760</title>
<path fill="none" stroke="black" d="M627.23,-109.15C671.9,-92.63 773.43,-81.01 842.93,-82.07"/>
<polygon fill="black" stroke="black" points="842.62,-85.56 852.71,-82.32 842.8,-78.56 842.62,-85.56"/>
</g>
<!-- PT_SPEC_0x56150067cbb8&#45;&gt;PT_NAME_0x56150067e760 -->
<g id="edge29" class="edge">
<title>PT_SPEC_0x56150067cbb8&#45;&gt;PT_NAME_0x56150067e760</title>
<path fill="none" stroke="black" d="M644.87,-113.06C675.85,-107.53 720.79,-102.26 765.1,-98.52"/>
<polygon fill="black" stroke="black" points="765.16,-102.02 774.84,-97.72 764.59,-95.05 765.16,-102.02"/>
</g>
<!-- PT_SPEC_0x56150067cbb8&#45;&gt;PT_NAME_0x56150067e760 -->
<g id="edge51" class="edge">
<title>PT_SPEC_0x56150067cbb8&#45;&gt;PT_NAME_0x56150067e760</title>
<path fill="none" stroke="black" d="M659.7,-121.2C695.17,-118.11 742.83,-113.95 787.32,-110.07"/>
<polygon fill="black" stroke="black" points="787.39,-113.58 797.04,-109.22 786.78,-106.6 787.39,-113.58"/>
</g>
<!-- PT_SPEC_0x56150067cbb8&#45;&gt;PT_NAME_0x56150067e760 -->
<g id="edge74" class="edge">
<title>PT_SPEC_0x56150067cbb8&#45;&gt;PT_NAME_0x56150067e760</title>
<path fill="none" stroke="black" d="M658.63,-131.83C709.11,-130.95 784.93,-124.72 840.89,-117.08"/>
<polygon fill="black" stroke="black" points="841.25,-120.56 850.66,-115.69 840.27,-113.63 841.25,-120.56"/>
</g>
<!-- PT_SPEC_0x56150067cbb8&#45;&gt;PT_NAME_0x56150067e760 -->
<g id="edge92" class="edge">
<title>PT_SPEC_0x56150067cbb8&#45;&gt;PT_NAME_0x56150067e760</title>
<path fill="none" stroke="black" d="M638.73,-140.7C697.3,-147.83 816.73,-137.61 877.27,-120.49"/>
<polygon fill="black" stroke="black" points="878.25,-123.85 886.77,-117.54 876.18,-117.16 878.25,-123.85"/>
</g>
<!-- PT_EXPR_0x56150067da78 -->
<g id="node13" class="node">
<title>PT_EXPR_0x56150067da78</title>
<ellipse fill="none" stroke="black" cx="915.23" cy="-45" rx="57.52" ry="18"/>
<text text-anchor="middle" x="915.23" y="-40.33" font-family="Times,serif" font-size="14.00">PT_EXPR</text>
</g>
<!-- PT_SPEC_0x56150067cbb8&#45;&gt;PT_EXPR_0x56150067da78 -->
<g id="edge12" class="edge">
<title>PT_SPEC_0x56150067cbb8&#45;&gt;PT_EXPR_0x56150067da78</title>
<path fill="none" stroke="black" d="M613.69,-107.8C636.01,-88.25 695.5,-82.95 740.16,-63 758.42,-54.84 757.88,-44.12 776.16,-36 815.59,-18.47 866.35,-12.28 894.02,-21.95"/>
<polygon fill="black" stroke="black" points="892.18,-24.95 902.7,-26.2 895.26,-18.66 892.18,-24.95"/>
</g>
<!-- PT_SPEC_0x56150067cbb8&#45;&gt;PT_EXPR_0x56150067da78 -->
<g id="edge30" class="edge">
<title>PT_SPEC_0x56150067cbb8&#45;&gt;PT_EXPR_0x56150067da78</title>
<path fill="none" stroke="black" d="M633.6,-110.25C661.81,-103.16 705.46,-96.5 740.16,-81 758.42,-72.84 757.88,-62.12 776.16,-54 802.41,-42.33 833.67,-35.69 859.81,-33.66"/>
<polygon fill="black" stroke="black" points="859.73,-37.17 869.53,-33.14 859.36,-30.18 859.73,-37.17"/>
</g>
<!-- PT_SPEC_0x56150067cbb8&#45;&gt;PT_EXPR_0x56150067da78 -->
<g id="edge52" class="edge">
<title>PT_SPEC_0x56150067cbb8&#45;&gt;PT_EXPR_0x56150067da78</title>
<path fill="none" stroke="black" d="M659.15,-120.79C684.58,-116.95 714.77,-110.34 740.16,-99 758.42,-90.84 757.88,-80.12 776.16,-72 798.6,-62.02 824.71,-55.72 848.15,-51.74"/>
<polygon fill="black" stroke="black" points="848.58,-55.22 857.92,-50.2 847.49,-48.3 848.58,-55.22"/>
</g>
<!-- PT_SPEC_0x56150067cbb8&#45;&gt;PT_EXPR_0x56150067da78 -->
<g id="edge75" class="edge">
<title>PT_SPEC_0x56150067cbb8&#45;&gt;PT_EXPR_0x56150067da78</title>
<path fill="none" stroke="black" d="M648.31,-137.77C675.63,-136.79 711.04,-130.01 740.16,-117 758.42,-108.84 757.88,-98.12 776.16,-90 807.25,-76.18 845.39,-69.4 873.7,-63.2"/>
<polygon fill="black" stroke="black" points="874.36,-66.64 883.32,-60.99 872.79,-59.82 874.36,-66.64"/>
</g>
<!-- PT_SPEC_0x56150067cbb8&#45;&gt;PT_EXPR_0x56150067da78 -->
<g id="edge93" class="edge">
<title>PT_SPEC_0x56150067cbb8&#45;&gt;PT_EXPR_0x56150067da78</title>
<path fill="none" stroke="black" d="M614.7,-144.09C637.76,-160.09 696.16,-154.66 740.16,-135 758.42,-126.84 757.88,-116.12 776.16,-108 816.35,-90.13 868.33,-84.04 895.61,-69.47"/>
<polygon fill="black" stroke="black" points="897.44,-72.46 903.83,-64.01 893.56,-66.63 897.44,-72.46"/>
</g>
<!-- PT_NAME_0x56150067d140 -->
<g id="node14" class="node">
<title>PT_NAME_0x56150067d140</title>
<ellipse fill="none" stroke="black" cx="1217.26" cy="-72" rx="126.97" ry="18"/>
<text text-anchor="middle" x="1217.26" y="-67.33" font-family="Times,serif" font-size="14.00">PT_NAME [ host_year ]</text>
</g>
<!-- PT_EXPR_0x56150067da78&#45;&gt;PT_NAME_0x56150067d140 -->
<g id="edge13" class="edge">
<title>PT_EXPR_0x56150067da78&#45;&gt;PT_NAME_0x56150067d140</title>
<path fill="none" stroke="black" d="M949.77,-30.23C1006.69,-23.24 1121.68,-33.42 1180.23,-50.45"/>
<polygon fill="black" stroke="black" points="1179.13,-53.77 1189.72,-53.49 1181.26,-47.11 1179.13,-53.77"/>
</g>
<!-- PT_EXPR_0x56150067da78&#45;&gt;PT_NAME_0x56150067d140 -->
<g id="edge31" class="edge">
<title>PT_EXPR_0x56150067da78&#45;&gt;PT_NAME_0x56150067d140</title>
<path fill="none" stroke="black" d="M970.21,-39.2C1019.44,-40.2 1092.45,-46.44 1146.17,-54.06"/>
<polygon fill="black" stroke="black" points="1145.42,-57.49 1155.82,-55.49 1146.44,-50.57 1145.42,-57.49"/>
</g>
<!-- PT_EXPR_0x56150067da78&#45;&gt;PT_NAME_0x56150067d140 -->
<g id="edge53" class="edge">
<title>PT_EXPR_0x56150067da78&#45;&gt;PT_NAME_0x56150067d140</title>
<path fill="none" stroke="black" d="M970.91,-49.92C1006.28,-53.1 1053.73,-57.37 1097.48,-61.31"/>
<polygon fill="black" stroke="black" points="1097.02,-64.78 1107.3,-62.19 1097.65,-57.81 1097.02,-64.78"/>
</g>
<!-- PT_EXPR_0x56150067da78&#45;&gt;PT_NAME_0x56150067d140 -->
<g id="edge76" class="edge">
<title>PT_EXPR_0x56150067da78&#45;&gt;PT_NAME_0x56150067d140</title>
<path fill="none" stroke="black" d="M956.07,-58.11C987.89,-63.91 1034.43,-69.41 1079.4,-73.14"/>
<polygon fill="black" stroke="black" points="1079.03,-76.62 1089.27,-73.93 1079.58,-69.64 1079.03,-76.62"/>
</g>
<!-- PT_EXPR_0x56150067da78&#45;&gt;PT_NAME_0x56150067d140 -->
<g id="edge94" class="edge">
<title>PT_EXPR_0x56150067da78&#45;&gt;PT_NAME_0x56150067d140</title>
<path fill="none" stroke="black" d="M938.29,-61.94C982.11,-78.56 1081.66,-90.19 1148.94,-88.9"/>
<polygon fill="black" stroke="black" points="1148.88,-92.41 1158.77,-88.59 1148.66,-85.41 1148.88,-92.41"/>
</g>
<!-- PT_NAME_0x56150067d6c8 -->
<g id="node15" class="node">
<title>PT_NAME_0x56150067d6c8</title>
<ellipse fill="none" stroke="black" cx="1217.26" cy="-18" rx="126.97" ry="18"/>
<text text-anchor="middle" x="1217.26" y="-13.32" font-family="Times,serif" font-size="14.00">PT_NAME [ host_year ]</text>
</g>
<!-- PT_EXPR_0x56150067da78&#45;&gt;PT_NAME_0x56150067d6c8 -->
<g id="edge14" class="edge">
<title>PT_EXPR_0x56150067da78&#45;&gt;PT_NAME_0x56150067d6c8</title>
<path fill="none" stroke="black" d="M938.29,-28.06C982.11,-11.44 1081.66,0.19 1148.94,-1.1"/>
<polygon fill="black" stroke="black" points="1148.66,-4.59 1158.77,-1.41 1148.88,2.41 1148.66,-4.59"/>
</g>
<!-- PT_EXPR_0x56150067da78&#45;&gt;PT_NAME_0x56150067d6c8 -->
<g id="edge32" class="edge">
<title>PT_EXPR_0x56150067da78&#45;&gt;PT_NAME_0x56150067d6c8</title>
<path fill="none" stroke="black" d="M956.07,-31.89C987.89,-26.09 1034.43,-20.59 1079.4,-16.86"/>
<polygon fill="black" stroke="black" points="1079.58,-20.36 1089.27,-16.07 1079.03,-13.38 1079.58,-20.36"/>
</g>
<!-- PT_EXPR_0x56150067da78&#45;&gt;PT_NAME_0x56150067d6c8 -->
<g id="edge54" class="edge">
<title>PT_EXPR_0x56150067da78&#45;&gt;PT_NAME_0x56150067d6c8</title>
<path fill="none" stroke="black" d="M970.91,-40.08C1006.28,-36.9 1053.73,-32.63 1097.48,-28.69"/>
<polygon fill="black" stroke="black" points="1097.65,-32.19 1107.3,-27.81 1097.02,-25.22 1097.65,-32.19"/>
</g>
<!-- PT_EXPR_0x56150067da78&#45;&gt;PT_NAME_0x56150067d6c8 -->
<g id="edge77" class="edge">
<title>PT_EXPR_0x56150067da78&#45;&gt;PT_NAME_0x56150067d6c8</title>
<path fill="none" stroke="black" d="M970.21,-50.8C1019.44,-49.8 1092.45,-43.56 1146.17,-35.94"/>
<polygon fill="black" stroke="black" points="1146.44,-39.43 1155.82,-34.51 1145.42,-32.51 1146.44,-39.43"/>
</g>
<!-- PT_EXPR_0x56150067da78&#45;&gt;PT_NAME_0x56150067d6c8 -->
<g id="edge95" class="edge">
<title>PT_EXPR_0x56150067da78&#45;&gt;PT_NAME_0x56150067d6c8</title>
<path fill="none" stroke="black" d="M949.77,-59.77C1006.69,-66.76 1121.68,-56.58 1180.23,-39.55"/>
<polygon fill="black" stroke="black" points="1181.26,-42.89 1189.72,-36.51 1179.13,-36.23 1181.26,-42.89"/>
</g>
<!-- PT_NAME_0x56150067de28 -->
<g id="node17" class="node">
<title>PT_NAME_0x56150067de28</title>
<ellipse fill="none" stroke="black" cx="603.72" cy="-72" rx="126.97" ry="18"/>
<text text-anchor="middle" x="603.72" y="-67.33" font-family="Times,serif" font-size="14.00">PT_NAME [ host_year ]</text>
</g>
<!-- PT_EXPR_0x56150067e3b0&#45;&gt;PT_NAME_0x56150067de28 -->
<g id="edge16" class="edge">
<title>PT_EXPR_0x56150067e3b0&#45;&gt;PT_NAME_0x56150067de28</title>
<path fill="none" stroke="black" d="M331.97,-55.75C383.24,-42.74 496.06,-41.54 558.67,-52.15"/>
<polygon fill="black" stroke="black" points="557.79,-55.54 568.27,-53.98 559.1,-48.67 557.79,-55.54"/>
</g>
<!-- PT_EXPR_0x56150067e3b0&#45;&gt;PT_NAME_0x56150067de28 -->
<g id="edge34" class="edge">
<title>PT_EXPR_0x56150067e3b0&#45;&gt;PT_NAME_0x56150067de28</title>
<path fill="none" stroke="black" d="M352.44,-61.82C391.8,-58.69 449.36,-57.77 499.35,-59.07"/>
<polygon fill="black" stroke="black" points="498.94,-62.56 509.04,-59.36 499.15,-55.57 498.94,-62.56"/>
</g>
<!-- PT_EXPR_0x56150067e3b0&#45;&gt;PT_NAME_0x56150067de28 -->
<g id="edge56" class="edge">
<title>PT_EXPR_0x56150067e3b0&#45;&gt;PT_NAME_0x56150067de28</title>
<path fill="none" stroke="black" d="M362.31,-72C391.65,-72 428.82,-72 465.1,-72"/>
<polygon fill="black" stroke="black" points="464.81,-75.5 474.81,-72 464.81,-68.5 464.81,-75.5"/>
</g>
<!-- PT_EXPR_0x56150067e3b0&#45;&gt;PT_NAME_0x56150067de28 -->
<g id="edge79" class="edge">
<title>PT_EXPR_0x56150067e3b0&#45;&gt;PT_NAME_0x56150067de28</title>
<path fill="none" stroke="black" d="M352.44,-82.18C391.8,-85.31 449.36,-86.23 499.35,-84.93"/>
<polygon fill="black" stroke="black" points="499.15,-88.43 509.04,-84.64 498.94,-81.44 499.15,-88.43"/>
</g>
<!-- PT_EXPR_0x56150067e3b0&#45;&gt;PT_NAME_0x56150067de28 -->
<g id="edge97" class="edge">
<title>PT_EXPR_0x56150067e3b0&#45;&gt;PT_NAME_0x56150067de28</title>
<path fill="none" stroke="black" d="M331.97,-88.25C383.24,-101.26 496.06,-102.46 558.67,-91.85"/>
<polygon fill="black" stroke="black" points="559.1,-95.33 568.27,-90.02 557.79,-88.46 559.1,-95.33"/>
</g>
<!-- PT_VALUE_0x56150067e1d8 -->
<g id="node18" class="node">
<title>PT_VALUE_0x56150067e1d8</title>
<ellipse fill="none" stroke="black" cx="603.72" cy="-18" rx="63.83" ry="18"/>
<text text-anchor="middle" x="603.72" y="-13.32" font-family="Times,serif" font-size="14.00">PT_VALUE</text>
</g>
<!-- PT_EXPR_0x56150067e3b0&#45;&gt;PT_VALUE_0x56150067e1d8 -->
<g id="edge17" class="edge">
<title>PT_EXPR_0x56150067e3b0&#45;&gt;PT_VALUE_0x56150067e1d8</title>
<path fill="none" stroke="black" d="M323.92,-54.68C366.9,-32.87 474.61,-10.57 542.87,-6.71"/>
<polygon fill="black" stroke="black" points="542.95,-10.21 552.79,-6.3 542.65,-3.22 542.95,-10.21"/>
</g>
<!-- PT_EXPR_0x56150067e3b0&#45;&gt;PT_VALUE_0x56150067e1d8 -->
<g id="edge35" class="edge">
<title>PT_EXPR_0x56150067e3b0&#45;&gt;PT_VALUE_0x56150067e1d8</title>
<path fill="none" stroke="black" d="M338.28,-57.15C383.84,-43.96 467.33,-27.79 528.35,-19.63"/>
<polygon fill="black" stroke="black" points="528.49,-23.14 537.97,-18.4 527.6,-16.2 528.49,-23.14"/>
</g>
<!-- PT_EXPR_0x56150067e3b0&#45;&gt;PT_VALUE_0x56150067e1d8 -->
<g id="edge57" class="edge">
<title>PT_EXPR_0x56150067e3b0&#45;&gt;PT_VALUE_0x56150067e1d8</title>
<path fill="none" stroke="black" d="M354.76,-63.02C404.98,-53.9 483,-39.74 538.09,-29.73"/>
<polygon fill="black" stroke="black" points="538.43,-33.23 547.65,-28 537.18,-26.34 538.43,-33.23"/>
</g>
<!-- PT_EXPR_0x56150067e3b0&#45;&gt;PT_VALUE_0x56150067e1d8 -->
<g id="edge80" class="edge">
<title>PT_EXPR_0x56150067e3b0&#45;&gt;PT_VALUE_0x56150067e1d8</title>
<path fill="none" stroke="black" d="M362.31,-72.55C419.03,-65.99 504.97,-50.1 557.27,-36.3"/>
<polygon fill="black" stroke="black" points="558.03,-39.71 566.75,-33.7 556.18,-32.96 558.03,-39.71"/>
</g>
<!-- PT_EXPR_0x56150067e3b0&#45;&gt;PT_VALUE_0x56150067e1d8 -->
<g id="edge98" class="edge">
<title>PT_EXPR_0x56150067e3b0&#45;&gt;PT_VALUE_0x56150067e1d8</title>
<path fill="none" stroke="black" d="M348.56,-83.86C409.93,-83.29 520.66,-62.25 573.34,-40.26"/>
<polygon fill="black" stroke="black" points="574.63,-43.51 582.28,-36.18 571.73,-37.14 574.63,-43.51"/>
</g>
</g>
</svg>
