<?xml version="1.0" encoding="UTF-8" standalone="no"?>
<!DOCTYPE svg PUBLIC "-//W3C//DTD SVG 1.1//EN"
 "http://www.w3.org/Graphics/SVG/1.1/DTD/svg11.dtd">
<!-- Generated by graphviz version 10.0.1 (0)
 -->
<!-- Pages: 1 -->
<svg width="1352pt" height="614pt"
 viewBox="0.00 0.00 1352.23 614.49" xmlns="http://www.w3.org/2000/svg" xmlns:xlink="http://www.w3.org/1999/xlink">
<g id="graph0" class="graph" transform="scale(1 1) rotate(0) translate(4 610.49)">
<polygon fill="white" stroke="none" points="-4,4 -4,-610.49 1348.23,-610.49 1348.23,4 -4,4"/>
<!-- PT_SELECT_0x56150067b770 -->
<g id="node1" class="node">
<title>PT_SELECT_0x56150067b770</title>
<ellipse fill="none" stroke="black" cx="70.67" cy="-236.49" rx="70.67" ry="18"/>
<text text-anchor="middle" x="70.67" y="-231.82" font-family="Times,serif" font-size="14.00">PT_SELECT</text>
</g>
<!-- PT_NAME_0x56150067bb20 -->
<g id="node2" class="node">
<title>PT_NAME_0x56150067bb20</title>
<ellipse fill="none" stroke="black" cx="304.32" cy="-521.49" rx="126.97" ry="18"/>
<text text-anchor="middle" x="304.32" y="-516.82" font-family="Times,serif" font-size="14.00">PT_NAME [ host_year ]</text>
</g>
<!-- PT_SELECT_0x56150067b770&#45;&gt;PT_NAME_0x56150067bb20 -->
<g id="edge1" class="edge">
<title>PT_SELECT_0x56150067b770&#45;&gt;PT_NAME_0x56150067bb20</title>
<path fill="none" stroke="black" d="M78.65,-254.65C93.06,-290.55 128.88,-371.96 177.35,-427.49 201.96,-455.69 236.36,-480.65 262.99,-497.76"/>
<polygon fill="black" stroke="black" points="260.81,-500.52 271.14,-502.89 264.54,-494.6 260.81,-500.52"/>
</g>
<!-- PT_SPEC_0x56150067c630 -->
<g id="node5" class="node">
<title>PT_SPEC_0x56150067c630</title>
<ellipse fill="none" stroke="black" cx="304.32" cy="-400.49" rx="57.52" ry="18"/>
<text text-anchor="middle" x="304.32" y="-395.82" font-family="Times,serif" font-size="14.00">PT_SPEC</text>
</g>
<!-- PT_SELECT_0x56150067b770&#45;&gt;PT_SPEC_0x56150067c630 -->
<g id="edge4" class="edge">
<title>PT_SELECT_0x56150067b770&#45;&gt;PT_SPEC_0x56150067c630</title>
<path fill="none" stroke="black" d="M85.84,-254.19C104.77,-276.95 140.27,-316.62 177.35,-342.49 201.08,-359.05 230.3,-372.85 254.62,-382.83"/>
<polygon fill="black" stroke="black" points="253.08,-385.98 263.66,-386.44 255.67,-379.48 253.08,-385.98"/>
</g>
<!-- PT_EXPR_0x56150067e3b0 -->
<g id="node17" class="node">
<title>PT_EXPR_0x56150067e3b0</title>
<ellipse fill="none" stroke="black" cx="304.32" cy="-264.49" rx="57.52" ry="18"/>
<text text-anchor="middle" x="304.32" y="-259.82" font-family="Times,serif" font-size="14.00">PT_EXPR</text>
</g>
<!-- PT_SELECT_0x56150067b770&#45;&gt;PT_EXPR_0x56150067e3b0 -->
<g id="edge16" class="edge">
<title>PT_SELECT_0x56150067b770&#45;&gt;PT_EXPR_0x56150067e3b0</title>
<path fill="none" stroke="black" d="M139.92,-232.31C177.69,-235.08 223.63,-241.1 257.16,-247.87"/>
<polygon fill="black" stroke="black" points="256.04,-251.21 266.55,-249.88 257.5,-244.37 256.04,-251.21"/>
</g>
<!-- PT_SELECT_0x56150067b770&#45;&gt;PT_EXPR_0x56150067e3b0 -->
<g id="edge23" class="edge">
<title>PT_SELECT_0x56150067b770&#45;&gt;PT_EXPR_0x56150067e3b0</title>
<path fill="none" stroke="black" d="M135.28,-244.18C167.51,-248.07 206.56,-252.8 238.9,-256.7"/>
<polygon fill="black" stroke="black" points="238.19,-260.14 248.54,-257.87 239.03,-253.19 238.19,-260.14"/>
</g>
<!-- PT_SELECT_0x56150067b770&#45;&gt;PT_EXPR_0x56150067e3b0 -->
<g id="edge30" class="edge">
<title>PT_SELECT_0x56150067b770&#45;&gt;PT_EXPR_0x56150067e3b0</title>
<path fill="none" stroke="black" d="M110.97,-251.67C145.47,-259.15 196.35,-265.93 237.13,-268.82"/>
<polygon fill="black" stroke="black" points="236.89,-272.31 247.1,-269.45 237.34,-265.33 236.89,-272.31"/>
</g>
<!-- PT_NAME_0x56150067de28 -->
<g id="node18" class="node">
<title>PT_NAME_0x56150067de28</title>
<ellipse fill="none" stroke="black" cx="603.72" cy="-264.49" rx="126.97" ry="18"/>
<text text-anchor="middle" x="603.72" y="-259.82" font-family="Times,serif" font-size="14.00">PT_NAME [ host_year ]</text>
</g>
<!-- PT_SELECT_0x56150067b770&#45;&gt;PT_NAME_0x56150067de28 -->
<g id="edge37" class="edge">
<title>PT_SELECT_0x56150067b770&#45;&gt;PT_NAME_0x56150067de28</title>
<path fill="none" stroke="black" d="M106.64,-252.18C126.45,-263.09 152.24,-276.35 177.35,-282.49 286.98,-309.31 318.77,-291.3 431.28,-282.49 449.4,-281.07 468.5,-278.82 487.11,-276.33"/>
<polygon fill="black" stroke="black" points="487.38,-279.83 496.81,-275 486.43,-272.89 487.38,-279.83"/>
</g>
<!-- PT_SELECT_0x56150067b770&#45;&gt;PT_NAME_0x56150067de28 -->
<g id="edge42" class="edge">
<title>PT_SELECT_0x56150067b770&#45;&gt;PT_NAME_0x56150067de28</title>
<path fill="none" stroke="black" d="M87.53,-254.19C107.39,-270.37 142.99,-292.09 177.35,-300.49 286.98,-327.31 318.77,-309.3 431.28,-300.49 469.2,-297.52 511.41,-290.92 544.46,-283.9"/>
<polygon fill="black" stroke="black" points="544.8,-287.41 553.81,-281.84 543.29,-280.58 544.8,-287.41"/>
</g>
<!-- PT_EXPR_0x56150067bcf8 -->
<g id="node19" class="node">
<title>PT_EXPR_0x56150067bcf8</title>
<ellipse fill="none" stroke="black" cx="603.72" cy="-210.49" rx="57.52" ry="18"/>
<text text-anchor="middle" x="603.72" y="-205.82" font-family="Times,serif" font-size="14.00">PT_EXPR</text>
</g>
<!-- PT_SELECT_0x56150067b770&#45;&gt;PT_EXPR_0x56150067bcf8 -->
<g id="edge38" class="edge">
<title>PT_SELECT_0x56150067b770&#45;&gt;PT_EXPR_0x56150067bcf8</title>
<path fill="none" stroke="black" d="M135.2,-228.81C235.91,-221.01 431.35,-211.41 534.76,-209.13"/>
<polygon fill="black" stroke="black" points="534.55,-212.63 544.47,-208.93 534.41,-205.63 534.55,-212.63"/>
</g>
<!-- PT_SELECT_0x56150067b770&#45;&gt;PT_EXPR_0x56150067bcf8 -->
<g id="edge43" class="edge">
<title>PT_SELECT_0x56150067b770&#45;&gt;PT_EXPR_0x56150067bcf8</title>
<path fill="none" stroke="black" d="M141.65,-237.81C245.27,-235.46 438.07,-225.97 538.36,-218.23"/>
<polygon fill="black" stroke="black" points="538.63,-221.72 548.32,-217.44 538.07,-214.75 538.63,-221.72"/>
</g>
<!-- PT_EXPR_0x56150067da78 -->
<g id="node21" class="node">
<title>PT_EXPR_0x56150067da78</title>
<ellipse fill="none" stroke="black" cx="603.72" cy="-99.49" rx="57.52" ry="18"/>
<text text-anchor="middle" x="603.72" y="-94.82" font-family="Times,serif" font-size="14.00">PT_EXPR</text>
</g>
<!-- PT_SELECT_0x56150067b770&#45;&gt;PT_EXPR_0x56150067da78 -->
<g id="edge27" class="edge">
<title>PT_SELECT_0x56150067b770&#45;&gt;PT_EXPR_0x56150067da78</title>
<path fill="none" stroke="black" d="M83.42,-218.33C100.64,-193.48 135.3,-149.77 177.35,-130.49 296.08,-76.06 453.14,-81.92 539.35,-90.83"/>
<polygon fill="black" stroke="black" points="538.95,-94.31 549.27,-91.91 539.71,-87.35 538.95,-94.31"/>
</g>
<!-- PT_NAME_0x56150067d140 -->
<g id="node22" class="node">
<title>PT_NAME_0x56150067d140</title>
<ellipse fill="none" stroke="black" cx="915.23" cy="-126.49" rx="126.97" ry="18"/>
<text text-anchor="middle" x="915.23" y="-121.82" font-family="Times,serif" font-size="14.00">PT_NAME [ host_year ]</text>
</g>
<!-- PT_SELECT_0x56150067b770&#45;&gt;PT_NAME_0x56150067d140 -->
<g id="edge40" class="edge">
<title>PT_SELECT_0x56150067b770&#45;&gt;PT_NAME_0x56150067d140</title>
<path fill="none" stroke="black" d="M106.28,-220.65C126.84,-214.95 153.49,-209.39 177.35,-205.49 387.4,-171.15 633.2,-144.48 781.15,-132.31"/>
<polygon fill="black" stroke="black" points="781.32,-135.81 791,-131.51 780.75,-128.83 781.32,-135.81"/>
</g>
<!-- PT_SELECT_0x56150067b770&#45;&gt;PT_NAME_0x56150067d140 -->
<g id="edge45" class="edge">
<title>PT_SELECT_0x56150067b770&#45;&gt;PT_NAME_0x56150067d140</title>
<path fill="none" stroke="black" d="M138.03,-230.59C151.03,-228.14 164.59,-225.58 177.35,-223.49 405.45,-186.2 675.71,-157.96 817.04,-141.3"/>
<polygon fill="black" stroke="black" points="817.21,-144.8 826.73,-140.15 816.39,-137.85 817.21,-144.8"/>
</g>
<!-- PT_NAME_0x56150067d6c8 -->
<g id="node23" class="node">
<title>PT_NAME_0x56150067d6c8</title>
<ellipse fill="none" stroke="black" cx="915.23" cy="-72.49" rx="126.97" ry="18"/>
<text text-anchor="middle" x="915.23" y="-67.82" font-family="Times,serif" font-size="14.00">PT_NAME [ host_year ]</text>
</g>
<!-- PT_SELECT_0x56150067b770&#45;&gt;PT_NAME_0x56150067d6c8 -->
<g id="edge41" class="edge">
<title>PT_SELECT_0x56150067b770&#45;&gt;PT_NAME_0x56150067d6c8</title>
<path fill="none" stroke="black" d="M76.18,-218.09C87.38,-181.96 119.81,-104.05 177.35,-72.49 403.24,51.42 729.73,-14.05 858.76,-52"/>
<polygon fill="black" stroke="black" points="857.5,-55.28 868.08,-54.81 859.52,-48.58 857.5,-55.28"/>
</g>
<!-- PT_SELECT_0x56150067b770&#45;&gt;PT_NAME_0x56150067d6c8 -->
<g id="edge46" class="edge">
<title>PT_SELECT_0x56150067b770&#45;&gt;PT_NAME_0x56150067d6c8</title>
<path fill="none" stroke="black" d="M79.92,-218.31C93.72,-185.68 125.24,-119.08 177.35,-90.49 388.34,25.25 687.1,-24.24 830.74,-55.06"/>
<polygon fill="black" stroke="black" points="829.65,-58.4 840.17,-57.1 831.14,-51.56 829.65,-58.4"/>
</g>
<!-- PT_NAME_0x56150067c0a8 -->
<g id="node3" class="node">
<title>PT_NAME_0x56150067c0a8</title>
<ellipse fill="none" stroke="black" cx="603.72" cy="-588.49" rx="136.44" ry="18"/>
<text text-anchor="middle" x="603.72" y="-583.82" font-family="Times,serif" font-size="14.00">PT_NAME [ host_nation ]</text>
</g>
<!-- PT_NAME_0x56150067bb20&#45;&gt;PT_NAME_0x56150067c0a8 -->
<g id="edge2" class="edge">
<title>PT_NAME_0x56150067bb20&#45;&gt;PT_NAME_0x56150067c0a8</title>
<path fill="none" stroke="black" d="M367.46,-537.54C397.53,-545.12 434.21,-554.11 467.28,-561.49 482.07,-564.79 497.8,-568.1 513.11,-571.22"/>
<polygon fill="black" stroke="black" points="512.19,-574.61 522.69,-573.16 513.58,-567.75 512.19,-574.61"/>
</g>
<!-- PT_DATA_TYPE_0x56150067b948 -->
<g id="node4" class="node">
<title>PT_DATA_TYPE_0x56150067b948</title>
<ellipse fill="none" stroke="black" cx="915.23" cy="-588.49" rx="87.51" ry="18"/>
<text text-anchor="middle" x="915.23" y="-583.82" font-family="Times,serif" font-size="14.00">PT_DATA_TYPE</text>
</g>
<!-- PT_NAME_0x56150067c0a8&#45;&gt;PT_DATA_TYPE_0x56150067b948 -->
<g id="edge3" class="edge">
<title>PT_NAME_0x56150067c0a8&#45;&gt;PT_DATA_TYPE_0x56150067b948</title>
<path fill="none" stroke="black" d="M740.48,-588.49C766,-588.49 792.21,-588.49 816.3,-588.49"/>
<polygon fill="black" stroke="black" points="816.06,-591.99 826.06,-588.49 816.06,-584.99 816.06,-591.99"/>
</g>
<!-- PT_NAME_0x56150067c458 -->
<g id="node6" class="node">
<title>PT_NAME_0x56150067c458</title>
<ellipse fill="none" stroke="black" cx="603.72" cy="-372.49" rx="135.39" ry="18"/>
<text text-anchor="middle" x="603.72" y="-367.82" font-family="Times,serif" font-size="14.00">PT_NAME [ dba.history ]</text>
</g>
<!-- PT_SPEC_0x56150067c630&#45;&gt;PT_NAME_0x56150067c458 -->
<g id="edge5" class="edge">
<title>PT_SPEC_0x56150067c630&#45;&gt;PT_NAME_0x56150067c458</title>
<path fill="none" stroke="black" d="M359.86,-395.36C393.66,-392.17 438.47,-387.95 480.4,-384.01"/>
<polygon fill="black" stroke="black" points="480.71,-387.49 490.34,-383.07 480.06,-380.52 480.71,-387.49"/>
</g>
<!-- PT_NAME_0x56150067c808 -->
<g id="node7" class="node">
<title>PT_NAME_0x56150067c808</title>
<ellipse fill="none" stroke="black" cx="603.72" cy="-318.49" rx="84.88" ry="18"/>
<text text-anchor="middle" x="603.72" y="-313.82" font-family="Times,serif" font-size="14.00">PT_NAME [ h ]</text>
</g>
<!-- PT_SPEC_0x56150067c630&#45;&gt;PT_NAME_0x56150067c808 -->
<g id="edge6" class="edge">
<title>PT_SPEC_0x56150067c630&#45;&gt;PT_NAME_0x56150067c808</title>
<path fill="none" stroke="black" d="M341.88,-386.54C374.44,-374.5 423.54,-357.22 467.28,-345.49 485.96,-340.48 506.32,-335.95 525.44,-332.09"/>
<polygon fill="black" stroke="black" points="525.92,-335.56 535.05,-330.19 524.56,-328.69 525.92,-335.56"/>
</g>
<!-- PT_NAME_0x56150067dc50 -->
<g id="node8" class="node">
<title>PT_NAME_0x56150067dc50</title>
<ellipse fill="none" stroke="black" cx="603.72" cy="-534.49" rx="126.97" ry="18"/>
<text text-anchor="middle" x="603.72" y="-529.82" font-family="Times,serif" font-size="14.00">PT_NAME [ host_year ]</text>
</g>
<!-- PT_SPEC_0x56150067c630&#45;&gt;PT_NAME_0x56150067dc50 -->
<g id="edge7" class="edge">
<title>PT_SPEC_0x56150067c630&#45;&gt;PT_NAME_0x56150067dc50</title>
<path fill="none" stroke="black" d="M325.32,-417.48C354.54,-441.37 411.49,-484.54 467.28,-507.49 478.23,-512 490,-515.77 501.86,-518.92"/>
<polygon fill="black" stroke="black" points="500.73,-522.25 511.28,-521.28 502.43,-515.46 500.73,-522.25"/>
</g>
<!-- PT_NAME_0x56150067e588 -->
<g id="node9" class="node">
<title>PT_NAME_0x56150067e588</title>
<ellipse fill="none" stroke="black" cx="603.72" cy="-480.49" rx="135.39" ry="18"/>
<text text-anchor="middle" x="603.72" y="-475.82" font-family="Times,serif" font-size="14.00">PT_NAME [ dba.history ]</text>
</g>
<!-- PT_SPEC_0x56150067c630&#45;&gt;PT_NAME_0x56150067e588 -->
<g id="edge8" class="edge">
<title>PT_SPEC_0x56150067c630&#45;&gt;PT_NAME_0x56150067e588</title>
<path fill="none" stroke="black" d="M342.9,-414.2C375.48,-425.75 424.07,-442.16 467.28,-453.49 481.05,-457.1 495.72,-460.49 510.13,-463.56"/>
<polygon fill="black" stroke="black" points="509.09,-466.92 519.59,-465.54 510.52,-460.07 509.09,-466.92"/>
</g>
<!-- PT_SPEC_0x56150067cbb8 -->
<g id="node10" class="node">
<title>PT_SPEC_0x56150067cbb8</title>
<ellipse fill="none" stroke="black" cx="603.72" cy="-426.49" rx="57.52" ry="18"/>
<text text-anchor="middle" x="603.72" y="-421.82" font-family="Times,serif" font-size="14.00">PT_SPEC</text>
</g>
<!-- PT_SPEC_0x56150067c630&#45;&gt;PT_SPEC_0x56150067cbb8 -->
<g id="edge9" class="edge">
<title>PT_SPEC_0x56150067c630&#45;&gt;PT_SPEC_0x56150067cbb8</title>
<path fill="none" stroke="black" d="M360.21,-405.29C410.01,-409.64 483.54,-416.07 536.57,-420.71"/>
<polygon fill="black" stroke="black" points="536.12,-424.18 546.39,-421.57 536.73,-417.21 536.12,-424.18"/>
</g>
<!-- PT_NAME_0x56150067c9e0 -->
<g id="node11" class="node">
<title>PT_NAME_0x56150067c9e0</title>
<ellipse fill="none" stroke="black" cx="915.23" cy="-507.49" rx="139.07" ry="18"/>
<text text-anchor="middle" x="915.23" y="-502.82" font-family="Times,serif" font-size="14.00">PT_NAME [ dba.olympic ]</text>
</g>
<!-- PT_SPEC_0x56150067cbb8&#45;&gt;PT_NAME_0x56150067c9e0 -->
<g id="edge10" class="edge">
<title>PT_SPEC_0x56150067cbb8&#45;&gt;PT_NAME_0x56150067c9e0</title>
<path fill="none" stroke="black" d="M659.15,-431.71C684.58,-435.54 714.77,-442.15 740.16,-453.49 758.42,-461.65 757.88,-472.37 776.16,-480.49 785.77,-484.76 796.05,-488.36 806.5,-491.39"/>
<polygon fill="black" stroke="black" points="805.41,-494.72 815.98,-493.95 807.24,-487.96 805.41,-494.72"/>
</g>
<!-- PT_NAME_0x56150067cd90 -->
<g id="node12" class="node">
<title>PT_NAME_0x56150067cd90</title>
<ellipse fill="none" stroke="black" cx="915.23" cy="-453.49" rx="84.35" ry="18"/>
<text text-anchor="middle" x="915.23" y="-448.82" font-family="Times,serif" font-size="14.00">PT_NAME [ o ]</text>
</g>
<!-- PT_SPEC_0x56150067cbb8&#45;&gt;PT_NAME_0x56150067cd90 -->
<g id="edge11" class="edge">
<title>PT_SPEC_0x56150067cbb8&#45;&gt;PT_NAME_0x56150067cd90</title>
<path fill="none" stroke="black" d="M659.7,-431.29C705.59,-435.29 771.9,-441.07 825.33,-445.74"/>
<polygon fill="black" stroke="black" points="824.75,-449.2 835.02,-446.58 825.36,-442.22 824.75,-449.2"/>
</g>
<!-- PT_NAME_0x56150067d318 -->
<g id="node13" class="node">
<title>PT_NAME_0x56150067d318</title>
<ellipse fill="none" stroke="black" cx="915.23" cy="-399.49" rx="136.44" ry="18"/>
<text text-anchor="middle" x="915.23" y="-394.82" font-family="Times,serif" font-size="14.00">PT_NAME [ host_nation ]</text>
</g>
<!-- PT_SPEC_0x56150067cbb8&#45;&gt;PT_NAME_0x56150067d318 -->
<g id="edge12" class="edge">
<title>PT_SPEC_0x56150067cbb8&#45;&gt;PT_NAME_0x56150067d318</title>
<path fill="none" stroke="black" d="M659.7,-421.69C695.57,-418.57 743.91,-414.35 788.82,-410.43"/>
<polygon fill="black" stroke="black" points="788.99,-413.93 798.65,-409.57 788.39,-406.96 788.99,-413.93"/>
</g>
<!-- PT_NAME_0x56150067e760 -->
<g id="node16" class="node">
<title>PT_NAME_0x56150067e760</title>
<ellipse fill="none" stroke="black" cx="915.23" cy="-345.49" rx="139.07" ry="18"/>
<text text-anchor="middle" x="915.23" y="-340.82" font-family="Times,serif" font-size="14.00">PT_NAME [ dba.olympic ]</text>
</g>
<!-- PT_SPEC_0x56150067cbb8&#45;&gt;PT_NAME_0x56150067e760 -->
<g id="edge15" class="edge">
<title>PT_SPEC_0x56150067cbb8&#45;&gt;PT_NAME_0x56150067e760</title>
<path fill="none" stroke="black" d="M659.15,-421.28C684.58,-417.44 714.77,-410.84 740.16,-399.49 758.42,-391.33 757.88,-380.62 776.16,-372.49 785.77,-368.22 796.05,-364.62 806.5,-361.59"/>
<polygon fill="black" stroke="black" points="807.24,-365.02 815.98,-359.03 805.41,-358.26 807.24,-365.02"/>
</g>
<!-- PT_DATA_TYPE_0x56150067d4f0 -->
<g id="node14" class="node">
<title>PT_DATA_TYPE_0x56150067d4f0</title>
<ellipse fill="none" stroke="black" cx="1217.26" cy="-426.49" rx="87.51" ry="18"/>
<text text-anchor="middle" x="1217.26" y="-421.82" font-family="Times,serif" font-size="14.00">PT_DATA_TYPE</text>
</g>
<!-- PT_NAME_0x56150067d318&#45;&gt;PT_DATA_TYPE_0x56150067d4f0 -->
<g id="edge13" class="edge">
<title>PT_NAME_0x56150067d318&#45;&gt;PT_DATA_TYPE_0x56150067d4f0</title>
<path fill="none" stroke="black" d="M1029.23,-409.66C1060.9,-412.51 1094.92,-415.57 1125.14,-418.29"/>
<polygon fill="black" stroke="black" points="1124.75,-421.77 1135.02,-419.18 1125.37,-414.8 1124.75,-421.77"/>
</g>
<!-- PT_NAME_0x56150067c280 -->
<g id="node15" class="node">
<title>PT_NAME_0x56150067c280</title>
<ellipse fill="none" stroke="black" cx="1217.26" cy="-372.49" rx="126.97" ry="18"/>
<text text-anchor="middle" x="1217.26" y="-367.82" font-family="Times,serif" font-size="14.00">PT_NAME [ host_year ]</text>
</g>
<!-- PT_NAME_0x56150067d318&#45;&gt;PT_NAME_0x56150067c280 -->
<g id="edge14" class="edge">
<title>PT_NAME_0x56150067d318&#45;&gt;PT_NAME_0x56150067c280</title>
<path fill="none" stroke="black" d="M1029.23,-389.32C1051.54,-387.31 1075.02,-385.2 1097.51,-383.18"/>
<polygon fill="black" stroke="black" points="1097.67,-386.68 1107.31,-382.3 1097.04,-379.71 1097.67,-386.68"/>
</g>
<!-- PT_EXPR_0x56150067e3b0&#45;&gt;PT_NAME_0x56150067de28 -->
<g id="edge17" class="edge">
<title>PT_EXPR_0x56150067e3b0&#45;&gt;PT_NAME_0x56150067de28</title>
<path fill="none" stroke="black" d="M352.44,-254.31C391.8,-251.18 449.36,-250.26 499.35,-251.56"/>
<polygon fill="black" stroke="black" points="498.94,-255.05 509.04,-251.85 499.15,-248.06 498.94,-255.05"/>
</g>
<!-- PT_EXPR_0x56150067e3b0&#45;&gt;PT_NAME_0x56150067de28 -->
<g id="edge24" class="edge">
<title>PT_EXPR_0x56150067e3b0&#45;&gt;PT_NAME_0x56150067de28</title>
<path fill="none" stroke="black" d="M362.31,-264.49C391.65,-264.49 428.82,-264.49 465.1,-264.49"/>
<polygon fill="black" stroke="black" points="464.81,-267.99 474.81,-264.49 464.81,-260.99 464.81,-267.99"/>
</g>
<!-- PT_EXPR_0x56150067e3b0&#45;&gt;PT_NAME_0x56150067de28 -->
<g id="edge31" class="edge">
<title>PT_EXPR_0x56150067e3b0&#45;&gt;PT_NAME_0x56150067de28</title>
<path fill="none" stroke="black" d="M352.44,-274.67C391.8,-277.8 449.36,-278.72 499.35,-277.42"/>
<polygon fill="black" stroke="black" points="499.15,-280.92 509.04,-277.13 498.94,-273.93 499.15,-280.92"/>
</g>
<!-- PT_EXPR_0x56150067e3b0&#45;&gt;PT_EXPR_0x56150067bcf8 -->
<g id="edge18" class="edge">
<title>PT_EXPR_0x56150067e3b0&#45;&gt;PT_EXPR_0x56150067bcf8</title>
<path fill="none" stroke="black" d="M338.28,-249.64C385.48,-235.97 473.38,-219.12 534.84,-211.27"/>
<polygon fill="black" stroke="black" points="534.98,-214.78 544.49,-210.1 534.14,-207.83 534.98,-214.78"/>
</g>
<!-- PT_EXPR_0x56150067e3b0&#45;&gt;PT_EXPR_0x56150067bcf8 -->
<g id="edge25" class="edge">
<title>PT_EXPR_0x56150067e3b0&#45;&gt;PT_EXPR_0x56150067bcf8</title>
<path fill="none" stroke="black" d="M354.76,-255.51C406.22,-246.17 486.86,-231.53 542.12,-221.49"/>
<polygon fill="black" stroke="black" points="542.46,-224.99 551.67,-219.76 541.21,-218.1 542.46,-224.99"/>
</g>
<!-- PT_EXPR_0x56150067e3b0&#45;&gt;PT_EXPR_0x56150067bcf8 -->
<g id="edge32" class="edge">
<title>PT_EXPR_0x56150067e3b0&#45;&gt;PT_EXPR_0x56150067bcf8</title>
<path fill="none" stroke="black" d="M362.31,-265.04C419.66,-258.4 506.88,-242.24 558.99,-228.33"/>
<polygon fill="black" stroke="black" points="559.71,-231.76 568.41,-225.71 557.84,-225.02 559.71,-231.76"/>
</g>
<!-- PT_EXPR_0x56150067e3b0&#45;&gt;PT_EXPR_0x56150067da78 -->
<g id="edge20" class="edge">
<title>PT_EXPR_0x56150067e3b0&#45;&gt;PT_EXPR_0x56150067da78</title>
<path fill="none" stroke="black" d="M328.65,-247.7C378.07,-216.83 494,-152.14 558.12,-119.25"/>
<polygon fill="black" stroke="black" points="559.64,-122.4 566.97,-114.75 556.47,-116.16 559.64,-122.4"/>
</g>
<!-- PT_EXPR_0x56150067e3b0&#45;&gt;PT_EXPR_0x56150067da78 -->
<g id="edge34" class="edge">
<title>PT_EXPR_0x56150067e3b0&#45;&gt;PT_EXPR_0x56150067da78</title>
<path fill="none" stroke="black" d="M339.72,-249.91C397.56,-220.84 513.5,-156.49 570.11,-122"/>
<polygon fill="black" stroke="black" points="571.68,-125.14 578.36,-116.91 568.01,-119.18 571.68,-125.14"/>
</g>
<!-- PT_HOST_VAR_0x56150067bed0 -->
<g id="node20" class="node">
<title>PT_HOST_VAR_0x56150067bed0</title>
<ellipse fill="none" stroke="black" cx="915.23" cy="-210.49" rx="83.83" ry="18"/>
<text text-anchor="middle" x="915.23" y="-205.82" font-family="Times,serif" font-size="14.00">PT_HOST_VAR</text>
</g>
<!-- PT_EXPR_0x56150067bcf8&#45;&gt;PT_HOST_VAR_0x56150067bed0 -->
<g id="edge19" class="edge">
<title>PT_EXPR_0x56150067bcf8&#45;&gt;PT_HOST_VAR_0x56150067bed0</title>
<path fill="none" stroke="black" d="M631.92,-194.37C686.05,-180.98 807.61,-179.95 872.13,-191.27"/>
<polygon fill="black" stroke="black" points="871.14,-194.65 881.63,-193.15 872.5,-187.78 871.14,-194.65"/>
</g>
<!-- PT_EXPR_0x56150067bcf8&#45;&gt;PT_HOST_VAR_0x56150067bed0 -->
<g id="edge26" class="edge">
<title>PT_EXPR_0x56150067bcf8&#45;&gt;PT_HOST_VAR_0x56150067bed0</title>
<path fill="none" stroke="black" d="M652.07,-200.45C701.28,-196.55 779.09,-195.95 837.18,-198.63"/>
<polygon fill="black" stroke="black" points="836.84,-202.12 847.01,-199.14 837.2,-195.13 836.84,-202.12"/>
</g>
<!-- PT_EXPR_0x56150067bcf8&#45;&gt;PT_HOST_VAR_0x56150067bed0 -->
<g id="edge33" class="edge">
<title>PT_EXPR_0x56150067bcf8&#45;&gt;PT_HOST_VAR_0x56150067bed0</title>
<path fill="none" stroke="black" d="M661.49,-210.49C705.71,-210.49 768.07,-210.49 819.78,-210.49"/>
<polygon fill="black" stroke="black" points="819.47,-213.99 829.47,-210.49 819.47,-206.99 819.47,-213.99"/>
</g>
<!-- PT_EXPR_0x56150067bcf8&#45;&gt;PT_HOST_VAR_0x56150067bed0 -->
<g id="edge39" class="edge">
<title>PT_EXPR_0x56150067bcf8&#45;&gt;PT_HOST_VAR_0x56150067bed0</title>
<path fill="none" stroke="black" d="M652.07,-220.54C701.28,-224.43 779.09,-225.03 837.18,-222.35"/>
<polygon fill="black" stroke="black" points="837.2,-225.85 847.01,-221.84 836.84,-218.86 837.2,-225.85"/>
</g>
<!-- PT_EXPR_0x56150067bcf8&#45;&gt;PT_HOST_VAR_0x56150067bed0 -->
<g id="edge44" class="edge">
<title>PT_EXPR_0x56150067bcf8&#45;&gt;PT_HOST_VAR_0x56150067bed0</title>
<path fill="none" stroke="black" d="M631.92,-226.61C686.05,-240 807.61,-241.03 872.13,-229.71"/>
<polygon fill="black" stroke="black" points="872.5,-233.2 881.63,-227.83 871.14,-226.34 872.5,-233.2"/>
</g>
<!-- PT_EXPR_0x56150067da78&#45;&gt;PT_NAME_0x56150067d140 -->
<g id="edge21" class="edge">
<title>PT_EXPR_0x56150067da78&#45;&gt;PT_NAME_0x56150067d140</title>
<path fill="none" stroke="black" d="M658.63,-93.66C709.67,-94.55 786.63,-100.91 842.77,-108.67"/>
<polygon fill="black" stroke="black" points="842.16,-112.12 852.56,-110.08 843.16,-105.19 842.16,-112.12"/>
</g>
<!-- PT_EXPR_0x56150067da78&#45;&gt;PT_NAME_0x56150067d140 -->
<g id="edge28" class="edge">
<title>PT_EXPR_0x56150067da78&#45;&gt;PT_NAME_0x56150067d140</title>
<path fill="none" stroke="black" d="M659.7,-104.29C697.09,-107.55 748.03,-111.99 794.52,-116.05"/>
<polygon fill="black" stroke="black" points="794.14,-119.53 804.41,-116.91 794.75,-112.55 794.14,-119.53"/>
</g>
<!-- PT_EXPR_0x56150067da78&#45;&gt;PT_NAME_0x56150067d140 -->
<g id="edge35" class="edge">
<title>PT_EXPR_0x56150067da78&#45;&gt;PT_NAME_0x56150067d140</title>
<path fill="none" stroke="black" d="M644.87,-112.43C678.78,-118.48 729.4,-124.23 777.64,-127.99"/>
<polygon fill="black" stroke="black" points="777.12,-131.46 787.35,-128.72 777.64,-124.48 777.12,-131.46"/>
</g>
<!-- PT_EXPR_0x56150067da78&#45;&gt;PT_NAME_0x56150067d6c8 -->
<g id="edge22" class="edge">
<title>PT_EXPR_0x56150067da78&#45;&gt;PT_NAME_0x56150067d6c8</title>
<path fill="none" stroke="black" d="M644.87,-86.56C678.78,-80.5 729.4,-74.75 777.64,-70.99"/>
<polygon fill="black" stroke="black" points="777.64,-74.5 787.35,-70.26 777.12,-67.52 777.64,-74.5"/>
</g>
<!-- PT_EXPR_0x56150067da78&#45;&gt;PT_NAME_0x56150067d6c8 -->
<g id="edge29" class="edge">
<title>PT_EXPR_0x56150067da78&#45;&gt;PT_NAME_0x56150067d6c8</title>
<path fill="none" stroke="black" d="M659.7,-94.69C697.09,-91.43 748.03,-86.99 794.52,-82.93"/>
<polygon fill="black" stroke="black" points="794.75,-86.43 804.41,-82.07 794.14,-79.45 794.75,-86.43"/>
</g>
<!-- PT_EXPR_0x56150067da78&#45;&gt;PT_NAME_0x56150067d6c8 -->
<g id="edge36" class="edge">
<title>PT_EXPR_0x56150067da78&#45;&gt;PT_NAME_0x56150067d6c8</title>
<path fill="none" stroke="black" d="M658.63,-105.32C709.67,-104.44 786.63,-98.07 842.77,-90.31"/>
<polygon fill="black" stroke="black" points="843.16,-93.79 852.56,-88.9 842.16,-86.86 843.16,-93.79"/>
</g>
</g>
</svg>
