<?xml version="1.0" encoding="UTF-8" standalone="no"?>
<!DOCTYPE svg PUBLIC "-//W3C//DTD SVG 1.1//EN"
 "http://www.w3.org/Graphics/SVG/1.1/DTD/svg11.dtd">
<!-- Generated by graphviz version 10.0.1 (0)
 -->
<!-- Pages: 1 -->
<svg width="1352pt" height="476pt"
 viewBox="0.00 0.00 1352.23 476.00" xmlns="http://www.w3.org/2000/svg" xmlns:xlink="http://www.w3.org/1999/xlink">
<g id="graph0" class="graph" transform="scale(1 1) rotate(0) translate(4 472)">
<polygon fill="white" stroke="none" points="-4,4 -4,-472 1348.23,-472 1348.23,4 -4,4"/>
<!-- PT_SELECT_0x56150067b770 -->
<g id="node1" class="node">
<title>PT_SELECT_0x56150067b770</title>
<ellipse fill="none" stroke="black" cx="70.67" cy="-369" rx="70.67" ry="18"/>
<text text-anchor="middle" x="70.67" y="-364.32" font-family="Times,serif" font-size="14.00">PT_SELECT</text>
</g>
<!-- PT_EXPR_0x56150067e3b0 -->
<g id="node2" class="node">
<title>PT_EXPR_0x56150067e3b0</title>
<ellipse fill="none" stroke="black" cx="304.32" cy="-396" rx="57.52" ry="18"/>
<text text-anchor="middle" x="304.32" y="-391.32" font-family="Times,serif" font-size="14.00">PT_EXPR</text>
</g>
<!-- PT_SELECT_0x56150067b770&#45;&gt;PT_EXPR_0x56150067e3b0 -->
<g id="edge1" class="edge">
<title>PT_SELECT_0x56150067b770&#45;&gt;PT_EXPR_0x56150067e3b0</title>
<path fill="none" stroke="black" d="M141.17,-370.86C174.76,-374 214.58,-378.75 246.34,-383.45"/>
<polygon fill="black" stroke="black" points="245.75,-386.9 256.16,-384.95 246.8,-379.98 245.75,-386.9"/>
</g>
<!-- PT_SELECT_0x56150067b770&#45;&gt;PT_EXPR_0x56150067e3b0 -->
<g id="edge18" class="edge">
<title>PT_SELECT_0x56150067b770&#45;&gt;PT_EXPR_0x56150067e3b0</title>
<path fill="none" stroke="black" d="M124.82,-380.98C157.6,-385.92 199.97,-391.01 235.2,-394.27"/>
<polygon fill="black" stroke="black" points="234.59,-397.73 244.86,-395.13 235.21,-390.76 234.59,-397.73"/>
</g>
<!-- PT_NAME_0x56150067bb20 -->
<g id="node5" class="node">
<title>PT_NAME_0x56150067bb20</title>
<ellipse fill="none" stroke="black" cx="304.32" cy="-342" rx="126.97" ry="18"/>
<text text-anchor="middle" x="304.32" y="-337.32" font-family="Times,serif" font-size="14.00">PT_NAME [ host_year ]</text>
</g>
<!-- PT_SELECT_0x56150067b770&#45;&gt;PT_NAME_0x56150067bb20 -->
<g id="edge4" class="edge">
<title>PT_SELECT_0x56150067b770&#45;&gt;PT_NAME_0x56150067bb20</title>
<path fill="none" stroke="black" d="M135.58,-361.55C153.58,-359.45 173.68,-357.11 193.55,-354.79"/>
<polygon fill="black" stroke="black" points="193.84,-358.28 203.37,-353.65 193.03,-351.33 193.84,-358.28"/>
</g>
<!-- PT_SPEC_0x56150067c630 -->
<g id="node8" class="node">
<title>PT_SPEC_0x56150067c630</title>
<ellipse fill="none" stroke="black" cx="304.32" cy="-234" rx="57.52" ry="18"/>
<text text-anchor="middle" x="304.32" y="-229.32" font-family="Times,serif" font-size="14.00">PT_SPEC</text>
</g>
<!-- PT_SELECT_0x56150067b770&#45;&gt;PT_SPEC_0x56150067c630 -->
<g id="edge7" class="edge">
<title>PT_SELECT_0x56150067b770&#45;&gt;PT_SPEC_0x56150067c630</title>
<path fill="none" stroke="black" d="M100.08,-352.45C141.75,-328.16 219.51,-282.84 265.82,-255.85"/>
<polygon fill="black" stroke="black" points="267.58,-258.88 274.45,-250.82 264.05,-252.83 267.58,-258.88"/>
</g>
<!-- PT_NAME_0x56150067de28 -->
<g id="node3" class="node">
<title>PT_NAME_0x56150067de28</title>
<ellipse fill="none" stroke="black" cx="603.72" cy="-450" rx="126.97" ry="18"/>
<text text-anchor="middle" x="603.72" y="-445.32" font-family="Times,serif" font-size="14.00">PT_NAME [ host_year ]</text>
</g>
<!-- PT_EXPR_0x56150067e3b0&#45;&gt;PT_NAME_0x56150067de28 -->
<g id="edge2" class="edge">
<title>PT_EXPR_0x56150067e3b0&#45;&gt;PT_NAME_0x56150067de28</title>
<path fill="none" stroke="black" d="M360.21,-400.59C408.79,-407.75 479.93,-420.51 532.61,-431.44"/>
<polygon fill="black" stroke="black" points="531.57,-434.8 542.08,-433.43 533.01,-427.95 531.57,-434.8"/>
</g>
<!-- PT_EXPR_0x56150067e3b0&#45;&gt;PT_NAME_0x56150067de28 -->
<g id="edge19" class="edge">
<title>PT_EXPR_0x56150067e3b0&#45;&gt;PT_NAME_0x56150067de28</title>
<path fill="none" stroke="black" d="M346.98,-408.42C384.81,-416.98 442.3,-427.97 493.2,-436.65"/>
<polygon fill="black" stroke="black" points="492.35,-440.06 502.79,-438.27 493.51,-433.15 492.35,-440.06"/>
</g>
<!-- PT_VALUE_0x56150067e1d8 -->
<g id="node4" class="node">
<title>PT_VALUE_0x56150067e1d8</title>
<ellipse fill="none" stroke="black" cx="603.72" cy="-396" rx="63.83" ry="18"/>
<text text-anchor="middle" x="603.72" y="-391.32" font-family="Times,serif" font-size="14.00">PT_VALUE</text>
</g>
<!-- PT_EXPR_0x56150067e3b0&#45;&gt;PT_VALUE_0x56150067e1d8 -->
<g id="edge3" class="edge">
<title>PT_EXPR_0x56150067e3b0&#45;&gt;PT_VALUE_0x56150067e1d8</title>
<path fill="none" stroke="black" d="M359.52,-390.65C407.67,-388.98 478.4,-388.8 531.19,-390.13"/>
<polygon fill="black" stroke="black" points="530.89,-393.63 540.99,-390.41 531.09,-386.63 530.89,-393.63"/>
</g>
<!-- PT_EXPR_0x56150067e3b0&#45;&gt;PT_VALUE_0x56150067e1d8 -->
<g id="edge20" class="edge">
<title>PT_EXPR_0x56150067e3b0&#45;&gt;PT_VALUE_0x56150067e1d8</title>
<path fill="none" stroke="black" d="M359.52,-401.35C407.67,-403.02 478.4,-403.2 531.19,-401.87"/>
<polygon fill="black" stroke="black" points="531.09,-405.37 540.99,-401.59 530.89,-398.37 531.09,-405.37"/>
</g>
<!-- PT_NAME_0x56150067c0a8 -->
<g id="node6" class="node">
<title>PT_NAME_0x56150067c0a8</title>
<ellipse fill="none" stroke="black" cx="603.72" cy="-342" rx="136.44" ry="18"/>
<text text-anchor="middle" x="603.72" y="-337.32" font-family="Times,serif" font-size="14.00">PT_NAME [ host_nation ]</text>
</g>
<!-- PT_NAME_0x56150067bb20&#45;&gt;PT_NAME_0x56150067c0a8 -->
<g id="edge5" class="edge">
<title>PT_NAME_0x56150067bb20&#45;&gt;PT_NAME_0x56150067c0a8</title>
<path fill="none" stroke="black" d="M431.44,-342C439.41,-342 447.46,-342 455.5,-342"/>
<polygon fill="black" stroke="black" points="455.35,-345.5 465.35,-342 455.35,-338.5 455.35,-345.5"/>
</g>
<!-- PT_DATA_TYPE_0x56150067b948 -->
<g id="node7" class="node">
<title>PT_DATA_TYPE_0x56150067b948</title>
<ellipse fill="none" stroke="black" cx="915.23" cy="-342" rx="87.51" ry="18"/>
<text text-anchor="middle" x="915.23" y="-337.32" font-family="Times,serif" font-size="14.00">PT_DATA_TYPE</text>
</g>
<!-- PT_NAME_0x56150067c0a8&#45;&gt;PT_DATA_TYPE_0x56150067b948 -->
<g id="edge6" class="edge">
<title>PT_NAME_0x56150067c0a8&#45;&gt;PT_DATA_TYPE_0x56150067b948</title>
<path fill="none" stroke="black" d="M740.48,-342C766,-342 792.21,-342 816.3,-342"/>
<polygon fill="black" stroke="black" points="816.06,-345.5 826.06,-342 816.06,-338.5 816.06,-345.5"/>
</g>
<!-- PT_NAME_0x56150067c458 -->
<g id="node9" class="node">
<title>PT_NAME_0x56150067c458</title>
<ellipse fill="none" stroke="black" cx="603.72" cy="-288" rx="135.39" ry="18"/>
<text text-anchor="middle" x="603.72" y="-283.32" font-family="Times,serif" font-size="14.00">PT_NAME [ dba.history ]</text>
</g>
<!-- PT_SPEC_0x56150067c630&#45;&gt;PT_NAME_0x56150067c458 -->
<g id="edge8" class="edge">
<title>PT_SPEC_0x56150067c630&#45;&gt;PT_NAME_0x56150067c458</title>
<path fill="none" stroke="black" d="M354.76,-242.98C397.08,-250.66 459.13,-261.93 510.58,-271.27"/>
<polygon fill="black" stroke="black" points="509.76,-274.68 520.23,-273.02 511.01,-267.79 509.76,-274.68"/>
</g>
<!-- PT_NAME_0x56150067c808 -->
<g id="node10" class="node">
<title>PT_NAME_0x56150067c808</title>
<ellipse fill="none" stroke="black" cx="603.72" cy="-234" rx="84.88" ry="18"/>
<text text-anchor="middle" x="603.72" y="-229.32" font-family="Times,serif" font-size="14.00">PT_NAME [ h ]</text>
</g>
<!-- PT_SPEC_0x56150067c630&#45;&gt;PT_NAME_0x56150067c808 -->
<g id="edge9" class="edge">
<title>PT_SPEC_0x56150067c630&#45;&gt;PT_NAME_0x56150067c808</title>
<path fill="none" stroke="black" d="M362.31,-234C403.22,-234 459.32,-234 507.04,-234"/>
<polygon fill="black" stroke="black" points="506.83,-237.5 516.83,-234 506.83,-230.5 506.83,-237.5"/>
</g>
<!-- PT_NAME_0x56150067e588 -->
<g id="node11" class="node">
<title>PT_NAME_0x56150067e588</title>
<ellipse fill="none" stroke="black" cx="603.72" cy="-180" rx="135.39" ry="18"/>
<text text-anchor="middle" x="603.72" y="-175.32" font-family="Times,serif" font-size="14.00">PT_NAME [ dba.history ]</text>
</g>
<!-- PT_SPEC_0x56150067c630&#45;&gt;PT_NAME_0x56150067e588 -->
<g id="edge10" class="edge">
<title>PT_SPEC_0x56150067c630&#45;&gt;PT_NAME_0x56150067e588</title>
<path fill="none" stroke="black" d="M354.76,-225.02C397.08,-217.34 459.13,-206.07 510.58,-196.73"/>
<polygon fill="black" stroke="black" points="511.01,-200.21 520.23,-194.98 509.76,-193.32 511.01,-200.21"/>
</g>
<!-- PT_SPEC_0x56150067cbb8 -->
<g id="node12" class="node">
<title>PT_SPEC_0x56150067cbb8</title>
<ellipse fill="none" stroke="black" cx="603.72" cy="-126" rx="57.52" ry="18"/>
<text text-anchor="middle" x="603.72" y="-121.33" font-family="Times,serif" font-size="14.00">PT_SPEC</text>
</g>
<!-- PT_SPEC_0x56150067c630&#45;&gt;PT_SPEC_0x56150067cbb8 -->
<g id="edge11" class="edge">
<title>PT_SPEC_0x56150067c630&#45;&gt;PT_SPEC_0x56150067cbb8</title>
<path fill="none" stroke="black" d="M332.14,-217.77C363.5,-199.48 417.47,-170.08 467.28,-153 490.28,-145.12 516.31,-139.24 539.36,-135.02"/>
<polygon fill="black" stroke="black" points="539.68,-138.52 548.92,-133.34 538.47,-131.62 539.68,-138.52"/>
</g>
<!-- PT_NAME_0x56150067c9e0 -->
<g id="node13" class="node">
<title>PT_NAME_0x56150067c9e0</title>
<ellipse fill="none" stroke="black" cx="915.23" cy="-207" rx="139.07" ry="18"/>
<text text-anchor="middle" x="915.23" y="-202.32" font-family="Times,serif" font-size="14.00">PT_NAME [ dba.olympic ]</text>
</g>
<!-- PT_SPEC_0x56150067cbb8&#45;&gt;PT_NAME_0x56150067c9e0 -->
<g id="edge12" class="edge">
<title>PT_SPEC_0x56150067cbb8&#45;&gt;PT_NAME_0x56150067c9e0</title>
<path fill="none" stroke="black" d="M659.15,-131.21C684.58,-135.05 714.77,-141.66 740.16,-153 758.42,-161.16 757.88,-171.88 776.16,-180 785.77,-184.27 796.05,-187.87 806.5,-190.9"/>
<polygon fill="black" stroke="black" points="805.41,-194.23 815.98,-193.46 807.24,-187.47 805.41,-194.23"/>
</g>
<!-- PT_NAME_0x56150067cd90 -->
<g id="node14" class="node">
<title>PT_NAME_0x56150067cd90</title>
<ellipse fill="none" stroke="black" cx="915.23" cy="-153" rx="84.35" ry="18"/>
<text text-anchor="middle" x="915.23" y="-148.32" font-family="Times,serif" font-size="14.00">PT_NAME [ o ]</text>
</g>
<!-- PT_SPEC_0x56150067cbb8&#45;&gt;PT_NAME_0x56150067cd90 -->
<g id="edge13" class="edge">
<title>PT_SPEC_0x56150067cbb8&#45;&gt;PT_NAME_0x56150067cd90</title>
<path fill="none" stroke="black" d="M659.7,-130.8C705.59,-134.8 771.9,-140.58 825.33,-145.25"/>
<polygon fill="black" stroke="black" points="824.75,-148.71 835.02,-146.09 825.36,-141.73 824.75,-148.71"/>
</g>
<!-- PT_NAME_0x56150067e760 -->
<g id="node15" class="node">
<title>PT_NAME_0x56150067e760</title>
<ellipse fill="none" stroke="black" cx="915.23" cy="-99" rx="139.07" ry="18"/>
<text text-anchor="middle" x="915.23" y="-94.33" font-family="Times,serif" font-size="14.00">PT_NAME [ dba.olympic ]</text>
</g>
<!-- PT_SPEC_0x56150067cbb8&#45;&gt;PT_NAME_0x56150067e760 -->
<g id="edge14" class="edge">
<title>PT_SPEC_0x56150067cbb8&#45;&gt;PT_NAME_0x56150067e760</title>
<path fill="none" stroke="black" d="M659.7,-121.2C695.17,-118.11 742.83,-113.95 787.32,-110.07"/>
<polygon fill="black" stroke="black" points="787.39,-113.58 797.04,-109.22 786.78,-106.6 787.39,-113.58"/>
</g>
<!-- PT_EXPR_0x56150067da78 -->
<g id="node16" class="node">
<title>PT_EXPR_0x56150067da78</title>
<ellipse fill="none" stroke="black" cx="915.23" cy="-45" rx="57.52" ry="18"/>
<text text-anchor="middle" x="915.23" y="-40.33" font-family="Times,serif" font-size="14.00">PT_EXPR</text>
</g>
<!-- PT_SPEC_0x56150067cbb8&#45;&gt;PT_EXPR_0x56150067da78 -->
<g id="edge15" class="edge">
<title>PT_SPEC_0x56150067cbb8&#45;&gt;PT_EXPR_0x56150067da78</title>
<path fill="none" stroke="black" d="M643.18,-112.53C677.69,-100.76 729.89,-83.77 776.16,-72 800.99,-65.68 828.65,-60.01 852.65,-55.51"/>
<polygon fill="black" stroke="black" points="853.07,-59 862.27,-53.74 851.8,-52.11 853.07,-59"/>
</g>
<!-- PT_NAME_0x56150067d140 -->
<g id="node17" class="node">
<title>PT_NAME_0x56150067d140</title>
<ellipse fill="none" stroke="black" cx="1217.26" cy="-72" rx="126.97" ry="18"/>
<text text-anchor="middle" x="1217.26" y="-67.33" font-family="Times,serif" font-size="14.00">PT_NAME [ host_year ]</text>
</g>
<!-- PT_EXPR_0x56150067da78&#45;&gt;PT_NAME_0x56150067d140 -->
<g id="edge16" class="edge">
<title>PT_EXPR_0x56150067da78&#45;&gt;PT_NAME_0x56150067d140</title>
<path fill="none" stroke="black" d="M970.91,-49.92C1006.28,-53.1 1053.73,-57.37 1097.48,-61.31"/>
<polygon fill="black" stroke="black" points="1097.02,-64.78 1107.3,-62.19 1097.65,-57.81 1097.02,-64.78"/>
</g>
<!-- PT_NAME_0x56150067d6c8 -->
<g id="node18" class="node">
<title>PT_NAME_0x56150067d6c8</title>
<ellipse fill="none" stroke="black" cx="1217.26" cy="-18" rx="126.97" ry="18"/>
<text text-anchor="middle" x="1217.26" y="-13.32" font-family="Times,serif" font-size="14.00">PT_NAME [ host_year ]</text>
</g>
<!-- PT_EXPR_0x56150067da78&#45;&gt;PT_NAME_0x56150067d6c8 -->
<g id="edge17" class="edge">
<title>PT_EXPR_0x56150067da78&#45;&gt;PT_NAME_0x56150067d6c8</title>
<path fill="none" stroke="black" d="M970.91,-40.08C1006.28,-36.9 1053.73,-32.63 1097.48,-28.69"/>
<polygon fill="black" stroke="black" points="1097.65,-32.19 1107.3,-27.81 1097.02,-25.22 1097.65,-32.19"/>
</g>
</g>
</svg>
