<?xml version="1.0" encoding="UTF-8" standalone="no"?>
<!DOCTYPE svg PUBLIC "-//W3C//DTD SVG 1.1//EN"
 "http://www.w3.org/Graphics/SVG/1.1/DTD/svg11.dtd">
<!-- Generated by graphviz version 10.0.1 (0)
 -->
<!-- Pages: 1 -->
<svg width="561pt" height="206pt"
 viewBox="0.00 0.00 560.86 206.00" xmlns="http://www.w3.org/2000/svg" xmlns:xlink="http://www.w3.org/1999/xlink">
<g id="graph0" class="graph" transform="scale(1 1) rotate(0) translate(4 202)">
<polygon fill="white" stroke="none" points="-4,4 -4,-202 556.86,-202 556.86,4 -4,4"/>
<!-- PT_EXPR_0x56150067da78 -->
<g id="node1" class="node">
<title>PT_EXPR_0x56150067da78</title>
<ellipse fill="none" stroke="black" cx="57.52" cy="-99" rx="57.52" ry="18"/>
<text text-anchor="middle" x="57.52" y="-94.33" font-family="Times,serif" font-size="14.00">PT_EXPR</text>
</g>
<!-- PT_DOT__0x56150067d318 -->
<g id="node2" class="node">
<title>PT_DOT__0x56150067d318</title>
<ellipse fill="none" stroke="black" cx="206.99" cy="-126" rx="55.94" ry="18"/>
<text text-anchor="middle" x="206.99" y="-121.33" font-family="Times,serif" font-size="14.00">PT_DOT_</text>
</g>
<!-- PT_EXPR_0x56150067da78&#45;&gt;PT_DOT__0x56150067d318 -->
<g id="edge1" class="edge">
<title>PT_EXPR_0x56150067da78&#45;&gt;PT_DOT__0x56150067d318</title>
<path fill="none" stroke="black" d="M108.04,-108.07C120.4,-110.33 133.78,-112.78 146.56,-115.12"/>
<polygon fill="black" stroke="black" points="145.65,-118.51 156.12,-116.87 146.91,-111.63 145.65,-118.51"/>
</g>
<!-- PT_DOT__0x56150067d8a0 -->
<g id="node5" class="node">
<title>PT_DOT__0x56150067d8a0</title>
<ellipse fill="none" stroke="black" cx="206.99" cy="-72" rx="55.94" ry="18"/>
<text text-anchor="middle" x="206.99" y="-67.33" font-family="Times,serif" font-size="14.00">PT_DOT_</text>
</g>
<!-- PT_EXPR_0x56150067da78&#45;&gt;PT_DOT__0x56150067d8a0 -->
<g id="edge4" class="edge">
<title>PT_EXPR_0x56150067da78&#45;&gt;PT_DOT__0x56150067d8a0</title>
<path fill="none" stroke="black" d="M108.04,-89.93C120.4,-87.67 133.78,-85.22 146.56,-82.88"/>
<polygon fill="black" stroke="black" points="146.91,-86.37 156.12,-81.13 145.65,-79.49 146.91,-86.37"/>
</g>
<!-- PT_NAME_0x56150067cf68 -->
<g id="node3" class="node">
<title>PT_NAME_0x56150067cf68</title>
<ellipse fill="none" stroke="black" cx="425.9" cy="-180" rx="84.88" ry="18"/>
<text text-anchor="middle" x="425.9" y="-175.32" font-family="Times,serif" font-size="14.00">PT_NAME [ h ]</text>
</g>
<!-- PT_DOT__0x56150067d318&#45;&gt;PT_NAME_0x56150067cf68 -->
<g id="edge2" class="edge">
<title>PT_DOT__0x56150067d318&#45;&gt;PT_NAME_0x56150067cf68</title>
<path fill="none" stroke="black" d="M248.09,-138.64C263.86,-143.41 282.17,-148.72 298.93,-153 315.82,-157.31 334.1,-161.5 351.36,-165.24"/>
<polygon fill="black" stroke="black" points="350.53,-168.64 361.04,-167.31 352,-161.8 350.53,-168.64"/>
</g>
<!-- PT_NAME_0x56150067d140 -->
<g id="node4" class="node">
<title>PT_NAME_0x56150067d140</title>
<ellipse fill="none" stroke="black" cx="425.9" cy="-126" rx="126.97" ry="18"/>
<text text-anchor="middle" x="425.9" y="-121.33" font-family="Times,serif" font-size="14.00">PT_NAME [ host_year ]</text>
</g>
<!-- PT_DOT__0x56150067d318&#45;&gt;PT_NAME_0x56150067d140 -->
<g id="edge3" class="edge">
<title>PT_DOT__0x56150067d318&#45;&gt;PT_NAME_0x56150067d140</title>
<path fill="none" stroke="black" d="M263.28,-126C270.88,-126 278.93,-126 287.23,-126"/>
<polygon fill="black" stroke="black" points="287.18,-129.5 297.18,-126 287.18,-122.5 287.18,-129.5"/>
</g>
<!-- PT_NAME_0x56150067d4f0 -->
<g id="node6" class="node">
<title>PT_NAME_0x56150067d4f0</title>
<ellipse fill="none" stroke="black" cx="425.9" cy="-72" rx="84.35" ry="18"/>
<text text-anchor="middle" x="425.9" y="-67.33" font-family="Times,serif" font-size="14.00">PT_NAME [ o ]</text>
</g>
<!-- PT_DOT__0x56150067d8a0&#45;&gt;PT_NAME_0x56150067d4f0 -->
<g id="edge5" class="edge">
<title>PT_DOT__0x56150067d8a0&#45;&gt;PT_NAME_0x56150067d4f0</title>
<path fill="none" stroke="black" d="M263.28,-72C283.58,-72 307.17,-72 329.96,-72"/>
<polygon fill="black" stroke="black" points="329.9,-75.5 339.9,-72 329.9,-68.5 329.9,-75.5"/>
</g>
<!-- PT_NAME_0x56150067d6c8 -->
<g id="node7" class="node">
<title>PT_NAME_0x56150067d6c8</title>
<ellipse fill="none" stroke="black" cx="425.9" cy="-18" rx="126.97" ry="18"/>
<text text-anchor="middle" x="425.9" y="-13.32" font-family="Times,serif" font-size="14.00">PT_NAME [ host_year ]</text>
</g>
<!-- PT_DOT__0x56150067d8a0&#45;&gt;PT_NAME_0x56150067d6c8 -->
<g id="edge6" class="edge">
<title>PT_DOT__0x56150067d8a0&#45;&gt;PT_NAME_0x56150067d6c8</title>
<path fill="none" stroke="black" d="M248.09,-59.36C263.86,-54.59 282.17,-49.28 298.93,-45 312.1,-41.64 326.11,-38.35 339.82,-35.3"/>
<polygon fill="black" stroke="black" points="340.24,-38.79 349.26,-33.22 338.74,-31.95 340.24,-38.79"/>
</g>
</g>
</svg>
