<?xml version="1.0" encoding="UTF-8" standalone="no"?>
<!DOCTYPE svg PUBLIC "-//W3C//DTD SVG 1.1//EN"
 "http://www.w3.org/Graphics/SVG/1.1/DTD/svg11.dtd">
<!-- Generated by graphviz version 10.0.1 (0)
 -->
<!-- Pages: 1 -->
<svg width="1359pt" height="462pt"
 viewBox="0.00 0.00 1359.12 462.00" xmlns="http://www.w3.org/2000/svg" xmlns:xlink="http://www.w3.org/1999/xlink">
<g id="graph0" class="graph" transform="scale(1 1) rotate(0) translate(4 458)">
<polygon fill="white" stroke="none" points="-4,4 -4,-458 1355.12,-458 1355.12,4 -4,4"/>
<!-- PT_SELECT_0x56150067b770 -->
<g id="node1" class="node">
<title>PT_SELECT_0x56150067b770</title>
<ellipse fill="none" stroke="black" cx="70.67" cy="-220" rx="70.67" ry="18"/>
<text text-anchor="middle" x="70.67" y="-215.32" font-family="Times,serif" font-size="14.00">PT_SELECT</text>
</g>
<!-- PT_DOT__0x56150067bcf8 -->
<g id="node2" class="node">
<title>PT_DOT__0x56150067bcf8</title>
<ellipse fill="none" stroke="black" cx="234.87" cy="-355" rx="55.94" ry="18"/>
<text text-anchor="middle" x="234.87" y="-350.32" font-family="Times,serif" font-size="14.00">PT_DOT_</text>
</g>
<!-- PT_SELECT_0x56150067b770&#45;&gt;PT_DOT__0x56150067bcf8 -->
<g id="edge1" class="edge">
<title>PT_SELECT_0x56150067b770&#45;&gt;PT_DOT__0x56150067bcf8</title>
<path fill="none" stroke="black" d="M92.55,-237.37C121.09,-261.13 172.44,-303.87 204.76,-330.77"/>
<polygon fill="black" stroke="black" points="202.24,-333.23 212.17,-336.94 206.72,-327.85 202.24,-333.23"/>
</g>
<!-- PT_SPEC_0x56150067c630 -->
<g id="node8" class="node">
<title>PT_SPEC_0x56150067c630</title>
<ellipse fill="none" stroke="black" cx="234.87" cy="-220" rx="57.52" ry="18"/>
<text text-anchor="middle" x="234.87" y="-215.32" font-family="Times,serif" font-size="14.00">PT_SPEC</text>
</g>
<!-- PT_SELECT_0x56150067b770&#45;&gt;PT_SPEC_0x56150067c630 -->
<g id="edge7" class="edge">
<title>PT_SELECT_0x56150067b770&#45;&gt;PT_SPEC_0x56150067c630</title>
<path fill="none" stroke="black" d="M141.4,-220C149.36,-220 157.47,-220 165.42,-220"/>
<polygon fill="black" stroke="black" points="165.39,-223.5 175.39,-220 165.39,-216.5 165.39,-223.5"/>
</g>
<!-- PT_EXPR_0x56150067e3b0 -->
<g id="node21" class="node">
<title>PT_EXPR_0x56150067e3b0</title>
<ellipse fill="none" stroke="black" cx="234.87" cy="-72" rx="57.52" ry="18"/>
<text text-anchor="middle" x="234.87" y="-67.33" font-family="Times,serif" font-size="14.00">PT_EXPR</text>
</g>
<!-- PT_SELECT_0x56150067b770&#45;&gt;PT_EXPR_0x56150067e3b0 -->
<g id="edge20" class="edge">
<title>PT_SELECT_0x56150067b770&#45;&gt;PT_EXPR_0x56150067e3b0</title>
<path fill="none" stroke="black" d="M90.92,-202.44C119.65,-176.22 173.88,-126.73 206.66,-96.83"/>
<polygon fill="black" stroke="black" points="208.76,-99.65 213.78,-90.33 204.04,-94.48 208.76,-99.65"/>
</g>
<!-- PT_NAME_0x56150067b948 -->
<g id="node3" class="node">
<title>PT_NAME_0x56150067b948</title>
<ellipse fill="none" stroke="black" cx="463.78" cy="-436" rx="84.88" ry="18"/>
<text text-anchor="middle" x="463.78" y="-431.32" font-family="Times,serif" font-size="14.00">PT_NAME [ h ]</text>
</g>
<!-- PT_DOT__0x56150067bcf8&#45;&gt;PT_NAME_0x56150067b948 -->
<g id="edge2" class="edge">
<title>PT_DOT__0x56150067bcf8&#45;&gt;PT_NAME_0x56150067b948</title>
<path fill="none" stroke="black" d="M259.13,-371.5C277.21,-383.59 303.36,-399.48 328.39,-409 344.88,-415.27 363.08,-420.17 380.63,-423.97"/>
<polygon fill="black" stroke="black" points="379.46,-427.3 389.96,-425.89 380.88,-420.45 379.46,-427.3"/>
</g>
<!-- PT_NAME_0x56150067bb20 -->
<g id="node4" class="node">
<title>PT_NAME_0x56150067bb20</title>
<ellipse fill="none" stroke="black" cx="463.78" cy="-382" rx="126.97" ry="18"/>
<text text-anchor="middle" x="463.78" y="-377.32" font-family="Times,serif" font-size="14.00">PT_NAME [ host_year ]</text>
</g>
<!-- PT_DOT__0x56150067bcf8&#45;&gt;PT_NAME_0x56150067bb20 -->
<g id="edge3" class="edge">
<title>PT_DOT__0x56150067bcf8&#45;&gt;PT_NAME_0x56150067bb20</title>
<path fill="none" stroke="black" d="M287.93,-361.19C307.6,-363.54 330.81,-366.3 353.77,-369.03"/>
<polygon fill="black" stroke="black" points="353.16,-372.48 363.5,-370.19 353.98,-365.53 353.16,-372.48"/>
</g>
<!-- PT_DOT__0x56150067c280 -->
<g id="node5" class="node">
<title>PT_DOT__0x56150067c280</title>
<ellipse fill="none" stroke="black" cx="463.78" cy="-328" rx="55.94" ry="18"/>
<text text-anchor="middle" x="463.78" y="-323.32" font-family="Times,serif" font-size="14.00">PT_DOT_</text>
</g>
<!-- PT_DOT__0x56150067bcf8&#45;&gt;PT_DOT__0x56150067c280 -->
<g id="edge4" class="edge">
<title>PT_DOT__0x56150067bcf8&#45;&gt;PT_DOT__0x56150067c280</title>
<path fill="none" stroke="black" d="M287.93,-348.81C321.22,-344.84 364.61,-339.68 399.83,-335.49"/>
<polygon fill="black" stroke="black" points="399.94,-339 409.46,-334.34 399.12,-332.05 399.94,-339"/>
</g>
<!-- PT_NAME_0x56150067bed0 -->
<g id="node6" class="node">
<title>PT_NAME_0x56150067bed0</title>
<ellipse fill="none" stroke="black" cx="774.23" cy="-369" rx="84.35" ry="18"/>
<text text-anchor="middle" x="774.23" y="-364.32" font-family="Times,serif" font-size="14.00">PT_NAME [ o ]</text>
</g>
<!-- PT_DOT__0x56150067c280&#45;&gt;PT_NAME_0x56150067bed0 -->
<g id="edge5" class="edge">
<title>PT_DOT__0x56150067c280&#45;&gt;PT_NAME_0x56150067bed0</title>
<path fill="none" stroke="black" d="M516.06,-334.82C563.5,-341.12 634.85,-350.61 690.37,-357.99"/>
<polygon fill="black" stroke="black" points="689.74,-361.43 700.11,-359.28 690.66,-354.49 689.74,-361.43"/>
</g>
<!-- PT_NAME_0x56150067c0a8 -->
<g id="node7" class="node">
<title>PT_NAME_0x56150067c0a8</title>
<ellipse fill="none" stroke="black" cx="774.23" cy="-315" rx="136.44" ry="18"/>
<text text-anchor="middle" x="774.23" y="-310.32" font-family="Times,serif" font-size="14.00">PT_NAME [ host_nation ]</text>
</g>
<!-- PT_DOT__0x56150067c280&#45;&gt;PT_NAME_0x56150067c0a8 -->
<g id="edge6" class="edge">
<title>PT_DOT__0x56150067c280&#45;&gt;PT_NAME_0x56150067c0a8</title>
<path fill="none" stroke="black" d="M519.57,-325.69C551.14,-324.36 592.4,-322.62 632.44,-320.93"/>
<polygon fill="black" stroke="black" points="632.33,-324.44 642.18,-320.52 632.04,-317.45 632.33,-324.44"/>
</g>
<!-- PT_NAME_0x56150067c458 -->
<g id="node9" class="node">
<title>PT_NAME_0x56150067c458</title>
<ellipse fill="none" stroke="black" cx="463.78" cy="-274" rx="135.39" ry="18"/>
<text text-anchor="middle" x="463.78" y="-269.32" font-family="Times,serif" font-size="14.00">PT_NAME [ dba.history ]</text>
</g>
<!-- PT_SPEC_0x56150067c630&#45;&gt;PT_NAME_0x56150067c458 -->
<g id="edge8" class="edge">
<title>PT_SPEC_0x56150067c630&#45;&gt;PT_NAME_0x56150067c458</title>
<path fill="none" stroke="black" d="M276.66,-232.72C292.7,-237.51 311.33,-242.8 328.39,-247 342.39,-250.44 357.28,-253.77 371.87,-256.84"/>
<polygon fill="black" stroke="black" points="370.95,-260.22 381.46,-258.82 372.38,-253.37 370.95,-260.22"/>
</g>
<!-- PT_NAME_0x56150067c808 -->
<g id="node10" class="node">
<title>PT_NAME_0x56150067c808</title>
<ellipse fill="none" stroke="black" cx="463.78" cy="-220" rx="84.88" ry="18"/>
<text text-anchor="middle" x="463.78" y="-215.32" font-family="Times,serif" font-size="14.00">PT_NAME [ h ]</text>
</g>
<!-- PT_SPEC_0x56150067c630&#45;&gt;PT_NAME_0x56150067c808 -->
<g id="edge9" class="edge">
<title>PT_SPEC_0x56150067c630&#45;&gt;PT_NAME_0x56150067c808</title>
<path fill="none" stroke="black" d="M292.83,-220C315.48,-220 342.15,-220 367.57,-220"/>
<polygon fill="black" stroke="black" points="367.24,-223.5 377.24,-220 367.24,-216.5 367.24,-223.5"/>
</g>
<!-- PT_SPEC_0x56150067cbb8 -->
<g id="node11" class="node">
<title>PT_SPEC_0x56150067cbb8</title>
<ellipse fill="none" stroke="black" cx="463.78" cy="-166" rx="57.52" ry="18"/>
<text text-anchor="middle" x="463.78" y="-161.32" font-family="Times,serif" font-size="14.00">PT_SPEC</text>
</g>
<!-- PT_SPEC_0x56150067c630&#45;&gt;PT_SPEC_0x56150067cbb8 -->
<g id="edge10" class="edge">
<title>PT_SPEC_0x56150067c630&#45;&gt;PT_SPEC_0x56150067cbb8</title>
<path fill="none" stroke="black" d="M276.66,-207.28C292.7,-202.49 311.33,-197.2 328.39,-193 352.32,-187.12 378.88,-181.57 402.03,-177.06"/>
<polygon fill="black" stroke="black" points="402.44,-180.54 411.6,-175.22 401.12,-173.67 402.44,-180.54"/>
</g>
<!-- PT_NAME_0x56150067c9e0 -->
<g id="node12" class="node">
<title>PT_NAME_0x56150067c9e0</title>
<ellipse fill="none" stroke="black" cx="774.23" cy="-234" rx="139.07" ry="18"/>
<text text-anchor="middle" x="774.23" y="-229.32" font-family="Times,serif" font-size="14.00">PT_NAME [ dba.olympic ]</text>
</g>
<!-- PT_SPEC_0x56150067cbb8&#45;&gt;PT_NAME_0x56150067c9e0 -->
<g id="edge11" class="edge">
<title>PT_SPEC_0x56150067cbb8&#45;&gt;PT_NAME_0x56150067c9e0</title>
<path fill="none" stroke="black" d="M515.69,-174.09C541.03,-178.66 571.98,-185.05 599.16,-193 615.64,-197.82 618.67,-202.22 635.16,-207 648.3,-210.81 662.31,-214.24 676.16,-217.28"/>
<polygon fill="black" stroke="black" points="675.24,-220.66 685.75,-219.32 676.69,-213.82 675.24,-220.66"/>
</g>
<!-- PT_NAME_0x56150067cd90 -->
<g id="node13" class="node">
<title>PT_NAME_0x56150067cd90</title>
<ellipse fill="none" stroke="black" cx="774.23" cy="-180" rx="84.35" ry="18"/>
<text text-anchor="middle" x="774.23" y="-175.32" font-family="Times,serif" font-size="14.00">PT_NAME [ o ]</text>
</g>
<!-- PT_SPEC_0x56150067cbb8&#45;&gt;PT_NAME_0x56150067cd90 -->
<g id="edge12" class="edge">
<title>PT_SPEC_0x56150067cbb8&#45;&gt;PT_NAME_0x56150067cd90</title>
<path fill="none" stroke="black" d="M520.99,-168.55C565.35,-170.56 628.18,-173.42 680.03,-175.77"/>
<polygon fill="black" stroke="black" points="679.6,-179.25 689.74,-176.21 679.91,-172.26 679.6,-179.25"/>
</g>
<!-- PT_EXPR_0x56150067da78 -->
<g id="node14" class="node">
<title>PT_EXPR_0x56150067da78</title>
<ellipse fill="none" stroke="black" cx="774.23" cy="-126" rx="57.52" ry="18"/>
<text text-anchor="middle" x="774.23" y="-121.33" font-family="Times,serif" font-size="14.00">PT_EXPR</text>
</g>
<!-- PT_SPEC_0x56150067cbb8&#45;&gt;PT_EXPR_0x56150067da78 -->
<g id="edge13" class="edge">
<title>PT_SPEC_0x56150067cbb8&#45;&gt;PT_EXPR_0x56150067da78</title>
<path fill="none" stroke="black" d="M517.45,-159.17C570.49,-152.29 652.38,-141.67 709.16,-134.31"/>
<polygon fill="black" stroke="black" points="709.55,-137.79 719.01,-133.03 708.65,-130.85 709.55,-137.79"/>
</g>
<!-- PT_DOT__0x56150067d318 -->
<g id="node15" class="node">
<title>PT_DOT__0x56150067d318</title>
<ellipse fill="none" stroke="black" cx="1005.24" cy="-153" rx="55.94" ry="18"/>
<text text-anchor="middle" x="1005.24" y="-148.32" font-family="Times,serif" font-size="14.00">PT_DOT_</text>
</g>
<!-- PT_EXPR_0x56150067da78&#45;&gt;PT_DOT__0x56150067d318 -->
<g id="edge14" class="edge">
<title>PT_EXPR_0x56150067da78&#45;&gt;PT_DOT__0x56150067d318</title>
<path fill="none" stroke="black" d="M828.63,-132.3C862.27,-136.26 905.84,-141.4 941.17,-145.56"/>
<polygon fill="black" stroke="black" points="940.49,-149.01 950.83,-146.7 941.31,-142.06 940.49,-149.01"/>
</g>
<!-- PT_DOT__0x56150067d8a0 -->
<g id="node18" class="node">
<title>PT_DOT__0x56150067d8a0</title>
<ellipse fill="none" stroke="black" cx="1005.24" cy="-99" rx="55.94" ry="18"/>
<text text-anchor="middle" x="1005.24" y="-94.33" font-family="Times,serif" font-size="14.00">PT_DOT_</text>
</g>
<!-- PT_EXPR_0x56150067da78&#45;&gt;PT_DOT__0x56150067d8a0 -->
<g id="edge17" class="edge">
<title>PT_EXPR_0x56150067da78&#45;&gt;PT_DOT__0x56150067d8a0</title>
<path fill="none" stroke="black" d="M828.63,-119.7C862.27,-115.74 905.84,-110.6 941.17,-106.44"/>
<polygon fill="black" stroke="black" points="941.31,-109.94 950.83,-105.3 940.49,-102.99 941.31,-109.94"/>
</g>
<!-- PT_NAME_0x56150067cf68 -->
<g id="node16" class="node">
<title>PT_NAME_0x56150067cf68</title>
<ellipse fill="none" stroke="black" cx="1224.15" cy="-207" rx="84.88" ry="18"/>
<text text-anchor="middle" x="1224.15" y="-202.32" font-family="Times,serif" font-size="14.00">PT_NAME [ h ]</text>
</g>
<!-- PT_DOT__0x56150067d318&#45;&gt;PT_NAME_0x56150067cf68 -->
<g id="edge15" class="edge">
<title>PT_DOT__0x56150067d318&#45;&gt;PT_NAME_0x56150067cf68</title>
<path fill="none" stroke="black" d="M1046.35,-165.64C1062.12,-170.41 1080.43,-175.72 1097.18,-180 1114.07,-184.31 1132.35,-188.5 1149.61,-192.24"/>
<polygon fill="black" stroke="black" points="1148.79,-195.64 1159.3,-194.31 1150.25,-188.8 1148.79,-195.64"/>
</g>
<!-- PT_NAME_0x56150067d140 -->
<g id="node17" class="node">
<title>PT_NAME_0x56150067d140</title>
<ellipse fill="none" stroke="black" cx="1224.15" cy="-153" rx="126.97" ry="18"/>
<text text-anchor="middle" x="1224.15" y="-148.32" font-family="Times,serif" font-size="14.00">PT_NAME [ host_year ]</text>
</g>
<!-- PT_DOT__0x56150067d318&#45;&gt;PT_NAME_0x56150067d140 -->
<g id="edge16" class="edge">
<title>PT_DOT__0x56150067d318&#45;&gt;PT_NAME_0x56150067d140</title>
<path fill="none" stroke="black" d="M1061.54,-153C1069.13,-153 1077.19,-153 1085.49,-153"/>
<polygon fill="black" stroke="black" points="1085.43,-156.5 1095.43,-153 1085.43,-149.5 1085.43,-156.5"/>
</g>
<!-- PT_NAME_0x56150067d4f0 -->
<g id="node19" class="node">
<title>PT_NAME_0x56150067d4f0</title>
<ellipse fill="none" stroke="black" cx="1224.15" cy="-99" rx="84.35" ry="18"/>
<text text-anchor="middle" x="1224.15" y="-94.33" font-family="Times,serif" font-size="14.00">PT_NAME [ o ]</text>
</g>
<!-- PT_DOT__0x56150067d8a0&#45;&gt;PT_NAME_0x56150067d4f0 -->
<g id="edge18" class="edge">
<title>PT_DOT__0x56150067d8a0&#45;&gt;PT_NAME_0x56150067d4f0</title>
<path fill="none" stroke="black" d="M1061.54,-99C1081.83,-99 1105.43,-99 1128.21,-99"/>
<polygon fill="black" stroke="black" points="1128.16,-102.5 1138.16,-99 1128.16,-95.5 1128.16,-102.5"/>
</g>
<!-- PT_NAME_0x56150067d6c8 -->
<g id="node20" class="node">
<title>PT_NAME_0x56150067d6c8</title>
<ellipse fill="none" stroke="black" cx="1224.15" cy="-45" rx="126.97" ry="18"/>
<text text-anchor="middle" x="1224.15" y="-40.33" font-family="Times,serif" font-size="14.00">PT_NAME [ host_year ]</text>
</g>
<!-- PT_DOT__0x56150067d8a0&#45;&gt;PT_NAME_0x56150067d6c8 -->
<g id="edge19" class="edge">
<title>PT_DOT__0x56150067d8a0&#45;&gt;PT_NAME_0x56150067d6c8</title>
<path fill="none" stroke="black" d="M1046.35,-86.36C1062.12,-81.59 1080.43,-76.28 1097.18,-72 1110.35,-68.64 1124.36,-65.35 1138.08,-62.3"/>
<polygon fill="black" stroke="black" points="1138.5,-65.79 1147.52,-60.22 1137,-58.95 1138.5,-65.79"/>
</g>
<!-- PT_DOT__0x56150067e000 -->
<g id="node22" class="node">
<title>PT_DOT__0x56150067e000</title>
<ellipse fill="none" stroke="black" cx="463.78" cy="-72" rx="55.94" ry="18"/>
<text text-anchor="middle" x="463.78" y="-67.33" font-family="Times,serif" font-size="14.00">PT_DOT_</text>
</g>
<!-- PT_EXPR_0x56150067e3b0&#45;&gt;PT_DOT__0x56150067e000 -->
<g id="edge21" class="edge">
<title>PT_EXPR_0x56150067e3b0&#45;&gt;PT_DOT__0x56150067e000</title>
<path fill="none" stroke="black" d="M292.83,-72C324.19,-72 363.27,-72 396.05,-72"/>
<polygon fill="black" stroke="black" points="395.84,-75.5 405.84,-72 395.84,-68.5 395.84,-75.5"/>
</g>
<!-- PT_VALUE_0x56150067e1d8 -->
<g id="node25" class="node">
<title>PT_VALUE_0x56150067e1d8</title>
<ellipse fill="none" stroke="black" cx="463.78" cy="-18" rx="63.83" ry="18"/>
<text text-anchor="middle" x="463.78" y="-13.32" font-family="Times,serif" font-size="14.00">PT_VALUE</text>
</g>
<!-- PT_EXPR_0x56150067e3b0&#45;&gt;PT_VALUE_0x56150067e1d8 -->
<g id="edge24" class="edge">
<title>PT_EXPR_0x56150067e3b0&#45;&gt;PT_VALUE_0x56150067e1d8</title>
<path fill="none" stroke="black" d="M276.66,-59.28C292.7,-54.49 311.33,-49.2 328.39,-45 351.03,-39.43 376.01,-34.17 398.24,-29.8"/>
<polygon fill="black" stroke="black" points="398.61,-33.3 407.76,-27.95 397.27,-26.42 398.61,-33.3"/>
</g>
<!-- PT_NAME_0x56150067dc50 -->
<g id="node23" class="node">
<title>PT_NAME_0x56150067dc50</title>
<ellipse fill="none" stroke="black" cx="774.23" cy="-72" rx="84.35" ry="18"/>
<text text-anchor="middle" x="774.23" y="-67.33" font-family="Times,serif" font-size="14.00">PT_NAME [ o ]</text>
</g>
<!-- PT_DOT__0x56150067e000&#45;&gt;PT_NAME_0x56150067dc50 -->
<g id="edge22" class="edge">
<title>PT_DOT__0x56150067e000&#45;&gt;PT_NAME_0x56150067dc50</title>
<path fill="none" stroke="black" d="M519.92,-72C563.83,-72 626.33,-72 678.26,-72"/>
<polygon fill="black" stroke="black" points="677.99,-75.5 687.99,-72 677.99,-68.5 677.99,-75.5"/>
</g>
<!-- PT_NAME_0x56150067de28 -->
<g id="node24" class="node">
<title>PT_NAME_0x56150067de28</title>
<ellipse fill="none" stroke="black" cx="774.23" cy="-18" rx="126.97" ry="18"/>
<text text-anchor="middle" x="774.23" y="-13.32" font-family="Times,serif" font-size="14.00">PT_NAME [ host_year ]</text>
</g>
<!-- PT_DOT__0x56150067e000&#45;&gt;PT_NAME_0x56150067de28 -->
<g id="edge23" class="edge">
<title>PT_DOT__0x56150067e000&#45;&gt;PT_NAME_0x56150067de28</title>
<path fill="none" stroke="black" d="M513.65,-63.44C558.55,-55.58 626.26,-43.73 681.27,-34.1"/>
<polygon fill="black" stroke="black" points="681.71,-37.58 690.96,-32.4 680.5,-30.68 681.71,-37.58"/>
</g>
</g>
</svg>
