<?xml version="1.0" encoding="UTF-8" standalone="no"?>
<!DOCTYPE svg PUBLIC "-//W3C//DTD SVG 1.1//EN"
 "http://www.w3.org/Graphics/SVG/1.1/DTD/svg11.dtd">
<!-- Generated by graphviz version 10.0.1 (0)
 -->
<!-- Pages: 1 -->
<svg width="413pt" height="98pt"
 viewBox="0.00 0.00 412.98 98.00" xmlns="http://www.w3.org/2000/svg" xmlns:xlink="http://www.w3.org/1999/xlink">
<g id="graph0" class="graph" transform="scale(1 1) rotate(0) translate(4 94)">
<polygon fill="white" stroke="none" points="-4,4 -4,-94 408.98,-94 408.98,4 -4,4"/>
<!-- PT_EXPR_0x56150067e3b0 -->
<g id="node1" class="node">
<title>PT_EXPR_0x56150067e3b0</title>
<ellipse fill="none" stroke="black" cx="57.52" cy="-45" rx="57.52" ry="18"/>
<text text-anchor="middle" x="57.52" y="-40.33" font-family="Times,serif" font-size="14.00">PT_EXPR</text>
</g>
<!-- PT_NAME_0x56150067de28 -->
<g id="node2" class="node">
<title>PT_NAME_0x56150067de28</title>
<ellipse fill="none" stroke="black" cx="278.01" cy="-72" rx="126.97" ry="18"/>
<text text-anchor="middle" x="278.01" y="-67.33" font-family="Times,serif" font-size="14.00">PT_NAME [ host_year ]</text>
</g>
<!-- PT_EXPR_0x56150067e3b0&#45;&gt;PT_NAME_0x56150067de28 -->
<g id="edge1" class="edge">
<title>PT_EXPR_0x56150067e3b0&#45;&gt;PT_NAME_0x56150067de28</title>
<path fill="none" stroke="black" d="M111.69,-51.57C129.28,-53.74 149.52,-56.25 169.68,-58.74"/>
<polygon fill="black" stroke="black" points="169,-62.18 179.35,-59.93 169.85,-55.23 169,-62.18"/>
</g>
<!-- PT_VALUE_0x56150067e1d8 -->
<g id="node3" class="node">
<title>PT_VALUE_0x56150067e1d8</title>
<ellipse fill="none" stroke="black" cx="278.01" cy="-18" rx="63.83" ry="18"/>
<text text-anchor="middle" x="278.01" y="-13.32" font-family="Times,serif" font-size="14.00">PT_VALUE</text>
</g>
<!-- PT_EXPR_0x56150067e3b0&#45;&gt;PT_VALUE_0x56150067e1d8 -->
<g id="edge2" class="edge">
<title>PT_EXPR_0x56150067e3b0&#45;&gt;PT_VALUE_0x56150067e1d8</title>
<path fill="none" stroke="black" d="M111.69,-38.43C140.6,-34.86 176.7,-30.4 207.79,-26.55"/>
<polygon fill="black" stroke="black" points="207.99,-30.06 217.49,-25.36 207.14,-23.11 207.99,-30.06"/>
</g>
</g>
</svg>
