<?xml version="1.0" encoding="UTF-8" standalone="no"?>
<!DOCTYPE svg PUBLIC "-//W3C//DTD SVG 1.1//EN"
 "http://www.w3.org/Graphics/SVG/1.1/DTD/svg11.dtd">
<!-- Generated by graphviz version 10.0.1 (0)
 -->
<!-- Pages: 1 -->
<svg width="1352pt" height="637pt"
 viewBox="0.00 0.00 1352.23 637.00" xmlns="http://www.w3.org/2000/svg" xmlns:xlink="http://www.w3.org/1999/xlink">
<g id="graph0" class="graph" transform="scale(1 1) rotate(0) translate(4 633)">
<polygon fill="white" stroke="none" points="-4,4 -4,-633 1348.23,-633 1348.23,4 -4,4"/>
<!-- PT_SELECT_0x56150067b770 -->
<g id="node1" class="node">
<title>PT_SELECT_0x56150067b770</title>
<ellipse fill="none" stroke="black" cx="70.67" cy="-274" rx="70.67" ry="18"/>
<text text-anchor="middle" x="70.67" y="-269.32" font-family="Times,serif" font-size="14.00">PT_SELECT</text>
</g>
<!-- PT_SELECT_0x56150067b770&#45;&gt;PT_SELECT_0x56150067b770 -->
<g id="edge20" class="edge">
<title>PT_SELECT_0x56150067b770&#45;&gt;PT_SELECT_0x56150067b770</title>
<path fill="none" stroke="black" d="M31.14,-289.17C19.17,-299.66 32.34,-310 70.67,-310 95.23,-310 109.46,-305.76 113.37,-299.95"/>
<polygon fill="black" stroke="black" points="116.81,-299.23 110.63,-290.62 110.09,-301.2 116.81,-299.23"/>
</g>
<!-- PT_SPEC_0x56150067c630 -->
<g id="node2" class="node">
<title>PT_SPEC_0x56150067c630</title>
<ellipse fill="none" stroke="black" cx="304.32" cy="-463" rx="57.52" ry="18"/>
<text text-anchor="middle" x="304.32" y="-458.32" font-family="Times,serif" font-size="14.00">PT_SPEC</text>
</g>
<!-- PT_SELECT_0x56150067b770&#45;&gt;PT_SPEC_0x56150067c630 -->
<g id="edge1" class="edge">
<title>PT_SELECT_0x56150067b770&#45;&gt;PT_SPEC_0x56150067c630</title>
<path fill="none" stroke="black" d="M103.4,-290.25C151.29,-323.74 240.8,-397.24 281.8,-437.2"/>
<polygon fill="black" stroke="black" points="279.17,-439.52 288.72,-444.12 284.13,-434.57 279.17,-439.52"/>
</g>
<!-- PT_SELECT_0x56150067b770&#45;&gt;PT_SPEC_0x56150067c630 -->
<g id="edge24" class="edge">
<title>PT_SELECT_0x56150067b770&#45;&gt;PT_SPEC_0x56150067c630</title>
<path fill="none" stroke="black" d="M93.05,-291.44C134.63,-325.37 226.46,-400.29 273.81,-438.93"/>
<polygon fill="black" stroke="black" points="271.52,-441.58 281.48,-445.19 275.95,-436.15 271.52,-441.58"/>
</g>
<!-- PT_SELECT_0x56150067b770&#45;&gt;PT_SPEC_0x56150067c630 -->
<g id="edge64" class="edge">
<title>PT_SELECT_0x56150067b770&#45;&gt;PT_SPEC_0x56150067c630</title>
<path fill="none" stroke="black" d="M85.47,-292.08C119.93,-327.64 210.77,-402.98 263.63,-441.09"/>
<polygon fill="black" stroke="black" points="261.3,-443.73 271.48,-446.66 265.35,-438.02 261.3,-443.73"/>
</g>
<!-- PT_EXPR_0x56150067da78 -->
<g id="node12" class="node">
<title>PT_EXPR_0x56150067da78</title>
<ellipse fill="none" stroke="black" cx="603.72" cy="-328" rx="57.52" ry="18"/>
<text text-anchor="middle" x="603.72" y="-323.32" font-family="Times,serif" font-size="14.00">PT_EXPR</text>
</g>
<!-- PT_SELECT_0x56150067b770&#45;&gt;PT_EXPR_0x56150067da78 -->
<g id="edge11" class="edge">
<title>PT_SELECT_0x56150067b770&#45;&gt;PT_EXPR_0x56150067da78</title>
<path fill="none" stroke="black" d="M117.84,-287.79C136.2,-292.75 157.62,-297.88 177.35,-301 302.3,-320.75 450.07,-326.16 534.45,-327.58"/>
<polygon fill="black" stroke="black" points="534.37,-331.08 544.42,-327.73 534.47,-324.08 534.37,-331.08"/>
</g>
<!-- PT_EXPR_0x56150067e3b0 -->
<g id="node15" class="node">
<title>PT_EXPR_0x56150067e3b0</title>
<ellipse fill="none" stroke="black" cx="304.32" cy="-274" rx="57.52" ry="18"/>
<text text-anchor="middle" x="304.32" y="-269.32" font-family="Times,serif" font-size="14.00">PT_EXPR</text>
</g>
<!-- PT_SELECT_0x56150067b770&#45;&gt;PT_EXPR_0x56150067e3b0 -->
<g id="edge14" class="edge">
<title>PT_SELECT_0x56150067b770&#45;&gt;PT_EXPR_0x56150067e3b0</title>
<path fill="none" stroke="black" d="M95.59,-256.77C137.13,-244.6 222.69,-243.8 270.02,-254.37"/>
<polygon fill="black" stroke="black" points="268.87,-257.69 279.43,-256.84 270.64,-250.92 268.87,-257.69"/>
</g>
<!-- PT_SELECT_0x56150067b770&#45;&gt;PT_EXPR_0x56150067e3b0 -->
<g id="edge36" class="edge">
<title>PT_SELECT_0x56150067b770&#45;&gt;PT_EXPR_0x56150067e3b0</title>
<path fill="none" stroke="black" d="M125.98,-262.36C162.34,-259.93 210.09,-259.88 246.88,-262.22"/>
<polygon fill="black" stroke="black" points="246.18,-265.68 256.41,-262.91 246.69,-258.7 246.18,-265.68"/>
</g>
<!-- PT_SELECT_0x56150067b770&#45;&gt;PT_EXPR_0x56150067e3b0 -->
<g id="edge45" class="edge">
<title>PT_SELECT_0x56150067b770&#45;&gt;PT_EXPR_0x56150067e3b0</title>
<path fill="none" stroke="black" d="M141.8,-274C171.43,-274 205.8,-274 235.2,-274"/>
<polygon fill="black" stroke="black" points="235.11,-277.5 245.11,-274 235.11,-270.5 235.11,-277.5"/>
</g>
<!-- PT_SELECT_0x56150067b770&#45;&gt;PT_EXPR_0x56150067e3b0 -->
<g id="edge54" class="edge">
<title>PT_SELECT_0x56150067b770&#45;&gt;PT_EXPR_0x56150067e3b0</title>
<path fill="none" stroke="black" d="M125.98,-285.64C162.34,-288.07 210.09,-288.12 246.88,-285.78"/>
<polygon fill="black" stroke="black" points="246.69,-289.3 256.41,-285.09 246.18,-282.32 246.69,-289.3"/>
</g>
<!-- PT_SELECT_0x56150067b770&#45;&gt;PT_EXPR_0x56150067e3b0 -->
<g id="edge76" class="edge">
<title>PT_SELECT_0x56150067b770&#45;&gt;PT_EXPR_0x56150067e3b0</title>
<path fill="none" stroke="black" d="M95.59,-291.23C137.13,-303.4 222.69,-304.2 270.02,-293.63"/>
<polygon fill="black" stroke="black" points="270.64,-297.08 279.43,-291.16 268.87,-290.31 270.64,-297.08"/>
</g>
<!-- PT_VALUE_0x56150067e1d8 -->
<g id="node17" class="node">
<title>PT_VALUE_0x56150067e1d8</title>
<ellipse fill="none" stroke="black" cx="915.23" cy="-165" rx="63.83" ry="18"/>
<text text-anchor="middle" x="915.23" y="-160.32" font-family="Times,serif" font-size="14.00">PT_VALUE</text>
</g>
<!-- PT_SELECT_0x56150067b770&#45;&gt;PT_VALUE_0x56150067e1d8 -->
<g id="edge60" class="edge">
<title>PT_SELECT_0x56150067b770&#45;&gt;PT_VALUE_0x56150067e1d8</title>
<path fill="none" stroke="black" d="M121.05,-261.02C138.77,-256.46 158.93,-251.38 177.35,-247 289.78,-220.25 333.15,-252.05 431.28,-191 453.03,-177.47 444.2,-157.1 467.28,-146 576.59,-93.46 619.06,-139.41 740.16,-146 775.19,-147.91 814,-151.95 846.08,-155.83"/>
<polygon fill="black" stroke="black" points="845.27,-159.25 855.62,-157 846.12,-152.31 845.27,-159.25"/>
</g>
<!-- PT_NAME_0x56150067bb20 -->
<g id="node18" class="node">
<title>PT_NAME_0x56150067bb20</title>
<ellipse fill="none" stroke="black" cx="304.32" cy="-164" rx="126.97" ry="18"/>
<text text-anchor="middle" x="304.32" y="-159.32" font-family="Times,serif" font-size="14.00">PT_NAME [ host_year ]</text>
</g>
<!-- PT_SELECT_0x56150067b770&#45;&gt;PT_NAME_0x56150067bb20 -->
<g id="edge21" class="edge">
<title>PT_SELECT_0x56150067b770&#45;&gt;PT_NAME_0x56150067bb20</title>
<path fill="none" stroke="black" d="M84.59,-255.89C103.49,-235.64 140.46,-204.47 177.35,-187 183.16,-184.25 189.24,-181.71 195.46,-179.39"/>
<polygon fill="black" stroke="black" points="196.32,-182.79 204.6,-176.18 194,-176.19 196.32,-182.79"/>
</g>
<!-- PT_SELECT_0x56150067b770&#45;&gt;PT_NAME_0x56150067bb20 -->
<g id="edge61" class="edge">
<title>PT_SELECT_0x56150067b770&#45;&gt;PT_NAME_0x56150067bb20</title>
<path fill="none" stroke="black" d="M98.47,-257.08C118.77,-241.34 148.08,-218.86 177.35,-205 196.97,-195.71 219.63,-188.88 240.28,-183.5"/>
<polygon fill="black" stroke="black" points="240.89,-186.96 249.72,-181.11 239.17,-180.17 240.89,-186.96"/>
</g>
<!-- PT_NODE_POINTER_0x56150067cf68 -->
<g id="node23" class="node">
<title>PT_NODE_POINTER_0x56150067cf68</title>
<ellipse fill="none" stroke="black" cx="603.72" cy="-18" rx="113.29" ry="18"/>
<text text-anchor="middle" x="603.72" y="-13.32" font-family="Times,serif" font-size="14.00">PT_NODE_POINTER</text>
</g>
<!-- PT_SELECT_0x56150067b770&#45;&gt;PT_NODE_POINTER_0x56150067cf68 -->
<g id="edge42" class="edge">
<title>PT_SELECT_0x56150067b770&#45;&gt;PT_NODE_POINTER_0x56150067cf68</title>
<path fill="none" stroke="black" d="M80.01,-255.71C94.85,-225.44 128.92,-165.45 177.35,-137 275.74,-79.2 334.94,-160.16 431.28,-99 455.64,-83.54 443.31,-61.04 467.28,-45 475.84,-39.27 485.35,-34.7 495.23,-31.07"/>
<polygon fill="black" stroke="black" points="496.25,-34.42 504.65,-27.96 494.05,-27.78 496.25,-34.42"/>
</g>
<!-- PT_NODE_POINTER_0x56150067bcf8 -->
<g id="node24" class="node">
<title>PT_NODE_POINTER_0x56150067bcf8</title>
<ellipse fill="none" stroke="black" cx="304.32" cy="-72" rx="113.29" ry="18"/>
<text text-anchor="middle" x="304.32" y="-67.33" font-family="Times,serif" font-size="14.00">PT_NODE_POINTER</text>
</g>
<!-- PT_SELECT_0x56150067b770&#45;&gt;PT_NODE_POINTER_0x56150067bcf8 -->
<g id="edge43" class="edge">
<title>PT_SELECT_0x56150067b770&#45;&gt;PT_NODE_POINTER_0x56150067bcf8</title>
<path fill="none" stroke="black" d="M77.79,-255.65C90.48,-220.51 123.08,-143.71 177.35,-104 186.43,-97.35 196.75,-92.08 207.49,-87.9"/>
<polygon fill="black" stroke="black" points="208.65,-91.21 216.91,-84.58 206.32,-84.61 208.65,-91.21"/>
</g>
<!-- PT_NODE_POINTER_0x56150067bed0 -->
<g id="node26" class="node">
<title>PT_NODE_POINTER_0x56150067bed0</title>
<ellipse fill="none" stroke="black" cx="304.32" cy="-18" rx="113.29" ry="18"/>
<text text-anchor="middle" x="304.32" y="-13.32" font-family="Times,serif" font-size="14.00">PT_NODE_POINTER</text>
</g>
<!-- PT_SELECT_0x56150067b770&#45;&gt;PT_NODE_POINTER_0x56150067bed0 -->
<g id="edge52" class="edge">
<title>PT_SELECT_0x56150067b770&#45;&gt;PT_NODE_POINTER_0x56150067bed0</title>
<path fill="none" stroke="black" d="M73.78,-255.68C80.56,-210.18 105.72,-93.31 177.35,-36 180.32,-33.62 183.45,-31.45 186.7,-29.45"/>
<polygon fill="black" stroke="black" points="188.34,-32.54 195.49,-24.72 185.02,-26.38 188.34,-32.54"/>
</g>
<!-- PT_SELECT_0x56150067b770&#45;&gt;PT_NODE_POINTER_0x56150067bed0 -->
<g id="edge58" class="edge">
<title>PT_SELECT_0x56150067b770&#45;&gt;PT_NODE_POINTER_0x56150067bed0</title>
<path fill="none" stroke="black" d="M75.39,-255.63C84.13,-212.83 110.51,-107.48 177.35,-54 188.62,-44.98 202.22,-38.79 216.25,-34.44"/>
<polygon fill="black" stroke="black" points="216.87,-37.9 225.57,-31.85 215,-31.15 216.87,-37.9"/>
</g>
<!-- PT_NAME_0x56150067c458 -->
<g id="node3" class="node">
<title>PT_NAME_0x56150067c458</title>
<ellipse fill="none" stroke="black" cx="603.72" cy="-490" rx="135.39" ry="18"/>
<text text-anchor="middle" x="603.72" y="-485.32" font-family="Times,serif" font-size="14.00">PT_NAME [ dba.history ]</text>
</g>
<!-- PT_SPEC_0x56150067c630&#45;&gt;PT_NAME_0x56150067c458 -->
<g id="edge2" class="edge">
<title>PT_SPEC_0x56150067c630&#45;&gt;PT_NAME_0x56150067c458</title>
<path fill="none" stroke="black" d="M359.17,-457.21C407.44,-458.22 478.59,-464.33 531.53,-471.82"/>
<polygon fill="black" stroke="black" points="530.98,-475.28 541.38,-473.27 532,-468.35 530.98,-475.28"/>
</g>
<!-- PT_SPEC_0x56150067c630&#45;&gt;PT_NAME_0x56150067c458 -->
<g id="edge25" class="edge">
<title>PT_SPEC_0x56150067c630&#45;&gt;PT_NAME_0x56150067c458</title>
<path fill="none" stroke="black" d="M359.86,-467.95C393.35,-470.99 437.66,-475.01 479.25,-478.79"/>
<polygon fill="black" stroke="black" points="478.83,-482.27 489.11,-479.69 479.47,-475.3 478.83,-482.27"/>
</g>
<!-- PT_SPEC_0x56150067c630&#45;&gt;PT_NAME_0x56150067c458 -->
<g id="edge65" class="edge">
<title>PT_SPEC_0x56150067c630&#45;&gt;PT_NAME_0x56150067c458</title>
<path fill="none" stroke="black" d="M344.81,-476.11C373.97,-481.47 415.63,-486.58 456.98,-490.27"/>
<polygon fill="black" stroke="black" points="456.56,-493.74 466.83,-491.11 457.16,-486.77 456.56,-493.74"/>
</g>
<!-- PT_NAME_0x56150067c808 -->
<g id="node4" class="node">
<title>PT_NAME_0x56150067c808</title>
<ellipse fill="none" stroke="black" cx="603.72" cy="-436" rx="84.88" ry="18"/>
<text text-anchor="middle" x="603.72" y="-431.32" font-family="Times,serif" font-size="14.00">PT_NAME [ h ]</text>
</g>
<!-- PT_SPEC_0x56150067c630&#45;&gt;PT_NAME_0x56150067c808 -->
<g id="edge3" class="edge">
<title>PT_SPEC_0x56150067c630&#45;&gt;PT_NAME_0x56150067c808</title>
<path fill="none" stroke="black" d="M344.81,-449.89C386.79,-442.17 454.66,-434.98 510.23,-431.79"/>
<polygon fill="black" stroke="black" points="510.22,-435.3 520.02,-431.27 509.85,-428.31 510.22,-435.3"/>
</g>
<!-- PT_SPEC_0x56150067c630&#45;&gt;PT_NAME_0x56150067c808 -->
<g id="edge26" class="edge">
<title>PT_SPEC_0x56150067c630&#45;&gt;PT_NAME_0x56150067c808</title>
<path fill="none" stroke="black" d="M359.86,-458.05C402.89,-454.14 463.79,-448.61 513.84,-444.07"/>
<polygon fill="black" stroke="black" points="513.84,-447.58 523.49,-443.19 513.21,-440.61 513.84,-447.58"/>
</g>
<!-- PT_SPEC_0x56150067c630&#45;&gt;PT_NAME_0x56150067c808 -->
<g id="edge66" class="edge">
<title>PT_SPEC_0x56150067c630&#45;&gt;PT_NAME_0x56150067c808</title>
<path fill="none" stroke="black" d="M359.17,-468.79C410.74,-467.72 488.44,-460.81 542.14,-452.62"/>
<polygon fill="black" stroke="black" points="542.4,-456.12 551.72,-451.1 541.3,-449.21 542.4,-456.12"/>
</g>
<!-- PT_NAME_0x56150067dc50 -->
<g id="node5" class="node">
<title>PT_NAME_0x56150067dc50</title>
<ellipse fill="none" stroke="black" cx="603.72" cy="-382" rx="126.97" ry="18"/>
<text text-anchor="middle" x="603.72" y="-377.32" font-family="Times,serif" font-size="14.00">PT_NAME [ host_year ]</text>
</g>
<!-- PT_SPEC_0x56150067c630&#45;&gt;PT_NAME_0x56150067dc50 -->
<g id="edge4" class="edge">
<title>PT_SPEC_0x56150067c630&#45;&gt;PT_NAME_0x56150067dc50</title>
<path fill="none" stroke="black" d="M322.6,-445.46C351.98,-427.47 413.71,-405.21 467.28,-391 468.47,-390.68 469.67,-390.37 470.87,-390.06"/>
<polygon fill="black" stroke="black" points="471.49,-393.51 480.34,-387.69 469.79,-386.72 471.49,-393.51"/>
</g>
<!-- PT_SPEC_0x56150067c630&#45;&gt;PT_NAME_0x56150067dc50 -->
<g id="edge27" class="edge">
<title>PT_SPEC_0x56150067c630&#45;&gt;PT_NAME_0x56150067dc50</title>
<path fill="none" stroke="black" d="M342.55,-449.11C375.12,-437.31 423.88,-420.51 467.28,-409 481.64,-405.19 496.99,-401.64 511.99,-398.46"/>
<polygon fill="black" stroke="black" points="512.29,-401.97 521.36,-396.51 510.86,-395.12 512.29,-401.97"/>
</g>
<!-- PT_SPEC_0x56150067c630&#45;&gt;PT_NAME_0x56150067dc50 -->
<g id="edge67" class="edge">
<title>PT_SPEC_0x56150067c630&#45;&gt;PT_NAME_0x56150067dc50</title>
<path fill="none" stroke="black" d="M360.27,-458.63C391.38,-449.81 431.18,-436.58 467.28,-427 499.87,-418.36 537.53,-411.06 564.85,-403.26"/>
<polygon fill="black" stroke="black" points="565.52,-406.71 574.06,-400.44 563.48,-400.02 565.52,-406.71"/>
</g>
<!-- PT_NAME_0x56150067e588 -->
<g id="node6" class="node">
<title>PT_NAME_0x56150067e588</title>
<ellipse fill="none" stroke="black" cx="603.72" cy="-598" rx="135.39" ry="18"/>
<text text-anchor="middle" x="603.72" y="-593.33" font-family="Times,serif" font-size="14.00">PT_NAME [ dba.history ]</text>
</g>
<!-- PT_SPEC_0x56150067c630&#45;&gt;PT_NAME_0x56150067e588 -->
<g id="edge5" class="edge">
<title>PT_SPEC_0x56150067c630&#45;&gt;PT_NAME_0x56150067e588</title>
<path fill="none" stroke="black" d="M339.67,-477.62C370.98,-498.51 419.5,-533.22 467.28,-553 495.78,-564.79 529.83,-571.55 556.66,-577.64"/>
<polygon fill="black" stroke="black" points="555.67,-581 566.21,-579.88 557.27,-574.19 555.67,-581"/>
</g>
<!-- PT_SPEC_0x56150067c630&#45;&gt;PT_NAME_0x56150067e588 -->
<g id="edge28" class="edge">
<title>PT_SPEC_0x56150067c630&#45;&gt;PT_NAME_0x56150067e588</title>
<path fill="none" stroke="black" d="M325.29,-480.15C354.47,-504.28 411.39,-547.86 467.28,-571 477.42,-575.2 488.26,-578.75 499.22,-581.77"/>
<polygon fill="black" stroke="black" points="498.19,-585.11 508.75,-584.23 499.94,-578.34 498.19,-585.11"/>
</g>
<!-- PT_SPEC_0x56150067c630&#45;&gt;PT_NAME_0x56150067e588 -->
<g id="edge68" class="edge">
<title>PT_SPEC_0x56150067c630&#45;&gt;PT_NAME_0x56150067e588</title>
<path fill="none" stroke="black" d="M315.48,-481.06C338.64,-509.29 398.01,-557.85 465.02,-587.72"/>
<polygon fill="black" stroke="black" points="463.43,-590.85 474,-591.57 466.19,-584.42 463.43,-590.85"/>
</g>
<!-- PT_SPEC_0x56150067cbb8 -->
<g id="node7" class="node">
<title>PT_SPEC_0x56150067cbb8</title>
<ellipse fill="none" stroke="black" cx="603.72" cy="-544" rx="57.52" ry="18"/>
<text text-anchor="middle" x="603.72" y="-539.33" font-family="Times,serif" font-size="14.00">PT_SPEC</text>
</g>
<!-- PT_SPEC_0x56150067c630&#45;&gt;PT_SPEC_0x56150067cbb8 -->
<g id="edge6" class="edge">
<title>PT_SPEC_0x56150067c630&#45;&gt;PT_SPEC_0x56150067cbb8</title>
<path fill="none" stroke="black" d="M360.27,-467.37C391.38,-476.19 431.18,-489.42 467.28,-499 501.5,-508.08 541.31,-515.67 568.87,-523.92"/>
<polygon fill="black" stroke="black" points="567.48,-527.15 578.07,-526.9 569.64,-520.49 567.48,-527.15"/>
</g>
<!-- PT_SPEC_0x56150067c630&#45;&gt;PT_SPEC_0x56150067cbb8 -->
<g id="edge29" class="edge">
<title>PT_SPEC_0x56150067c630&#45;&gt;PT_SPEC_0x56150067cbb8</title>
<path fill="none" stroke="black" d="M342.55,-476.89C375.12,-488.69 423.88,-505.49 467.28,-517 491.28,-523.37 518.03,-529 541.37,-533.45"/>
<polygon fill="black" stroke="black" points="540.57,-536.86 551.04,-535.26 541.86,-529.98 540.57,-536.86"/>
</g>
<!-- PT_SPEC_0x56150067c630&#45;&gt;PT_SPEC_0x56150067cbb8 -->
<g id="edge69" class="edge">
<title>PT_SPEC_0x56150067c630&#45;&gt;PT_SPEC_0x56150067cbb8</title>
<path fill="none" stroke="black" d="M322.6,-480.54C351.98,-498.53 413.71,-520.79 467.28,-535 490.68,-541.21 516.68,-546.72 539.6,-550.01"/>
<polygon fill="black" stroke="black" points="539.05,-553.47 549.42,-551.29 539.96,-546.53 539.05,-553.47"/>
</g>
<!-- PT_NAME_0x56150067c9e0 -->
<g id="node8" class="node">
<title>PT_NAME_0x56150067c9e0</title>
<ellipse fill="none" stroke="black" cx="915.23" cy="-557" rx="139.07" ry="18"/>
<text text-anchor="middle" x="915.23" y="-552.33" font-family="Times,serif" font-size="14.00">PT_NAME [ dba.olympic ]</text>
</g>
<!-- PT_SPEC_0x56150067cbb8&#45;&gt;PT_NAME_0x56150067c9e0 -->
<g id="edge7" class="edge">
<title>PT_SPEC_0x56150067cbb8&#45;&gt;PT_NAME_0x56150067c9e0</title>
<path fill="none" stroke="black" d="M655.48,-535.83C701.29,-534.36 769.72,-536.54 824.7,-540.87"/>
<polygon fill="black" stroke="black" points="824.1,-544.33 834.36,-541.67 824.68,-537.35 824.1,-544.33"/>
</g>
<!-- PT_SPEC_0x56150067cbb8&#45;&gt;PT_NAME_0x56150067c9e0 -->
<g id="edge30" class="edge">
<title>PT_SPEC_0x56150067cbb8&#45;&gt;PT_NAME_0x56150067c9e0</title>
<path fill="none" stroke="black" d="M661.13,-546.37C692.08,-547.67 731.98,-549.35 770.91,-550.98"/>
<polygon fill="black" stroke="black" points="770.75,-554.48 780.89,-551.4 771.05,-547.48 770.75,-554.48"/>
</g>
<!-- PT_SPEC_0x56150067cbb8&#45;&gt;PT_NAME_0x56150067c9e0 -->
<g id="edge70" class="edge">
<title>PT_SPEC_0x56150067cbb8&#45;&gt;PT_NAME_0x56150067c9e0</title>
<path fill="none" stroke="black" d="M648.74,-555.62C682.73,-559.92 731.7,-563.19 778.35,-564.7"/>
<polygon fill="black" stroke="black" points="778.22,-568.2 788.32,-565 778.43,-561.2 778.22,-568.2"/>
</g>
<!-- PT_NAME_0x56150067cd90 -->
<g id="node9" class="node">
<title>PT_NAME_0x56150067cd90</title>
<ellipse fill="none" stroke="black" cx="915.23" cy="-503" rx="84.35" ry="18"/>
<text text-anchor="middle" x="915.23" y="-498.32" font-family="Times,serif" font-size="14.00">PT_NAME [ o ]</text>
</g>
<!-- PT_SPEC_0x56150067cbb8&#45;&gt;PT_NAME_0x56150067cd90 -->
<g id="edge8" class="edge">
<title>PT_SPEC_0x56150067cbb8&#45;&gt;PT_NAME_0x56150067cd90</title>
<path fill="none" stroke="black" d="M641.44,-530.03C684.99,-519.98 759.25,-508.99 819.3,-503.02"/>
<polygon fill="black" stroke="black" points="819.59,-506.5 829.21,-502.07 818.92,-499.53 819.59,-506.5"/>
</g>
<!-- PT_SPEC_0x56150067cbb8&#45;&gt;PT_NAME_0x56150067cd90 -->
<g id="edge31" class="edge">
<title>PT_SPEC_0x56150067cbb8&#45;&gt;PT_NAME_0x56150067cd90</title>
<path fill="none" stroke="black" d="M657.23,-537.04C704.9,-530.73 776.02,-521.31 831.37,-513.98"/>
<polygon fill="black" stroke="black" points="831.62,-517.47 841.07,-512.69 830.7,-510.53 831.62,-517.47"/>
</g>
<!-- PT_SPEC_0x56150067cbb8&#45;&gt;PT_NAME_0x56150067cd90 -->
<g id="edge71" class="edge">
<title>PT_SPEC_0x56150067cbb8&#45;&gt;PT_NAME_0x56150067cd90</title>
<path fill="none" stroke="black" d="M660.77,-547.26C717,-543.59 803.06,-532.17 858.99,-520.94"/>
<polygon fill="black" stroke="black" points="859.55,-524.4 868.62,-518.94 858.12,-517.55 859.55,-524.4"/>
</g>
<!-- PT_NAME_0x56150067d318 -->
<g id="node10" class="node">
<title>PT_NAME_0x56150067d318</title>
<ellipse fill="none" stroke="black" cx="915.23" cy="-449" rx="136.44" ry="18"/>
<text text-anchor="middle" x="915.23" y="-444.32" font-family="Times,serif" font-size="14.00">PT_NAME [ host_nation ]</text>
</g>
<!-- PT_SPEC_0x56150067cbb8&#45;&gt;PT_NAME_0x56150067d318 -->
<g id="edge9" class="edge">
<title>PT_SPEC_0x56150067cbb8&#45;&gt;PT_NAME_0x56150067d318</title>
<path fill="none" stroke="black" d="M637.71,-529.1C666.49,-523.36 708.49,-517.28 740.16,-499 758.54,-488.39 756.22,-474.21 774.45,-460.06"/>
<polygon fill="black" stroke="black" points="775.94,-463.27 782.37,-454.85 772.09,-457.42 775.94,-463.27"/>
</g>
<!-- PT_SPEC_0x56150067cbb8&#45;&gt;PT_NAME_0x56150067d318 -->
<g id="edge32" class="edge">
<title>PT_SPEC_0x56150067cbb8&#45;&gt;PT_NAME_0x56150067d318</title>
<path fill="none" stroke="black" d="M660.66,-541.04C686.26,-537.69 716.18,-530.84 740.16,-517 761.16,-504.88 755.14,-488.08 776.16,-476 783.99,-471.5 792.43,-467.74 801.16,-464.59"/>
<polygon fill="black" stroke="black" points="802.07,-467.98 810.47,-461.53 799.88,-461.33 802.07,-467.98"/>
</g>
<!-- PT_SPEC_0x56150067cbb8&#45;&gt;PT_NAME_0x56150067d318 -->
<g id="edge72" class="edge">
<title>PT_SPEC_0x56150067cbb8&#45;&gt;PT_NAME_0x56150067d318</title>
<path fill="none" stroke="black" d="M642.34,-557.72C670.87,-558.69 710.15,-552.32 740.16,-535 761.16,-522.88 755.14,-506.08 776.16,-494 800.23,-480.16 830.15,-473.29 855.98,-468.35"/>
<polygon fill="black" stroke="black" points="856.46,-471.82 865.65,-466.55 855.18,-464.94 856.46,-471.82"/>
</g>
<!-- PT_NAME_0x56150067e760 -->
<g id="node11" class="node">
<title>PT_NAME_0x56150067e760</title>
<ellipse fill="none" stroke="black" cx="915.23" cy="-611" rx="139.07" ry="18"/>
<text text-anchor="middle" x="915.23" y="-606.33" font-family="Times,serif" font-size="14.00">PT_NAME [ dba.olympic ]</text>
</g>
<!-- PT_SPEC_0x56150067cbb8&#45;&gt;PT_NAME_0x56150067e760 -->
<g id="edge10" class="edge">
<title>PT_SPEC_0x56150067cbb8&#45;&gt;PT_NAME_0x56150067e760</title>
<path fill="none" stroke="black" d="M656.28,-536.19C681.74,-539.03 712.79,-545.38 740.16,-553 756.55,-557.56 759.76,-561.47 776.16,-566 808.95,-575.07 846.94,-582.26 874.76,-589.84"/>
<polygon fill="black" stroke="black" points="873.6,-593.15 884.18,-592.57 875.56,-586.43 873.6,-593.15"/>
</g>
<!-- PT_SPEC_0x56150067cbb8&#45;&gt;PT_NAME_0x56150067e760 -->
<g id="edge35" class="edge">
<title>PT_SPEC_0x56150067cbb8&#45;&gt;PT_NAME_0x56150067e760</title>
<path fill="none" stroke="black" d="M655.31,-552.23C680.95,-556.86 712.44,-563.28 740.16,-571 756.55,-575.56 759.76,-579.47 776.16,-584 789.53,-587.7 803.77,-591.09 817.83,-594.12"/>
<polygon fill="black" stroke="black" points="817.06,-597.53 827.57,-596.16 818.5,-590.68 817.06,-597.53"/>
</g>
<!-- PT_SPEC_0x56150067cbb8&#45;&gt;PT_NAME_0x56150067e760 -->
<g id="edge75" class="edge">
<title>PT_SPEC_0x56150067cbb8&#45;&gt;PT_NAME_0x56150067e760</title>
<path fill="none" stroke="black" d="M628.46,-560.63C655.7,-570.04 701.59,-578.26 740.16,-589 753.86,-592.82 758.35,-596.17 774.26,-601.21"/>
<polygon fill="black" stroke="black" points="773.07,-604.51 783.65,-603.97 775.04,-597.79 773.07,-604.51"/>
</g>
<!-- PT_DATA_TYPE_0x56150067d4f0 -->
<g id="node21" class="node">
<title>PT_DATA_TYPE_0x56150067d4f0</title>
<ellipse fill="none" stroke="black" cx="1217.26" cy="-476" rx="87.51" ry="18"/>
<text text-anchor="middle" x="1217.26" y="-471.32" font-family="Times,serif" font-size="14.00">PT_DATA_TYPE</text>
</g>
<!-- PT_NAME_0x56150067d318&#45;&gt;PT_DATA_TYPE_0x56150067d4f0 -->
<g id="edge33" class="edge">
<title>PT_NAME_0x56150067d318&#45;&gt;PT_DATA_TYPE_0x56150067d4f0</title>
<path fill="none" stroke="black" d="M1046.52,-454.03C1077.79,-456.68 1110.23,-459.83 1138.27,-462.98"/>
<polygon fill="black" stroke="black" points="1137.75,-466.44 1148.09,-464.11 1138.55,-459.49 1137.75,-466.44"/>
</g>
<!-- PT_NAME_0x56150067d318&#45;&gt;PT_DATA_TYPE_0x56150067d4f0 -->
<g id="edge73" class="edge">
<title>PT_NAME_0x56150067d318&#45;&gt;PT_DATA_TYPE_0x56150067d4f0</title>
<path fill="none" stroke="black" d="M1003.82,-463.08C1039.71,-466.98 1081.41,-470.79 1118.32,-473.56"/>
<polygon fill="black" stroke="black" points="1117.86,-477.04 1128.09,-474.27 1118.37,-470.06 1117.86,-477.04"/>
</g>
<!-- PT_NAME_0x56150067c280 -->
<g id="node22" class="node">
<title>PT_NAME_0x56150067c280</title>
<ellipse fill="none" stroke="black" cx="1217.26" cy="-422" rx="126.97" ry="18"/>
<text text-anchor="middle" x="1217.26" y="-417.32" font-family="Times,serif" font-size="14.00">PT_NAME [ host_year ]</text>
</g>
<!-- PT_NAME_0x56150067d318&#45;&gt;PT_NAME_0x56150067c280 -->
<g id="edge34" class="edge">
<title>PT_NAME_0x56150067d318&#45;&gt;PT_NAME_0x56150067c280</title>
<path fill="none" stroke="black" d="M1003.82,-434.92C1028.41,-432.25 1055.73,-429.62 1082.36,-427.33"/>
<polygon fill="black" stroke="black" points="1082.55,-430.83 1092.22,-426.51 1081.96,-423.86 1082.55,-430.83"/>
</g>
<!-- PT_NAME_0x56150067d318&#45;&gt;PT_NAME_0x56150067c280 -->
<g id="edge74" class="edge">
<title>PT_NAME_0x56150067d318&#45;&gt;PT_NAME_0x56150067c280</title>
<path fill="none" stroke="black" d="M1046.52,-443.97C1071.39,-441.87 1097,-439.44 1120.54,-436.95"/>
<polygon fill="black" stroke="black" points="1120.85,-440.44 1130.42,-435.89 1120.1,-433.48 1120.85,-440.44"/>
</g>
<!-- PT_NAME_0x56150067d140 -->
<g id="node13" class="node">
<title>PT_NAME_0x56150067d140</title>
<ellipse fill="none" stroke="black" cx="915.23" cy="-314" rx="126.97" ry="18"/>
<text text-anchor="middle" x="915.23" y="-309.32" font-family="Times,serif" font-size="14.00">PT_NAME [ host_year ]</text>
</g>
<!-- PT_EXPR_0x56150067da78&#45;&gt;PT_NAME_0x56150067d140 -->
<g id="edge12" class="edge">
<title>PT_EXPR_0x56150067da78&#45;&gt;PT_NAME_0x56150067d140</title>
<path fill="none" stroke="black" d="M629.27,-311.45C679.01,-295.96 792.71,-288.95 860.49,-295.39"/>
<polygon fill="black" stroke="black" points="859.94,-298.85 870.27,-296.47 860.71,-291.89 859.94,-298.85"/>
</g>
<!-- PT_EXPR_0x56150067da78&#45;&gt;PT_NAME_0x56150067d140 -->
<g id="edge18" class="edge">
<title>PT_EXPR_0x56150067da78&#45;&gt;PT_NAME_0x56150067d140</title>
<path fill="none" stroke="black" d="M648.41,-316.28C684.97,-311.52 739.01,-307.89 788.83,-306.39"/>
<polygon fill="black" stroke="black" points="788.64,-309.9 798.54,-306.13 788.45,-302.9 788.64,-309.9"/>
</g>
<!-- PT_EXPR_0x56150067da78&#45;&gt;PT_NAME_0x56150067d140 -->
<g id="edge40" class="edge">
<title>PT_EXPR_0x56150067da78&#45;&gt;PT_NAME_0x56150067d140</title>
<path fill="none" stroke="black" d="M661.13,-325.45C695.06,-323.91 739.77,-321.89 782.15,-319.97"/>
<polygon fill="black" stroke="black" points="782.1,-323.48 791.93,-319.53 781.79,-316.49 782.1,-323.48"/>
</g>
<!-- PT_EXPR_0x56150067da78&#45;&gt;PT_NAME_0x56150067d140 -->
<g id="edge50" class="edge">
<title>PT_EXPR_0x56150067da78&#45;&gt;PT_NAME_0x56150067d140</title>
<path fill="none" stroke="black" d="M655.83,-336.02C702.98,-337.36 773.87,-334.77 829.48,-330.02"/>
<polygon fill="black" stroke="black" points="829.59,-333.53 839.24,-329.15 828.97,-326.55 829.59,-333.53"/>
</g>
<!-- PT_EXPR_0x56150067da78&#45;&gt;PT_NAME_0x56150067d140 -->
<g id="edge81" class="edge">
<title>PT_EXPR_0x56150067da78&#45;&gt;PT_NAME_0x56150067d140</title>
<path fill="none" stroke="black" d="M635.25,-343.53C691.53,-353.76 811.61,-348.97 874.28,-334.64"/>
<polygon fill="black" stroke="black" points="874.99,-338.07 883.82,-332.22 873.27,-331.28 874.99,-338.07"/>
</g>
<!-- PT_NAME_0x56150067d6c8 -->
<g id="node14" class="node">
<title>PT_NAME_0x56150067d6c8</title>
<ellipse fill="none" stroke="black" cx="915.23" cy="-368" rx="126.97" ry="18"/>
<text text-anchor="middle" x="915.23" y="-363.32" font-family="Times,serif" font-size="14.00">PT_NAME [ host_year ]</text>
</g>
<!-- PT_EXPR_0x56150067da78&#45;&gt;PT_NAME_0x56150067d6c8 -->
<g id="edge13" class="edge">
<title>PT_EXPR_0x56150067da78&#45;&gt;PT_NAME_0x56150067d6c8</title>
<path fill="none" stroke="black" d="M642.98,-314.43C703.94,-310.72 822.12,-326.28 880.26,-345.95"/>
<polygon fill="black" stroke="black" points="879.04,-349.23 889.63,-349.41 881.46,-342.66 879.04,-349.23"/>
</g>
<!-- PT_EXPR_0x56150067da78&#45;&gt;PT_NAME_0x56150067d6c8 -->
<g id="edge19" class="edge">
<title>PT_EXPR_0x56150067da78&#45;&gt;PT_NAME_0x56150067d6c8</title>
<path fill="none" stroke="black" d="M660.41,-324.54C714.39,-327.87 796.1,-338.29 852.15,-348.91"/>
<polygon fill="black" stroke="black" points="851.37,-352.33 861.86,-350.82 852.72,-345.46 851.37,-352.33"/>
</g>
<!-- PT_EXPR_0x56150067da78&#45;&gt;PT_NAME_0x56150067d6c8 -->
<g id="edge41" class="edge">
<title>PT_EXPR_0x56150067da78&#45;&gt;PT_NAME_0x56150067d6c8</title>
<path fill="none" stroke="black" d="M657.58,-334.83C698.83,-340.16 757.47,-347.74 808.29,-354.31"/>
<polygon fill="black" stroke="black" points="807.81,-357.78 818.17,-355.59 808.7,-350.83 807.81,-357.78"/>
</g>
<!-- PT_EXPR_0x56150067da78&#45;&gt;PT_NAME_0x56150067d6c8 -->
<g id="edge51" class="edge">
<title>PT_EXPR_0x56150067da78&#45;&gt;PT_NAME_0x56150067d6c8</title>
<path fill="none" stroke="black" d="M641.75,-341.92C675.76,-349.64 728.31,-357.86 778.22,-363.83"/>
<polygon fill="black" stroke="black" points="777.65,-367.29 787.99,-364.98 778.46,-360.34 777.65,-367.29"/>
</g>
<!-- PT_EXPR_0x56150067da78&#45;&gt;PT_NAME_0x56150067d6c8 -->
<g id="edge82" class="edge">
<title>PT_EXPR_0x56150067da78&#45;&gt;PT_NAME_0x56150067d6c8</title>
<path fill="none" stroke="black" d="M625.51,-345.07C663.83,-361.46 747.89,-375.99 815.47,-380.6"/>
<polygon fill="black" stroke="black" points="814.89,-384.07 825.08,-381.19 815.31,-377.08 814.89,-384.07"/>
</g>
<!-- PT_EXPR_0x56150067e3b0&#45;&gt;PT_EXPR_0x56150067da78 -->
<g id="edge17" class="edge">
<title>PT_EXPR_0x56150067e3b0&#45;&gt;PT_EXPR_0x56150067da78</title>
<path fill="none" stroke="black" d="M358.83,-267.73C419.13,-272.31 515.44,-290.56 567.15,-307.83"/>
<polygon fill="black" stroke="black" points="565.76,-311.05 576.36,-311.11 568.11,-304.46 565.76,-311.05"/>
</g>
<!-- PT_EXPR_0x56150067e3b0&#45;&gt;PT_EXPR_0x56150067da78 -->
<g id="edge39" class="edge">
<title>PT_EXPR_0x56150067e3b0&#45;&gt;PT_EXPR_0x56150067da78</title>
<path fill="none" stroke="black" d="M360.21,-278.59C414.43,-286.58 496.76,-301.55 550.16,-313.16"/>
<polygon fill="black" stroke="black" points="549.09,-316.51 559.61,-315.26 550.6,-309.68 549.09,-316.51"/>
</g>
<!-- PT_EXPR_0x56150067e3b0&#45;&gt;PT_EXPR_0x56150067da78 -->
<g id="edge49" class="edge">
<title>PT_EXPR_0x56150067e3b0&#45;&gt;PT_EXPR_0x56150067da78</title>
<path fill="none" stroke="black" d="M346.98,-286.42C396.14,-297.54 478.5,-312.78 536.44,-321.69"/>
<polygon fill="black" stroke="black" points="535.78,-325.13 546.19,-323.16 536.83,-318.21 535.78,-325.13"/>
</g>
<!-- PT_EXPR_0x56150067e3b0&#45;&gt;PT_EXPR_0x56150067da78 -->
<g id="edge80" class="edge">
<title>PT_EXPR_0x56150067e3b0&#45;&gt;PT_EXPR_0x56150067da78</title>
<path fill="none" stroke="black" d="M330.42,-290.45C375.8,-307.7 472.81,-327.04 537.92,-333.29"/>
<polygon fill="black" stroke="black" points="537.51,-336.77 547.78,-334.14 538.12,-329.8 537.51,-336.77"/>
</g>
<!-- PT_NAME_0x56150067de28 -->
<g id="node16" class="node">
<title>PT_NAME_0x56150067de28</title>
<ellipse fill="none" stroke="black" cx="603.72" cy="-274" rx="126.97" ry="18"/>
<text text-anchor="middle" x="603.72" y="-269.32" font-family="Times,serif" font-size="14.00">PT_NAME [ host_year ]</text>
</g>
<!-- PT_EXPR_0x56150067e3b0&#45;&gt;PT_NAME_0x56150067de28 -->
<g id="edge15" class="edge">
<title>PT_EXPR_0x56150067e3b0&#45;&gt;PT_NAME_0x56150067de28</title>
<path fill="none" stroke="black" d="M331.97,-257.75C383.24,-244.74 496.06,-243.54 558.67,-254.15"/>
<polygon fill="black" stroke="black" points="557.79,-257.54 568.27,-255.98 559.1,-250.67 557.79,-257.54"/>
</g>
<!-- PT_EXPR_0x56150067e3b0&#45;&gt;PT_NAME_0x56150067de28 -->
<g id="edge37" class="edge">
<title>PT_EXPR_0x56150067e3b0&#45;&gt;PT_NAME_0x56150067de28</title>
<path fill="none" stroke="black" d="M352.44,-263.82C391.8,-260.69 449.36,-259.77 499.35,-261.07"/>
<polygon fill="black" stroke="black" points="498.94,-264.56 509.04,-261.36 499.15,-257.57 498.94,-264.56"/>
</g>
<!-- PT_EXPR_0x56150067e3b0&#45;&gt;PT_NAME_0x56150067de28 -->
<g id="edge46" class="edge">
<title>PT_EXPR_0x56150067e3b0&#45;&gt;PT_NAME_0x56150067de28</title>
<path fill="none" stroke="black" d="M362.31,-274C391.65,-274 428.82,-274 465.1,-274"/>
<polygon fill="black" stroke="black" points="464.81,-277.5 474.81,-274 464.81,-270.5 464.81,-277.5"/>
</g>
<!-- PT_EXPR_0x56150067e3b0&#45;&gt;PT_NAME_0x56150067de28 -->
<g id="edge55" class="edge">
<title>PT_EXPR_0x56150067e3b0&#45;&gt;PT_NAME_0x56150067de28</title>
<path fill="none" stroke="black" d="M352.44,-284.18C391.8,-287.31 449.36,-288.23 499.35,-286.93"/>
<polygon fill="black" stroke="black" points="499.15,-290.43 509.04,-286.64 498.94,-283.44 499.15,-290.43"/>
</g>
<!-- PT_EXPR_0x56150067e3b0&#45;&gt;PT_NAME_0x56150067de28 -->
<g id="edge77" class="edge">
<title>PT_EXPR_0x56150067e3b0&#45;&gt;PT_NAME_0x56150067de28</title>
<path fill="none" stroke="black" d="M331.97,-290.25C383.24,-303.26 496.06,-304.46 558.67,-293.85"/>
<polygon fill="black" stroke="black" points="559.1,-297.33 568.27,-292.02 557.79,-290.46 559.1,-297.33"/>
</g>
<!-- PT_EXPR_0x56150067e3b0&#45;&gt;PT_VALUE_0x56150067e1d8 -->
<g id="edge16" class="edge">
<title>PT_EXPR_0x56150067e3b0&#45;&gt;PT_VALUE_0x56150067e1d8</title>
<path fill="none" stroke="black" d="M334.87,-258.31C361.25,-247.96 400.39,-233.7 431.28,-215 449.35,-204.06 447.73,-191.96 467.28,-184 597.52,-130.96 766.85,-138.89 855,-151.29"/>
<polygon fill="black" stroke="black" points="854.47,-154.75 864.88,-152.76 855.5,-147.83 854.47,-154.75"/>
</g>
<!-- PT_EXPR_0x56150067e3b0&#45;&gt;PT_VALUE_0x56150067e1d8 -->
<g id="edge38" class="edge">
<title>PT_EXPR_0x56150067e3b0&#45;&gt;PT_VALUE_0x56150067e1d8</title>
<path fill="none" stroke="black" d="M356.8,-266.14C380.37,-258.53 408.14,-247.01 431.28,-233 449.35,-222.06 447.73,-209.96 467.28,-202 590.54,-151.8 748.8,-156.22 840.14,-161.96"/>
<polygon fill="black" stroke="black" points="839.77,-165.45 849.97,-162.6 840.22,-158.46 839.77,-165.45"/>
</g>
<!-- PT_EXPR_0x56150067bcf8 -->
<g id="node25" class="node">
<title>PT_EXPR_0x56150067bcf8</title>
<ellipse fill="none" stroke="black" cx="603.72" cy="-220" rx="57.52" ry="18"/>
<text text-anchor="middle" x="603.72" y="-215.32" font-family="Times,serif" font-size="14.00">PT_EXPR</text>
</g>
<!-- PT_EXPR_0x56150067e3b0&#45;&gt;PT_EXPR_0x56150067bcf8 -->
<g id="edge47" class="edge">
<title>PT_EXPR_0x56150067e3b0&#45;&gt;PT_EXPR_0x56150067bcf8</title>
<path fill="none" stroke="black" d="M338.28,-259.15C385.48,-245.48 473.38,-228.63 534.84,-220.78"/>
<polygon fill="black" stroke="black" points="534.98,-224.29 544.49,-219.61 534.14,-217.34 534.98,-224.29"/>
</g>
<!-- PT_EXPR_0x56150067e3b0&#45;&gt;PT_EXPR_0x56150067bcf8 -->
<g id="edge56" class="edge">
<title>PT_EXPR_0x56150067e3b0&#45;&gt;PT_EXPR_0x56150067bcf8</title>
<path fill="none" stroke="black" d="M354.76,-265.02C406.22,-255.68 486.86,-241.04 542.12,-231"/>
<polygon fill="black" stroke="black" points="542.46,-234.5 551.67,-229.27 541.21,-227.61 542.46,-234.5"/>
</g>
<!-- PT_EXPR_0x56150067e3b0&#45;&gt;PT_EXPR_0x56150067bcf8 -->
<g id="edge78" class="edge">
<title>PT_EXPR_0x56150067e3b0&#45;&gt;PT_EXPR_0x56150067bcf8</title>
<path fill="none" stroke="black" d="M362.31,-274.55C419.66,-267.91 506.88,-251.74 558.99,-237.84"/>
<polygon fill="black" stroke="black" points="559.71,-241.27 568.41,-235.22 557.84,-234.52 559.71,-241.27"/>
</g>
<!-- PT_NAME_0x56150067c0a8 -->
<g id="node19" class="node">
<title>PT_NAME_0x56150067c0a8</title>
<ellipse fill="none" stroke="black" cx="603.72" cy="-72" rx="136.44" ry="18"/>
<text text-anchor="middle" x="603.72" y="-67.33" font-family="Times,serif" font-size="14.00">PT_NAME [ host_nation ]</text>
</g>
<!-- PT_NAME_0x56150067bb20&#45;&gt;PT_NAME_0x56150067c0a8 -->
<g id="edge22" class="edge">
<title>PT_NAME_0x56150067bb20&#45;&gt;PT_NAME_0x56150067c0a8</title>
<path fill="none" stroke="black" d="M358.5,-147.31C381.63,-141.62 408.58,-134.1 431.28,-123 449.49,-114.09 449,-103.75 467.28,-95 473.22,-92.16 479.42,-89.56 485.77,-87.2"/>
<polygon fill="black" stroke="black" points="486.85,-90.53 495.14,-83.93 484.54,-83.92 486.85,-90.53"/>
</g>
<!-- PT_NAME_0x56150067bb20&#45;&gt;PT_NAME_0x56150067c0a8 -->
<g id="edge62" class="edge">
<title>PT_NAME_0x56150067bb20&#45;&gt;PT_NAME_0x56150067c0a8</title>
<path fill="none" stroke="black" d="M403.05,-152.44C412.79,-149.17 422.37,-145.36 431.28,-141 449.49,-132.09 449,-121.75 467.28,-113 487.51,-103.32 510.88,-96.45 532.44,-91.2"/>
<polygon fill="black" stroke="black" points="533.12,-94.63 542.06,-88.94 531.52,-87.82 533.12,-94.63"/>
</g>
<!-- PT_DATA_TYPE_0x56150067b948 -->
<g id="node20" class="node">
<title>PT_DATA_TYPE_0x56150067b948</title>
<ellipse fill="none" stroke="black" cx="915.23" cy="-72" rx="87.51" ry="18"/>
<text text-anchor="middle" x="915.23" y="-67.33" font-family="Times,serif" font-size="14.00">PT_DATA_TYPE</text>
</g>
<!-- PT_NAME_0x56150067c0a8&#45;&gt;PT_DATA_TYPE_0x56150067b948 -->
<g id="edge23" class="edge">
<title>PT_NAME_0x56150067c0a8&#45;&gt;PT_DATA_TYPE_0x56150067b948</title>
<path fill="none" stroke="black" d="M731.5,-65.35C761.44,-65.14 792.81,-65.27 820.95,-65.75"/>
<polygon fill="black" stroke="black" points="820.81,-69.25 830.87,-65.94 820.94,-62.25 820.81,-69.25"/>
</g>
<!-- PT_NAME_0x56150067c0a8&#45;&gt;PT_DATA_TYPE_0x56150067b948 -->
<g id="edge63" class="edge">
<title>PT_NAME_0x56150067c0a8&#45;&gt;PT_DATA_TYPE_0x56150067b948</title>
<path fill="none" stroke="black" d="M731.5,-78.65C761.44,-78.86 792.81,-78.73 820.95,-78.25"/>
<polygon fill="black" stroke="black" points="820.94,-81.75 830.87,-78.06 820.81,-74.75 820.94,-81.75"/>
</g>
<!-- PT_NODE_POINTER_0x56150067bcf8&#45;&gt;PT_NODE_POINTER_0x56150067cf68 -->
<g id="edge44" class="edge">
<title>PT_NODE_POINTER_0x56150067bcf8&#45;&gt;PT_NODE_POINTER_0x56150067cf68</title>
<path fill="none" stroke="black" d="M380.75,-58.3C421.98,-50.82 473.23,-41.51 516.09,-33.73"/>
<polygon fill="black" stroke="black" points="516.67,-37.18 525.88,-31.95 515.42,-30.29 516.67,-37.18"/>
</g>
<!-- PT_EXPR_0x56150067bcf8&#45;&gt;PT_VALUE_0x56150067e1d8 -->
<g id="edge48" class="edge">
<title>PT_EXPR_0x56150067bcf8&#45;&gt;PT_VALUE_0x56150067e1d8</title>
<path fill="none" stroke="black" d="M646.79,-207.72C697.04,-196.59 781.94,-181.17 842.6,-171.93"/>
<polygon fill="black" stroke="black" points="842.76,-175.45 852.13,-170.51 841.72,-168.52 842.76,-175.45"/>
</g>
<!-- PT_EXPR_0x56150067bcf8&#45;&gt;PT_VALUE_0x56150067e1d8 -->
<g id="edge57" class="edge">
<title>PT_EXPR_0x56150067bcf8&#45;&gt;PT_VALUE_0x56150067e1d8</title>
<path fill="none" stroke="black" d="M659.7,-215.53C715.6,-207.52 801.79,-192.21 858.11,-180.32"/>
<polygon fill="black" stroke="black" points="858.78,-183.75 867.82,-178.23 857.31,-176.91 858.78,-183.75"/>
</g>
<!-- PT_HOST_VAR_0x56150067bed0 -->
<g id="node27" class="node">
<title>PT_HOST_VAR_0x56150067bed0</title>
<ellipse fill="none" stroke="black" cx="915.23" cy="-220" rx="83.83" ry="18"/>
<text text-anchor="middle" x="915.23" y="-215.32" font-family="Times,serif" font-size="14.00">PT_HOST_VAR</text>
</g>
<!-- PT_EXPR_0x56150067bcf8&#45;&gt;PT_HOST_VAR_0x56150067bed0 -->
<g id="edge79" class="edge">
<title>PT_EXPR_0x56150067bcf8&#45;&gt;PT_HOST_VAR_0x56150067bed0</title>
<path fill="none" stroke="black" d="M661.49,-220C705.71,-220 768.07,-220 819.78,-220"/>
<polygon fill="black" stroke="black" points="819.47,-223.5 829.47,-220 819.47,-216.5 819.47,-223.5"/>
</g>
<!-- PT_NODE_POINTER_0x56150067bed0&#45;&gt;PT_NODE_POINTER_0x56150067cf68 -->
<g id="edge53" class="edge">
<title>PT_NODE_POINTER_0x56150067bed0&#45;&gt;PT_NODE_POINTER_0x56150067cf68</title>
<path fill="none" stroke="black" d="M410.59,-11.51C435.01,-11.21 461.13,-11.17 486.01,-11.39"/>
<polygon fill="black" stroke="black" points="485.79,-14.89 495.83,-11.5 485.86,-7.89 485.79,-14.89"/>
</g>
<!-- PT_NODE_POINTER_0x56150067bed0&#45;&gt;PT_NODE_POINTER_0x56150067cf68 -->
<g id="edge59" class="edge">
<title>PT_NODE_POINTER_0x56150067bed0&#45;&gt;PT_NODE_POINTER_0x56150067cf68</title>
<path fill="none" stroke="black" d="M410.59,-24.49C435.01,-24.79 461.13,-24.83 486.01,-24.61"/>
<polygon fill="black" stroke="black" points="485.86,-28.11 495.83,-24.5 485.79,-21.11 485.86,-28.11"/>
</g>
</g>
</svg>
