<?xml version="1.0" encoding="UTF-8" standalone="no"?>
<!DOCTYPE svg PUBLIC "-//W3C//DTD SVG 1.1//EN"
 "http://www.w3.org/Graphics/SVG/1.1/DTD/svg11.dtd">
<!-- Generated by graphviz version 10.0.1 (0)
 -->
<!-- Pages: 1 -->
<svg width="1352pt" height="449pt"
 viewBox="0.00 0.00 1352.23 449.00" xmlns="http://www.w3.org/2000/svg" xmlns:xlink="http://www.w3.org/1999/xlink">
<g id="graph0" class="graph" transform="scale(1 1) rotate(0) translate(4 445)">
<polygon fill="white" stroke="none" points="-4,4 -4,-445 1348.23,-445 1348.23,4 -4,4"/>
<!-- PT_SELECT_0x56150067b770 -->
<g id="node1" class="node">
<title>PT_SELECT_0x56150067b770</title>
<ellipse fill="none" stroke="black" cx="70.67" cy="-261" rx="70.67" ry="18"/>
<text text-anchor="middle" x="70.67" y="-256.32" font-family="Times,serif" font-size="14.00">PT_SELECT</text>
</g>
<!-- PT_NAME_0x56150067bb20 -->
<g id="node2" class="node">
<title>PT_NAME_0x56150067bb20</title>
<ellipse fill="none" stroke="black" cx="304.32" cy="-369" rx="126.97" ry="18"/>
<text text-anchor="middle" x="304.32" y="-364.32" font-family="Times,serif" font-size="14.00">PT_NAME [ host_year ]</text>
</g>
<!-- PT_SELECT_0x56150067b770&#45;&gt;PT_NAME_0x56150067bb20 -->
<g id="edge1" class="edge">
<title>PT_SELECT_0x56150067b770&#45;&gt;PT_NAME_0x56150067bb20</title>
<path fill="none" stroke="black" d="M105.85,-276.94C145.35,-295.35 210.62,-325.78 255.23,-346.58"/>
<polygon fill="black" stroke="black" points="253.62,-349.69 264.16,-350.74 256.57,-343.35 253.62,-349.69"/>
</g>
<!-- PT_SPEC_0x56150067c630 -->
<g id="node5" class="node">
<title>PT_SPEC_0x56150067c630</title>
<ellipse fill="none" stroke="black" cx="304.32" cy="-261" rx="57.52" ry="18"/>
<text text-anchor="middle" x="304.32" y="-256.32" font-family="Times,serif" font-size="14.00">PT_SPEC</text>
</g>
<!-- PT_SELECT_0x56150067b770&#45;&gt;PT_SPEC_0x56150067c630 -->
<g id="edge4" class="edge">
<title>PT_SELECT_0x56150067b770&#45;&gt;PT_SPEC_0x56150067c630</title>
<path fill="none" stroke="black" d="M141.8,-261C171.43,-261 205.8,-261 235.2,-261"/>
<polygon fill="black" stroke="black" points="235.11,-264.5 245.11,-261 235.11,-257.5 235.11,-264.5"/>
</g>
<!-- PT_EXPR_0x56150067e3b0 -->
<g id="node20" class="node">
<title>PT_EXPR_0x56150067e3b0</title>
<ellipse fill="none" stroke="black" cx="304.32" cy="-99" rx="57.52" ry="18"/>
<text text-anchor="middle" x="304.32" y="-94.33" font-family="Times,serif" font-size="14.00">PT_EXPR</text>
</g>
<!-- PT_SELECT_0x56150067b770&#45;&gt;PT_EXPR_0x56150067e3b0 -->
<g id="edge19" class="edge">
<title>PT_SELECT_0x56150067b770&#45;&gt;PT_EXPR_0x56150067e3b0</title>
<path fill="none" stroke="black" d="M96.03,-243.97C137.86,-214.71 223.42,-154.87 270.48,-121.96"/>
<polygon fill="black" stroke="black" points="272.21,-125.03 278.4,-116.43 268.19,-119.29 272.21,-125.03"/>
</g>
<!-- PT_NAME_0x56150067c0a8 -->
<g id="node3" class="node">
<title>PT_NAME_0x56150067c0a8</title>
<ellipse fill="none" stroke="black" cx="603.72" cy="-423" rx="136.44" ry="18"/>
<text text-anchor="middle" x="603.72" y="-418.32" font-family="Times,serif" font-size="14.00">PT_NAME [ host_nation ]</text>
</g>
<!-- PT_NAME_0x56150067bb20&#45;&gt;PT_NAME_0x56150067c0a8 -->
<g id="edge2" class="edge">
<title>PT_NAME_0x56150067bb20&#45;&gt;PT_NAME_0x56150067c0a8</title>
<path fill="none" stroke="black" d="M384.23,-383.33C422.93,-390.36 469.78,-398.86 510.15,-406.19"/>
<polygon fill="black" stroke="black" points="509.41,-409.61 519.87,-407.96 510.66,-402.73 509.41,-409.61"/>
</g>
<!-- PT_DATA_TYPE_0x56150067b948 -->
<g id="node4" class="node">
<title>PT_DATA_TYPE_0x56150067b948</title>
<ellipse fill="none" stroke="black" cx="915.23" cy="-423" rx="87.51" ry="18"/>
<text text-anchor="middle" x="915.23" y="-418.32" font-family="Times,serif" font-size="14.00">PT_DATA_TYPE</text>
</g>
<!-- PT_NAME_0x56150067c0a8&#45;&gt;PT_DATA_TYPE_0x56150067b948 -->
<g id="edge3" class="edge">
<title>PT_NAME_0x56150067c0a8&#45;&gt;PT_DATA_TYPE_0x56150067b948</title>
<path fill="none" stroke="black" d="M740.48,-423C766,-423 792.21,-423 816.3,-423"/>
<polygon fill="black" stroke="black" points="816.06,-426.5 826.06,-423 816.06,-419.5 816.06,-426.5"/>
</g>
<!-- PT_NAME_0x56150067c458 -->
<g id="node6" class="node">
<title>PT_NAME_0x56150067c458</title>
<ellipse fill="none" stroke="black" cx="603.72" cy="-369" rx="135.39" ry="18"/>
<text text-anchor="middle" x="603.72" y="-364.32" font-family="Times,serif" font-size="14.00">PT_NAME [ dba.history ]</text>
</g>
<!-- PT_SPEC_0x56150067c630&#45;&gt;PT_NAME_0x56150067c458 -->
<g id="edge5" class="edge">
<title>PT_SPEC_0x56150067c630&#45;&gt;PT_NAME_0x56150067c458</title>
<path fill="none" stroke="black" d="M332.14,-277.23C363.5,-295.52 417.47,-324.92 467.28,-342 478.95,-346 491.39,-349.48 503.83,-352.49"/>
<polygon fill="black" stroke="black" points="502.74,-355.83 513.27,-354.68 504.32,-349.01 502.74,-355.83"/>
</g>
<!-- PT_NAME_0x56150067c808 -->
<g id="node7" class="node">
<title>PT_NAME_0x56150067c808</title>
<ellipse fill="none" stroke="black" cx="603.72" cy="-315" rx="84.88" ry="18"/>
<text text-anchor="middle" x="603.72" y="-310.32" font-family="Times,serif" font-size="14.00">PT_NAME [ h ]</text>
</g>
<!-- PT_SPEC_0x56150067c630&#45;&gt;PT_NAME_0x56150067c808 -->
<g id="edge6" class="edge">
<title>PT_SPEC_0x56150067c630&#45;&gt;PT_NAME_0x56150067c808</title>
<path fill="none" stroke="black" d="M354.76,-269.98C401.64,-278.49 472.74,-291.4 526.8,-301.21"/>
<polygon fill="black" stroke="black" points="526.11,-304.65 536.57,-302.99 527.36,-297.76 526.11,-304.65"/>
</g>
<!-- PT_NAME_0x56150067dc50 -->
<g id="node8" class="node">
<title>PT_NAME_0x56150067dc50</title>
<ellipse fill="none" stroke="black" cx="603.72" cy="-261" rx="126.97" ry="18"/>
<text text-anchor="middle" x="603.72" y="-256.32" font-family="Times,serif" font-size="14.00">PT_NAME [ host_year ]</text>
</g>
<!-- PT_SPEC_0x56150067c630&#45;&gt;PT_NAME_0x56150067dc50 -->
<g id="edge7" class="edge">
<title>PT_SPEC_0x56150067c630&#45;&gt;PT_NAME_0x56150067dc50</title>
<path fill="none" stroke="black" d="M362.31,-261C391.65,-261 428.82,-261 465.1,-261"/>
<polygon fill="black" stroke="black" points="464.81,-264.5 474.81,-261 464.81,-257.5 464.81,-264.5"/>
</g>
<!-- PT_NAME_0x56150067e588 -->
<g id="node9" class="node">
<title>PT_NAME_0x56150067e588</title>
<ellipse fill="none" stroke="black" cx="603.72" cy="-207" rx="135.39" ry="18"/>
<text text-anchor="middle" x="603.72" y="-202.32" font-family="Times,serif" font-size="14.00">PT_NAME [ dba.history ]</text>
</g>
<!-- PT_SPEC_0x56150067c630&#45;&gt;PT_NAME_0x56150067e588 -->
<g id="edge8" class="edge">
<title>PT_SPEC_0x56150067c630&#45;&gt;PT_NAME_0x56150067e588</title>
<path fill="none" stroke="black" d="M354.76,-252.02C397.08,-244.34 459.13,-233.07 510.58,-223.73"/>
<polygon fill="black" stroke="black" points="511.01,-227.21 520.23,-221.98 509.76,-220.32 511.01,-227.21"/>
</g>
<!-- PT_SPEC_0x56150067cbb8 -->
<g id="node10" class="node">
<title>PT_SPEC_0x56150067cbb8</title>
<ellipse fill="none" stroke="black" cx="603.72" cy="-153" rx="57.52" ry="18"/>
<text text-anchor="middle" x="603.72" y="-148.32" font-family="Times,serif" font-size="14.00">PT_SPEC</text>
</g>
<!-- PT_SPEC_0x56150067c630&#45;&gt;PT_SPEC_0x56150067cbb8 -->
<g id="edge9" class="edge">
<title>PT_SPEC_0x56150067c630&#45;&gt;PT_SPEC_0x56150067cbb8</title>
<path fill="none" stroke="black" d="M332.14,-244.77C363.5,-226.48 417.47,-197.08 467.28,-180 490.28,-172.12 516.31,-166.24 539.36,-162.02"/>
<polygon fill="black" stroke="black" points="539.68,-165.52 548.92,-160.34 538.47,-158.62 539.68,-165.52"/>
</g>
<!-- PT_NAME_0x56150067c9e0 -->
<g id="node11" class="node">
<title>PT_NAME_0x56150067c9e0</title>
<ellipse fill="none" stroke="black" cx="915.23" cy="-261" rx="139.07" ry="18"/>
<text text-anchor="middle" x="915.23" y="-256.32" font-family="Times,serif" font-size="14.00">PT_NAME [ dba.olympic ]</text>
</g>
<!-- PT_SPEC_0x56150067cbb8&#45;&gt;PT_NAME_0x56150067c9e0 -->
<g id="edge10" class="edge">
<title>PT_SPEC_0x56150067cbb8&#45;&gt;PT_NAME_0x56150067c9e0</title>
<path fill="none" stroke="black" d="M661.53,-154.55C687.33,-157.6 717.15,-164.6 740.16,-180 764.13,-196.04 752.16,-218 776.16,-234 782.72,-238.37 789.82,-242.07 797.23,-245.2"/>
<polygon fill="black" stroke="black" points="795.86,-248.43 806.45,-248.71 798.35,-241.88 795.86,-248.43"/>
</g>
<!-- PT_NAME_0x56150067cd90 -->
<g id="node12" class="node">
<title>PT_NAME_0x56150067cd90</title>
<ellipse fill="none" stroke="black" cx="915.23" cy="-207" rx="84.35" ry="18"/>
<text text-anchor="middle" x="915.23" y="-202.32" font-family="Times,serif" font-size="14.00">PT_NAME [ o ]</text>
</g>
<!-- PT_SPEC_0x56150067cbb8&#45;&gt;PT_NAME_0x56150067cd90 -->
<g id="edge11" class="edge">
<title>PT_SPEC_0x56150067cbb8&#45;&gt;PT_NAME_0x56150067cd90</title>
<path fill="none" stroke="black" d="M654.79,-161.74C704.28,-170.37 780.64,-183.69 837.72,-193.65"/>
<polygon fill="black" stroke="black" points="836.92,-197.07 847.38,-195.34 838.13,-190.17 836.92,-197.07"/>
</g>
<!-- PT_NAME_0x56150067d318 -->
<g id="node13" class="node">
<title>PT_NAME_0x56150067d318</title>
<ellipse fill="none" stroke="black" cx="915.23" cy="-153" rx="136.44" ry="18"/>
<text text-anchor="middle" x="915.23" y="-148.32" font-family="Times,serif" font-size="14.00">PT_NAME [ host_nation ]</text>
</g>
<!-- PT_SPEC_0x56150067cbb8&#45;&gt;PT_NAME_0x56150067d318 -->
<g id="edge12" class="edge">
<title>PT_SPEC_0x56150067cbb8&#45;&gt;PT_NAME_0x56150067d318</title>
<path fill="none" stroke="black" d="M661.49,-153C691.43,-153 729.68,-153 767.32,-153"/>
<polygon fill="black" stroke="black" points="766.92,-156.5 776.92,-153 766.92,-149.5 766.92,-156.5"/>
</g>
<!-- PT_NAME_0x56150067e760 -->
<g id="node16" class="node">
<title>PT_NAME_0x56150067e760</title>
<ellipse fill="none" stroke="black" cx="915.23" cy="-99" rx="139.07" ry="18"/>
<text text-anchor="middle" x="915.23" y="-94.33" font-family="Times,serif" font-size="14.00">PT_NAME [ dba.olympic ]</text>
</g>
<!-- PT_SPEC_0x56150067cbb8&#45;&gt;PT_NAME_0x56150067e760 -->
<g id="edge15" class="edge">
<title>PT_SPEC_0x56150067cbb8&#45;&gt;PT_NAME_0x56150067e760</title>
<path fill="none" stroke="black" d="M654.79,-144.26C699.13,-136.53 765.05,-125.03 819.34,-115.55"/>
<polygon fill="black" stroke="black" points="819.65,-119.05 828.9,-113.89 818.44,-112.16 819.65,-119.05"/>
</g>
<!-- PT_EXPR_0x56150067da78 -->
<g id="node17" class="node">
<title>PT_EXPR_0x56150067da78</title>
<ellipse fill="none" stroke="black" cx="915.23" cy="-45" rx="57.52" ry="18"/>
<text text-anchor="middle" x="915.23" y="-40.33" font-family="Times,serif" font-size="14.00">PT_EXPR</text>
</g>
<!-- PT_SPEC_0x56150067cbb8&#45;&gt;PT_EXPR_0x56150067da78 -->
<g id="edge16" class="edge">
<title>PT_SPEC_0x56150067cbb8&#45;&gt;PT_EXPR_0x56150067da78</title>
<path fill="none" stroke="black" d="M661.53,-151.45C687.33,-148.4 717.15,-141.4 740.16,-126 764.13,-109.96 752.16,-88 776.16,-72 796.69,-58.32 822.51,-51.23 846.25,-47.66"/>
<polygon fill="black" stroke="black" points="846.38,-51.17 855.85,-46.41 845.48,-44.23 846.38,-51.17"/>
</g>
<!-- PT_DATA_TYPE_0x56150067d4f0 -->
<g id="node14" class="node">
<title>PT_DATA_TYPE_0x56150067d4f0</title>
<ellipse fill="none" stroke="black" cx="1217.26" cy="-193" rx="87.51" ry="18"/>
<text text-anchor="middle" x="1217.26" y="-188.32" font-family="Times,serif" font-size="14.00">PT_DATA_TYPE</text>
</g>
<!-- PT_NAME_0x56150067d318&#45;&gt;PT_DATA_TYPE_0x56150067d4f0 -->
<g id="edge13" class="edge">
<title>PT_NAME_0x56150067d318&#45;&gt;PT_DATA_TYPE_0x56150067d4f0</title>
<path fill="none" stroke="black" d="M1012.81,-165.88C1051,-170.97 1094.51,-176.77 1131.46,-181.69"/>
<polygon fill="black" stroke="black" points="1130.83,-185.14 1141.2,-182.99 1131.76,-178.2 1130.83,-185.14"/>
</g>
<!-- PT_NAME_0x56150067c280 -->
<g id="node15" class="node">
<title>PT_NAME_0x56150067c280</title>
<ellipse fill="none" stroke="black" cx="1217.26" cy="-139" rx="126.97" ry="18"/>
<text text-anchor="middle" x="1217.26" y="-134.32" font-family="Times,serif" font-size="14.00">PT_NAME [ host_year ]</text>
</g>
<!-- PT_NAME_0x56150067d318&#45;&gt;PT_NAME_0x56150067c280 -->
<g id="edge14" class="edge">
<title>PT_NAME_0x56150067d318&#45;&gt;PT_NAME_0x56150067c280</title>
<path fill="none" stroke="black" d="M1044.34,-147.02C1057.78,-146.4 1071.46,-145.76 1084.93,-145.13"/>
<polygon fill="black" stroke="black" points="1084.86,-148.64 1094.68,-144.67 1084.53,-141.64 1084.86,-148.64"/>
</g>
<!-- PT_NAME_0x56150067d140 -->
<g id="node18" class="node">
<title>PT_NAME_0x56150067d140</title>
<ellipse fill="none" stroke="black" cx="1217.26" cy="-72" rx="126.97" ry="18"/>
<text text-anchor="middle" x="1217.26" y="-67.33" font-family="Times,serif" font-size="14.00">PT_NAME [ host_year ]</text>
</g>
<!-- PT_EXPR_0x56150067da78&#45;&gt;PT_NAME_0x56150067d140 -->
<g id="edge17" class="edge">
<title>PT_EXPR_0x56150067da78&#45;&gt;PT_NAME_0x56150067d140</title>
<path fill="none" stroke="black" d="M970.91,-49.92C1006.28,-53.1 1053.73,-57.37 1097.48,-61.31"/>
<polygon fill="black" stroke="black" points="1097.02,-64.78 1107.3,-62.19 1097.65,-57.81 1097.02,-64.78"/>
</g>
<!-- PT_NAME_0x56150067d6c8 -->
<g id="node19" class="node">
<title>PT_NAME_0x56150067d6c8</title>
<ellipse fill="none" stroke="black" cx="1217.26" cy="-18" rx="126.97" ry="18"/>
<text text-anchor="middle" x="1217.26" y="-13.32" font-family="Times,serif" font-size="14.00">PT_NAME [ host_year ]</text>
</g>
<!-- PT_EXPR_0x56150067da78&#45;&gt;PT_NAME_0x56150067d6c8 -->
<g id="edge18" class="edge">
<title>PT_EXPR_0x56150067da78&#45;&gt;PT_NAME_0x56150067d6c8</title>
<path fill="none" stroke="black" d="M970.91,-40.08C1006.28,-36.9 1053.73,-32.63 1097.48,-28.69"/>
<polygon fill="black" stroke="black" points="1097.65,-32.19 1107.3,-27.81 1097.02,-25.22 1097.65,-32.19"/>
</g>
<!-- PT_NAME_0x56150067de28 -->
<g id="node21" class="node">
<title>PT_NAME_0x56150067de28</title>
<ellipse fill="none" stroke="black" cx="603.72" cy="-99" rx="126.97" ry="18"/>
<text text-anchor="middle" x="603.72" y="-94.33" font-family="Times,serif" font-size="14.00">PT_NAME [ host_year ]</text>
</g>
<!-- PT_EXPR_0x56150067e3b0&#45;&gt;PT_NAME_0x56150067de28 -->
<g id="edge20" class="edge">
<title>PT_EXPR_0x56150067e3b0&#45;&gt;PT_NAME_0x56150067de28</title>
<path fill="none" stroke="black" d="M362.31,-99C391.65,-99 428.82,-99 465.1,-99"/>
<polygon fill="black" stroke="black" points="464.81,-102.5 474.81,-99 464.81,-95.5 464.81,-102.5"/>
</g>
<!-- PT_VALUE_0x56150067e1d8 -->
<g id="node22" class="node">
<title>PT_VALUE_0x56150067e1d8</title>
<ellipse fill="none" stroke="black" cx="603.72" cy="-45" rx="63.83" ry="18"/>
<text text-anchor="middle" x="603.72" y="-40.33" font-family="Times,serif" font-size="14.00">PT_VALUE</text>
</g>
<!-- PT_EXPR_0x56150067e3b0&#45;&gt;PT_VALUE_0x56150067e1d8 -->
<g id="edge21" class="edge">
<title>PT_EXPR_0x56150067e3b0&#45;&gt;PT_VALUE_0x56150067e1d8</title>
<path fill="none" stroke="black" d="M354.76,-90.02C404.98,-80.9 483,-66.74 538.09,-56.73"/>
<polygon fill="black" stroke="black" points="538.43,-60.23 547.65,-55 537.18,-53.34 538.43,-60.23"/>
</g>
</g>
</svg>
